<svg width="149" height="22" viewBox="0 0 149 22" fill="none" xmlns="http://www.w3.org/2000/svg">
<path d="M8.504 19.336C5.8 19.336 3.736 18.584 2.312 17.08C0.904 15.576 0.2 13.44 0.2 10.672C0.2 9.296 0.416 8.072 0.848 7C1.28 5.912 1.872 5 2.624 4.264C3.376 3.512 4.272 2.944 5.312 2.56C6.352 2.176 7.48 1.984 8.696 1.984C9.4 1.984 10.04 2.04 10.616 2.152C11.192 2.248 11.696 2.368 12.128 2.512C12.56 2.64 12.92 2.776 13.208 2.92C13.496 3.064 13.704 3.176 13.832 3.256L12.752 6.28C12.24 6.008 11.64 5.776 10.952 5.584C10.28 5.392 9.512 5.296 8.648 5.296C8.072 5.296 7.504 5.392 6.944 5.584C6.4 5.776 5.912 6.088 5.48 6.52C5.064 6.936 4.728 7.48 4.472 8.152C4.216 8.824 4.088 9.64 4.088 10.6C4.088 11.368 4.168 12.088 4.328 12.76C4.504 13.416 4.776 13.984 5.144 14.464C5.528 14.944 6.024 15.328 6.632 15.616C7.24 15.888 7.976 16.024 8.84 16.024C9.384 16.024 9.872 15.992 10.304 15.928C10.736 15.864 11.12 15.792 11.456 15.712C11.792 15.616 12.088 15.512 12.344 15.4C12.6 15.288 12.832 15.184 13.04 15.088L14.072 18.088C13.544 18.408 12.8 18.696 11.84 18.952C10.88 19.208 9.768 19.336 8.504 19.336ZM23.8505 9.544C23.5305 9.464 23.1545 9.384 22.7225 9.304C22.2905 9.208 21.8265 9.16 21.3305 9.16C21.1065 9.16 20.8345 9.184 20.5145 9.232C20.2105 9.264 19.9785 9.304 19.8185 9.352V19H16.2425V7.048C16.8825 6.824 17.6345 6.616 18.4985 6.424C19.3785 6.216 20.3545 6.112 21.4265 6.112C21.6185 6.112 21.8505 6.128 22.1225 6.16C22.3945 6.176 22.6665 6.208 22.9385 6.256C23.2105 6.288 23.4825 6.336 23.7545 6.4C24.0265 6.448 24.2585 6.512 24.4505 6.592L23.8505 9.544ZM29.9435 19H26.3675V6.376H29.9435V19ZM30.2795 2.728C30.2795 3.384 30.0635 3.904 29.6315 4.288C29.2155 4.656 28.7195 4.84 28.1435 4.84C27.5675 4.84 27.0635 4.656 26.6315 4.288C26.2155 3.904 26.0075 3.384 26.0075 2.728C26.0075 2.072 26.2155 1.56 26.6315 1.192C27.0635 0.807999 27.5675 0.615999 28.1435 0.615999C28.7195 0.615999 29.2155 0.807999 29.6315 1.192C30.0635 1.56 30.2795 2.072 30.2795 2.728ZM40.241 12.304C40.241 11.152 40.089 10.336 39.785 9.856C39.497 9.376 38.993 9.136 38.273 9.136C38.049 9.136 37.817 9.152 37.577 9.184C37.337 9.2 37.105 9.224 36.881 9.256V19H33.305V6.808C33.609 6.728 33.961 6.648 34.361 6.568C34.777 6.472 35.209 6.392 35.657 6.328C36.121 6.248 36.593 6.192 37.073 6.16C37.553 6.112 38.025 6.088 38.489 6.088C39.401 6.088 40.137 6.208 40.697 6.448C41.273 6.672 41.745 6.944 42.113 7.264C42.625 6.896 43.209 6.608 43.865 6.4C44.537 6.192 45.153 6.088 45.713 6.088C46.721 6.088 47.545 6.232 48.185 6.52C48.841 6.792 49.361 7.184 49.745 7.696C50.129 8.208 50.393 8.816 50.537 9.52C50.681 10.224 50.753 11.008 50.753 11.872V19H47.177V12.304C47.177 11.152 47.025 10.336 46.721 9.856C46.433 9.376 45.929 9.136 45.209 9.136C45.017 9.136 44.745 9.184 44.393 9.28C44.057 9.376 43.777 9.496 43.553 9.64C43.665 10.008 43.737 10.4 43.769 10.816C43.801 11.216 43.817 11.648 43.817 12.112V19H40.241V12.304ZM57.5763 19H54.0003V6.376H57.5763V19ZM57.9123 2.728C57.9123 3.384 57.6963 3.904 57.2643 4.288C56.8483 4.656 56.3523 4.84 55.7763 4.84C55.2003 4.84 54.6963 4.656 54.2643 4.288C53.8483 3.904 53.6403 3.384 53.6403 2.728C53.6403 2.072 53.8483 1.56 54.2643 1.192C54.6963 0.807999 55.2003 0.615999 55.7763 0.615999C56.3523 0.615999 56.8483 0.807999 57.2643 1.192C57.6963 1.56 57.9123 2.072 57.9123 2.728ZM60.9378 6.808C61.5458 6.632 62.3298 6.472 63.2898 6.328C64.2498 6.168 65.2578 6.088 66.3138 6.088C67.3858 6.088 68.2738 6.232 68.9778 6.52C69.6978 6.792 70.2658 7.184 70.6818 7.696C71.0978 8.208 71.3938 8.816 71.5698 9.52C71.7458 10.224 71.8338 11.008 71.8338 11.872V19H68.2578V12.304C68.2578 11.152 68.1058 10.336 67.8018 9.856C67.4978 9.376 66.9298 9.136 66.0978 9.136C65.8418 9.136 65.5698 9.152 65.2818 9.184C64.9938 9.2 64.7378 9.224 64.5138 9.256V19H60.9378V6.808ZM79.8946 16.504C80.2466 16.504 80.5826 16.496 80.9026 16.48C81.2226 16.464 81.4786 16.44 81.6706 16.408V13.696C81.5266 13.664 81.3106 13.632 81.0226 13.6C80.7346 13.568 80.4706 13.552 80.2306 13.552C79.8946 13.552 79.5746 13.576 79.2706 13.624C78.9826 13.656 78.7266 13.728 78.5026 13.84C78.2786 13.952 78.1026 14.104 77.9746 14.296C77.8466 14.488 77.7826 14.728 77.7826 15.016C77.7826 15.576 77.9666 15.968 78.3346 16.192C78.7186 16.4 79.2386 16.504 79.8946 16.504ZM79.6066 6.04C80.6626 6.04 81.5426 6.16 82.2466 6.4C82.9506 6.64 83.5106 6.984 83.9266 7.432C84.3586 7.88 84.6626 8.424 84.8386 9.064C85.0146 9.704 85.1026 10.416 85.1026 11.2V18.64C84.5906 18.752 83.8786 18.88 82.9666 19.024C82.0546 19.184 80.9506 19.264 79.6546 19.264C78.8386 19.264 78.0946 19.192 77.4226 19.048C76.7666 18.904 76.1986 18.672 75.7186 18.352C75.2386 18.016 74.8706 17.584 74.6146 17.056C74.3586 16.528 74.2306 15.88 74.2306 15.112C74.2306 14.376 74.3746 13.752 74.6626 13.24C74.9666 12.728 75.3666 12.32 75.8626 12.016C76.3586 11.712 76.9266 11.496 77.5666 11.368C78.2066 11.224 78.8706 11.152 79.5586 11.152C80.0226 11.152 80.4306 11.176 80.7826 11.224C81.1506 11.256 81.4466 11.304 81.6706 11.368V11.032C81.6706 10.424 81.4866 9.936 81.1186 9.568C80.7506 9.2 80.1106 9.016 79.1986 9.016C78.5906 9.016 77.9906 9.064 77.3986 9.16C76.8066 9.24 76.2946 9.36 75.8626 9.52L75.4066 6.64C75.6146 6.576 75.8706 6.512 76.1746 6.448C76.4946 6.368 76.8386 6.304 77.2066 6.256C77.5746 6.192 77.9586 6.144 78.3586 6.112C78.7746 6.064 79.1906 6.04 79.6066 6.04ZM93.3763 19.24C92.3363 19.224 91.4883 19.112 90.8323 18.904C90.1923 18.696 89.6803 18.408 89.2963 18.04C88.9283 17.656 88.6723 17.2 88.5283 16.672C88.4003 16.128 88.3363 15.52 88.3363 14.848V0.951999L91.9123 0.375999V14.128C91.9123 14.448 91.9363 14.736 91.9843 14.992C92.0323 15.248 92.1203 15.464 92.2483 15.64C92.3923 15.816 92.5923 15.96 92.8483 16.072C93.1043 16.184 93.4483 16.256 93.8803 16.288L93.3763 19.24Z" fill="white"/>
<path d="M105.235 14.856C105.235 13.992 105.038 13.32 104.643 12.84C104.259 12.36 103.635 12.12 102.771 12.12C102.59 12.12 102.398 12.1307 102.195 12.152C102.003 12.1627 101.811 12.1947 101.619 12.248V17.032C101.79 17.1493 102.014 17.2613 102.291 17.368C102.579 17.464 102.883 17.512 103.203 17.512C103.907 17.512 104.419 17.272 104.739 16.792C105.07 16.312 105.235 15.6667 105.235 14.856ZM107.219 14.824C107.219 15.464 107.134 16.0507 106.963 16.584C106.803 17.1173 106.569 17.576 106.259 17.96C105.95 18.344 105.561 18.6427 105.091 18.856C104.633 19.0693 104.11 19.176 103.523 19.176C103.129 19.176 102.766 19.128 102.435 19.032C102.105 18.936 101.833 18.8293 101.619 18.712V21.96H99.6832V10.904C100.078 10.7973 100.563 10.696 101.139 10.6C101.715 10.504 102.323 10.456 102.963 10.456C103.625 10.456 104.217 10.5573 104.739 10.76C105.262 10.9627 105.705 11.256 106.067 11.64C106.441 12.0133 106.723 12.472 106.915 13.016C107.118 13.5493 107.219 14.152 107.219 14.824ZM108.75 14.856C108.75 14.12 108.857 13.4747 109.07 12.92C109.294 12.3653 109.588 11.9067 109.95 11.544C110.313 11.1707 110.729 10.8933 111.198 10.712C111.668 10.52 112.148 10.424 112.638 10.424C113.79 10.424 114.686 10.7813 115.326 11.496C115.977 12.2107 116.302 13.2773 116.302 14.696C116.302 14.8027 116.297 14.9253 116.286 15.064C116.286 15.192 116.281 15.3093 116.27 15.416H110.75C110.804 16.088 111.038 16.6107 111.454 16.984C111.881 17.3467 112.494 17.528 113.294 17.528C113.764 17.528 114.19 17.4853 114.574 17.4C114.969 17.3147 115.278 17.224 115.502 17.128L115.758 18.712C115.652 18.7653 115.502 18.824 115.31 18.888C115.129 18.9413 114.916 18.9893 114.67 19.032C114.436 19.0853 114.18 19.128 113.902 19.16C113.625 19.192 113.342 19.208 113.054 19.208C112.318 19.208 111.678 19.1013 111.134 18.888C110.59 18.664 110.142 18.36 109.79 17.976C109.438 17.5813 109.177 17.1227 109.006 16.6C108.836 16.0667 108.75 15.4853 108.75 14.856ZM114.366 13.992C114.366 13.7253 114.329 13.4747 114.254 13.24C114.18 12.9947 114.068 12.7867 113.918 12.616C113.78 12.4347 113.604 12.296 113.39 12.2C113.188 12.0933 112.942 12.04 112.654 12.04C112.356 12.04 112.094 12.0987 111.87 12.216C111.646 12.3227 111.454 12.4667 111.294 12.648C111.145 12.8293 111.028 13.0373 110.942 13.272C110.857 13.5067 110.798 13.7467 110.766 13.992H114.366ZM123.123 12.376C122.963 12.3227 122.739 12.2693 122.451 12.216C122.174 12.152 121.848 12.12 121.475 12.12C121.262 12.12 121.032 12.1413 120.787 12.184C120.552 12.2267 120.387 12.264 120.291 12.296V19H118.355V11.032C118.728 10.8933 119.192 10.7653 119.747 10.648C120.312 10.52 120.936 10.456 121.619 10.456C121.747 10.456 121.896 10.4667 122.067 10.488C122.238 10.4987 122.408 10.52 122.579 10.552C122.75 10.5733 122.915 10.6053 123.075 10.648C123.235 10.68 123.363 10.712 123.459 10.744L123.123 12.376ZM126.904 17.608C127.416 17.608 127.79 17.5493 128.024 17.432C128.259 17.304 128.376 17.0907 128.376 16.792C128.376 16.5147 128.248 16.2853 127.992 16.104C127.747 15.9227 127.336 15.7253 126.76 15.512C126.408 15.384 126.083 15.2507 125.784 15.112C125.496 14.9627 125.246 14.792 125.032 14.6C124.819 14.408 124.648 14.1787 124.52 13.912C124.403 13.6347 124.344 13.2987 124.344 12.904C124.344 12.136 124.627 11.5333 125.192 11.096C125.758 10.648 126.526 10.424 127.496 10.424C127.987 10.424 128.456 10.472 128.904 10.568C129.352 10.6533 129.688 10.7387 129.912 10.824L129.56 12.392C129.347 12.296 129.075 12.2107 128.744 12.136C128.414 12.0507 128.03 12.008 127.592 12.008C127.198 12.008 126.878 12.0773 126.632 12.216C126.387 12.344 126.264 12.5467 126.264 12.824C126.264 12.9627 126.286 13.0853 126.328 13.192C126.382 13.2987 126.467 13.4 126.584 13.496C126.702 13.5813 126.856 13.672 127.048 13.768C127.24 13.8533 127.475 13.944 127.752 14.04C128.211 14.2107 128.6 14.3813 128.92 14.552C129.24 14.712 129.502 14.8987 129.704 15.112C129.918 15.3147 130.072 15.5493 130.168 15.816C130.264 16.0827 130.312 16.4027 130.312 16.776C130.312 17.576 130.014 18.184 129.416 18.6C128.83 19.0053 127.987 19.208 126.888 19.208C126.152 19.208 125.56 19.144 125.112 19.016C124.664 18.8987 124.35 18.8027 124.168 18.728L124.504 17.112C124.792 17.2293 125.134 17.3413 125.528 17.448C125.934 17.5547 126.392 17.608 126.904 17.608ZM139.689 14.808C139.689 15.4693 139.593 16.072 139.401 16.616C139.209 17.16 138.937 17.624 138.585 18.008C138.233 18.392 137.806 18.6907 137.305 18.904C136.814 19.1173 136.27 19.224 135.673 19.224C135.075 19.224 134.531 19.1173 134.041 18.904C133.55 18.6907 133.129 18.392 132.777 18.008C132.425 17.624 132.147 17.16 131.945 16.616C131.753 16.072 131.657 15.4693 131.657 14.808C131.657 14.1467 131.753 13.5493 131.945 13.016C132.147 12.472 132.425 12.008 132.777 11.624C133.139 11.24 133.566 10.9467 134.057 10.744C134.547 10.5307 135.086 10.424 135.673 10.424C136.259 10.424 136.798 10.5307 137.289 10.744C137.79 10.9467 138.217 11.24 138.569 11.624C138.921 12.008 139.193 12.472 139.385 13.016C139.587 13.5493 139.689 14.1467 139.689 14.808ZM137.705 14.808C137.705 13.976 137.523 13.32 137.161 12.84C136.809 12.3493 136.313 12.104 135.673 12.104C135.033 12.104 134.531 12.3493 134.169 12.84C133.817 13.32 133.641 13.976 133.641 14.808C133.641 15.6507 133.817 16.3173 134.169 16.808C134.531 17.2987 135.033 17.544 135.673 17.544C136.313 17.544 136.809 17.2987 137.161 16.808C137.523 16.3173 137.705 15.6507 137.705 14.808ZM141.683 10.904C142.057 10.7973 142.542 10.696 143.139 10.6C143.737 10.504 144.398 10.456 145.123 10.456C145.806 10.456 146.377 10.552 146.835 10.744C147.294 10.9253 147.657 11.1867 147.923 11.528C148.201 11.8587 148.393 12.264 148.499 12.744C148.617 13.2133 148.675 13.7307 148.675 14.296V19H146.739V14.6C146.739 14.152 146.707 13.7733 146.643 13.464C146.59 13.144 146.494 12.888 146.355 12.696C146.227 12.4933 146.046 12.3493 145.811 12.264C145.587 12.168 145.31 12.12 144.979 12.12C144.734 12.12 144.478 12.136 144.211 12.168C143.945 12.2 143.747 12.2267 143.619 12.248V19H141.683V10.904Z" fill="#9396AA"/>
</svg>
