<svg width="146" height="24" viewBox="0 0 146 24" fill="none" xmlns="http://www.w3.org/2000/svg">
<g id="Group">
<g id="Group_2">
<path id="Vector" d="M118.793 15.5347C118.928 15.6916 117.135 17.3502 115.117 18.7174C113.1 20.1071 110.904 21.1829 110.904 21.1829C110.904 21.1829 108.64 22.1243 106.264 22.707C103.888 23.3122 101.467 23.5363 101.445 23.357C101.423 23.1553 103.731 22.595 105.973 21.7657C108.214 20.9588 110.321 19.9053 110.321 19.9053C110.321 19.9053 112.517 19.0088 114.602 17.8881C116.709 16.745 118.681 15.3778 118.793 15.5347Z" fill="#C07772"/>
</g>
<g id="Group_3">
<path id="Vector_2" d="M50.1404 22.9312C50.1404 23.1329 48.2352 23.2674 46.3076 23.0656C44.3801 22.8863 42.5197 22.3708 42.5197 22.3708C42.5197 22.3708 40.6818 21.7208 39.0232 20.757C37.3422 19.8157 35.8629 18.6053 35.975 18.4484C36.0871 18.2915 37.7457 19.1881 39.4715 19.8605C41.1973 20.5553 42.968 21.026 42.968 21.026C42.968 21.026 44.6939 21.6536 46.5094 22.0794C48.28 22.5277 50.1404 22.7294 50.1404 22.9312Z" fill="#C07772"/>
</g>
<g id="Group_4">
<path id="Vector_3" d="M48.4594 19.4346C48.4818 19.6364 47.6301 19.8605 46.7111 19.9053C45.8146 19.9502 44.918 19.8157 44.918 19.8157C44.918 19.8157 44.0439 19.5243 43.2818 19.0536C42.4973 18.6053 41.8473 17.9778 41.9594 17.8209C42.0715 17.664 42.856 17.9329 43.6629 18.1347C44.4697 18.3364 45.2542 18.4484 45.2542 18.4484C45.2542 18.4484 45.9939 18.7174 46.8007 18.9191C47.6076 19.1208 48.4594 19.2329 48.4594 19.4346Z" fill="#C07772"/>
</g>
<g id="Group_5">
<path id="Vector_4" d="M10.8942 5.06755C10.9839 5.24686 9.59423 6.25548 8.31665 7.37615C7.03908 8.49683 5.85116 9.70716 5.85116 9.70716C5.85116 9.70716 4.55117 10.8054 3.36325 12.0158C2.15292 13.2261 1.05466 14.5485 0.897766 14.4364C0.740871 14.3244 1.57017 12.7778 2.62361 11.3658C3.65463 9.95372 4.90979 8.67614 4.90979 8.67614C4.90979 8.67614 6.25461 7.51063 7.7339 6.56927C9.19078 5.6279 10.7821 4.91066 10.8942 5.06755Z" fill="#C07772"/>
</g>
<g id="Group_6">
<path id="Vector_5" d="M145.645 9.46061C145.488 9.59509 144.255 8.47441 142.776 7.73476C141.319 6.9727 139.727 6.41236 139.727 6.41236C139.727 6.41236 138.203 5.67272 136.679 4.93307C135.133 4.17101 133.698 3.20722 133.788 3.05033C133.877 2.89343 135.446 3.52101 137.06 4.03652C138.674 4.55203 140.288 5.1572 140.288 5.1572C140.288 5.1572 141.857 5.89685 143.291 6.92787C144.748 7.91407 145.801 9.34854 145.645 9.46061Z" fill="#C07772"/>
</g>
<g id="Group_7">
<path id="Vector_6" d="M142.641 3.38653C142.439 3.72273 139.458 2.19861 139.458 2.19861C139.458 2.19861 138.786 1.6831 138.181 1.14517C137.912 0.898625 137.598 0.719319 137.396 0.674492C137.195 0.607251 136.993 0.719322 136.926 0.652082C136.858 0.607255 136.903 0.271052 137.329 0.136571C137.755 0.00208944 138.248 0.114157 138.696 0.293465C139.503 0.652082 140.22 1.0107 140.22 1.0107C140.22 1.0107 142.843 3.07274 142.641 3.38653Z" fill="#C07772"/>
</g>
<g id="Group_8">
<path id="Vector_7" d="M105.345 19.1881C105.323 19.5019 103.485 20.2191 103.507 20.2864C103.507 20.2191 101.602 20.7795 101.4 20.5329C101.288 20.376 101.647 19.9278 102.095 19.5691C102.543 19.2105 103.059 18.9416 103.059 18.9416C103.059 18.9416 103.619 18.8295 104.202 18.8519C104.785 18.8519 105.345 18.9864 105.345 19.1881Z" fill="#C07772"/>
</g>
</g>
</svg>
