<svg width="190" height="190" viewBox="0 0 190 190" fill="none" xmlns="http://www.w3.org/2000/svg">
<g filter="url(#filter0_d)">
<circle cx="85" cy="85" r="75" fill="#525569"/>
</g>
<path d="M97.744 76.296C97.744 77.9173 97.424 79.4747 96.784 80.968C96.144 82.4613 95.312 83.912 94.288 85.32C93.264 86.6853 92.112 88.008 90.832 89.288C89.552 90.568 88.2933 91.784 87.056 92.936C86.416 93.5333 85.712 94.216 84.944 94.984C84.2187 95.7093 83.5147 96.456 82.832 97.224C82.1493 97.992 81.5307 98.7173 80.976 99.4C80.464 100.04 80.144 100.573 80.016 101H99.088V109H69.52C69.4347 108.531 69.392 107.933 69.392 107.208C69.392 106.483 69.392 105.971 69.392 105.672C69.392 103.624 69.712 101.747 70.352 100.04C71.0347 98.3333 71.9093 96.7547 72.976 95.304C74.0427 93.8107 75.2373 92.424 76.56 91.144C77.9253 89.864 79.2693 88.584 80.592 87.304C81.616 86.3227 82.576 85.4053 83.472 84.552C84.368 83.656 85.1573 82.8027 85.84 81.992C86.5227 81.1387 87.056 80.3067 87.44 79.496C87.824 78.6427 88.016 77.7893 88.016 76.936C88.016 75.0587 87.4827 73.736 86.416 72.968C85.3493 72.2 84.0267 71.816 82.448 71.816C81.296 71.816 80.208 72.008 79.184 72.392C78.2027 72.7333 77.2853 73.16 76.432 73.672C75.6213 74.1413 74.9173 74.632 74.32 75.144C73.7227 75.6133 73.2747 75.9973 72.976 76.296L68.24 69.64C70.1173 67.8907 72.2933 66.4613 74.768 65.352C77.2853 64.2 79.9733 63.624 82.832 63.624C85.4347 63.624 87.6747 63.9227 89.552 64.52C91.4293 65.1173 92.9653 65.9707 94.16 67.08C95.3973 68.1467 96.2933 69.4693 96.848 71.048C97.4453 72.584 97.744 74.3333 97.744 76.296Z" fill="url(#paint0_linear)"/>
<defs>
<filter id="filter0_d" x="0" y="0" width="190" height="190" filterUnits="userSpaceOnUse" color-interpolation-filters="sRGB">
<feFlood flood-opacity="0" result="BackgroundImageFix"/>
<feColorMatrix in="SourceAlpha" type="matrix" values="0 0 0 0 0 0 0 0 0 0 0 0 0 0 0 0 0 0 127 0"/>
<feOffset dx="10" dy="10"/>
<feGaussianBlur stdDeviation="10"/>
<feColorMatrix type="matrix" values="0 0 0 0 0 0 0 0 0 0 0 0 0 0 0 0 0 0 0.2 0"/>
<feBlend mode="normal" in2="BackgroundImageFix" result="effect1_dropShadow"/>
<feBlend mode="normal" in="SourceGraphic" in2="effect1_dropShadow" result="shape"/>
</filter>
<linearGradient id="paint0_linear" x1="66.74" y1="84.7091" x2="107.736" y2="84.7091" gradientUnits="userSpaceOnUse">
<stop stop-color="#FFA89D"/>
<stop offset="0.5" stop-color="#F89EBD"/>
<stop offset="1" stop-color="#F77ED9"/>
</linearGradient>
</defs>
</svg>
