<svg width="234" height="320" viewBox="0 0 234 320" fill="none" xmlns="http://www.w3.org/2000/svg">
<path d="M60.8096 317.152C80.8473 319.281 101.042 319.707 121.192 319.527C159.519 319.169 199.236 316.188 233.573 301.193C229.158 284.204 224.07 270.397 218.624 263.471C197.084 236.149 149.836 246.907 145.174 241.932C140.49 236.956 142.036 210.866 142.036 210.866C140.355 209.387 125.562 206.63 121.214 205.779V205.599C121.214 205.599 121.035 205.644 120.788 205.689C120.519 205.644 120.362 205.599 120.362 205.599V205.779C115.992 206.63 95.7524 210.642 94.0713 212.122C94.0713 212.122 96.0662 237.583 91.3817 242.559C86.6973 247.535 44.4477 236.149 22.9307 263.471C17.1704 270.778 11.8136 285.817 7.2188 304.174C23.2893 312.445 42.9236 315.246 60.8096 317.152Z" fill="#ECD0BA"/>
<path opacity="0.25" d="M130.112 268.828C129.888 269.231 129.821 269.455 129.821 269.455C129.821 269.455 129.933 269.231 130.112 268.828Z" fill="url(#paint0_radial)"/>
<path opacity="0.25" d="M123.5 235.745C134.326 231.644 135.828 230.142 135.828 230.142C135.828 230.142 136.567 260.019 154.879 255.918C159.766 254.819 162.702 250.068 164.405 243.725C154.498 243.478 146.923 243.792 145.197 241.954C140.512 236.978 142.059 210.889 142.059 210.889C140.378 209.41 125.585 206.653 121.237 205.801V205.622C121.237 205.622 121.057 205.666 120.811 205.711C120.542 205.666 120.385 205.622 120.385 205.622V205.801C116.014 206.653 95.7748 210.665 94.0938 212.144C94.0938 212.144 96.0886 237.606 91.4041 242.582C90.6645 243.366 88.9386 243.747 86.518 243.926C88.2887 249.238 90.5076 253.161 93.2645 253.699C93.2645 253.699 103.351 244.352 102.97 230.904C102.947 230.904 112.652 239.87 123.5 235.745Z" fill="#E28C89"/>
<path d="M24.9703 106.464C24.9703 106.464 18.6497 100.793 10.3119 104.895C-0.177674 110.05 -8.42587 136.991 22.2359 153.039C52.8976 169.088 28.8927 105.971 24.9703 106.464Z" fill="#ECD0BA"/>
<path opacity="0.4" d="M24.9703 106.464C24.9703 106.464 18.6497 100.793 10.3119 104.895C-0.177674 110.05 -8.42587 136.991 22.2359 153.039C52.8976 169.088 28.8927 105.971 24.9703 106.464Z" fill="url(#paint1_linear)"/>
<path opacity="0.4" d="M4.88779 122.669C4.88779 122.669 11.2532 112.986 19.1204 119.397C26.9876 125.829 25.3065 132.083 25.3065 132.083C25.3065 132.083 19.3894 131.41 20.5997 135.915C21.81 140.421 26.0462 143.738 26.0462 143.738C26.0462 143.738 9.46016 149.834 4.88779 122.669Z" fill="url(#paint2_linear)"/>
<path opacity="0.4" d="M24.9703 106.464C24.9703 106.464 23.0428 104.738 19.9049 103.886C21.6307 111.014 20.1514 129.662 9.48257 126.435C2.62402 124.35 2.10851 118.388 2.93781 113.412C-1.76903 124.036 0.00163537 141.407 22.2359 153.039C52.8976 169.088 28.8927 105.971 24.9703 106.464Z" fill="url(#paint3_linear)"/>
<path opacity="0.5" d="M15.5566 107.809C16.0946 108.795 14.9963 110.498 13.1136 111.597C11.2084 112.695 9.23602 112.785 8.6981 111.776C8.16017 110.79 9.25843 109.086 11.1412 107.988C13.0463 106.89 15.0187 106.8 15.5566 107.809Z" fill="#ECD0BA"/>
<path d="M25.5979 142.483C25.4859 142.617 24.7014 142.057 23.5583 141.115C22.9979 140.645 22.348 140.062 21.6307 139.457C20.9359 138.829 20.0618 138.067 19.5687 136.812C18.5377 134.212 20.1066 131.321 22.0566 130.267C22.5273 129.976 22.9979 129.774 23.4462 129.64C23.8497 129.505 24.4997 129.393 24.3428 129.393C24.3876 129.348 24.3652 129.348 24.3428 129.326C24.3204 129.303 24.2979 129.281 24.2979 129.281C24.141 128.945 24.1186 128.878 24.1186 128.878C24.1186 128.878 23.6928 127.69 22.8859 126.009C22.079 124.35 20.8238 122.243 19.0307 120.697C17.2601 119.105 14.9963 118.231 13.2032 118.186C11.4101 118.119 10.2446 118.702 10.155 118.5C10.0429 118.366 11.0739 117.335 13.136 117.021C15.1756 116.662 18.0221 117.357 20.2635 118.993C22.5721 120.585 24.2083 122.916 25.2393 124.664C26.2703 126.435 26.7858 127.667 26.7858 127.667C26.7858 127.667 27.0548 128.34 28.6686 132.509C27.9962 132.441 26.6514 132.15 25.329 132.083C24.4997 132.105 24.4548 132.15 24.1186 132.195C23.8273 132.262 23.5135 132.352 23.1997 132.509C21.9893 132.979 20.8911 134.66 21.2945 136.184C21.7204 137.686 23.4686 139.21 24.2755 140.376C25.1721 141.541 25.71 142.348 25.5979 142.483Z" fill="#C07772"/>
<path d="M203.024 106.711C203.024 106.711 209.344 101.062 217.682 105.186C228.172 110.386 236.33 137.327 205.624 153.286C174.94 169.244 199.101 106.217 203.024 106.711Z" fill="#ECD0BA"/>
<path opacity="0.4" d="M203.024 106.711C203.024 106.711 209.344 101.062 217.682 105.186C228.172 110.386 236.33 137.327 205.624 153.286C174.94 169.244 199.101 106.217 203.024 106.711Z" fill="url(#paint4_linear)"/>
<path opacity="0.4" d="M223.061 122.96C223.061 122.96 216.718 113.255 208.829 119.666C200.939 126.076 202.62 132.329 202.62 132.329C202.62 132.329 208.537 131.679 207.305 136.162C206.072 140.645 201.858 143.984 201.858 143.984C201.858 143.984 218.422 150.103 223.061 122.96Z" fill="url(#paint5_linear)"/>
<path opacity="0.25" d="M203.024 106.711C203.024 106.711 204.951 104.985 208.089 104.133C206.341 111.261 207.775 129.909 218.467 126.703C225.303 124.641 225.841 118.679 225.034 113.704C229.718 124.35 227.903 141.698 205.624 153.286C174.94 169.244 199.101 106.217 203.024 106.711Z" fill="#E28C89"/>
<path d="M212.437 108.055C211.899 109.042 212.975 110.745 214.88 111.843C216.786 112.942 218.758 113.031 219.296 112.045C219.834 111.059 218.758 109.355 216.853 108.257C214.948 107.159 212.975 107.069 212.437 108.055Z" fill="#ECD0BA"/>
<path d="M202.306 142.707C202.419 142.841 203.225 142.281 204.346 141.34C204.906 140.869 205.556 140.308 206.274 139.681C206.968 139.053 207.843 138.291 208.358 137.059C209.389 134.459 207.82 131.567 205.893 130.514C205.422 130.222 204.951 130.021 204.503 129.886C204.1 129.752 203.45 129.64 203.606 129.64C203.562 129.595 203.584 129.595 203.606 129.572C203.629 129.55 203.651 129.528 203.651 129.528C203.808 129.191 203.831 129.124 203.831 129.124C203.831 129.124 204.256 127.936 205.063 126.255C205.87 124.597 207.125 122.49 208.941 120.943C210.712 119.352 212.998 118.478 214.768 118.455C216.561 118.388 217.727 118.971 217.817 118.791C217.929 118.657 216.898 117.626 214.836 117.29C212.796 116.931 209.949 117.604 207.686 119.24C205.377 120.831 203.719 123.162 202.71 124.91C201.679 126.681 201.163 127.914 201.163 127.914C201.163 127.914 200.894 128.586 199.258 132.755C199.931 132.688 201.275 132.419 202.598 132.352C203.427 132.374 203.472 132.419 203.808 132.464C204.1 132.531 204.413 132.621 204.727 132.778C205.937 133.248 207.036 134.929 206.632 136.453C206.184 137.955 204.458 139.479 203.651 140.645C202.732 141.788 202.172 142.595 202.306 142.707Z" fill="#C07772"/>
<path d="M27.01 146.181C28.5789 161.108 31.5599 176.215 41.3098 187.086C50.0287 196.813 57.7166 204.367 69.8871 210.06C84.7025 217.008 100.863 223.62 117.494 223.642C134.64 223.665 153.266 212.099 167.879 204.053C177.36 198.83 187.334 193.81 192.669 184.082C197.622 175.027 199.706 164.717 201.656 154.698C203.024 147.705 204.055 140.084 204.1 132.912C204.144 126.838 204.413 121.01 205.175 114.981C206.946 101.04 210.084 86.9866 208.425 72.8661C206.744 58.5214 197.846 43.7957 188.432 33.3958C168.462 11.3409 138.428 1.94958 110.209 0.537525C63.6337 -1.74866 9.23603 44.6026 19.1876 96.4228C20.9807 105.769 24.0066 114.869 25.0376 124.35C25.7997 131.209 26.2255 138.672 27.01 146.181Z" fill="#ECD0BA"/>
<path d="M27.01 146.181C28.5789 161.108 31.5599 176.215 41.3098 187.086C50.0287 196.813 57.7166 204.366 69.8871 210.06C84.7025 217.008 100.863 223.62 117.494 223.642C134.64 223.665 154.072 213.511 168.709 205.465C178.189 200.242 187.357 193.81 192.691 184.082C197.644 175.027 199.729 164.717 201.679 154.698C203.046 147.705 204.077 140.084 204.122 132.912C204.167 126.838 204.436 121.01 205.198 114.981C206.968 101.04 210.106 86.9866 208.448 72.8661C206.767 58.5214 197.869 43.7957 188.455 33.3958C168.484 11.3409 138.45 1.94958 110.232 0.537525C63.6337 -1.74866 9.23603 44.6026 19.1877 96.4228C20.9807 105.769 24.0066 114.869 25.0376 124.35C25.7997 131.209 26.2255 138.672 27.01 146.181Z" fill="#ECD0BA"/>
<path opacity="0.45" d="M193.408 181.124C188.074 190.851 178.929 197.284 169.426 202.506C154.812 210.553 135.357 220.706 118.211 220.684C101.58 220.661 85.4197 214.049 70.6044 207.101C58.4338 201.385 50.7684 193.832 42.0271 184.127C32.2547 173.256 29.2962 158.15 27.7272 143.222C26.9427 135.714 26.5169 128.228 25.7548 121.369C24.7238 111.888 21.698 102.788 19.9049 93.4417C18.1118 84.1177 18.4256 74.9954 20.398 66.2765C17.798 75.8695 17.1704 86.0453 19.1652 96.4227C20.9583 105.769 23.9841 114.869 25.0152 124.35C25.7772 131.209 26.2031 138.672 26.9876 146.203C28.5565 161.131 31.5375 176.237 41.2874 187.108C50.0063 196.836 57.6941 204.389 69.8647 210.082C84.6801 217.03 100.84 223.642 117.471 223.665C134.617 223.687 154.05 213.534 168.686 205.487C178.167 200.265 187.334 193.832 192.669 184.105C195.919 178.165 197.936 171.665 199.482 165.076C198.025 170.656 196.165 176.081 193.408 181.124Z" fill="#ECD0BA"/>
<path opacity="0.4" d="M36.7823 144.007C36.7823 144.007 22.3255 147.705 33.8461 165.524C43.1253 179.891 49.4011 177.829 54.1752 177.515C62.8941 176.932 76.275 170.365 76.2974 158.396C76.3198 146.45 54.8028 144.029 36.7823 144.007Z" fill="url(#paint6_radial)"/>
<path opacity="0.4" d="M157.995 149.139C157.995 149.139 146.071 158.329 163.419 170.141C177.405 179.667 182.403 175.251 186.684 173.055C194.507 169.02 204.346 157.634 199.841 146.607C195.336 135.579 174.603 141.967 157.995 149.139Z" fill="url(#paint7_radial)"/>
<path opacity="0.4" d="M92.7714 62.8248C92.7714 62.8248 73.9664 69.3696 91.18 91.7607C105.054 109.781 113.168 106.352 119.488 105.366C131.009 103.595 148.088 93.3521 146.81 77.4609C145.533 61.5697 116.709 60.7852 92.7714 62.8248Z" fill="url(#paint8_radial)"/>
<path opacity="0.4" d="M146.855 139.726C146.855 139.726 135.895 103.169 157.591 95.7504C179.288 88.3539 196.008 114.757 194.103 122.378C192.175 129.976 181.036 152.12 146.855 139.726Z" fill="url(#paint9_linear)"/>
<path d="M148.11 143.783C144.323 139.457 142.709 132.822 143.628 124.081C144.569 115.273 148.648 107.271 157.255 104.335C178.951 96.9383 194.977 120.921 193.094 128.519C190.338 139.39 180.834 147.324 170.277 149.095C160.191 150.82 152.616 148.915 148.11 143.783Z" fill="white"/>
<path d="M145.062 132.755C149.186 142.034 159.99 146.024 169.224 141.653C178.436 137.283 182.582 126.233 178.458 116.976C174.334 107.697 163.531 103.73 154.297 108.078C145.085 112.426 140.938 123.476 145.062 132.755Z" fill="#B3AE30"/>
<path d="M150.912 129.909C153.534 135.803 160.393 138.359 166.221 135.602C172.071 132.822 174.693 125.807 172.048 119.89C169.448 113.973 162.59 111.44 156.74 114.219C150.912 116.976 148.312 124.014 150.912 129.909Z" fill="#5F283E"/>
<path opacity="0.2" d="M157.255 104.335C178.951 96.9383 194.977 120.921 193.094 128.519C191.929 133.069 187.446 142.864 176.665 147.302C182.986 141.99 195 129.595 184.219 119.352C170.076 105.904 153.534 107.607 147.281 120.293C145.354 124.193 144.21 128.497 143.56 132.553C142.843 122.109 144.591 108.683 157.255 104.335Z" fill="#2E0035"/>
<path d="M142.888 129.035C142.888 129.035 142.955 126.95 143.673 123.566C144.009 121.885 144.614 119.912 145.421 117.805C146.295 115.721 147.55 113.614 149.119 111.686C149.522 111.238 150.016 110.835 150.464 110.386L151.136 109.736L151.921 109.221C152.436 108.862 152.974 108.504 153.512 108.145C154.095 107.876 154.678 107.63 155.283 107.361L156.179 106.957L157.143 106.711C157.793 106.554 158.443 106.397 159.115 106.24C160.483 106.061 161.895 105.971 163.307 105.836C164.741 105.926 166.198 106.016 167.677 106.105C168.462 106.24 169.269 106.374 170.076 106.509L172.25 107.002C175.231 107.786 178.189 109.064 180.879 110.88C183.591 112.605 186.012 114.936 187.76 117.693C188.589 119.083 189.329 120.54 189.8 122.064C190.248 123.588 190.517 125.157 190.517 126.703C190.427 129.774 189.553 132.8 188.051 135.288C186.572 137.776 184.757 139.905 182.874 141.609C181.014 143.312 179.131 144.702 177.45 145.867C176.576 146.427 175.769 146.943 175.007 147.436C174.245 147.862 173.527 148.288 172.877 148.646C171.6 149.408 170.546 149.902 169.852 150.283C169.134 150.664 168.776 150.865 168.776 150.865C168.776 150.865 169.202 150.798 169.941 150.641C170.703 150.462 171.846 150.35 173.258 149.902C173.976 149.7 174.738 149.476 175.589 149.229C176.441 148.938 177.338 148.579 178.302 148.221C179.265 147.817 180.274 147.324 181.35 146.831C182.381 146.226 183.501 145.643 184.6 144.858C186.841 143.379 189.172 141.384 191.189 138.515C193.229 135.736 194.932 131.814 195.201 127.219C195.313 124.91 195.044 122.557 194.484 120.271C193.901 117.985 192.938 115.878 191.817 113.973C189.486 110.185 186.46 107.204 183.21 105.052C179.938 102.945 176.464 101.555 173.034 100.749C172.138 100.569 171.264 100.39 170.389 100.233C169.583 100.143 168.776 100.076 167.969 100.009C166.153 99.9865 164.584 100.009 162.926 100.031C161.29 100.3 159.653 100.457 158.107 100.883C157.345 101.174 156.583 101.443 155.843 101.712L154.745 102.138L153.691 102.743C152.997 103.147 152.324 103.55 151.652 103.954C151.024 104.469 150.419 104.985 149.859 105.5C149.567 105.769 149.276 106.016 149.007 106.285C148.76 106.599 148.514 106.89 148.267 107.204C147.797 107.809 147.304 108.369 146.878 108.997C145.219 111.552 144.166 114.242 143.56 116.729C142.933 119.217 142.709 121.436 142.642 123.274C142.529 125.112 142.686 126.547 142.731 127.51C142.821 128.541 142.888 129.035 142.888 129.035Z" fill="#5F283E"/>
<path opacity="0.45" d="M175.746 117.29C175.746 119.823 173.752 121.862 171.286 121.862C168.821 121.862 166.826 119.8 166.826 117.267C166.826 114.735 168.821 112.695 171.286 112.695C173.752 112.695 175.746 114.757 175.746 117.29Z" fill="#8CA030"/>
<path opacity="0.4" d="M83.4249 139.636C83.4249 139.636 94.6317 103.236 72.9802 95.7503C51.3063 88.2866 34.3616 114.533 36.222 122.154C38.1271 129.774 49.2218 151.941 83.4249 139.636Z" fill="url(#paint10_linear)"/>
<path d="M82.1474 143.693C85.9577 139.367 87.5714 132.755 86.6749 123.991C85.756 115.183 81.6767 107.159 73.0923 104.2C51.4184 96.7365 35.3254 120.674 37.1858 128.295C39.8978 139.188 49.3787 147.122 59.9579 148.938C70.044 150.686 77.6422 148.826 82.1474 143.693Z" fill="white"/>
<path d="M85.218 132.665C81.0715 141.945 70.2458 145.889 61.0338 141.496C51.8218 137.103 47.7201 126.053 51.8442 116.797C55.9907 107.54 66.8165 103.595 76.0285 107.966C85.2629 112.359 89.3645 123.409 85.218 132.665Z" fill="#B3AE30"/>
<path d="M79.637 129.729C76.9922 135.646 70.044 138.202 64.1717 135.378C58.2769 132.553 55.6321 125.493 58.2993 119.576C60.9441 113.636 67.8699 111.126 73.7647 113.928C79.6595 116.707 82.2818 123.79 79.637 129.729Z" fill="#5F283E"/>
<path opacity="0.2" d="M73.1147 104.223C51.4408 96.7589 35.3478 120.697 37.2082 128.317C38.3513 132.867 42.8116 142.684 53.5925 147.145C47.2719 141.81 35.303 129.393 46.1064 119.173C60.2941 105.769 76.8129 107.517 83.0439 120.204C84.9715 124.103 86.0921 128.407 86.7197 132.486C87.4818 122.041 85.7559 108.593 73.1147 104.223Z" fill="#2E0035"/>
<path d="M87.3921 128.967C87.3921 128.967 87.3249 126.883 86.6301 123.476C86.3163 121.795 85.7111 119.823 84.8818 117.716C84.0301 115.631 82.7749 113.524 81.206 111.597C80.8025 111.148 80.3095 110.745 79.8612 110.297L79.1888 109.647L78.4043 109.131C77.8888 108.773 77.3509 108.414 76.8129 108.055C76.2302 107.786 75.6474 107.54 75.0423 107.271L74.1457 106.867L73.1819 106.621C72.5319 106.464 71.882 106.307 71.2095 106.128C69.8423 105.949 68.4303 105.859 67.0182 105.724C65.5837 105.814 64.1269 105.904 62.6476 105.993C61.8631 106.128 61.0562 106.262 60.2493 106.397L58.0752 106.89C55.0942 107.652 52.1356 108.93 49.446 110.745C46.7339 112.448 44.3133 114.779 42.5426 117.536C41.7133 118.926 40.9736 120.383 40.503 121.907C40.0547 123.431 39.7857 125 39.7857 126.547C39.8754 129.617 40.7271 132.643 42.2288 135.153C43.7081 137.641 45.5236 139.793 47.3839 141.496C49.2442 143.222 51.1046 144.612 52.808 145.777C53.6821 146.338 54.489 146.853 55.2287 147.346C55.9907 147.772 56.708 148.198 57.358 148.557C58.6355 149.319 59.689 149.812 60.3838 150.215C61.101 150.596 61.4596 150.798 61.4596 150.798C61.4596 150.798 61.0338 150.731 60.2941 150.574C59.5321 150.395 58.389 150.283 56.9769 149.834C56.2597 149.633 55.4976 149.408 54.6459 149.162C53.7942 148.87 52.8977 148.489 51.9339 148.153C50.9701 147.75 49.9839 147.234 48.8856 146.741C47.8546 146.136 46.7339 145.553 45.6581 144.746C43.4167 143.245 41.1081 141.25 39.0685 138.403C37.0289 135.624 35.3478 131.702 35.0789 127.107C34.9668 124.798 35.2358 122.445 35.8185 120.159C36.4013 117.873 37.3651 115.766 38.5082 113.86C40.8392 110.073 43.865 107.114 47.1374 104.962C50.4098 102.855 53.9063 101.488 57.3355 100.681C58.2321 100.502 59.1062 100.345 59.9803 100.166C60.7872 100.099 61.5941 100.009 62.401 99.9417C64.2165 99.9193 65.7855 99.9641 67.4441 99.9641C69.0803 100.233 70.7164 100.39 72.2406 100.838C73.0026 101.13 73.7647 101.399 74.5043 101.668L75.6026 102.116L76.656 102.721C77.3509 103.124 78.0233 103.528 78.6733 103.931C79.3008 104.447 79.8836 104.962 80.4663 105.478C80.7577 105.747 81.0491 105.993 81.3181 106.262C81.5646 106.576 81.8112 106.867 82.0577 107.181C82.5284 107.809 83.0215 108.369 83.4473 108.997C85.0835 111.552 86.137 114.264 86.7421 116.729C87.3473 119.217 87.5939 121.436 87.6387 123.274C87.7283 125.112 87.5939 126.547 87.5266 127.51C87.4818 128.474 87.3921 128.967 87.3921 128.967Z" fill="#5F283E"/>
<path opacity="0.45" d="M82.7301 120.159C82.7301 122.691 80.7353 124.731 78.2698 124.731C75.8043 124.731 73.8095 122.669 73.8095 120.136C73.8095 117.604 75.8043 115.564 78.2698 115.564C80.7577 115.564 82.7525 117.626 82.7301 120.159Z" fill="#8CA030"/>
<path opacity="0.4" d="M98.7558 151.605C98.7558 151.605 104.068 156.491 114.669 157.41C125.271 158.329 129.978 151.56 129.978 151.56C129.978 151.56 133.9 155.617 131.547 159.226C129.193 162.834 119.354 169.132 116.619 169.581C113.863 170.029 92.6369 161.153 98.7558 151.605Z" fill="url(#paint11_linear)"/>
<path opacity="0.5" d="M121.931 153.465C121.931 154.72 119.645 155.707 116.821 155.707C113.997 155.707 111.711 154.698 111.711 153.443C111.711 152.188 113.997 151.201 116.821 151.201C119.645 151.201 121.931 152.233 121.931 153.465Z" fill="#ECD0BA"/>
<path d="M108.326 157.657C108.326 157.657 107.004 157.029 105.637 157.051C104.247 157.051 103.059 157.769 103.149 158.217C103.239 158.665 104.359 158.889 105.256 159.405C106.175 159.92 106.892 160.593 106.892 160.593C106.892 160.593 107.788 160.929 108.64 161.557C109.492 162.162 110.254 163.126 110.635 162.969C111.016 162.834 110.926 161.288 110.187 159.943C109.492 158.62 108.326 157.657 108.326 157.657Z" fill="#C07772"/>
<path d="M128.768 156.984C128.7 156.514 127.58 156.312 126.437 156.514C125.293 156.693 124.218 157.276 124.218 157.276C124.218 157.276 123.321 158.172 122.716 159.293C122.088 160.413 121.819 161.713 122.156 161.938C122.514 162.184 123.343 161.489 124.173 160.996C125.002 160.481 125.831 160.1 125.831 160.1C125.831 160.1 126.459 159.382 127.221 158.732C127.938 158.06 128.812 157.455 128.768 156.984Z" fill="#C07772"/>
<path d="M103.642 159.338C102.79 158.486 101.961 157.612 101.333 156.962C100.751 156.357 100.639 156.065 100.639 156.065C100.639 156.043 100.392 155.864 100.235 155.393C100.056 154.922 100.078 153.914 100.482 152.995C101.311 151.112 103.418 149.565 103.149 149.139C103.037 148.938 102.454 149.05 101.625 149.408C100.795 149.767 99.6748 150.417 98.7558 151.627C97.8593 152.838 97.3662 154.541 97.5455 155.976C97.7248 157.432 98.3524 158.217 98.3299 158.195C98.3299 158.195 98.8903 158.934 99.6972 159.472C100.459 160.01 101.423 160.638 102.432 161.288C104.426 162.565 106.466 163.731 106.713 163.35C106.959 162.946 105.323 161.086 103.642 159.338Z" fill="#C07772"/>
<path d="M133.228 156.065C133.205 155.998 133.183 155.729 132.847 154.631C132.645 154.003 132.376 153.6 132.13 153.174C131.861 152.726 131.569 152.277 131.255 151.829C130.023 150.058 128.476 148.669 128.162 148.983C127.871 149.296 128.79 151.157 129.462 153.084C129.619 153.555 129.799 154.048 129.955 154.496C130.112 154.967 130.247 155.393 130.247 155.527C130.314 156.245 130.337 156.738 130.337 156.738C130.314 156.738 130.426 156.939 130.426 157.208C130.449 157.5 130.09 158.195 129.418 158.822C128.095 160.077 126.437 161.557 126.75 161.982C126.997 162.274 128.656 161.758 130.561 160.839C131.48 160.369 132.533 159.517 133.004 158.217C133.452 156.939 133.205 156.043 133.228 156.065Z" fill="#C07772"/>
<path d="M125.226 150.238C125.361 149.789 123.209 148.557 120.833 147.862C118.48 147.145 116.014 146.988 116.014 146.988C116.014 146.988 113.549 147.189 111.218 147.974C108.864 148.736 106.735 150.036 106.87 150.462C107.004 150.91 109.29 150.439 111.554 150.327C113.818 150.193 116.037 150.35 116.037 150.35C116.037 150.35 118.256 150.126 120.519 150.193C122.806 150.283 125.092 150.686 125.226 150.238Z" fill="#C07772"/>
<path opacity="0.5" d="M40.1443 148.601C39.6736 149.745 37.7461 150.014 35.8185 149.207C33.8909 148.377 32.703 146.786 33.1737 145.643C33.6444 144.5 35.572 144.231 37.4995 145.038C39.4271 145.867 40.5926 147.458 40.1443 148.601Z" fill="#ECD0BA"/>
<path opacity="0.5" d="M198.9 146.069C199.303 147.234 198.048 148.781 196.098 149.52C194.125 150.26 192.22 149.902 191.794 148.736C191.391 147.571 192.646 146.024 194.596 145.284C196.546 144.545 198.474 144.903 198.9 146.069Z" fill="#ECD0BA"/>
<path opacity="0.5" d="M126.28 202.73C126.302 203.985 124.621 205.016 122.537 205.061C120.452 205.106 118.749 204.12 118.726 202.865C118.704 201.61 120.385 200.579 122.469 200.534C124.531 200.511 126.257 201.498 126.28 202.73Z" fill="#ECD0BA"/>
<g opacity="0.4">
<path opacity="0.4" d="M27.3014 66.2541C27.3462 67.8454 27.391 69.4368 27.4358 71.0506C27.4583 71.6333 28.3772 71.6109 28.31 71.0506C28.1307 69.4592 27.9289 67.8679 27.7496 66.2541C27.7048 65.9851 27.2789 65.9627 27.3014 66.2541Z" fill="#5F283E"/>
</g>
<defs>
<radialGradient id="paint0_radial" cx="0" cy="0" r="1" gradientUnits="userSpaceOnUse" gradientTransform="translate(120.296 207.765) scale(129.834 133.59)">
<stop offset="0.0806" stop-color="#C4744C"/>
<stop offset="1" stop-color="#C4744C" stop-opacity="0"/>
</radialGradient>
<linearGradient id="paint1_linear" x1="0.808971" y1="129.532" x2="37.6123" y2="129.532" gradientUnits="userSpaceOnUse">
<stop offset="0.1559" stop-color="#D70036"/>
<stop offset="1" stop-color="#D70036"/>
</linearGradient>
<linearGradient id="paint2_linear" x1="4.89451" y1="130.764" x2="26.0471" y2="130.764" gradientUnits="userSpaceOnUse">
<stop offset="0.1559" stop-color="#D70036"/>
<stop offset="1" stop-color="#D70036"/>
</linearGradient>
<linearGradient id="paint3_linear" x1="0.813456" y1="129.769" x2="37.6123" y2="129.769" gradientUnits="userSpaceOnUse">
<stop offset="0.1559" stop-color="#D70036"/>
<stop offset="1" stop-color="#D70036"/>
</linearGradient>
<linearGradient id="paint4_linear" x1="190.282" y1="129.777" x2="227.14" y2="129.777" gradientUnits="userSpaceOnUse">
<stop offset="0.1559" stop-color="#D70036"/>
<stop offset="1" stop-color="#D70036"/>
</linearGradient>
<linearGradient id="paint5_linear" x1="201.851" y1="131.024" x2="223.057" y2="131.024" gradientUnits="userSpaceOnUse">
<stop offset="0.1559" stop-color="#D70036"/>
<stop offset="1" stop-color="#D70036"/>
</linearGradient>
<radialGradient id="paint6_radial" cx="0" cy="0" r="1" gradientUnits="userSpaceOnUse" gradientTransform="translate(52.8398 160.924) rotate(0.076638) scale(20.2432 20.8285)">
<stop stop-color="#D70036"/>
<stop offset="0.8441" stop-color="#D70036" stop-opacity="0"/>
</radialGradient>
<radialGradient id="paint7_radial" cx="0" cy="0" r="1" gradientUnits="userSpaceOnUse" gradientTransform="translate(179.177 158.304) rotate(-23.4005) scale(20.3321 20.737)">
<stop stop-color="#D70036"/>
<stop offset="0.8441" stop-color="#D70036" stop-opacity="0"/>
</radialGradient>
<radialGradient id="paint8_radial" cx="0" cy="0" r="1" gradientUnits="userSpaceOnUse" gradientTransform="translate(115.912 83.4581) rotate(-4.82678) scale(26.9961 27.7655)">
<stop stop-color="#ECD0BA"/>
<stop offset="0.8441" stop-color="#ECD0BA" stop-opacity="0"/>
</radialGradient>
<linearGradient id="paint9_linear" x1="144.084" y1="118.941" x2="194.247" y2="118.941" gradientUnits="userSpaceOnUse">
<stop offset="0.1559" stop-color="#D70036"/>
<stop offset="1" stop-color="#D70036"/>
</linearGradient>
<linearGradient id="paint10_linear" x1="36.0761" y1="118.86" x2="86.323" y2="118.86" gradientUnits="userSpaceOnUse">
<stop offset="0.1559" stop-color="#D70036"/>
<stop offset="1" stop-color="#D70036"/>
</linearGradient>
<linearGradient id="paint11_linear" x1="97.6548" y1="160.581" x2="132.298" y2="160.581" gradientUnits="userSpaceOnUse">
<stop offset="0.1559" stop-color="#D70036"/>
<stop offset="1" stop-color="#D70036"/>
</linearGradient>
</defs>
</svg>
