<svg width="51" height="28" viewBox="0 0 51 28" fill="none" xmlns="http://www.w3.org/2000/svg">
<path d="M0.869268 18.3089C0.7572 18.8244 0.757202 19.3847 0.757202 20.0347C0.802029 26.333 7.63817 28.3502 12.5692 27.7226C21.4897 26.6243 33.481 11.4728 39.7568 8.94002C44.1723 7.14694 52.3756 7.81935 49.8429 4.16594C47.3102 0.51253 35.2741 -1.43745 29.1104 1.63321C24.8742 3.76249 21.4225 7.28143 17.5674 10.0159C15.8415 11.2486 13.9588 12.5038 11.8967 13.0641C11.1571 13.2658 10.0588 13.0417 9.43125 13.2883C8.46747 13.6693 8.33299 16.5606 8.10886 17.7037C7.683 16.2917 7.3468 14.8572 7.14507 13.4003C4.76924 13.8934 0.869268 15.1262 0.869268 18.3089Z" fill="#A95913"/>
<path opacity="0.25" d="M0.869268 18.3089C0.7572 18.8244 0.757202 19.3847 0.757202 20.0347C0.802029 26.333 7.63817 28.3502 12.5692 27.7226C21.4897 26.6243 33.481 11.4728 39.7568 8.94002C44.1723 7.14694 52.3756 7.81935 49.8429 4.16594C47.3102 0.51253 35.2741 -1.43745 29.1104 1.63321C24.8742 3.76249 21.4225 7.28143 17.5674 10.0159C15.8415 11.2486 13.9588 12.5038 11.8967 13.0641C11.1571 13.2658 10.0588 13.0417 9.43125 13.2883C8.46747 13.6693 8.33299 16.5606 8.10886 17.7037C7.683 16.2917 7.3468 14.8572 7.14507 13.4003C4.76924 13.8934 0.869268 15.1262 0.869268 18.3089Z" fill="#A95913"/>
<path opacity="0.45" d="M11.8071 23.2623C20.7277 22.164 32.7189 7.01246 38.9947 4.47973C41.5947 3.42629 45.4947 3.22457 47.7584 2.48492C48.6774 3.00043 49.3946 3.56077 49.8429 4.18835C52.3756 7.84176 44.1723 7.16935 39.7568 8.96244C33.5034 11.4952 21.4897 26.6467 12.5692 27.745C7.63817 28.3502 0.802029 26.333 0.757202 20.0572C0.757202 19.6313 0.757203 19.2278 0.80203 18.8692C2.7296 22.5451 7.88472 23.733 11.8071 23.2623Z" fill="#A95913"/>
<g opacity="0.5">
<path opacity="0.5" d="M3.69336 14.5658C3.82785 15.1486 3.96232 15.7313 4.16405 16.3141C4.70197 17.9055 5.3968 19.4296 6.02438 20.5278C6.65196 21.6037 7.12264 22.2985 7.12264 22.2985C7.12264 22.2985 7.5709 23.0157 8.31055 24.0019C9.0502 25.0106 10.1933 26.2433 11.4485 27.3864C11.6053 27.5433 11.7847 27.6778 11.964 27.8122C11.4709 27.8571 10.9554 27.8571 10.4399 27.8571C7.79505 25.7726 5.95714 23.083 5.95714 23.083C5.95714 23.083 4.02956 20.0572 3.20026 16.6055C3.06578 16.09 2.97613 15.552 2.88647 15.0365C3.15544 14.8348 3.40199 14.7003 3.69336 14.5658Z" fill="#A95913"/>
<path opacity="0.5" d="M37.1568 10.4417C36.1482 8.37968 35.0051 6.74349 35.0051 6.74349C35.0051 6.74349 33.6155 4.39007 31.7776 2.35043C31.3965 1.90216 30.9707 1.4763 30.5896 1.09527C30.9034 0.983204 31.2172 0.893556 31.531 0.803902C31.8448 1.07286 32.181 1.36423 32.4948 1.65561C34.5793 3.58318 36.193 5.98143 36.193 5.98143C36.193 5.98143 37.2241 7.70728 38.0982 9.83656C37.8068 10.0159 37.493 10.2176 37.1568 10.4417Z" fill="#A95913"/>
<path opacity="0.5" d="M41.3258 0.512525C41.5051 0.759074 41.7068 1.02804 41.8413 1.25218C42.4016 2.14872 42.693 2.79871 42.693 2.79871C42.693 2.79871 43.724 5.24179 43.6792 7.95383C43.343 8.02107 43.0068 8.08831 42.6706 8.15555C42.5137 5.6004 41.4154 3.38146 41.4154 3.38146C41.4154 3.38146 40.8327 1.94699 39.8241 0.310802C40.3172 0.35563 40.8327 0.422871 41.3258 0.512525Z" fill="#A95913"/>
<path opacity="0.5" d="M29.7603 15.9779C28.1689 13.871 26.2414 12.0779 26.2414 12.0779C26.2414 12.0779 24.4483 10.1504 22.4759 8.35727C22.05 7.97623 21.6242 7.5952 21.2207 7.23659C21.4449 7.05728 21.669 6.87797 21.8707 6.69866C22.2742 6.99003 22.6776 7.28141 23.1035 7.5952C25.2776 9.20898 27.25 11.0917 27.25 11.0917C27.25 11.0917 29.1327 13.0865 30.5896 15.4175C30.6569 15.5296 30.7017 15.6193 30.7689 15.7313C30.5224 15.9331 30.2982 16.1572 30.0517 16.3589C29.9396 16.2244 29.85 16.0899 29.7603 15.9779Z" fill="#A95913"/>
<path opacity="0.5" d="M18.5536 25.3916C16.626 23.3071 15.2364 21.133 15.2364 21.133C15.2364 21.133 13.6002 18.3089 12.6812 15.2158C12.4571 14.4762 12.2778 13.7365 12.1209 13.0417C12.3674 12.9745 12.614 12.8624 12.8605 12.7728C13.0622 13.4676 13.3088 14.1848 13.6002 14.902C14.7208 17.8158 16.4019 20.4158 16.4019 20.4158C16.4019 20.4158 17.657 22.6571 19.4501 24.8537C19.1587 25.033 18.8674 25.2123 18.5536 25.3916Z" fill="#A95913"/>
<path opacity="0.5" d="M22.4311 16.3589C22.4311 16.3589 19.4277 11.1814 18.576 9.29865C18.6656 9.23141 18.7777 9.14175 18.8898 9.07451C20.2122 10.621 23.619 15.5969 23.619 15.5969C23.619 15.5969 24.8966 17.7934 26.0173 19.833C25.7707 20.0347 25.5466 20.2365 25.3 20.4382C23.9104 18.533 22.4311 16.3589 22.4311 16.3589Z" fill="#A95913"/>
</g>
</svg>
