<svg width="190" height="190" viewBox="0 0 190 190" fill="none" xmlns="http://www.w3.org/2000/svg">
<g filter="url(#filter0_d)">
<circle cx="85" cy="85" r="75" fill="#525569"/>
</g>
<path d="M80.592 109.96C79.44 109.96 78.224 109.875 76.944 109.704C75.664 109.576 74.4267 109.384 73.232 109.128C72.0373 108.872 70.9493 108.595 69.968 108.296C68.9867 107.997 68.2187 107.72 67.664 107.464L69.52 99.528C70.6293 99.9973 72.0373 100.509 73.744 101.064C75.4933 101.576 77.648 101.832 80.208 101.832C83.152 101.832 85.3067 101.277 86.672 100.168C88.0373 99.0587 88.72 97.5653 88.72 95.688C88.72 94.536 88.464 93.576 87.952 92.808C87.4827 91.9973 86.8213 91.3573 85.968 90.888C85.1147 90.376 84.0907 90.0347 82.896 89.864C81.744 89.6507 80.5067 89.544 79.184 89.544H75.472V81.864H79.696C80.6347 81.864 81.5307 81.7787 82.384 81.608C83.28 81.4373 84.0693 81.16 84.752 80.776C85.4347 80.3493 85.968 79.7947 86.352 79.112C86.7787 78.3867 86.992 77.4907 86.992 76.424C86.992 75.6133 86.8213 74.9093 86.48 74.312C86.1387 73.7147 85.6907 73.224 85.136 72.84C84.624 72.456 84.0053 72.1787 83.28 72.008C82.5973 71.7947 81.8933 71.688 81.168 71.688C79.3333 71.688 77.6267 71.9653 76.048 72.52C74.512 73.0747 73.104 73.7573 71.824 74.568L68.432 67.592C69.1147 67.1653 69.904 66.7173 70.8 66.248C71.7387 65.7787 72.7627 65.352 73.872 64.968C74.9813 64.584 76.1547 64.264 77.392 64.008C78.672 63.752 80.016 63.624 81.424 63.624C84.0267 63.624 86.2667 63.944 88.144 64.584C90.064 65.1813 91.6427 66.056 92.88 67.208C94.1173 68.3173 95.0347 69.64 95.632 71.176C96.2293 72.6693 96.528 74.312 96.528 76.104C96.528 77.8533 96.0373 79.56 95.056 81.224C94.0747 82.8453 92.752 84.0827 91.088 84.936C93.392 85.8747 95.1627 87.2827 96.4 89.16C97.68 90.9947 98.32 93.2133 98.32 95.816C98.32 97.864 97.9787 99.7627 97.296 101.512C96.6133 103.219 95.5467 104.712 94.096 105.992C92.6453 107.229 90.7893 108.211 88.528 108.936C86.3093 109.619 83.664 109.96 80.592 109.96Z" fill="url(#paint0_linear)"/>
<defs>
<filter id="filter0_d" x="0" y="0" width="190" height="190" filterUnits="userSpaceOnUse" color-interpolation-filters="sRGB">
<feFlood flood-opacity="0" result="BackgroundImageFix"/>
<feColorMatrix in="SourceAlpha" type="matrix" values="0 0 0 0 0 0 0 0 0 0 0 0 0 0 0 0 0 0 127 0"/>
<feOffset dx="10" dy="10"/>
<feGaussianBlur stdDeviation="10"/>
<feColorMatrix type="matrix" values="0 0 0 0 0 0 0 0 0 0 0 0 0 0 0 0 0 0 0.2 0"/>
<feBlend mode="normal" in2="BackgroundImageFix" result="effect1_dropShadow"/>
<feBlend mode="normal" in="SourceGraphic" in2="effect1_dropShadow" result="shape"/>
</filter>
<linearGradient id="paint0_linear" x1="66.74" y1="84.7091" x2="107.736" y2="84.7091" gradientUnits="userSpaceOnUse">
<stop stop-color="#FFA89D"/>
<stop offset="0.5" stop-color="#F89EBD"/>
<stop offset="1" stop-color="#F77ED9"/>
</linearGradient>
</defs>
</svg>
