<svg width="51" height="28" viewBox="0 0 51 28" fill="none" xmlns="http://www.w3.org/2000/svg">
<path d="M50.0141 18.3089C50.1261 18.8244 50.1261 19.3847 50.1261 20.0347C50.0813 26.3329 43.2452 28.3502 38.3142 27.7226C29.3936 26.6243 17.4023 11.4728 11.1265 8.94002C6.71105 7.14693 -1.49231 7.81935 1.04042 4.16594C3.57315 0.512526 15.6092 -1.43746 21.773 1.6332C26.0091 3.76249 29.4608 7.28142 33.3159 10.0159C35.0418 11.2486 36.9245 12.5038 38.9866 13.0641C39.7262 13.2658 40.8245 13.0417 41.4521 13.2883C42.4159 13.6693 42.5503 16.5606 42.7745 17.7037C43.2003 16.2917 43.5365 14.8572 43.7383 13.4003C46.1141 13.8934 50.0141 15.1262 50.0141 18.3089Z" fill="#A95913"/>
<path opacity="0.25" d="M50.0141 18.3089C50.1261 18.8244 50.1261 19.3847 50.1261 20.0347C50.0813 26.3329 43.2452 28.3502 38.3142 27.7226C29.3936 26.6243 17.4023 11.4728 11.1265 8.94002C6.71105 7.14693 -1.49231 7.81935 1.04042 4.16594C3.57315 0.512526 15.6092 -1.43746 21.773 1.6332C26.0091 3.76249 29.4608 7.28142 33.3159 10.0159C35.0418 11.2486 36.9245 12.5038 38.9866 13.0641C39.7262 13.2658 40.8245 13.0417 41.4521 13.2883C42.4159 13.6693 42.5503 16.5606 42.7745 17.7037C43.2003 16.2917 43.5365 14.8572 43.7383 13.4003C46.1141 13.8934 50.0141 15.1262 50.0141 18.3089Z" fill="#A95913"/>
<path opacity="0.45" d="M39.0559 23.2623C30.1353 22.164 18.144 7.01246 11.8682 4.47973C9.26824 3.42629 5.36828 3.22457 3.10451 2.48492C2.18555 3.00043 1.46832 3.56077 1.02005 4.18835C-1.51269 7.84176 6.69068 7.16935 11.1062 8.96244C17.3595 11.4952 29.3732 26.6467 38.2938 27.745C43.2248 28.3502 50.0609 26.333 50.1058 20.0572C50.1058 19.6313 50.1057 19.2278 50.0609 18.8692C48.1334 22.5451 43.0006 23.733 39.0559 23.2623Z" fill="#A95913"/>
<g opacity="0.5">
<path opacity="0.5" d="M47.192 14.5658C47.0575 15.1486 46.923 15.7313 46.7213 16.3141C46.1834 17.9055 45.4886 19.4296 44.861 20.5278C44.2334 21.6037 43.7627 22.2985 43.7627 22.2985C43.7627 22.2985 43.3144 23.0157 42.5748 24.0019C41.8352 25.0106 40.6921 26.2433 39.4369 27.3864C39.28 27.5433 39.1007 27.6778 38.9214 27.8122C39.4145 27.8571 39.93 27.8571 40.4455 27.8571C43.0903 25.7726 44.9282 23.083 44.9282 23.083C44.9282 23.083 46.8782 20.0572 47.6851 16.6055C47.8196 16.09 47.9092 15.552 47.9989 15.0365C47.7299 14.8348 47.461 14.7003 47.192 14.5658Z" fill="#A95913"/>
<path opacity="0.5" d="M13.7061 10.4417C14.7147 8.37968 15.8578 6.74349 15.8578 6.74349C15.8578 6.74349 17.2475 4.39007 19.0854 2.35043C19.4664 1.90216 19.8923 1.4763 20.2733 1.09527C19.9595 0.983204 19.6457 0.893556 19.3319 0.803902C18.9957 1.07286 18.6819 1.36423 18.3682 1.65561C16.2837 3.58318 14.6699 5.98143 14.6699 5.98143C14.6699 5.98143 13.6389 7.70728 12.7648 9.83656C13.0786 10.0159 13.3923 10.2176 13.7061 10.4417Z" fill="#A95913"/>
<path opacity="0.5" d="M9.53719 0.512525C9.35788 0.759074 9.15616 1.02804 9.02168 1.25218C8.46134 2.14872 8.16996 2.79871 8.16996 2.79871C8.16996 2.79871 7.13894 5.24179 7.18377 7.95383C7.51997 8.02107 7.85618 8.08831 8.19238 8.15555C8.34927 5.6004 9.44754 3.38146 9.44754 3.38146C9.44754 3.38146 10.0303 1.94699 11.0389 0.310802C10.5458 0.35563 10.0527 0.422871 9.53719 0.512525Z" fill="#A95913"/>
<path opacity="0.5" d="M21.125 15.9779C22.7164 13.871 24.6439 12.0779 24.6439 12.0779C24.6439 12.0779 26.437 10.1504 28.4094 8.35727C28.8353 7.97623 29.2611 7.5952 29.6646 7.23659C29.4404 7.05728 29.2163 6.87797 29.0146 6.69866C28.6111 6.99003 28.2077 7.28141 27.7818 7.5952C25.6077 9.20898 23.6353 11.0917 23.6353 11.0917C23.6353 11.0917 21.7526 13.0865 20.2957 15.4175C20.2285 15.5296 20.1836 15.6193 20.1164 15.7313C20.3629 15.9331 20.5871 16.1572 20.8336 16.3589C20.9457 16.2244 21.0354 16.0899 21.125 15.9779Z" fill="#A95913"/>
<path opacity="0.5" d="M32.3318 25.3916C34.2594 23.3071 35.649 21.133 35.649 21.133C35.649 21.133 37.2852 18.3089 38.2041 15.2158C38.4283 14.4762 38.6076 13.7365 38.7645 13.0417C38.5179 12.9745 38.2714 12.8624 38.0248 12.7728C37.8231 13.4676 37.5766 14.1848 37.2852 14.902C36.1645 17.8158 34.4835 20.4158 34.4835 20.4158C34.4835 20.4158 33.2283 22.6571 31.4352 24.8537C31.7042 25.033 32.018 25.2123 32.3318 25.3916Z" fill="#A95913"/>
<path opacity="0.5" d="M28.4542 16.3589C28.4542 16.3589 31.4577 11.1814 32.3094 9.29865C32.2197 9.23141 32.1077 9.14175 31.9956 9.07451C30.6732 10.621 27.2663 15.5969 27.2663 15.5969C27.2663 15.5969 25.9888 17.7934 24.8681 19.833C25.1146 20.0347 25.3388 20.2365 25.5853 20.4382C26.9525 18.533 28.4542 16.3589 28.4542 16.3589Z" fill="#A95913"/>
</g>
</svg>
