<svg width="60" height="60" viewBox="0 0 60 60" fill="none" xmlns="http://www.w3.org/2000/svg">
<circle cx="30" cy="30" r="29.5" stroke="#727588"/>
<path d="M16.9008 32.3886L16.9007 32.3886C16.4658 31.2618 16.2169 30.0902 16.1619 28.9053C16.1619 28.9051 16.1619 28.905 16.1619 28.9049M16.9008 32.3886L16.6228 24.7328C16.9544 24.8261 17.1484 25.1712 17.0543 25.5037C16.7404 26.6155 16.6082 27.7517 16.6614 28.8817L16.1619 28.9049M16.9008 32.3886C16.9255 32.4528 16.8938 32.5247 16.8296 32.5496C16.7842 32.567 16.735 32.557 16.7 32.5251C16.6871 32.5133 16.6756 32.4977 16.6676 32.477L16.2017 32.6584M16.9008 32.3886L16.2017 32.6584M16.1619 28.9049C16.1062 27.72 16.2449 26.5302 16.5731 25.3678L16.5732 25.3675C16.5919 25.3015 16.5534 25.2327 16.4874 25.2141L16.487 25.214C16.4208 25.1953 16.3519 25.2337 16.3331 25.3001L16.1619 28.9049ZM16.2017 32.6584C16.238 32.7517 16.2939 32.8316 16.3634 32.8948C16.5329 33.0492 16.7807 33.1042 17.0094 33.0162L16.3331 25.3002C15.9973 26.4908 15.8563 27.7069 15.9131 28.9165L15.9131 28.9168C15.9692 30.1266 16.2229 31.3243 16.6681 32.4784L16.2017 32.6584Z" fill="#727588" stroke="#727588"/>
<path d="M14.2199 24.0548C14.5511 24.1477 14.7443 24.4937 14.6514 24.8257C14.2638 26.1979 14.1005 27.6019 14.1652 28.9983C14.2308 30.3947 14.5242 31.7774 15.0379 33.1075C15.1622 33.4294 15.002 33.791 14.68 33.9152M14.2199 24.0548C13.8878 23.961 13.5427 24.1542 13.449 24.4863M14.2199 24.0548L14.2199 24.0548L14.2199 24.0548ZM13.449 24.4863C13.0251 25.988 12.8464 27.5257 12.9174 29.0565C12.9893 30.5873 13.3104 32.1017 13.8723 33.5574M13.449 24.4863L13.9302 24.6221L13.449 24.4863ZM13.8723 33.5574C13.9086 33.6506 13.9645 33.7305 14.034 33.7938C14.2036 33.9482 14.4514 34.0031 14.68 33.9152M13.8723 33.5574L14.3382 33.376C14.3463 33.3966 14.3577 33.4123 14.3707 33.4241C14.4057 33.456 14.4549 33.466 14.5004 33.4485L14.68 33.9152M13.8723 33.5574L14.3387 33.3773C13.7959 31.971 13.4862 30.5095 13.4169 29.0334C13.3484 27.5571 13.5206 26.0731 13.9302 24.6222L14.5715 33.2876C14.5962 33.3518 14.5644 33.4239 14.5 33.4487L14.68 33.9152" fill="#727588" stroke="#727588"/>
<path d="M47.1182 28.6935L47.1182 28.6938C47.1855 30.1447 47.0157 31.6022 46.6139 33.0249C46.6007 33.0718 46.6153 33.12 46.6503 33.1518C46.6631 33.1635 46.6795 33.1734 46.7005 33.1795C46.7666 33.1977 46.835 33.1593 46.8537 33.0931C47.2632 31.6423 47.4354 30.1583 47.367 28.6822C47.367 28.6821 47.367 28.682 47.367 28.6819M47.1182 28.6935L45.746 24.6078C45.6218 24.2859 45.7819 23.9244 46.1038 23.8001C46.4257 23.6758 46.7865 23.8368 46.9115 24.1579C47.4734 25.6136 47.7946 27.128 47.8664 28.6588L47.367 28.6819M47.1182 28.6935C47.05 27.2425 46.7452 25.807 46.2125 24.4278L47.1182 28.6935ZM47.367 28.6819C47.2976 27.2058 46.988 25.7443 46.4451 24.3379L46.9115 24.1579L46.4456 24.3394C46.4198 24.273 46.3466 24.2423 46.2838 24.2665C46.2196 24.2914 46.1877 24.3635 46.2124 24.4277L47.367 28.6819Z" fill="#727588" stroke="#727588"/>
<path d="M44.8707 28.7989L44.8707 28.7985C44.8146 27.5888 44.5609 26.3911 44.1157 25.2369L44.5821 25.057L44.1166 25.2393C44.0901 25.1717 44.0164 25.1417 43.9545 25.1656L44.8707 28.7989ZM44.8707 28.7989C44.9275 30.0085 44.7865 31.2246 44.4507 32.4152L44.8707 28.7989ZM44.6219 28.8105C44.6219 28.8104 44.6219 28.8102 44.6219 28.8101M44.6219 28.8105L44.6219 28.8101M44.6219 28.8105C44.6776 29.9952 44.5389 31.1848 44.2109 32.347M44.6219 28.8105L44.2109 32.347M44.6219 28.8101C44.5669 27.6252 44.318 26.4536 43.8831 25.3269L44.6219 28.8101ZM44.2109 32.347C44.1977 32.3939 44.2123 32.442 44.2472 32.4739C44.2601 32.4856 44.2765 32.4954 44.2975 32.5015C44.3635 32.5198 44.4319 32.4814 44.4507 32.4153L44.2109 32.347ZM43.8831 25.3268C43.8583 25.2624 43.8903 25.1904 43.9544 25.1656L43.8831 25.3268Z" fill="#727588" stroke="#727588"/>
<path d="M37.0332 18.7201L37.0388 18.725L37.0446 18.7297C37.3112 18.9453 37.4804 19.2871 37.5 19.6603V34.8268C37.5 36.2283 36.129 37.4739 34.1542 37.4739C32.1794 37.4739 30.8084 36.2283 30.8084 34.8268C30.8084 33.422 32.1607 32.1797 34.1313 32.1797C34.7708 32.1797 35.3395 32.3102 35.8433 32.5446L36.5542 32.8754V32.0913V23.4489V22.7983L35.9255 22.9657L26.5629 25.4592L26.1916 25.5581V25.9423V37.8529C26.1916 39.2543 24.8206 40.5 22.8458 40.5C20.871 40.5 19.5 39.2543 19.5 37.8529C19.5 36.4514 20.871 35.2058 22.8458 35.2058C23.4852 35.2058 24.0539 35.3362 24.5577 35.5707L25.2687 35.9015V35.1173V22.3595C25.2687 21.8204 25.612 21.374 26.0692 21.2437L36.1591 18.5338C36.1594 18.5337 36.1597 18.5337 36.1599 18.5336C36.4712 18.4516 36.8017 18.5212 37.0332 18.7201Z" fill="#727588" stroke="#727588"/>
</svg>
