<svg width="60" height="60" viewBox="0 0 60 60" fill="none" xmlns="http://www.w3.org/2000/svg">
<path d="M37.1212 33L25.5455 21.4038C25.6667 21.3654 25.8283 21.3077 26.0303 21.2308C26.2323 21.1154 26.3737 21.0385 26.4545 21H26.5152L26.8788 20.8269C26.9192 20.8269 27 20.8077 27.1212 20.7692C27.2424 20.7308 27.3434 20.7115 27.4242 20.7115V19.8462C27.4242 19.3462 27.6061 18.9231 27.9697 18.5769C28.3333 18.1923 28.798 18 29.3636 18C29.9293 18 30.3939 18.1923 30.7576 18.5769C31.1212 18.9231 31.303 19.3462 31.303 19.8462V20.7115C33.1212 21.1346 34.5354 22.0577 35.5455 23.4808C36.596 24.9038 37.1212 26.5769 37.1212 28.5V33ZM31.1818 41.3077C30.697 41.7692 30.0909 42 29.3636 42C28.6364 42 28.0101 41.7692 27.4848 41.3077C27 40.8462 26.7576 40.2692 26.7576 39.5769H31.9697C31.9697 40.2692 31.7071 40.8462 31.1818 41.3077ZM23.9697 22.5C24.9394 23.4615 27.4646 25.9423 31.5455 29.9423C35.6667 33.9423 38.8182 37.0385 41 39.2308L39.3636 40.7885L36.7576 38.3077H19V37.0962L21.6061 34.6154V28.4423C21.6061 26.8654 21.9495 25.4615 22.6364 24.2308L19 20.8269L20.6364 19.2115L23.9697 22.5Z" fill="#727588"/>
<circle cx="30" cy="30" r="29.5" stroke="#727588"/>
</svg>
