<svg width="60" height="60" viewBox="0 0 60 60" fill="none" xmlns="http://www.w3.org/2000/svg">
<path d="M25.17 38.6134C24.183 38.1199 23.2957 37.4825 22.5319 36.7182C21.7675 35.9544 21.1301 35.067 20.6367 34.0801C20.4893 33.7847 20.1304 33.6659 19.8362 33.8133C19.5414 33.9606 19.422 34.319 19.5694 34.6138C20.1205 35.7155 20.8331 36.7071 21.6883 37.5618C22.543 38.4171 23.5346 39.1295 24.6363 39.6807C24.7219 39.7232 24.8128 39.7436 24.9025 39.7436C25.1216 39.7436 25.3319 39.623 25.4367 39.4138C25.5842 39.119 25.4648 38.7607 25.17 38.6134Z" fill="url(#paint0_linear)"/>
<path d="M24.1033 40.7463C22.8851 40.1375 21.7886 39.3498 20.8442 38.406C19.9003 37.4616 19.1127 36.3651 18.5038 35.1469C18.3558 34.8527 17.9969 34.7326 17.7033 34.88C17.4085 35.0274 17.2891 35.3857 17.4364 35.6805C18.103 37.0135 18.9658 38.2143 20.0005 39.2496C21.0358 40.2843 22.2365 41.1472 23.5695 41.8137C23.6552 41.8562 23.7461 41.8766 23.8358 41.8766C24.0548 41.8766 24.2651 41.756 24.37 41.5469C24.5175 41.2521 24.3981 40.8937 24.1033 40.7463Z" fill="url(#paint1_linear)"/>
<path d="M36.1469 17.5037C37.3651 18.1125 38.4616 18.9002 39.406 19.844C40.3498 20.7884 41.1375 21.8849 41.7464 23.1031C41.8512 23.3123 42.0615 23.4329 42.2806 23.4329C42.3703 23.4329 42.4612 23.4125 42.5468 23.37C42.8416 23.2226 42.961 22.8643 42.8137 22.5694C42.1471 21.2365 41.2843 20.0357 40.2496 19.0004C39.2143 17.9657 38.0136 17.1029 36.6805 16.4363C36.3857 16.2901 36.0274 16.4084 35.88 16.7032C35.7327 16.998 35.8521 17.3563 36.1469 17.5037Z" fill="url(#paint2_linear)"/>
<path d="M35.0801 19.6366C36.067 20.1301 36.9543 20.7675 37.7182 21.5318C38.4826 22.2956 39.1199 23.183 39.6134 24.1699C39.7182 24.3791 39.9285 24.4997 40.1476 24.4997C40.2373 24.4997 40.3282 24.4793 40.4138 24.4368C40.7086 24.2894 40.8281 23.931 40.6807 23.6362C40.1295 22.5345 39.417 21.5429 38.5618 20.6882C37.7071 19.833 36.7155 19.1205 35.6138 18.5693C35.319 18.4237 34.9607 18.5414 34.8132 18.8362C34.6659 19.1309 34.7853 19.4892 35.0801 19.6366Z" fill="url(#paint3_linear)"/>
<path d="M42.7257 31.432L27.812 16.5091C27.1385 15.8322 25.957 15.8293 25.28 16.5073L17.5243 24.2682C17.1864 24.6063 17 25.0563 17 25.5344C17 26.0125 17.1864 26.4626 17.5243 26.8007L32.438 41.7237C32.7753 42.063 33.2251 42.2501 33.7046 42.2501C34.1823 42.2501 34.6321 42.0636 34.97 41.7255L42.7257 33.9646C43.0636 33.6265 43.2501 33.1764 43.2501 32.6983C43.2501 32.2203 43.0636 31.7702 42.7257 31.432ZM38.3025 36.1094L37.1093 37.3026C36.9928 37.4191 36.8401 37.4774 36.6875 37.4774C36.5349 37.4774 36.3822 37.4191 36.2657 37.3026C36.0326 37.0695 36.0326 36.692 36.2657 36.459L37.4589 35.2658C37.6919 35.0328 38.0694 35.0328 38.3025 35.2658C38.5356 35.4988 38.5356 35.8764 38.3025 36.1094ZM32.2134 38.1249L19.6334 25.5456L26.5455 18.6341L39.1251 31.2132L32.2134 38.1249Z" fill="url(#paint4_linear)"/>
<path d="M24.3338 22.1407L23.1406 23.3338C22.9076 23.5669 22.9076 23.9444 23.1406 24.1774C23.2571 24.2939 23.4098 24.3522 23.5624 24.3522C23.7151 24.3522 23.8677 24.2939 23.9843 24.1774L25.1774 22.9843C25.4105 22.7512 25.4105 22.3737 25.1774 22.1407C24.9444 21.9076 24.5668 21.9076 24.3338 22.1407Z" fill="url(#paint5_linear)"/>
<path d="M26.5455 20.7728C26.875 20.7728 27.1421 20.5057 27.1421 20.1762C27.1421 19.8467 26.875 19.5796 26.5455 19.5796C26.216 19.5796 25.9489 19.8467 25.9489 20.1762C25.9489 20.5057 26.216 20.7728 26.5455 20.7728Z" fill="url(#paint6_linear)"/>
<circle cx="30" cy="30" r="29.5" stroke="url(#paint7_linear)"/>
<defs>
<linearGradient id="paint0_linear" x1="19.6261" y1="36.6923" x2="26.2671" y2="36.6923" gradientUnits="userSpaceOnUse">
<stop stop-color="#FFA89D"/>
<stop offset="0.5" stop-color="#F89EBD"/>
<stop offset="1" stop-color="#F77ED9"/>
</linearGradient>
<linearGradient id="paint1_linear" x1="17.5145" y1="38.2826" x2="25.3369" y2="38.2826" gradientUnits="userSpaceOnUse">
<stop stop-color="#FFA89D"/>
<stop offset="0.5" stop-color="#F89EBD"/>
<stop offset="1" stop-color="#F77ED9"/>
</linearGradient>
<linearGradient id="paint2_linear" x1="35.9581" y1="19.8391" x2="43.7805" y2="19.8391" gradientUnits="userSpaceOnUse">
<stop stop-color="#FFA89D"/>
<stop offset="0.5" stop-color="#F89EBD"/>
<stop offset="1" stop-color="#F77ED9"/>
</linearGradient>
<linearGradient id="paint3_linear" x1="34.87" y1="21.4488" x2="41.511" y2="21.4488" gradientUnits="userSpaceOnUse">
<stop stop-color="#FFA89D"/>
<stop offset="0.5" stop-color="#F89EBD"/>
<stop offset="1" stop-color="#F77ED9"/>
</linearGradient>
<linearGradient id="paint4_linear" x1="17.525" y1="28.8865" x2="46.6101" y2="28.8865" gradientUnits="userSpaceOnUse">
<stop stop-color="#FFA89D"/>
<stop offset="0.5" stop-color="#F89EBD"/>
<stop offset="1" stop-color="#F77ED9"/>
</linearGradient>
<linearGradient id="paint5_linear" x1="23.0135" y1="23.1374" x2="25.6577" y2="23.1374" gradientUnits="userSpaceOnUse">
<stop stop-color="#FFA89D"/>
<stop offset="0.5" stop-color="#F89EBD"/>
<stop offset="1" stop-color="#F77ED9"/>
</linearGradient>
<linearGradient id="paint6_linear" x1="25.9727" y1="20.1653" x2="27.2948" y2="20.1653" gradientUnits="userSpaceOnUse">
<stop stop-color="#FFA89D"/>
<stop offset="0.5" stop-color="#F89EBD"/>
<stop offset="1" stop-color="#F77ED9"/>
</linearGradient>
<linearGradient id="paint7_linear" x1="1.2" y1="29.4546" x2="67.68" y2="29.4546" gradientUnits="userSpaceOnUse">
<stop stop-color="#FFA89D"/>
<stop offset="0.5" stop-color="#F89EBD"/>
<stop offset="1" stop-color="#F77ED9"/>
</linearGradient>
</defs>
</svg>
