<svg width="279" height="16" viewBox="0 0 279 16" fill="none" xmlns="http://www.w3.org/2000/svg">
<path d="M8.432 3.16C8.60267 3.736 8.784 4.33867 8.976 4.968C9.168 5.58667 9.36533 6.21067 9.568 6.84C9.78133 7.45867 9.98933 8.072 10.192 8.68C10.4053 9.27733 10.608 9.84267 10.8 10.376C10.96 9.8 11.1147 9.176 11.264 8.504C11.4133 7.82133 11.5627 7.11733 11.712 6.392C11.8613 5.656 12.0053 4.90933 12.144 4.152C12.2933 3.39467 12.432 2.648 12.56 1.912H14.64C14.2667 3.91733 13.8507 5.848 13.392 7.704C12.9333 9.54933 12.4213 11.3147 11.856 13H9.936C9.104 10.8453 8.29867 8.49333 7.52 5.944C7.12533 7.23467 6.72533 8.46133 6.32 9.624C5.91467 10.7867 5.50933 11.912 5.104 13H3.184C2.608 11.3147 2.09067 9.54933 1.632 7.704C1.184 5.848 0.773333 3.91733 0.4 1.912H2.56C2.688 2.63733 2.82133 3.37867 2.96 4.136C3.10933 4.89333 3.25867 5.64 3.408 6.376C3.568 7.10133 3.728 7.80533 3.888 8.488C4.048 9.17067 4.208 9.8 4.368 10.376C4.57067 9.832 4.77333 9.26133 4.976 8.664C5.18933 8.056 5.39733 7.44267 5.6 6.824C5.80267 6.19467 5.99467 5.57067 6.176 4.952C6.368 4.33333 6.544 3.736 6.704 3.16H8.432ZM16.2476 13V0.903999L18.1836 0.584V4.728C18.397 4.65333 18.6423 4.58933 18.9196 4.536C19.2076 4.48267 19.4903 4.456 19.7676 4.456C20.4396 4.456 20.9943 4.552 21.4316 4.744C21.8796 4.92533 22.237 5.18667 22.5036 5.528C22.7703 5.85867 22.957 6.25867 23.0636 6.728C23.181 7.19733 23.2396 7.72 23.2396 8.296V13H21.3036V8.6C21.3036 8.152 21.2716 7.77333 21.2076 7.464C21.1543 7.144 21.0583 6.888 20.9196 6.696C20.7916 6.49333 20.6156 6.34933 20.3916 6.264C20.1676 6.168 19.8903 6.12 19.5596 6.12C19.3036 6.12 19.0423 6.14667 18.7756 6.2C18.509 6.25333 18.3116 6.30133 18.1836 6.344V13H16.2476ZM27.5121 13H25.5761V4.632H27.5121V13ZM27.7201 2.184C27.7201 2.54667 27.6028 2.83467 27.3681 3.048C27.1335 3.26133 26.8561 3.368 26.5361 3.368C26.2055 3.368 25.9228 3.26133 25.6881 3.048C25.4535 2.83467 25.3361 2.54667 25.3361 2.184C25.3361 1.81067 25.4535 1.51733 25.6881 1.304C25.9228 1.09067 26.2055 0.983999 26.5361 0.983999C26.8561 0.983999 27.1335 1.09067 27.3681 1.304C27.6028 1.51733 27.7201 1.81067 27.7201 2.184ZM29.518 8.824C29.518 8.20533 29.614 7.62933 29.806 7.096C29.998 6.552 30.27 6.08267 30.622 5.688C30.9847 5.29333 31.422 4.984 31.934 4.76C32.446 4.536 33.022 4.424 33.662 4.424C34.4513 4.424 35.198 4.568 35.902 4.856L35.486 6.44C35.262 6.344 35.006 6.264 34.718 6.2C34.4407 6.136 34.142 6.104 33.822 6.104C33.0647 6.104 32.4887 6.344 32.094 6.824C31.6993 7.29333 31.502 7.96 31.502 8.824C31.502 9.656 31.6887 10.3173 32.062 10.808C32.4353 11.288 33.0647 11.528 33.95 11.528C34.2807 11.528 34.606 11.496 34.926 11.432C35.246 11.368 35.5233 11.288 35.758 11.192L36.03 12.792C35.8167 12.8987 35.4913 12.9947 35.054 13.08C34.6273 13.1653 34.1847 13.208 33.726 13.208C33.0113 13.208 32.3873 13.1013 31.854 12.888C31.3313 12.664 30.894 12.36 30.542 11.976C30.2007 11.5813 29.9447 11.1173 29.774 10.584C29.6033 10.04 29.518 9.45333 29.518 8.824ZM37.5289 13V0.903999L39.4649 0.584V4.728C39.6782 4.65333 39.9235 4.58933 40.2009 4.536C40.4889 4.48267 40.7715 4.456 41.0489 4.456C41.7209 4.456 42.2755 4.552 42.7129 4.744C43.1609 4.92533 43.5182 5.18667 43.7849 5.528C44.0515 5.85867 44.2382 6.25867 44.3449 6.728C44.4622 7.19733 44.5209 7.72 44.5209 8.296V13H42.5849V8.6C42.5849 8.152 42.5529 7.77333 42.4889 7.464C42.4355 7.144 42.3395 6.888 42.2009 6.696C42.0729 6.49333 41.8969 6.34933 41.6729 6.264C41.4489 6.168 41.1715 6.12 40.8409 6.12C40.5849 6.12 40.3235 6.14667 40.0569 6.2C39.7902 6.25333 39.5929 6.30133 39.4649 6.344V13H37.5289ZM50.5758 13V0.903999L52.5118 0.584V4.728C52.7251 4.65333 52.9704 4.58933 53.2478 4.536C53.5358 4.48267 53.8184 4.456 54.0958 4.456C54.7678 4.456 55.3224 4.552 55.7598 4.744C56.2078 4.92533 56.5651 5.18667 56.8318 5.528C57.0984 5.85867 57.2851 6.25867 57.3918 6.728C57.5091 7.19733 57.5677 7.72 57.5677 8.296V13H55.6318V8.6C55.6318 8.152 55.5998 7.77333 55.5358 7.464C55.4824 7.144 55.3864 6.888 55.2478 6.696C55.1198 6.49333 54.9438 6.34933 54.7198 6.264C54.4958 6.168 54.2184 6.12 53.8878 6.12C53.6318 6.12 53.3704 6.14667 53.1038 6.2C52.8371 6.25333 52.6398 6.30133 52.5118 6.344V13H50.5758ZM62.8323 11.64C63.4296 11.64 63.8829 11.608 64.1923 11.544V9.4C64.0856 9.368 63.9309 9.336 63.7283 9.304C63.5256 9.272 63.3016 9.256 63.0563 9.256C62.8429 9.256 62.6243 9.272 62.4003 9.304C62.1869 9.336 61.9896 9.39467 61.8083 9.48C61.6376 9.56533 61.4989 9.688 61.3923 9.848C61.2856 9.99733 61.2323 10.1893 61.2323 10.424C61.2323 10.8827 61.3763 11.2027 61.6643 11.384C61.9523 11.5547 62.3416 11.64 62.8323 11.64ZM62.6723 4.424C63.3123 4.424 63.8509 4.504 64.2883 4.664C64.7256 4.824 65.0723 5.048 65.3283 5.336C65.5949 5.624 65.7816 5.976 65.8883 6.392C66.0056 6.79733 66.0643 7.24533 66.0643 7.736V12.808C65.7656 12.872 65.3123 12.9467 64.7043 13.032C64.1069 13.128 63.4296 13.176 62.6723 13.176C62.1709 13.176 61.7123 13.128 61.2963 13.032C60.8803 12.936 60.5229 12.7813 60.2243 12.568C59.9363 12.3547 59.7069 12.0773 59.5363 11.736C59.3763 11.3947 59.2963 10.9733 59.2963 10.472C59.2963 9.992 59.3869 9.58667 59.5683 9.256C59.7603 8.92533 60.0163 8.65867 60.3363 8.456C60.6563 8.24267 61.0243 8.09333 61.4403 8.008C61.8669 7.912 62.3096 7.864 62.7682 7.864C62.9816 7.864 63.2056 7.88 63.4403 7.912C63.6749 7.93333 63.9256 7.976 64.1923 8.04V7.72C64.1923 7.496 64.1656 7.28267 64.1123 7.08C64.0589 6.87733 63.9629 6.70133 63.8243 6.552C63.6963 6.392 63.5203 6.26933 63.2963 6.184C63.0829 6.09867 62.8109 6.056 62.4803 6.056C62.0323 6.056 61.6216 6.088 61.2483 6.152C60.8749 6.216 60.5709 6.29067 60.3363 6.376L60.0963 4.808C60.3416 4.72267 60.6989 4.63733 61.1683 4.552C61.6376 4.46667 62.1389 4.424 62.6723 4.424ZM70.3871 13H68.4511V4.632H70.3871V13ZM70.5951 2.184C70.5951 2.54667 70.4778 2.83467 70.2431 3.048C70.0085 3.26133 69.7311 3.368 69.4111 3.368C69.0805 3.368 68.7978 3.26133 68.5631 3.048C68.3285 2.83467 68.2111 2.54667 68.2111 2.184C68.2111 1.81067 68.3285 1.51733 68.5631 1.304C68.7978 1.09067 69.0805 0.983999 69.4111 0.983999C69.7311 0.983999 70.0085 1.09067 70.2431 1.304C70.4778 1.51733 70.5951 1.81067 70.5951 2.184ZM77.625 6.376C77.465 6.32267 77.241 6.26933 76.953 6.216C76.6757 6.152 76.3503 6.12 75.977 6.12C75.7637 6.12 75.5343 6.14133 75.289 6.184C75.0543 6.22667 74.889 6.264 74.793 6.296V13H72.857V5.032C73.2303 4.89333 73.6943 4.76533 74.249 4.648C74.8143 4.52 75.4383 4.456 76.121 4.456C76.249 4.456 76.3983 4.46667 76.569 4.488C76.7397 4.49867 76.9103 4.52 77.081 4.552C77.2517 4.57333 77.417 4.60533 77.577 4.648C77.737 4.68 77.865 4.712 77.961 4.744L77.625 6.376ZM81.4061 11.608C81.9181 11.608 82.2915 11.5493 82.5261 11.432C82.7608 11.304 82.8781 11.0907 82.8781 10.792C82.8781 10.5147 82.7501 10.2853 82.4941 10.104C82.2488 9.92267 81.8381 9.72533 81.2621 9.512C80.9101 9.384 80.5848 9.25067 80.2861 9.112C79.9981 8.96267 79.7475 8.792 79.5341 8.6C79.3208 8.408 79.1501 8.17867 79.0221 7.912C78.9048 7.63467 78.8461 7.29867 78.8461 6.904C78.8461 6.136 79.1288 5.53333 79.6941 5.096C80.2595 4.648 81.0275 4.424 81.9981 4.424C82.4888 4.424 82.9581 4.472 83.4061 4.568C83.8541 4.65333 84.1901 4.73867 84.4141 4.824L84.0621 6.392C83.8488 6.296 83.5768 6.21067 83.2461 6.136C82.9155 6.05067 82.5315 6.008 82.0941 6.008C81.6995 6.008 81.3795 6.07733 81.1341 6.216C80.8888 6.344 80.7661 6.54667 80.7661 6.824C80.7661 6.96267 80.7875 7.08533 80.8301 7.192C80.8835 7.29867 80.9688 7.4 81.0861 7.496C81.2035 7.58133 81.3581 7.672 81.5501 7.768C81.7421 7.85333 81.9768 7.944 82.2541 8.04C82.7128 8.21067 83.1021 8.38133 83.4221 8.552C83.7421 8.712 84.0035 8.89867 84.2061 9.112C84.4195 9.31467 84.5741 9.54933 84.6701 9.816C84.7661 10.0827 84.8141 10.4027 84.8141 10.776C84.8141 11.576 84.5155 12.184 83.9181 12.6C83.3315 13.0053 82.4888 13.208 81.3901 13.208C80.6541 13.208 80.0621 13.144 79.6141 13.016C79.1661 12.8987 78.8515 12.8027 78.6701 12.728L79.0061 11.112C79.2941 11.2293 79.6355 11.3413 80.0301 11.448C80.4355 11.5547 80.8941 11.608 81.4061 11.608ZM86.5266 2.424L88.4626 2.104V4.632H91.4386V6.248H88.4626V9.656C88.4626 10.328 88.5693 10.808 88.7826 11.096C88.996 11.384 89.3586 11.528 89.8706 11.528C90.2226 11.528 90.532 11.4907 90.7986 11.416C91.076 11.3413 91.2946 11.272 91.4546 11.208L91.7746 12.744C91.5506 12.84 91.2573 12.936 90.8946 13.032C90.532 13.1387 90.1053 13.192 89.6146 13.192C89.0173 13.192 88.516 13.112 88.1106 12.952C87.716 12.792 87.4013 12.5627 87.1666 12.264C86.932 11.9547 86.7666 11.5867 86.6706 11.16C86.5746 10.7227 86.5266 10.2267 86.5266 9.672V2.424ZM100.142 4.632C99.2781 7.81067 98.2755 10.6907 97.1341 13.272C96.9208 13.752 96.7021 14.1627 96.4781 14.504C96.2541 14.8453 96.0035 15.128 95.7261 15.352C95.4488 15.576 95.1395 15.736 94.7981 15.832C94.4568 15.9387 94.0621 15.992 93.6141 15.992C93.3155 15.992 93.0168 15.96 92.7181 15.896C92.4301 15.832 92.2115 15.7627 92.0621 15.688L92.4141 14.136C92.7981 14.2853 93.1768 14.36 93.5501 14.36C94.0515 14.36 94.4408 14.2373 94.7181 13.992C95.0061 13.7573 95.2568 13.3893 95.4701 12.888C94.8621 11.7147 94.2755 10.4347 93.7101 9.048C93.1555 7.66133 92.6595 6.18933 92.2221 4.632H94.2861C94.3928 5.08 94.5208 5.56533 94.6701 6.088C94.8301 6.61067 95.0008 7.144 95.1821 7.688C95.3635 8.22133 95.5555 8.75467 95.7581 9.288C95.9608 9.82133 96.1635 10.3173 96.3661 10.776C96.7075 9.82667 97.0275 8.81867 97.3261 7.752C97.6248 6.67467 97.8968 5.63467 98.1421 4.632H100.142ZM104.519 13.16C103.943 13.1493 103.463 13.0853 103.079 12.968C102.706 12.8507 102.407 12.6853 102.183 12.472C101.959 12.248 101.799 11.976 101.703 11.656C101.618 11.3253 101.575 10.952 101.575 10.536V0.903999L103.511 0.584V10.168C103.511 10.4027 103.527 10.6 103.559 10.76C103.602 10.92 103.671 11.0587 103.767 11.176C103.863 11.2827 103.991 11.368 104.151 11.432C104.322 11.4853 104.535 11.528 104.791 11.56L104.519 13.16ZM105.893 8.856C105.893 8.12 106 7.47467 106.213 6.92C106.437 6.36533 106.73 5.90667 107.093 5.544C107.456 5.17067 107.872 4.89333 108.341 4.712C108.81 4.52 109.29 4.424 109.781 4.424C110.933 4.424 111.829 4.78133 112.469 5.496C113.12 6.21067 113.445 7.27733 113.445 8.696C113.445 8.80267 113.44 8.92533 113.429 9.064C113.429 9.192 113.424 9.30933 113.413 9.416H107.893C107.946 10.088 108.181 10.6107 108.597 10.984C109.024 11.3467 109.637 11.528 110.437 11.528C110.906 11.528 111.333 11.4853 111.717 11.4C112.112 11.3147 112.421 11.224 112.645 11.128L112.901 12.712C112.794 12.7653 112.645 12.824 112.453 12.888C112.272 12.9413 112.058 12.9893 111.813 13.032C111.578 13.0853 111.322 13.128 111.045 13.16C110.768 13.192 110.485 13.208 110.197 13.208C109.461 13.208 108.821 13.1013 108.277 12.888C107.733 12.664 107.285 12.36 106.933 11.976C106.581 11.5813 106.32 11.1227 106.149 10.6C105.978 10.0667 105.893 9.48533 105.893 8.856ZM111.509 7.992C111.509 7.72533 111.472 7.47467 111.397 7.24C111.322 6.99467 111.21 6.78667 111.061 6.616C110.922 6.43467 110.746 6.296 110.533 6.2C110.33 6.09333 110.085 6.04 109.797 6.04C109.498 6.04 109.237 6.09867 109.013 6.216C108.789 6.32267 108.597 6.46667 108.437 6.648C108.288 6.82933 108.17 7.03733 108.085 7.272C108 7.50667 107.941 7.74667 107.909 7.992H111.509ZM120.752 8.792C120.752 9.64533 120.955 10.3173 121.36 10.808C121.765 11.288 122.325 11.528 123.04 11.528C123.349 11.528 123.611 11.5173 123.824 11.496C124.048 11.464 124.229 11.432 124.368 11.4V6.6C124.197 6.48267 123.968 6.376 123.68 6.28C123.403 6.17333 123.104 6.12 122.784 6.12C122.08 6.12 121.563 6.36 121.232 6.84C120.912 7.32 120.752 7.97067 120.752 8.792ZM126.304 12.744C125.92 12.8613 125.435 12.968 124.848 13.064C124.272 13.16 123.664 13.208 123.024 13.208C122.363 13.208 121.771 13.1067 121.248 12.904C120.725 12.7013 120.277 12.4133 119.904 12.04C119.541 11.656 119.259 11.1973 119.056 10.664C118.864 10.12 118.768 9.512 118.768 8.84C118.768 8.17867 118.848 7.58133 119.008 7.048C119.179 6.504 119.424 6.04 119.744 5.656C120.064 5.272 120.453 4.97867 120.912 4.776C121.371 4.56267 121.899 4.456 122.496 4.456C122.901 4.456 123.259 4.504 123.568 4.6C123.877 4.696 124.144 4.80267 124.368 4.92V0.903999L126.304 0.584V12.744ZM130.715 13H128.779V4.632H130.715V13ZM130.923 2.184C130.923 2.54667 130.806 2.83467 130.571 3.048C130.337 3.26133 130.059 3.368 129.739 3.368C129.409 3.368 129.126 3.26133 128.891 3.048C128.657 2.83467 128.539 2.54667 128.539 2.184C128.539 1.81067 128.657 1.51733 128.891 1.304C129.126 1.09067 129.409 0.983999 129.739 0.983999C130.059 0.983999 130.337 1.09067 130.571 1.304C130.806 1.51733 130.923 1.81067 130.923 2.184ZM134.705 8.792C134.705 9.64533 134.908 10.3173 135.313 10.808C135.718 11.288 136.278 11.528 136.993 11.528C137.302 11.528 137.564 11.5173 137.777 11.496C138.001 11.464 138.182 11.432 138.321 11.4V6.6C138.15 6.48267 137.921 6.376 137.633 6.28C137.356 6.17333 137.057 6.12 136.737 6.12C136.033 6.12 135.516 6.36 135.185 6.84C134.865 7.32 134.705 7.97067 134.705 8.792ZM140.257 12.744C139.873 12.8613 139.388 12.968 138.801 13.064C138.225 13.16 137.617 13.208 136.977 13.208C136.316 13.208 135.724 13.1067 135.201 12.904C134.678 12.7013 134.23 12.4133 133.857 12.04C133.494 11.656 133.212 11.1973 133.009 10.664C132.817 10.12 132.721 9.512 132.721 8.84C132.721 8.17867 132.801 7.58133 132.961 7.048C133.132 6.504 133.377 6.04 133.697 5.656C134.017 5.272 134.406 4.97867 134.865 4.776C135.324 4.56267 135.852 4.456 136.449 4.456C136.854 4.456 137.212 4.504 137.521 4.6C137.83 4.696 138.097 4.80267 138.321 4.92V0.903999L140.257 0.584V12.744ZM146.355 2.424L148.291 2.104V4.632H151.267V6.248H148.291V9.656C148.291 10.328 148.397 10.808 148.611 11.096C148.824 11.384 149.187 11.528 149.699 11.528C150.051 11.528 150.36 11.4907 150.627 11.416C150.904 11.3413 151.123 11.272 151.283 11.208L151.603 12.744C151.379 12.84 151.085 12.936 150.723 13.032C150.36 13.1387 149.933 13.192 149.443 13.192C148.845 13.192 148.344 13.112 147.939 12.952C147.544 12.792 147.229 12.5627 146.995 12.264C146.76 11.9547 146.595 11.5867 146.499 11.16C146.403 10.7227 146.355 10.2267 146.355 9.672V2.424ZM153.138 13V0.903999L155.074 0.584V4.728C155.288 4.65333 155.533 4.58933 155.81 4.536C156.098 4.48267 156.381 4.456 156.658 4.456C157.33 4.456 157.885 4.552 158.322 4.744C158.77 4.92533 159.128 5.18667 159.394 5.528C159.661 5.85867 159.848 6.25867 159.954 6.728C160.072 7.19733 160.13 7.72 160.13 8.296V13H158.194V8.6C158.194 8.152 158.162 7.77333 158.098 7.464C158.045 7.144 157.949 6.888 157.81 6.696C157.682 6.49333 157.506 6.34933 157.282 6.264C157.058 6.168 156.781 6.12 156.45 6.12C156.194 6.12 155.933 6.14667 155.666 6.2C155.4 6.25333 155.202 6.30133 155.074 6.344V13H153.138ZM161.987 8.856C161.987 8.12 162.093 7.47467 162.307 6.92C162.531 6.36533 162.824 5.90667 163.187 5.544C163.549 5.17067 163.965 4.89333 164.435 4.712C164.904 4.52 165.384 4.424 165.875 4.424C167.027 4.424 167.923 4.78133 168.563 5.496C169.213 6.21067 169.539 7.27733 169.539 8.696C169.539 8.80267 169.533 8.92533 169.523 9.064C169.523 9.192 169.517 9.30933 169.507 9.416H163.987C164.04 10.088 164.275 10.6107 164.691 10.984C165.117 11.3467 165.731 11.528 166.531 11.528C167 11.528 167.427 11.4853 167.811 11.4C168.205 11.3147 168.515 11.224 168.739 11.128L168.995 12.712C168.888 12.7653 168.739 12.824 168.547 12.888C168.365 12.9413 168.152 12.9893 167.907 13.032C167.672 13.0853 167.416 13.128 167.139 13.16C166.861 13.192 166.579 13.208 166.291 13.208C165.555 13.208 164.915 13.1013 164.371 12.888C163.827 12.664 163.379 12.36 163.027 11.976C162.675 11.5813 162.413 11.1227 162.243 10.6C162.072 10.0667 161.987 9.48533 161.987 8.856ZM167.603 7.992C167.603 7.72533 167.565 7.47467 167.491 7.24C167.416 6.99467 167.304 6.78667 167.155 6.616C167.016 6.43467 166.84 6.296 166.627 6.2C166.424 6.09333 166.179 6.04 165.891 6.04C165.592 6.04 165.331 6.09867 165.107 6.216C164.883 6.32267 164.691 6.46667 164.531 6.648C164.381 6.82933 164.264 7.03733 164.179 7.272C164.093 7.50667 164.035 7.74667 164.003 7.992H167.603ZM174.862 8.824C174.862 8.20533 174.958 7.62933 175.15 7.096C175.342 6.552 175.614 6.08267 175.966 5.688C176.328 5.29333 176.766 4.984 177.278 4.76C177.79 4.536 178.366 4.424 179.006 4.424C179.795 4.424 180.542 4.568 181.246 4.856L180.83 6.44C180.606 6.344 180.35 6.264 180.062 6.2C179.784 6.136 179.486 6.104 179.166 6.104C178.408 6.104 177.832 6.344 177.438 6.824C177.043 7.29333 176.846 7.96 176.846 8.824C176.846 9.656 177.032 10.3173 177.406 10.808C177.779 11.288 178.408 11.528 179.294 11.528C179.624 11.528 179.95 11.496 180.27 11.432C180.59 11.368 180.867 11.288 181.102 11.192L181.374 12.792C181.16 12.8987 180.835 12.9947 180.398 13.08C179.971 13.1653 179.528 13.208 179.07 13.208C178.355 13.208 177.731 13.1013 177.198 12.888C176.675 12.664 176.238 12.36 175.886 11.976C175.544 11.5813 175.288 11.1173 175.118 10.584C174.947 10.04 174.862 9.45333 174.862 8.824ZM187.641 6.376C187.481 6.32267 187.257 6.26933 186.969 6.216C186.691 6.152 186.366 6.12 185.993 6.12C185.779 6.12 185.55 6.14133 185.305 6.184C185.07 6.22667 184.905 6.264 184.809 6.296V13H182.873V5.032C183.246 4.89333 183.71 4.76533 184.265 4.648C184.83 4.52 185.454 4.456 186.137 4.456C186.265 4.456 186.414 4.46667 186.585 4.488C186.755 4.49867 186.926 4.52 187.097 4.552C187.267 4.57333 187.433 4.60533 187.593 4.648C187.753 4.68 187.881 4.712 187.977 4.744L187.641 6.376ZM191.278 13H189.342V4.632H191.278V13ZM191.486 2.184C191.486 2.54667 191.368 2.83467 191.134 3.048C190.899 3.26133 190.622 3.368 190.302 3.368C189.971 3.368 189.688 3.26133 189.454 3.048C189.219 2.83467 189.102 2.54667 189.102 2.184C189.102 1.81067 189.219 1.51733 189.454 1.304C189.688 1.09067 189.971 0.983999 190.302 0.983999C190.622 0.983999 190.899 1.09067 191.134 1.304C191.368 1.51733 191.486 1.81067 191.486 2.184ZM198.516 8.6C198.516 7.72533 198.404 7.096 198.18 6.712C197.966 6.31733 197.561 6.12 196.964 6.12C196.75 6.12 196.516 6.136 196.26 6.168C196.004 6.2 195.812 6.22667 195.684 6.248V13H193.748V4.904C194.121 4.79733 194.606 4.696 195.204 4.6C195.812 4.504 196.452 4.456 197.124 4.456C197.7 4.456 198.169 4.53067 198.532 4.68C198.905 4.82933 199.214 5.02667 199.46 5.272C199.577 5.18667 199.726 5.096 199.908 5C200.089 4.904 200.292 4.81867 200.516 4.744C200.74 4.65867 200.974 4.58933 201.22 4.536C201.476 4.48267 201.732 4.456 201.988 4.456C202.638 4.456 203.172 4.552 203.588 4.744C204.014 4.92533 204.345 5.18667 204.58 5.528C204.825 5.85867 204.99 6.264 205.076 6.744C205.172 7.21333 205.22 7.73067 205.22 8.296V13H203.284V8.6C203.284 7.72533 203.177 7.096 202.964 6.712C202.75 6.31733 202.34 6.12 201.732 6.12C201.422 6.12 201.129 6.17333 200.852 6.28C200.574 6.376 200.366 6.472 200.228 6.568C200.313 6.83467 200.372 7.11733 200.404 7.416C200.436 7.71467 200.452 8.03467 200.452 8.376V13H198.516V8.6ZM209.543 13H207.607V4.632H209.543V13ZM209.751 2.184C209.751 2.54667 209.634 2.83467 209.399 3.048C209.165 3.26133 208.887 3.368 208.567 3.368C208.237 3.368 207.954 3.26133 207.719 3.048C207.485 2.83467 207.367 2.54667 207.367 2.184C207.367 1.81067 207.485 1.51733 207.719 1.304C207.954 1.09067 208.237 0.983999 208.567 0.983999C208.887 0.983999 209.165 1.09067 209.399 1.304C209.634 1.51733 209.751 1.81067 209.751 2.184ZM212.013 4.904C212.387 4.79733 212.872 4.696 213.469 4.6C214.067 4.504 214.728 4.456 215.453 4.456C216.136 4.456 216.707 4.552 217.165 4.744C217.624 4.92533 217.987 5.18667 218.253 5.528C218.531 5.85867 218.723 6.264 218.829 6.744C218.947 7.21333 219.005 7.73067 219.005 8.296V13H217.069V8.6C217.069 8.152 217.037 7.77333 216.973 7.464C216.92 7.144 216.824 6.888 216.685 6.696C216.557 6.49333 216.376 6.34933 216.141 6.264C215.917 6.168 215.64 6.12 215.309 6.12C215.064 6.12 214.808 6.136 214.541 6.168C214.275 6.2 214.077 6.22667 213.949 6.248V13H212.013V4.904ZM224.317 11.64C224.914 11.64 225.367 11.608 225.677 11.544V9.4C225.57 9.368 225.415 9.336 225.213 9.304C225.01 9.272 224.786 9.256 224.541 9.256C224.327 9.256 224.109 9.272 223.885 9.304C223.671 9.336 223.474 9.39467 223.293 9.48C223.122 9.56533 222.983 9.688 222.877 9.848C222.77 9.99733 222.717 10.1893 222.717 10.424C222.717 10.8827 222.861 11.2027 223.149 11.384C223.437 11.5547 223.826 11.64 224.317 11.64ZM224.157 4.424C224.797 4.424 225.335 4.504 225.773 4.664C226.21 4.824 226.557 5.048 226.813 5.336C227.079 5.624 227.266 5.976 227.373 6.392C227.49 6.79733 227.549 7.24533 227.549 7.736V12.808C227.25 12.872 226.797 12.9467 226.189 13.032C225.591 13.128 224.914 13.176 224.157 13.176C223.655 13.176 223.197 13.128 222.781 13.032C222.365 12.936 222.007 12.7813 221.709 12.568C221.421 12.3547 221.191 12.0773 221.021 11.736C220.861 11.3947 220.781 10.9733 220.781 10.472C220.781 9.992 220.871 9.58667 221.053 9.256C221.245 8.92533 221.501 8.65867 221.821 8.456C222.141 8.24267 222.509 8.09333 222.925 8.008C223.351 7.912 223.794 7.864 224.253 7.864C224.466 7.864 224.69 7.88 224.925 7.912C225.159 7.93333 225.41 7.976 225.677 8.04V7.72C225.677 7.496 225.65 7.28267 225.597 7.08C225.543 6.87733 225.447 6.70133 225.309 6.552C225.181 6.392 225.005 6.26933 224.781 6.184C224.567 6.09867 224.295 6.056 223.965 6.056C223.517 6.056 223.106 6.088 222.733 6.152C222.359 6.216 222.055 6.29067 221.821 6.376L221.581 4.808C221.826 4.72267 222.183 4.63733 222.653 4.552C223.122 4.46667 223.623 4.424 224.157 4.424ZM232.832 13.16C232.256 13.1493 231.776 13.0853 231.392 12.968C231.018 12.8507 230.72 12.6853 230.496 12.472C230.272 12.248 230.112 11.976 230.016 11.656C229.93 11.3253 229.888 10.952 229.888 10.536V0.903999L231.824 0.584V10.168C231.824 10.4027 231.84 10.6 231.872 10.76C231.914 10.92 231.984 11.0587 232.08 11.176C232.176 11.2827 232.304 11.368 232.464 11.432C232.634 11.4853 232.848 11.528 233.104 11.56L232.832 13.16ZM238.404 13V0.903999L240.34 0.584V4.728C240.553 4.65333 240.799 4.58933 241.076 4.536C241.364 4.48267 241.647 4.456 241.924 4.456C242.596 4.456 243.151 4.552 243.588 4.744C244.036 4.92533 244.393 5.18667 244.66 5.528C244.927 5.85867 245.113 6.25867 245.22 6.728C245.337 7.19733 245.396 7.72 245.396 8.296V13H243.46V8.6C243.46 8.152 243.428 7.77333 243.364 7.464C243.311 7.144 243.215 6.888 243.076 6.696C242.948 6.49333 242.772 6.34933 242.548 6.264C242.324 6.168 242.047 6.12 241.716 6.12C241.46 6.12 241.199 6.14667 240.932 6.2C240.665 6.25333 240.468 6.30133 240.34 6.344V13H238.404ZM250.66 11.64C251.258 11.64 251.711 11.608 252.02 11.544V9.4C251.914 9.368 251.759 9.336 251.556 9.304C251.354 9.272 251.13 9.256 250.884 9.256C250.671 9.256 250.452 9.272 250.228 9.304C250.015 9.336 249.818 9.39467 249.636 9.48C249.466 9.56533 249.327 9.688 249.22 9.848C249.114 9.99733 249.06 10.1893 249.06 10.424C249.06 10.8827 249.204 11.2027 249.492 11.384C249.78 11.5547 250.17 11.64 250.66 11.64ZM250.5 4.424C251.14 4.424 251.679 4.504 252.116 4.664C252.554 4.824 252.9 5.048 253.156 5.336C253.423 5.624 253.61 5.976 253.716 6.392C253.834 6.79733 253.892 7.24533 253.892 7.736V12.808C253.594 12.872 253.14 12.9467 252.532 13.032C251.935 13.128 251.258 13.176 250.5 13.176C249.999 13.176 249.54 13.128 249.124 13.032C248.708 12.936 248.351 12.7813 248.052 12.568C247.764 12.3547 247.535 12.0773 247.364 11.736C247.204 11.3947 247.124 10.9733 247.124 10.472C247.124 9.992 247.215 9.58667 247.396 9.256C247.588 8.92533 247.844 8.65867 248.164 8.456C248.484 8.24267 248.852 8.09333 249.268 8.008C249.695 7.912 250.138 7.864 250.596 7.864C250.81 7.864 251.034 7.88 251.268 7.912C251.503 7.93333 251.754 7.976 252.02 8.04V7.72C252.02 7.496 251.994 7.28267 251.94 7.08C251.887 6.87733 251.791 6.70133 251.652 6.552C251.524 6.392 251.348 6.26933 251.124 6.184C250.911 6.09867 250.639 6.056 250.308 6.056C249.86 6.056 249.45 6.088 249.076 6.152C248.703 6.216 248.399 6.29067 248.164 6.376L247.924 4.808C248.17 4.72267 248.527 4.63733 248.996 4.552C249.466 4.46667 249.967 4.424 250.5 4.424ZM258.204 13C257.671 11.9013 257.121 10.6427 256.556 9.224C256.001 7.79467 255.495 6.264 255.036 4.632H257.1C257.217 5.10133 257.351 5.608 257.5 6.152C257.66 6.68533 257.825 7.224 257.996 7.768C258.177 8.30133 258.359 8.824 258.54 9.336C258.732 9.83733 258.908 10.2907 259.068 10.696C259.228 10.2907 259.399 9.83733 259.58 9.336C259.761 8.824 259.937 8.30133 260.108 7.768C260.289 7.224 260.46 6.68533 260.62 6.152C260.78 5.608 260.919 5.10133 261.036 4.632H263.036C262.577 6.264 262.065 7.79467 261.5 9.224C260.945 10.6427 260.401 11.9013 259.868 13H258.204ZM263.831 8.856C263.831 8.12 263.937 7.47467 264.151 6.92C264.375 6.36533 264.668 5.90667 265.031 5.544C265.393 5.17067 265.809 4.89333 266.279 4.712C266.748 4.52 267.228 4.424 267.719 4.424C268.871 4.424 269.767 4.78133 270.407 5.496C271.057 6.21067 271.383 7.27733 271.383 8.696C271.383 8.80267 271.377 8.92533 271.367 9.064C271.367 9.192 271.361 9.30933 271.351 9.416H265.831C265.884 10.088 266.119 10.6107 266.535 10.984C266.961 11.3467 267.575 11.528 268.375 11.528C268.844 11.528 269.271 11.4853 269.655 11.4C270.049 11.3147 270.359 11.224 270.583 11.128L270.839 12.712C270.732 12.7653 270.583 12.824 270.391 12.888C270.209 12.9413 269.996 12.9893 269.751 13.032C269.516 13.0853 269.26 13.128 268.983 13.16C268.705 13.192 268.423 13.208 268.135 13.208C267.399 13.208 266.759 13.1013 266.215 12.888C265.671 12.664 265.223 12.36 264.871 11.976C264.519 11.5813 264.257 11.1227 264.087 10.6C263.916 10.0667 263.831 9.48533 263.831 8.856ZM269.447 7.992C269.447 7.72533 269.409 7.47467 269.335 7.24C269.26 6.99467 269.148 6.78667 268.999 6.616C268.86 6.43467 268.684 6.296 268.471 6.2C268.268 6.09333 268.023 6.04 267.735 6.04C267.436 6.04 267.175 6.09867 266.951 6.216C266.727 6.32267 266.535 6.46667 266.375 6.648C266.225 6.82933 266.108 7.03733 266.023 7.272C265.937 7.50667 265.879 7.74667 265.847 7.992H269.447ZM275.147 3.304C274.774 3.304 274.416 3.352 274.075 3.448C273.734 3.53333 273.376 3.67733 273.003 3.88L272.459 2.392C272.854 2.168 273.302 1.992 273.803 1.864C274.315 1.72533 274.838 1.656 275.371 1.656C276.011 1.656 276.539 1.74667 276.955 1.928C277.371 2.09867 277.702 2.31733 277.947 2.584C278.192 2.85067 278.363 3.144 278.459 3.464C278.555 3.784 278.603 4.09333 278.603 4.392C278.603 4.75467 278.534 5.08 278.395 5.368C278.267 5.656 278.102 5.92267 277.899 6.168C277.696 6.41333 277.478 6.648 277.243 6.872C277.008 7.08533 276.79 7.30933 276.587 7.544C276.384 7.768 276.214 8.008 276.075 8.264C275.947 8.52 275.883 8.808 275.883 9.128C275.883 9.18133 275.883 9.24533 275.883 9.32C275.883 9.384 275.888 9.448 275.899 9.512H274.235C274.214 9.40533 274.198 9.29333 274.187 9.176C274.176 9.048 274.171 8.93067 274.171 8.824C274.171 8.472 274.23 8.15733 274.347 7.88C274.464 7.60267 274.614 7.34667 274.795 7.112C274.976 6.87733 275.168 6.65867 275.371 6.456C275.584 6.25333 275.782 6.05067 275.963 5.848C276.144 5.64533 276.294 5.43733 276.411 5.224C276.528 5.01067 276.587 4.776 276.587 4.52C276.587 4.168 276.464 3.88 276.219 3.656C275.984 3.42133 275.627 3.304 275.147 3.304ZM276.395 11.944C276.395 12.3173 276.272 12.6213 276.027 12.856C275.782 13.0907 275.478 13.208 275.115 13.208C274.763 13.208 274.459 13.0907 274.203 12.856C273.958 12.6213 273.835 12.3173 273.835 11.944C273.835 11.5707 273.958 11.2667 274.203 11.032C274.459 10.7867 274.763 10.664 275.115 10.664C275.478 10.664 275.782 10.7867 276.027 11.032C276.272 11.2667 276.395 11.5707 276.395 11.944Z" fill="white"/>
</svg>
