<svg width="248" height="14" viewBox="0 0 248 14" fill="none" xmlns="http://www.w3.org/2000/svg">
<path d="M8.432 3.16C8.60267 3.736 8.784 4.33867 8.976 4.968C9.168 5.58667 9.36533 6.21067 9.568 6.84C9.78133 7.45867 9.98933 8.072 10.192 8.68C10.4053 9.27733 10.608 9.84267 10.8 10.376C10.96 9.8 11.1147 9.176 11.264 8.504C11.4133 7.82133 11.5627 7.11733 11.712 6.392C11.8613 5.656 12.0053 4.90933 12.144 4.152C12.2933 3.39467 12.432 2.648 12.56 1.912H14.64C14.2667 3.91733 13.8507 5.848 13.392 7.704C12.9333 9.54933 12.4213 11.3147 11.856 13H9.936C9.104 10.8453 8.29867 8.49333 7.52 5.944C7.12533 7.23467 6.72533 8.46133 6.32 9.624C5.91467 10.7867 5.50933 11.912 5.104 13H3.184C2.608 11.3147 2.09067 9.54933 1.632 7.704C1.184 5.848 0.773333 3.91733 0.4 1.912H2.56C2.688 2.63733 2.82133 3.37867 2.96 4.136C3.10933 4.89333 3.25867 5.64 3.408 6.376C3.568 7.10133 3.728 7.80533 3.888 8.488C4.048 9.17067 4.208 9.8 4.368 10.376C4.57067 9.832 4.77333 9.26133 4.976 8.664C5.18933 8.056 5.39733 7.44267 5.6 6.824C5.80267 6.19467 5.99467 5.57067 6.176 4.952C6.368 4.33333 6.544 3.736 6.704 3.16H8.432ZM16.2476 13V0.903999L18.1836 0.584V4.728C18.397 4.65333 18.6423 4.58933 18.9196 4.536C19.2076 4.48267 19.4903 4.456 19.7676 4.456C20.4396 4.456 20.9943 4.552 21.4316 4.744C21.8796 4.92533 22.237 5.18667 22.5036 5.528C22.7703 5.85867 22.957 6.25867 23.0636 6.728C23.181 7.19733 23.2396 7.72 23.2396 8.296V13H21.3036V8.6C21.3036 8.152 21.2716 7.77333 21.2076 7.464C21.1543 7.144 21.0583 6.888 20.9196 6.696C20.7916 6.49333 20.6156 6.34933 20.3916 6.264C20.1676 6.168 19.8903 6.12 19.5596 6.12C19.3036 6.12 19.0423 6.14667 18.7756 6.2C18.509 6.25333 18.3116 6.30133 18.1836 6.344V13H16.2476ZM27.5121 13H25.5761V4.632H27.5121V13ZM27.7201 2.184C27.7201 2.54667 27.6028 2.83467 27.3681 3.048C27.1335 3.26133 26.8561 3.368 26.5361 3.368C26.2055 3.368 25.9228 3.26133 25.6881 3.048C25.4535 2.83467 25.3361 2.54667 25.3361 2.184C25.3361 1.81067 25.4535 1.51733 25.6881 1.304C25.9228 1.09067 26.2055 0.983999 26.5361 0.983999C26.8561 0.983999 27.1335 1.09067 27.3681 1.304C27.6028 1.51733 27.7201 1.81067 27.7201 2.184ZM29.518 8.824C29.518 8.20533 29.614 7.62933 29.806 7.096C29.998 6.552 30.27 6.08267 30.622 5.688C30.9847 5.29333 31.422 4.984 31.934 4.76C32.446 4.536 33.022 4.424 33.662 4.424C34.4513 4.424 35.198 4.568 35.902 4.856L35.486 6.44C35.262 6.344 35.006 6.264 34.718 6.2C34.4407 6.136 34.142 6.104 33.822 6.104C33.0647 6.104 32.4887 6.344 32.094 6.824C31.6993 7.29333 31.502 7.96 31.502 8.824C31.502 9.656 31.6887 10.3173 32.062 10.808C32.4353 11.288 33.0647 11.528 33.95 11.528C34.2807 11.528 34.606 11.496 34.926 11.432C35.246 11.368 35.5233 11.288 35.758 11.192L36.03 12.792C35.8167 12.8987 35.4913 12.9947 35.054 13.08C34.6273 13.1653 34.1847 13.208 33.726 13.208C33.0113 13.208 32.3873 13.1013 31.854 12.888C31.3313 12.664 30.894 12.36 30.542 11.976C30.2007 11.5813 29.9447 11.1173 29.774 10.584C29.6033 10.04 29.518 9.45333 29.518 8.824ZM37.5289 13V0.903999L39.4649 0.584V4.728C39.6782 4.65333 39.9235 4.58933 40.2009 4.536C40.4889 4.48267 40.7715 4.456 41.0489 4.456C41.7209 4.456 42.2755 4.552 42.7129 4.744C43.1609 4.92533 43.5182 5.18667 43.7849 5.528C44.0515 5.85867 44.2382 6.25867 44.3449 6.728C44.4622 7.19733 44.5209 7.72 44.5209 8.296V13H42.5849V8.6C42.5849 8.152 42.5529 7.77333 42.4889 7.464C42.4355 7.144 42.3395 6.888 42.2009 6.696C42.0729 6.49333 41.8969 6.34933 41.6729 6.264C41.4489 6.168 41.1715 6.12 40.8409 6.12C40.5849 6.12 40.3235 6.14667 40.0569 6.2C39.7902 6.25333 39.5929 6.30133 39.4649 6.344V13H37.5289ZM52.6718 11.608C53.1838 11.608 53.5571 11.5493 53.7918 11.432C54.0264 11.304 54.1438 11.0907 54.1438 10.792C54.1438 10.5147 54.0158 10.2853 53.7598 10.104C53.5144 9.92267 53.1038 9.72533 52.5278 9.512C52.1758 9.384 51.8504 9.25067 51.5518 9.112C51.2638 8.96267 51.0131 8.792 50.7998 8.6C50.5864 8.408 50.4158 8.17867 50.2878 7.912C50.1704 7.63467 50.1118 7.29867 50.1118 6.904C50.1118 6.136 50.3944 5.53333 50.9598 5.096C51.5251 4.648 52.2931 4.424 53.2638 4.424C53.7544 4.424 54.2238 4.472 54.6718 4.568C55.1198 4.65333 55.4558 4.73867 55.6798 4.824L55.3278 6.392C55.1144 6.296 54.8424 6.21067 54.5118 6.136C54.1811 6.05067 53.7971 6.008 53.3598 6.008C52.9651 6.008 52.6451 6.07733 52.3998 6.216C52.1544 6.344 52.0318 6.54667 52.0318 6.824C52.0318 6.96267 52.0531 7.08533 52.0958 7.192C52.1491 7.29867 52.2344 7.4 52.3518 7.496C52.4691 7.58133 52.6238 7.672 52.8158 7.768C53.0078 7.85333 53.2424 7.944 53.5198 8.04C53.9784 8.21067 54.3678 8.38133 54.6878 8.552C55.0078 8.712 55.2691 8.89867 55.4718 9.112C55.6851 9.31467 55.8398 9.54933 55.9358 9.816C56.0318 10.0827 56.0798 10.4027 56.0798 10.776C56.0798 11.576 55.7811 12.184 55.1838 12.6C54.5971 13.0053 53.7544 13.208 52.6558 13.208C51.9198 13.208 51.3278 13.144 50.8798 13.016C50.4318 12.8987 50.1171 12.8027 49.9358 12.728L50.2718 11.112C50.5598 11.2293 50.9011 11.3413 51.2958 11.448C51.7011 11.5547 52.1598 11.608 52.6718 11.608ZM57.8883 13V0.903999L59.8243 0.584V4.728C60.0376 4.65333 60.2829 4.58933 60.5603 4.536C60.8483 4.48267 61.1309 4.456 61.4083 4.456C62.0803 4.456 62.6349 4.552 63.0723 4.744C63.5203 4.92533 63.8776 5.18667 64.1443 5.528C64.4109 5.85867 64.5976 6.25867 64.7043 6.728C64.8216 7.19733 64.8802 7.72 64.8802 8.296V13H62.9443V8.6C62.9443 8.152 62.9123 7.77333 62.8483 7.464C62.7949 7.144 62.6989 6.888 62.5603 6.696C62.4323 6.49333 62.2563 6.34933 62.0323 6.264C61.8083 6.168 61.5309 6.12 61.2003 6.12C60.9443 6.12 60.6829 6.14667 60.4163 6.2C60.1496 6.25333 59.9523 6.30133 59.8243 6.344V13H57.8883ZM69.1528 13H67.2168V4.632H69.1528V13ZM69.3608 2.184C69.3608 2.54667 69.2434 2.83467 69.0088 3.048C68.7741 3.26133 68.4968 3.368 68.1768 3.368C67.8461 3.368 67.5634 3.26133 67.3288 3.048C67.0941 2.83467 66.9768 2.54667 66.9768 2.184C66.9768 1.81067 67.0941 1.51733 67.3288 1.304C67.5634 1.09067 67.8461 0.983999 68.1768 0.983999C68.4968 0.983999 68.7741 1.09067 69.0088 1.304C69.2434 1.51733 69.3608 1.81067 69.3608 2.184ZM76.3906 6.376C76.2306 6.32267 76.0066 6.26933 75.7186 6.216C75.4413 6.152 75.116 6.12 74.7426 6.12C74.5293 6.12 74.3 6.14133 74.0546 6.184C73.82 6.22667 73.6546 6.264 73.5586 6.296V13H71.6226V5.032C71.996 4.89333 72.46 4.76533 73.0146 4.648C73.58 4.52 74.204 4.456 74.8866 4.456C75.0146 4.456 75.164 4.46667 75.3346 4.488C75.5053 4.49867 75.676 4.52 75.8466 4.552C76.0173 4.57333 76.1826 4.60533 76.3426 4.648C76.5026 4.68 76.6306 4.712 76.7266 4.744L76.3906 6.376ZM77.9798 2.424L79.9158 2.104V4.632H82.8918V6.248H79.9158V9.656C79.9158 10.328 80.0224 10.808 80.2358 11.096C80.4491 11.384 80.8118 11.528 81.3238 11.528C81.6758 11.528 81.9851 11.4907 82.2518 11.416C82.5291 11.3413 82.7478 11.272 82.9078 11.208L83.2278 12.744C83.0038 12.84 82.7104 12.936 82.3478 13.032C81.9851 13.1387 81.5584 13.192 81.0677 13.192C80.4704 13.192 79.9691 13.112 79.5638 12.952C79.1691 12.792 78.8544 12.5627 78.6198 12.264C78.3851 11.9547 78.2198 11.5867 78.1238 11.16C78.0278 10.7227 77.9798 10.2267 77.9798 9.672V2.424ZM90.0176 8.792C90.0176 9.64533 90.2203 10.3173 90.6256 10.808C91.031 11.288 91.591 11.528 92.3056 11.528C92.615 11.528 92.8763 11.5173 93.0896 11.496C93.3136 11.464 93.495 11.432 93.6336 11.4V6.6C93.463 6.48267 93.2336 6.376 92.9456 6.28C92.6683 6.17333 92.3696 6.12 92.0496 6.12C91.3456 6.12 90.8283 6.36 90.4976 6.84C90.1776 7.32 90.0176 7.97067 90.0176 8.792ZM95.5696 12.744C95.1856 12.8613 94.7003 12.968 94.1136 13.064C93.5376 13.16 92.9296 13.208 92.2896 13.208C91.6283 13.208 91.0363 13.1067 90.5136 12.904C89.991 12.7013 89.543 12.4133 89.1696 12.04C88.807 11.656 88.5243 11.1973 88.3216 10.664C88.1296 10.12 88.0336 9.512 88.0336 8.84C88.0336 8.17867 88.1136 7.58133 88.2736 7.048C88.4443 6.504 88.6896 6.04 89.0096 5.656C89.3296 5.272 89.719 4.97867 90.1776 4.776C90.6363 4.56267 91.1643 4.456 91.7616 4.456C92.167 4.456 92.5243 4.504 92.8336 4.6C93.143 4.696 93.4096 4.80267 93.6336 4.92V0.903999L95.5696 0.584V12.744ZM99.9809 13H98.0449V4.632H99.9809V13ZM100.189 2.184C100.189 2.54667 100.072 2.83467 99.8369 3.048C99.6022 3.26133 99.3249 3.368 99.0049 3.368C98.6742 3.368 98.3915 3.26133 98.1569 3.048C97.9222 2.83467 97.8049 2.54667 97.8049 2.184C97.8049 1.81067 97.9222 1.51733 98.1569 1.304C98.3915 1.09067 98.6742 0.983999 99.0049 0.983999C99.3249 0.983999 99.6022 1.09067 99.8369 1.304C100.072 1.51733 100.189 1.81067 100.189 2.184ZM103.971 8.792C103.971 9.64533 104.173 10.3173 104.579 10.808C104.984 11.288 105.544 11.528 106.259 11.528C106.568 11.528 106.829 11.5173 107.043 11.496C107.267 11.464 107.448 11.432 107.587 11.4V6.6C107.416 6.48267 107.187 6.376 106.899 6.28C106.621 6.17333 106.323 6.12 106.003 6.12C105.299 6.12 104.781 6.36 104.451 6.84C104.131 7.32 103.971 7.97067 103.971 8.792ZM109.523 12.744C109.139 12.8613 108.653 12.968 108.067 13.064C107.491 13.16 106.883 13.208 106.243 13.208C105.581 13.208 104.989 13.1067 104.467 12.904C103.944 12.7013 103.496 12.4133 103.123 12.04C102.76 11.656 102.477 11.1973 102.275 10.664C102.083 10.12 101.987 9.512 101.987 8.84C101.987 8.17867 102.067 7.58133 102.227 7.048C102.397 6.504 102.643 6.04 102.963 5.656C103.283 5.272 103.672 4.97867 104.131 4.776C104.589 4.56267 105.117 4.456 105.715 4.456C106.12 4.456 106.477 4.504 106.787 4.6C107.096 4.696 107.363 4.80267 107.587 4.92V0.903999L109.523 0.584V12.744ZM115.62 2.424L117.556 2.104V4.632H120.532V6.248H117.556V9.656C117.556 10.328 117.663 10.808 117.876 11.096C118.09 11.384 118.452 11.528 118.964 11.528C119.316 11.528 119.626 11.4907 119.892 11.416C120.17 11.3413 120.388 11.272 120.548 11.208L120.868 12.744C120.644 12.84 120.351 12.936 119.988 13.032C119.626 13.1387 119.199 13.192 118.708 13.192C118.111 13.192 117.61 13.112 117.204 12.952C116.81 12.792 116.495 12.5627 116.26 12.264C116.026 11.9547 115.86 11.5867 115.764 11.16C115.668 10.7227 115.62 10.2267 115.62 9.672V2.424ZM122.404 13V0.903999L124.34 0.584V4.728C124.553 4.65333 124.799 4.58933 125.076 4.536C125.364 4.48267 125.647 4.456 125.924 4.456C126.596 4.456 127.151 4.552 127.588 4.744C128.036 4.92533 128.393 5.18667 128.66 5.528C128.927 5.85867 129.113 6.25867 129.22 6.728C129.337 7.19733 129.396 7.72 129.396 8.296V13H127.46V8.6C127.46 8.152 127.428 7.77333 127.364 7.464C127.311 7.144 127.215 6.888 127.076 6.696C126.948 6.49333 126.772 6.34933 126.548 6.264C126.324 6.168 126.047 6.12 125.716 6.12C125.46 6.12 125.199 6.14667 124.932 6.2C124.665 6.25333 124.468 6.30133 124.34 6.344V13H122.404ZM131.252 8.856C131.252 8.12 131.359 7.47467 131.572 6.92C131.796 6.36533 132.09 5.90667 132.452 5.544C132.815 5.17067 133.231 4.89333 133.7 4.712C134.17 4.52 134.65 4.424 135.14 4.424C136.292 4.424 137.188 4.78133 137.828 5.496C138.479 6.21067 138.804 7.27733 138.804 8.696C138.804 8.80267 138.799 8.92533 138.788 9.064C138.788 9.192 138.783 9.30933 138.772 9.416H133.252C133.306 10.088 133.54 10.6107 133.956 10.984C134.383 11.3467 134.996 11.528 135.796 11.528C136.266 11.528 136.692 11.4853 137.076 11.4C137.471 11.3147 137.78 11.224 138.004 11.128L138.26 12.712C138.154 12.7653 138.004 12.824 137.812 12.888C137.631 12.9413 137.418 12.9893 137.172 13.032C136.938 13.0853 136.682 13.128 136.404 13.16C136.127 13.192 135.844 13.208 135.556 13.208C134.82 13.208 134.18 13.1013 133.636 12.888C133.092 12.664 132.644 12.36 132.292 11.976C131.94 11.5813 131.679 11.1227 131.508 10.6C131.338 10.0667 131.252 9.48533 131.252 8.856ZM136.868 7.992C136.868 7.72533 136.831 7.47467 136.756 7.24C136.682 6.99467 136.57 6.78667 136.42 6.616C136.282 6.43467 136.106 6.296 135.892 6.2C135.69 6.09333 135.444 6.04 135.156 6.04C134.858 6.04 134.596 6.09867 134.372 6.216C134.148 6.32267 133.956 6.46667 133.796 6.648C133.647 6.82933 133.53 7.03733 133.444 7.272C133.359 7.50667 133.3 7.74667 133.268 7.992H136.868ZM144.127 8.824C144.127 8.20533 144.223 7.62933 144.415 7.096C144.607 6.552 144.879 6.08267 145.231 5.688C145.594 5.29333 146.031 4.984 146.543 4.76C147.055 4.536 147.631 4.424 148.271 4.424C149.061 4.424 149.807 4.568 150.511 4.856L150.095 6.44C149.871 6.344 149.615 6.264 149.327 6.2C149.05 6.136 148.751 6.104 148.431 6.104C147.674 6.104 147.098 6.344 146.703 6.824C146.309 7.29333 146.111 7.96 146.111 8.824C146.111 9.656 146.298 10.3173 146.671 10.808C147.045 11.288 147.674 11.528 148.559 11.528C148.89 11.528 149.215 11.496 149.535 11.432C149.855 11.368 150.133 11.288 150.367 11.192L150.639 12.792C150.426 12.8987 150.101 12.9947 149.663 13.08C149.237 13.1653 148.794 13.208 148.335 13.208C147.621 13.208 146.997 13.1013 146.463 12.888C145.941 12.664 145.503 12.36 145.151 11.976C144.81 11.5813 144.554 11.1173 144.383 10.584C144.213 10.04 144.127 9.45333 144.127 8.824ZM156.906 6.376C156.746 6.32267 156.522 6.26933 156.234 6.216C155.957 6.152 155.632 6.12 155.258 6.12C155.045 6.12 154.816 6.14133 154.57 6.184C154.336 6.22667 154.17 6.264 154.074 6.296V13H152.138V5.032C152.512 4.89333 152.976 4.76533 153.53 4.648C154.096 4.52 154.72 4.456 155.402 4.456C155.53 4.456 155.68 4.46667 155.85 4.488C156.021 4.49867 156.192 4.52 156.362 4.552C156.533 4.57333 156.698 4.60533 156.858 4.648C157.018 4.68 157.146 4.712 157.242 4.744L156.906 6.376ZM160.543 13H158.607V4.632H160.543V13ZM160.751 2.184C160.751 2.54667 160.634 2.83467 160.399 3.048C160.165 3.26133 159.887 3.368 159.567 3.368C159.237 3.368 158.954 3.26133 158.719 3.048C158.485 2.83467 158.367 2.54667 158.367 2.184C158.367 1.81067 158.485 1.51733 158.719 1.304C158.954 1.09067 159.237 0.983999 159.567 0.983999C159.887 0.983999 160.165 1.09067 160.399 1.304C160.634 1.51733 160.751 1.81067 160.751 2.184ZM167.781 8.6C167.781 7.72533 167.669 7.096 167.445 6.712C167.232 6.31733 166.827 6.12 166.229 6.12C166.016 6.12 165.781 6.136 165.525 6.168C165.269 6.2 165.077 6.22667 164.949 6.248V13H163.013V4.904C163.387 4.79733 163.872 4.696 164.469 4.6C165.077 4.504 165.717 4.456 166.389 4.456C166.965 4.456 167.435 4.53067 167.797 4.68C168.171 4.82933 168.48 5.02667 168.725 5.272C168.843 5.18667 168.992 5.096 169.173 5C169.355 4.904 169.557 4.81867 169.781 4.744C170.005 4.65867 170.24 4.58933 170.485 4.536C170.741 4.48267 170.997 4.456 171.253 4.456C171.904 4.456 172.437 4.552 172.853 4.744C173.28 4.92533 173.611 5.18667 173.845 5.528C174.091 5.85867 174.256 6.264 174.341 6.744C174.437 7.21333 174.485 7.73067 174.485 8.296V13H172.549V8.6C172.549 7.72533 172.443 7.096 172.229 6.712C172.016 6.31733 171.605 6.12 170.997 6.12C170.688 6.12 170.395 6.17333 170.117 6.28C169.84 6.376 169.632 6.472 169.493 6.568C169.579 6.83467 169.637 7.11733 169.669 7.416C169.701 7.71467 169.717 8.03467 169.717 8.376V13H167.781V8.6ZM178.809 13H176.873V4.632H178.809V13ZM179.017 2.184C179.017 2.54667 178.9 2.83467 178.665 3.048C178.43 3.26133 178.153 3.368 177.833 3.368C177.502 3.368 177.22 3.26133 176.985 3.048C176.75 2.83467 176.633 2.54667 176.633 2.184C176.633 1.81067 176.75 1.51733 176.985 1.304C177.22 1.09067 177.502 0.983999 177.833 0.983999C178.153 0.983999 178.43 1.09067 178.665 1.304C178.9 1.51733 179.017 1.81067 179.017 2.184ZM181.279 4.904C181.652 4.79733 182.138 4.696 182.735 4.6C183.332 4.504 183.994 4.456 184.719 4.456C185.402 4.456 185.972 4.552 186.431 4.744C186.89 4.92533 187.252 5.18667 187.519 5.528C187.796 5.85867 187.988 6.264 188.095 6.744C188.212 7.21333 188.271 7.73067 188.271 8.296V13H186.335V8.6C186.335 8.152 186.303 7.77333 186.239 7.464C186.186 7.144 186.09 6.888 185.951 6.696C185.823 6.49333 185.642 6.34933 185.407 6.264C185.183 6.168 184.906 6.12 184.575 6.12C184.33 6.12 184.074 6.136 183.807 6.168C183.54 6.2 183.343 6.22667 183.215 6.248V13H181.279V4.904ZM193.582 11.64C194.18 11.64 194.633 11.608 194.942 11.544V9.4C194.836 9.368 194.681 9.336 194.478 9.304C194.276 9.272 194.052 9.256 193.806 9.256C193.593 9.256 193.374 9.272 193.15 9.304C192.937 9.336 192.74 9.39467 192.558 9.48C192.388 9.56533 192.249 9.688 192.142 9.848C192.036 9.99733 191.982 10.1893 191.982 10.424C191.982 10.8827 192.126 11.2027 192.414 11.384C192.702 11.5547 193.092 11.64 193.582 11.64ZM193.422 4.424C194.062 4.424 194.601 4.504 195.038 4.664C195.476 4.824 195.822 5.048 196.078 5.336C196.345 5.624 196.532 5.976 196.638 6.392C196.756 6.79733 196.814 7.24533 196.814 7.736V12.808C196.516 12.872 196.062 12.9467 195.454 13.032C194.857 13.128 194.18 13.176 193.422 13.176C192.921 13.176 192.462 13.128 192.046 13.032C191.63 12.936 191.273 12.7813 190.974 12.568C190.686 12.3547 190.457 12.0773 190.286 11.736C190.126 11.3947 190.046 10.9733 190.046 10.472C190.046 9.992 190.137 9.58667 190.318 9.256C190.51 8.92533 190.766 8.65867 191.086 8.456C191.406 8.24267 191.774 8.09333 192.19 8.008C192.617 7.912 193.06 7.864 193.518 7.864C193.732 7.864 193.956 7.88 194.19 7.912C194.425 7.93333 194.676 7.976 194.942 8.04V7.72C194.942 7.496 194.916 7.28267 194.862 7.08C194.809 6.87733 194.713 6.70133 194.574 6.552C194.446 6.392 194.27 6.26933 194.046 6.184C193.833 6.09867 193.561 6.056 193.23 6.056C192.782 6.056 192.372 6.088 191.998 6.152C191.625 6.216 191.321 6.29067 191.086 6.376L190.846 4.808C191.092 4.72267 191.449 4.63733 191.918 4.552C192.388 4.46667 192.889 4.424 193.422 4.424ZM202.097 13.16C201.521 13.1493 201.041 13.0853 200.657 12.968C200.284 12.8507 199.985 12.6853 199.761 12.472C199.537 12.248 199.377 11.976 199.281 11.656C199.196 11.3253 199.153 10.952 199.153 10.536V0.903999L201.089 0.584V10.168C201.089 10.4027 201.105 10.6 201.137 10.76C201.18 10.92 201.249 11.0587 201.345 11.176C201.441 11.2827 201.569 11.368 201.729 11.432C201.9 11.4853 202.113 11.528 202.369 11.56L202.097 13.16ZM207.67 13V0.903999L209.606 0.584V4.728C209.819 4.65333 210.064 4.58933 210.342 4.536C210.63 4.48267 210.912 4.456 211.19 4.456C211.862 4.456 212.416 4.552 212.854 4.744C213.302 4.92533 213.659 5.18667 213.926 5.528C214.192 5.85867 214.379 6.25867 214.486 6.728C214.603 7.19733 214.661 7.72 214.661 8.296V13H212.726V8.6C212.726 8.152 212.694 7.77333 212.63 7.464C212.576 7.144 212.48 6.888 212.342 6.696C212.214 6.49333 212.038 6.34933 211.814 6.264C211.59 6.168 211.312 6.12 210.982 6.12C210.726 6.12 210.464 6.14667 210.198 6.2C209.931 6.25333 209.734 6.30133 209.606 6.344V13H207.67ZM219.926 11.64C220.523 11.64 220.977 11.608 221.286 11.544V9.4C221.179 9.368 221.025 9.336 220.822 9.304C220.619 9.272 220.395 9.256 220.15 9.256C219.937 9.256 219.718 9.272 219.494 9.304C219.281 9.336 219.083 9.39467 218.902 9.48C218.731 9.56533 218.593 9.688 218.486 9.848C218.379 9.99733 218.326 10.1893 218.326 10.424C218.326 10.8827 218.47 11.2027 218.758 11.384C219.046 11.5547 219.435 11.64 219.926 11.64ZM219.766 4.424C220.406 4.424 220.945 4.504 221.382 4.664C221.819 4.824 222.166 5.048 222.422 5.336C222.689 5.624 222.875 5.976 222.982 6.392C223.099 6.79733 223.158 7.24533 223.158 7.736V12.808C222.859 12.872 222.406 12.9467 221.798 13.032C221.201 13.128 220.523 13.176 219.766 13.176C219.265 13.176 218.806 13.128 218.39 13.032C217.974 12.936 217.617 12.7813 217.318 12.568C217.03 12.3547 216.801 12.0773 216.63 11.736C216.47 11.3947 216.39 10.9733 216.39 10.472C216.39 9.992 216.481 9.58667 216.662 9.256C216.854 8.92533 217.11 8.65867 217.43 8.456C217.75 8.24267 218.118 8.09333 218.534 8.008C218.961 7.912 219.403 7.864 219.862 7.864C220.075 7.864 220.299 7.88 220.534 7.912C220.769 7.93333 221.019 7.976 221.286 8.04V7.72C221.286 7.496 221.259 7.28267 221.206 7.08C221.153 6.87733 221.057 6.70133 220.918 6.552C220.79 6.392 220.614 6.26933 220.39 6.184C220.177 6.09867 219.905 6.056 219.574 6.056C219.126 6.056 218.715 6.088 218.342 6.152C217.969 6.216 217.665 6.29067 217.43 6.376L217.19 4.808C217.435 4.72267 217.793 4.63733 218.262 4.552C218.731 4.46667 219.233 4.424 219.766 4.424ZM227.47 13C226.936 11.9013 226.387 10.6427 225.822 9.224C225.267 7.79467 224.76 6.264 224.302 4.632H226.366C226.483 5.10133 226.616 5.608 226.766 6.152C226.926 6.68533 227.091 7.224 227.262 7.768C227.443 8.30133 227.624 8.824 227.806 9.336C227.998 9.83733 228.174 10.2907 228.334 10.696C228.494 10.2907 228.664 9.83733 228.846 9.336C229.027 8.824 229.203 8.30133 229.374 7.768C229.555 7.224 229.726 6.68533 229.886 6.152C230.046 5.608 230.184 5.10133 230.302 4.632H232.302C231.843 6.264 231.331 7.79467 230.766 9.224C230.211 10.6427 229.667 11.9013 229.134 13H227.47ZM233.096 8.856C233.096 8.12 233.203 7.47467 233.416 6.92C233.64 6.36533 233.933 5.90667 234.296 5.544C234.659 5.17067 235.075 4.89333 235.544 4.712C236.013 4.52 236.493 4.424 236.984 4.424C238.136 4.424 239.032 4.78133 239.672 5.496C240.323 6.21067 240.648 7.27733 240.648 8.696C240.648 8.80267 240.643 8.92533 240.632 9.064C240.632 9.192 240.627 9.30933 240.616 9.416H235.096C235.149 10.088 235.384 10.6107 235.8 10.984C236.227 11.3467 236.84 11.528 237.64 11.528C238.109 11.528 238.536 11.4853 238.92 11.4C239.315 11.3147 239.624 11.224 239.848 11.128L240.104 12.712C239.997 12.7653 239.848 12.824 239.656 12.888C239.475 12.9413 239.261 12.9893 239.016 13.032C238.781 13.0853 238.525 13.128 238.248 13.16C237.971 13.192 237.688 13.208 237.4 13.208C236.664 13.208 236.024 13.1013 235.48 12.888C234.936 12.664 234.488 12.36 234.136 11.976C233.784 11.5813 233.523 11.1227 233.352 10.6C233.181 10.0667 233.096 9.48533 233.096 8.856ZM238.712 7.992C238.712 7.72533 238.675 7.47467 238.6 7.24C238.525 6.99467 238.413 6.78667 238.264 6.616C238.125 6.43467 237.949 6.296 237.736 6.2C237.533 6.09333 237.288 6.04 237 6.04C236.701 6.04 236.44 6.09867 236.216 6.216C235.992 6.32267 235.8 6.46667 235.64 6.648C235.491 6.82933 235.373 7.03733 235.288 7.272C235.203 7.50667 235.144 7.74667 235.112 7.992H238.712ZM244.413 3.304C244.039 3.304 243.682 3.352 243.341 3.448C242.999 3.53333 242.642 3.67733 242.269 3.88L241.725 2.392C242.119 2.168 242.567 1.992 243.069 1.864C243.581 1.72533 244.103 1.656 244.637 1.656C245.277 1.656 245.805 1.74667 246.221 1.928C246.637 2.09867 246.967 2.31733 247.213 2.584C247.458 2.85067 247.629 3.144 247.725 3.464C247.821 3.784 247.869 4.09333 247.869 4.392C247.869 4.75467 247.799 5.08 247.661 5.368C247.533 5.656 247.367 5.92267 247.165 6.168C246.962 6.41333 246.743 6.648 246.509 6.872C246.274 7.08533 246.055 7.30933 245.853 7.544C245.65 7.768 245.479 8.008 245.341 8.264C245.213 8.52 245.149 8.808 245.149 9.128C245.149 9.18133 245.149 9.24533 245.149 9.32C245.149 9.384 245.154 9.448 245.165 9.512H243.501C243.479 9.40533 243.463 9.29333 243.453 9.176C243.442 9.048 243.437 8.93067 243.437 8.824C243.437 8.472 243.495 8.15733 243.613 7.88C243.73 7.60267 243.879 7.34667 244.061 7.112C244.242 6.87733 244.434 6.65867 244.637 6.456C244.85 6.25333 245.047 6.05067 245.229 5.848C245.41 5.64533 245.559 5.43733 245.677 5.224C245.794 5.01067 245.853 4.776 245.853 4.52C245.853 4.168 245.73 3.88 245.485 3.656C245.25 3.42133 244.893 3.304 244.413 3.304ZM245.661 11.944C245.661 12.3173 245.538 12.6213 245.293 12.856C245.047 13.0907 244.743 13.208 244.381 13.208C244.029 13.208 243.725 13.0907 243.469 12.856C243.223 12.6213 243.101 12.3173 243.101 11.944C243.101 11.5707 243.223 11.2667 243.469 11.032C243.725 10.7867 244.029 10.664 244.381 10.664C244.743 10.664 245.047 10.7867 245.293 11.032C245.538 11.2667 245.661 11.5707 245.661 11.944Z" fill="white"/>
</svg>
