<svg width="268" height="17" viewBox="0 0 268 17" fill="none" xmlns="http://www.w3.org/2000/svg">
<path d="M8.432 3.16C8.60267 3.736 8.784 4.33867 8.976 4.968C9.168 5.58667 9.36533 6.21067 9.568 6.84C9.78133 7.45867 9.98933 8.072 10.192 8.68C10.4053 9.27733 10.608 9.84267 10.8 10.376C10.96 9.8 11.1147 9.176 11.264 8.504C11.4133 7.82133 11.5627 7.11733 11.712 6.392C11.8613 5.656 12.0053 4.90933 12.144 4.152C12.2933 3.39467 12.432 2.648 12.56 1.912H14.64C14.2667 3.91733 13.8507 5.848 13.392 7.704C12.9333 9.54933 12.4213 11.3147 11.856 13H9.936C9.104 10.8453 8.29867 8.49333 7.52 5.944C7.12533 7.23467 6.72533 8.46133 6.32 9.624C5.91467 10.7867 5.50933 11.912 5.104 13H3.184C2.608 11.3147 2.09067 9.54933 1.632 7.704C1.184 5.848 0.773333 3.91733 0.4 1.912H2.56C2.688 2.63733 2.82133 3.37867 2.96 4.136C3.10933 4.89333 3.25867 5.64 3.408 6.376C3.568 7.10133 3.728 7.80533 3.888 8.488C4.048 9.17067 4.208 9.8 4.368 10.376C4.57067 9.832 4.77333 9.26133 4.976 8.664C5.18933 8.056 5.39733 7.44267 5.6 6.824C5.80267 6.19467 5.99467 5.57067 6.176 4.952C6.368 4.33333 6.544 3.736 6.704 3.16H8.432ZM16.2476 13V0.903999L18.1836 0.584V4.728C18.397 4.65333 18.6423 4.58933 18.9196 4.536C19.2076 4.48267 19.4903 4.456 19.7676 4.456C20.4396 4.456 20.9943 4.552 21.4316 4.744C21.8796 4.92533 22.237 5.18667 22.5036 5.528C22.7703 5.85867 22.957 6.25867 23.0636 6.728C23.181 7.19733 23.2396 7.72 23.2396 8.296V13H21.3036V8.6C21.3036 8.152 21.2716 7.77333 21.2076 7.464C21.1543 7.144 21.0583 6.888 20.9196 6.696C20.7916 6.49333 20.6156 6.34933 20.3916 6.264C20.1676 6.168 19.8903 6.12 19.5596 6.12C19.3036 6.12 19.0423 6.14667 18.7756 6.2C18.509 6.25333 18.3116 6.30133 18.1836 6.344V13H16.2476ZM27.5121 13H25.5761V4.632H27.5121V13ZM27.7201 2.184C27.7201 2.54667 27.6028 2.83467 27.3681 3.048C27.1335 3.26133 26.8561 3.368 26.5361 3.368C26.2055 3.368 25.9228 3.26133 25.6881 3.048C25.4535 2.83467 25.3361 2.54667 25.3361 2.184C25.3361 1.81067 25.4535 1.51733 25.6881 1.304C25.9228 1.09067 26.2055 0.983999 26.5361 0.983999C26.8561 0.983999 27.1335 1.09067 27.3681 1.304C27.6028 1.51733 27.7201 1.81067 27.7201 2.184ZM29.518 8.824C29.518 8.20533 29.614 7.62933 29.806 7.096C29.998 6.552 30.27 6.08267 30.622 5.688C30.9847 5.29333 31.422 4.984 31.934 4.76C32.446 4.536 33.022 4.424 33.662 4.424C34.4513 4.424 35.198 4.568 35.902 4.856L35.486 6.44C35.262 6.344 35.006 6.264 34.718 6.2C34.4407 6.136 34.142 6.104 33.822 6.104C33.0647 6.104 32.4887 6.344 32.094 6.824C31.6993 7.29333 31.502 7.96 31.502 8.824C31.502 9.656 31.6887 10.3173 32.062 10.808C32.4353 11.288 33.0647 11.528 33.95 11.528C34.2807 11.528 34.606 11.496 34.926 11.432C35.246 11.368 35.5233 11.288 35.758 11.192L36.03 12.792C35.8167 12.8987 35.4913 12.9947 35.054 13.08C34.6273 13.1653 34.1847 13.208 33.726 13.208C33.0113 13.208 32.3873 13.1013 31.854 12.888C31.3313 12.664 30.894 12.36 30.542 11.976C30.2007 11.5813 29.9447 11.1173 29.774 10.584C29.6033 10.04 29.518 9.45333 29.518 8.824ZM37.5289 13V0.903999L39.4649 0.584V4.728C39.6782 4.65333 39.9235 4.58933 40.2009 4.536C40.4889 4.48267 40.7715 4.456 41.0489 4.456C41.7209 4.456 42.2755 4.552 42.7129 4.744C43.1609 4.92533 43.5182 5.18667 43.7849 5.528C44.0515 5.85867 44.2382 6.25867 44.3449 6.728C44.4622 7.19733 44.5209 7.72 44.5209 8.296V13H42.5849V8.6C42.5849 8.152 42.5529 7.77333 42.4889 7.464C42.4355 7.144 42.3395 6.888 42.2009 6.696C42.0729 6.49333 41.8969 6.34933 41.6729 6.264C41.4489 6.168 41.1715 6.12 40.8409 6.12C40.5849 6.12 40.3235 6.14667 40.0569 6.2C39.7902 6.25333 39.5929 6.30133 39.4649 6.344V13H37.5289ZM52.0958 8.6C52.0958 9.42133 52.2718 10.024 52.6238 10.408C52.9864 10.7813 53.4504 10.968 54.0158 10.968C54.3251 10.968 54.6131 10.9253 54.8798 10.84C55.1571 10.7547 55.3811 10.6533 55.5518 10.536V6.2C55.4131 6.168 55.2424 6.14133 55.0398 6.12C54.8371 6.088 54.5811 6.072 54.2718 6.072C53.5678 6.072 53.0291 6.30667 52.6558 6.776C52.2824 7.23467 52.0958 7.84267 52.0958 8.6ZM57.4878 12.152C57.4878 13.4853 57.1464 14.4613 56.4638 15.08C55.7918 15.6987 54.7571 16.008 53.3598 16.008C52.8478 16.008 52.3464 15.9653 51.8558 15.88C51.3758 15.7947 50.9384 15.6827 50.5438 15.544L50.8958 13.896C51.2264 14.0347 51.5998 14.1467 52.0158 14.232C52.4424 14.3173 52.9011 14.36 53.3918 14.36C54.1704 14.36 54.7251 14.2 55.0558 13.88C55.3864 13.56 55.5518 13.0853 55.5518 12.456V12.136C55.3598 12.232 55.1038 12.328 54.7838 12.424C54.4744 12.52 54.1171 12.568 53.7118 12.568C53.1784 12.568 52.6878 12.4827 52.2398 12.312C51.8024 12.1413 51.4238 11.8907 51.1038 11.56C50.7944 11.2293 50.5491 10.8187 50.3678 10.328C50.1971 9.82667 50.1118 9.25067 50.1118 8.6C50.1118 7.992 50.2024 7.432 50.3838 6.92C50.5758 6.408 50.8478 5.97067 51.1998 5.608C51.5624 5.24533 51.9998 4.96267 52.5118 4.76C53.0238 4.55733 53.6051 4.456 54.2558 4.456C54.8851 4.456 55.4824 4.504 56.0478 4.6C56.6131 4.696 57.0931 4.79733 57.4878 4.904V12.152ZM62.8628 13.16C62.2868 13.1493 61.8068 13.0853 61.4228 12.968C61.0494 12.8507 60.7508 12.6853 60.5268 12.472C60.3028 12.248 60.1428 11.976 60.0468 11.656C59.9614 11.3253 59.9188 10.952 59.9188 10.536V0.903999L61.8548 0.584V10.168C61.8548 10.4027 61.8708 10.6 61.9028 10.76C61.9454 10.92 62.0148 11.0587 62.1108 11.176C62.2068 11.2827 62.3348 11.368 62.4948 11.432C62.6654 11.4853 62.8788 11.528 63.1348 11.56L62.8628 13.16ZM67.6448 11.64C68.2421 11.64 68.6954 11.608 69.0048 11.544V9.4C68.8981 9.368 68.7434 9.336 68.5408 9.304C68.3381 9.272 68.1141 9.256 67.8688 9.256C67.6554 9.256 67.4368 9.272 67.2128 9.304C66.9994 9.336 66.8021 9.39467 66.6208 9.48C66.4501 9.56533 66.3114 9.688 66.2048 9.848C66.0981 9.99733 66.0448 10.1893 66.0448 10.424C66.0448 10.8827 66.1888 11.2027 66.4768 11.384C66.7648 11.5547 67.1541 11.64 67.6448 11.64ZM67.4848 4.424C68.1248 4.424 68.6634 4.504 69.1008 4.664C69.5381 4.824 69.8848 5.048 70.1408 5.336C70.4074 5.624 70.5941 5.976 70.7008 6.392C70.8181 6.79733 70.8768 7.24533 70.8768 7.736V12.808C70.5781 12.872 70.1248 12.9467 69.5168 13.032C68.9194 13.128 68.2421 13.176 67.4848 13.176C66.9834 13.176 66.5248 13.128 66.1088 13.032C65.6928 12.936 65.3354 12.7813 65.0368 12.568C64.7488 12.3547 64.5194 12.0773 64.3488 11.736C64.1888 11.3947 64.1088 10.9733 64.1088 10.472C64.1088 9.992 64.1994 9.58667 64.3808 9.256C64.5728 8.92533 64.8288 8.65867 65.1488 8.456C65.4688 8.24267 65.8368 8.09333 66.2528 8.008C66.6794 7.912 67.1221 7.864 67.5807 7.864C67.7941 7.864 68.0181 7.88 68.2528 7.912C68.4874 7.93333 68.7381 7.976 69.0048 8.04V7.72C69.0048 7.496 68.9781 7.28267 68.9248 7.08C68.8714 6.87733 68.7754 6.70133 68.6368 6.552C68.5088 6.392 68.3328 6.26933 68.1088 6.184C67.8954 6.09867 67.6234 6.056 67.2928 6.056C66.8448 6.056 66.4341 6.088 66.0608 6.152C65.6874 6.216 65.3834 6.29067 65.1488 6.376L64.9088 4.808C65.1541 4.72267 65.5114 4.63733 65.9808 4.552C66.4501 4.46667 66.9514 4.424 67.4848 4.424ZM75.3436 11.608C75.8556 11.608 76.229 11.5493 76.4636 11.432C76.6983 11.304 76.8156 11.0907 76.8156 10.792C76.8156 10.5147 76.6876 10.2853 76.4316 10.104C76.1863 9.92267 75.7756 9.72533 75.1996 9.512C74.8476 9.384 74.5223 9.25067 74.2236 9.112C73.9356 8.96267 73.685 8.792 73.4716 8.6C73.2583 8.408 73.0876 8.17867 72.9596 7.912C72.8423 7.63467 72.7836 7.29867 72.7836 6.904C72.7836 6.136 73.0663 5.53333 73.6316 5.096C74.197 4.648 74.965 4.424 75.9356 4.424C76.4263 4.424 76.8956 4.472 77.3436 4.568C77.7916 4.65333 78.1276 4.73867 78.3516 4.824L77.9996 6.392C77.7863 6.296 77.5143 6.21067 77.1836 6.136C76.853 6.05067 76.469 6.008 76.0316 6.008C75.637 6.008 75.317 6.07733 75.0716 6.216C74.8263 6.344 74.7036 6.54667 74.7036 6.824C74.7036 6.96267 74.725 7.08533 74.7676 7.192C74.821 7.29867 74.9063 7.4 75.0236 7.496C75.141 7.58133 75.2956 7.672 75.4876 7.768C75.6796 7.85333 75.9143 7.944 76.1916 8.04C76.6503 8.21067 77.0396 8.38133 77.3596 8.552C77.6796 8.712 77.941 8.89867 78.1436 9.112C78.357 9.31467 78.5116 9.54933 78.6076 9.816C78.7036 10.0827 78.7516 10.4027 78.7516 10.776C78.7516 11.576 78.453 12.184 77.8556 12.6C77.269 13.0053 76.4263 13.208 75.3276 13.208C74.5916 13.208 73.9996 13.144 73.5516 13.016C73.1036 12.8987 72.789 12.8027 72.6076 12.728L72.9436 11.112C73.2316 11.2293 73.573 11.3413 73.9676 11.448C74.373 11.5547 74.8316 11.608 75.3436 11.608ZM82.6561 11.608C83.1681 11.608 83.5415 11.5493 83.7761 11.432C84.0108 11.304 84.1281 11.0907 84.1281 10.792C84.1281 10.5147 84.0001 10.2853 83.7441 10.104C83.4988 9.92267 83.0881 9.72533 82.5121 9.512C82.1601 9.384 81.8348 9.25067 81.5361 9.112C81.2481 8.96267 80.9975 8.792 80.7841 8.6C80.5708 8.408 80.4001 8.17867 80.2721 7.912C80.1548 7.63467 80.0961 7.29867 80.0961 6.904C80.0961 6.136 80.3788 5.53333 80.9441 5.096C81.5095 4.648 82.2775 4.424 83.2481 4.424C83.7388 4.424 84.2081 4.472 84.6561 4.568C85.1041 4.65333 85.4401 4.73867 85.6641 4.824L85.3121 6.392C85.0988 6.296 84.8268 6.21067 84.4961 6.136C84.1655 6.05067 83.7815 6.008 83.3441 6.008C82.9495 6.008 82.6295 6.07733 82.3841 6.216C82.1388 6.344 82.0161 6.54667 82.0161 6.824C82.0161 6.96267 82.0375 7.08533 82.0801 7.192C82.1335 7.29867 82.2188 7.4 82.3361 7.496C82.4535 7.58133 82.6081 7.672 82.8001 7.768C82.9921 7.85333 83.2268 7.944 83.5041 8.04C83.9628 8.21067 84.3521 8.38133 84.6721 8.552C84.9921 8.712 85.2535 8.89867 85.4561 9.112C85.6695 9.31467 85.8241 9.54933 85.9201 9.816C86.0161 10.0827 86.0641 10.4027 86.0641 10.776C86.0641 11.576 85.7655 12.184 85.1681 12.6C84.5815 13.0053 83.7388 13.208 82.6401 13.208C81.9041 13.208 81.3121 13.144 80.8641 13.016C80.4161 12.8987 80.1015 12.8027 79.9201 12.728L80.2561 11.112C80.5441 11.2293 80.8855 11.3413 81.2801 11.448C81.6855 11.5547 82.1441 11.608 82.6561 11.608ZM87.4086 8.856C87.4086 8.12 87.5153 7.47467 87.7286 6.92C87.9526 6.36533 88.246 5.90667 88.6086 5.544C88.9713 5.17067 89.3873 4.89333 89.8566 4.712C90.326 4.52 90.806 4.424 91.2966 4.424C92.4486 4.424 93.3446 4.78133 93.9846 5.496C94.6353 6.21067 94.9606 7.27733 94.9606 8.696C94.9606 8.80267 94.9553 8.92533 94.9446 9.064C94.9446 9.192 94.9393 9.30933 94.9286 9.416H89.4086C89.462 10.088 89.6966 10.6107 90.1126 10.984C90.5393 11.3467 91.1526 11.528 91.9526 11.528C92.422 11.528 92.8486 11.4853 93.2326 11.4C93.6273 11.3147 93.9366 11.224 94.1606 11.128L94.4166 12.712C94.31 12.7653 94.1606 12.824 93.9686 12.888C93.7873 12.9413 93.574 12.9893 93.3286 13.032C93.094 13.0853 92.838 13.128 92.5606 13.16C92.2833 13.192 92.0006 13.208 91.7126 13.208C90.9766 13.208 90.3366 13.1013 89.7926 12.888C89.2486 12.664 88.8006 12.36 88.4486 11.976C88.0966 11.5813 87.8353 11.1227 87.6646 10.6C87.494 10.0667 87.4086 9.48533 87.4086 8.856ZM93.0246 7.992C93.0246 7.72533 92.9873 7.47467 92.9126 7.24C92.838 6.99467 92.726 6.78667 92.5766 6.616C92.438 6.43467 92.262 6.296 92.0486 6.2C91.846 6.09333 91.6006 6.04 91.3126 6.04C91.014 6.04 90.7526 6.09867 90.5286 6.216C90.3046 6.32267 90.1126 6.46667 89.9526 6.648C89.8033 6.82933 89.686 7.03733 89.6006 7.272C89.5153 7.50667 89.4566 7.74667 89.4246 7.992H93.0246ZM99.1093 11.608C99.6213 11.608 99.9946 11.5493 100.229 11.432C100.464 11.304 100.581 11.0907 100.581 10.792C100.581 10.5147 100.453 10.2853 100.197 10.104C99.9519 9.92267 99.5413 9.72533 98.9653 9.512C98.6133 9.384 98.2879 9.25067 97.9893 9.112C97.7013 8.96267 97.4506 8.792 97.2373 8.6C97.0239 8.408 96.8533 8.17867 96.7253 7.912C96.6079 7.63467 96.5493 7.29867 96.5493 6.904C96.5493 6.136 96.8319 5.53333 97.3973 5.096C97.9626 4.648 98.7306 4.424 99.7013 4.424C100.192 4.424 100.661 4.472 101.109 4.568C101.557 4.65333 101.893 4.73867 102.117 4.824L101.765 6.392C101.552 6.296 101.28 6.21067 100.949 6.136C100.619 6.05067 100.235 6.008 99.7973 6.008C99.4026 6.008 99.0826 6.07733 98.8373 6.216C98.5919 6.344 98.4693 6.54667 98.4693 6.824C98.4693 6.96267 98.4906 7.08533 98.5333 7.192C98.5866 7.29867 98.6719 7.4 98.7893 7.496C98.9066 7.58133 99.0613 7.672 99.2533 7.768C99.4453 7.85333 99.6799 7.944 99.9573 8.04C100.416 8.21067 100.805 8.38133 101.125 8.552C101.445 8.712 101.707 8.89867 101.909 9.112C102.123 9.31467 102.277 9.54933 102.373 9.816C102.469 10.0827 102.517 10.4027 102.517 10.776C102.517 11.576 102.219 12.184 101.621 12.6C101.035 13.0053 100.192 13.208 99.0933 13.208C98.3573 13.208 97.7653 13.144 97.3173 13.016C96.8693 12.8987 96.5546 12.8027 96.3733 12.728L96.7093 11.112C96.9973 11.2293 97.3386 11.3413 97.7333 11.448C98.1386 11.5547 98.5973 11.608 99.1093 11.608ZM109.58 8.792C109.58 9.64533 109.783 10.3173 110.188 10.808C110.593 11.288 111.153 11.528 111.868 11.528C112.177 11.528 112.439 11.5173 112.652 11.496C112.876 11.464 113.057 11.432 113.196 11.4V6.6C113.025 6.48267 112.796 6.376 112.508 6.28C112.231 6.17333 111.932 6.12 111.612 6.12C110.908 6.12 110.391 6.36 110.06 6.84C109.74 7.32 109.58 7.97067 109.58 8.792ZM115.132 12.744C114.748 12.8613 114.263 12.968 113.676 13.064C113.1 13.16 112.492 13.208 111.852 13.208C111.191 13.208 110.599 13.1067 110.076 12.904C109.553 12.7013 109.105 12.4133 108.732 12.04C108.369 11.656 108.087 11.1973 107.884 10.664C107.692 10.12 107.596 9.512 107.596 8.84C107.596 8.17867 107.676 7.58133 107.836 7.048C108.007 6.504 108.252 6.04 108.572 5.656C108.892 5.272 109.281 4.97867 109.74 4.776C110.199 4.56267 110.727 4.456 111.324 4.456C111.729 4.456 112.087 4.504 112.396 4.6C112.705 4.696 112.972 4.80267 113.196 4.92V0.903999L115.132 0.584V12.744ZM119.543 13H117.607V4.632H119.543V13ZM119.751 2.184C119.751 2.54667 119.634 2.83467 119.399 3.048C119.165 3.26133 118.887 3.368 118.567 3.368C118.237 3.368 117.954 3.26133 117.719 3.048C117.485 2.83467 117.367 2.54667 117.367 2.184C117.367 1.81067 117.485 1.51733 117.719 1.304C117.954 1.09067 118.237 0.983999 118.567 0.983999C118.887 0.983999 119.165 1.09067 119.399 1.304C119.634 1.51733 119.751 1.81067 119.751 2.184ZM123.533 8.792C123.533 9.64533 123.736 10.3173 124.141 10.808C124.547 11.288 125.107 11.528 125.821 11.528C126.131 11.528 126.392 11.5173 126.605 11.496C126.829 11.464 127.011 11.432 127.149 11.4V6.6C126.979 6.48267 126.749 6.376 126.461 6.28C126.184 6.17333 125.885 6.12 125.565 6.12C124.861 6.12 124.344 6.36 124.013 6.84C123.693 7.32 123.533 7.97067 123.533 8.792ZM129.085 12.744C128.701 12.8613 128.216 12.968 127.629 13.064C127.053 13.16 126.445 13.208 125.805 13.208C125.144 13.208 124.552 13.1067 124.029 12.904C123.507 12.7013 123.059 12.4133 122.685 12.04C122.323 11.656 122.04 11.1973 121.837 10.664C121.645 10.12 121.549 9.512 121.549 8.84C121.549 8.17867 121.629 7.58133 121.789 7.048C121.96 6.504 122.205 6.04 122.525 5.656C122.845 5.272 123.235 4.97867 123.693 4.776C124.152 4.56267 124.68 4.456 125.277 4.456C125.683 4.456 126.04 4.504 126.349 4.6C126.659 4.696 126.925 4.80267 127.149 4.92V0.903999L129.085 0.584V12.744ZM135.183 2.424L137.119 2.104V4.632H140.095V6.248H137.119V9.656C137.119 10.328 137.226 10.808 137.439 11.096C137.652 11.384 138.015 11.528 138.527 11.528C138.879 11.528 139.188 11.4907 139.455 11.416C139.732 11.3413 139.951 11.272 140.111 11.208L140.431 12.744C140.207 12.84 139.914 12.936 139.551 13.032C139.188 13.1387 138.762 13.192 138.271 13.192C137.674 13.192 137.172 13.112 136.767 12.952C136.372 12.792 136.058 12.5627 135.823 12.264C135.588 11.9547 135.423 11.5867 135.327 11.16C135.231 10.7227 135.183 10.2267 135.183 9.672V2.424ZM141.966 13V0.903999L143.902 0.584V4.728C144.116 4.65333 144.361 4.58933 144.638 4.536C144.926 4.48267 145.209 4.456 145.486 4.456C146.158 4.456 146.713 4.552 147.15 4.744C147.598 4.92533 147.956 5.18667 148.222 5.528C148.489 5.85867 148.676 6.25867 148.782 6.728C148.9 7.19733 148.958 7.72 148.958 8.296V13H147.022V8.6C147.022 8.152 146.99 7.77333 146.926 7.464C146.873 7.144 146.777 6.888 146.638 6.696C146.51 6.49333 146.334 6.34933 146.11 6.264C145.886 6.168 145.609 6.12 145.278 6.12C145.022 6.12 144.761 6.14667 144.494 6.2C144.228 6.25333 144.03 6.30133 143.902 6.344V13H141.966ZM150.815 8.856C150.815 8.12 150.922 7.47467 151.135 6.92C151.359 6.36533 151.652 5.90667 152.015 5.544C152.378 5.17067 152.794 4.89333 153.263 4.712C153.732 4.52 154.212 4.424 154.703 4.424C155.855 4.424 156.751 4.78133 157.391 5.496C158.042 6.21067 158.367 7.27733 158.367 8.696C158.367 8.80267 158.362 8.92533 158.351 9.064C158.351 9.192 158.346 9.30933 158.335 9.416H152.815C152.868 10.088 153.103 10.6107 153.519 10.984C153.946 11.3467 154.559 11.528 155.359 11.528C155.828 11.528 156.255 11.4853 156.639 11.4C157.034 11.3147 157.343 11.224 157.567 11.128L157.823 12.712C157.716 12.7653 157.567 12.824 157.375 12.888C157.194 12.9413 156.98 12.9893 156.735 13.032C156.5 13.0853 156.244 13.128 155.967 13.16C155.69 13.192 155.407 13.208 155.119 13.208C154.383 13.208 153.743 13.1013 153.199 12.888C152.655 12.664 152.207 12.36 151.855 11.976C151.503 11.5813 151.242 11.1227 151.071 10.6C150.9 10.0667 150.815 9.48533 150.815 8.856ZM156.431 7.992C156.431 7.72533 156.394 7.47467 156.319 7.24C156.244 6.99467 156.132 6.78667 155.983 6.616C155.844 6.43467 155.668 6.296 155.455 6.2C155.252 6.09333 155.007 6.04 154.719 6.04C154.42 6.04 154.159 6.09867 153.935 6.216C153.711 6.32267 153.519 6.46667 153.359 6.648C153.21 6.82933 153.092 7.03733 153.007 7.272C152.922 7.50667 152.863 7.74667 152.831 7.992H156.431ZM163.69 8.824C163.69 8.20533 163.786 7.62933 163.978 7.096C164.17 6.552 164.442 6.08267 164.794 5.688C165.157 5.29333 165.594 4.984 166.106 4.76C166.618 4.536 167.194 4.424 167.834 4.424C168.623 4.424 169.37 4.568 170.074 4.856L169.658 6.44C169.434 6.344 169.178 6.264 168.89 6.2C168.613 6.136 168.314 6.104 167.994 6.104C167.237 6.104 166.661 6.344 166.266 6.824C165.871 7.29333 165.674 7.96 165.674 8.824C165.674 9.656 165.861 10.3173 166.234 10.808C166.607 11.288 167.237 11.528 168.122 11.528C168.453 11.528 168.778 11.496 169.098 11.432C169.418 11.368 169.695 11.288 169.93 11.192L170.202 12.792C169.989 12.8987 169.663 12.9947 169.226 13.08C168.799 13.1653 168.357 13.208 167.898 13.208C167.183 13.208 166.559 13.1013 166.026 12.888C165.503 12.664 165.066 12.36 164.714 11.976C164.373 11.5813 164.117 11.1173 163.946 10.584C163.775 10.04 163.69 9.45333 163.69 8.824ZM176.469 6.376C176.309 6.32267 176.085 6.26933 175.797 6.216C175.519 6.152 175.194 6.12 174.821 6.12C174.607 6.12 174.378 6.14133 174.133 6.184C173.898 6.22667 173.733 6.264 173.637 6.296V13H171.701V5.032C172.074 4.89333 172.538 4.76533 173.093 4.648C173.658 4.52 174.282 4.456 174.965 4.456C175.093 4.456 175.242 4.46667 175.413 4.488C175.583 4.49867 175.754 4.52 175.925 4.552C176.095 4.57333 176.261 4.60533 176.421 4.648C176.581 4.68 176.709 4.712 176.805 4.744L176.469 6.376ZM180.106 13H178.17V4.632H180.106V13ZM180.314 2.184C180.314 2.54667 180.197 2.83467 179.962 3.048C179.727 3.26133 179.45 3.368 179.13 3.368C178.799 3.368 178.517 3.26133 178.282 3.048C178.047 2.83467 177.93 2.54667 177.93 2.184C177.93 1.81067 178.047 1.51733 178.282 1.304C178.517 1.09067 178.799 0.983999 179.13 0.983999C179.45 0.983999 179.727 1.09067 179.962 1.304C180.197 1.51733 180.314 1.81067 180.314 2.184ZM187.344 8.6C187.344 7.72533 187.232 7.096 187.008 6.712C186.794 6.31733 186.389 6.12 185.792 6.12C185.578 6.12 185.344 6.136 185.088 6.168C184.832 6.2 184.64 6.22667 184.512 6.248V13H182.576V4.904C182.949 4.79733 183.434 4.696 184.032 4.6C184.64 4.504 185.28 4.456 185.952 4.456C186.528 4.456 186.997 4.53067 187.36 4.68C187.733 4.82933 188.042 5.02667 188.288 5.272C188.405 5.18667 188.554 5.096 188.736 5C188.917 4.904 189.12 4.81867 189.344 4.744C189.568 4.65867 189.802 4.58933 190.048 4.536C190.304 4.48267 190.56 4.456 190.816 4.456C191.466 4.456 192 4.552 192.416 4.744C192.842 4.92533 193.173 5.18667 193.408 5.528C193.653 5.85867 193.818 6.264 193.904 6.744C194 7.21333 194.048 7.73067 194.048 8.296V13H192.112V8.6C192.112 7.72533 192.005 7.096 191.792 6.712C191.578 6.31733 191.168 6.12 190.56 6.12C190.25 6.12 189.957 6.17333 189.68 6.28C189.402 6.376 189.194 6.472 189.056 6.568C189.141 6.83467 189.2 7.11733 189.232 7.416C189.264 7.71467 189.28 8.03467 189.28 8.376V13H187.344V8.6ZM198.372 13H196.436V4.632H198.372V13ZM198.58 2.184C198.58 2.54667 198.462 2.83467 198.228 3.048C197.993 3.26133 197.716 3.368 197.396 3.368C197.065 3.368 196.782 3.26133 196.548 3.048C196.313 2.83467 196.196 2.54667 196.196 2.184C196.196 1.81067 196.313 1.51733 196.548 1.304C196.782 1.09067 197.065 0.983999 197.396 0.983999C197.716 0.983999 197.993 1.09067 198.228 1.304C198.462 1.51733 198.58 1.81067 198.58 2.184ZM200.841 4.904C201.215 4.79733 201.7 4.696 202.297 4.6C202.895 4.504 203.556 4.456 204.281 4.456C204.964 4.456 205.535 4.552 205.993 4.744C206.452 4.92533 206.815 5.18667 207.081 5.528C207.359 5.85867 207.551 6.264 207.657 6.744C207.775 7.21333 207.833 7.73067 207.833 8.296V13H205.897V8.6C205.897 8.152 205.865 7.77333 205.801 7.464C205.748 7.144 205.652 6.888 205.513 6.696C205.385 6.49333 205.204 6.34933 204.969 6.264C204.745 6.168 204.468 6.12 204.137 6.12C203.892 6.12 203.636 6.136 203.369 6.168C203.103 6.2 202.905 6.22667 202.777 6.248V13H200.841V4.904ZM213.145 11.64C213.742 11.64 214.195 11.608 214.505 11.544V9.4C214.398 9.368 214.243 9.336 214.041 9.304C213.838 9.272 213.614 9.256 213.369 9.256C213.155 9.256 212.937 9.272 212.713 9.304C212.499 9.336 212.302 9.39467 212.121 9.48C211.95 9.56533 211.811 9.688 211.705 9.848C211.598 9.99733 211.545 10.1893 211.545 10.424C211.545 10.8827 211.689 11.2027 211.977 11.384C212.265 11.5547 212.654 11.64 213.145 11.64ZM212.985 4.424C213.625 4.424 214.163 4.504 214.601 4.664C215.038 4.824 215.385 5.048 215.641 5.336C215.907 5.624 216.094 5.976 216.201 6.392C216.318 6.79733 216.377 7.24533 216.377 7.736V12.808C216.078 12.872 215.625 12.9467 215.017 13.032C214.419 13.128 213.742 13.176 212.985 13.176C212.483 13.176 212.025 13.128 211.609 13.032C211.193 12.936 210.835 12.7813 210.537 12.568C210.249 12.3547 210.019 12.0773 209.849 11.736C209.689 11.3947 209.609 10.9733 209.609 10.472C209.609 9.992 209.699 9.58667 209.881 9.256C210.073 8.92533 210.329 8.65867 210.649 8.456C210.969 8.24267 211.337 8.09333 211.753 8.008C212.179 7.912 212.622 7.864 213.081 7.864C213.294 7.864 213.518 7.88 213.753 7.912C213.987 7.93333 214.238 7.976 214.505 8.04V7.72C214.505 7.496 214.478 7.28267 214.425 7.08C214.371 6.87733 214.275 6.70133 214.137 6.552C214.009 6.392 213.833 6.26933 213.609 6.184C213.395 6.09867 213.123 6.056 212.793 6.056C212.345 6.056 211.934 6.088 211.561 6.152C211.187 6.216 210.883 6.29067 210.649 6.376L210.409 4.808C210.654 4.72267 211.011 4.63733 211.481 4.552C211.95 4.46667 212.451 4.424 212.985 4.424ZM221.66 13.16C221.084 13.1493 220.604 13.0853 220.22 12.968C219.846 12.8507 219.548 12.6853 219.324 12.472C219.1 12.248 218.94 11.976 218.844 11.656C218.758 11.3253 218.716 10.952 218.716 10.536V0.903999L220.652 0.584V10.168C220.652 10.4027 220.668 10.6 220.7 10.76C220.742 10.92 220.812 11.0587 220.908 11.176C221.004 11.2827 221.132 11.368 221.292 11.432C221.462 11.4853 221.676 11.528 221.932 11.56L221.66 13.16ZM227.232 13V0.903999L229.168 0.584V4.728C229.381 4.65333 229.627 4.58933 229.904 4.536C230.192 4.48267 230.475 4.456 230.752 4.456C231.424 4.456 231.979 4.552 232.416 4.744C232.864 4.92533 233.221 5.18667 233.488 5.528C233.755 5.85867 233.941 6.25867 234.048 6.728C234.165 7.19733 234.224 7.72 234.224 8.296V13H232.288V8.6C232.288 8.152 232.256 7.77333 232.192 7.464C232.139 7.144 232.043 6.888 231.904 6.696C231.776 6.49333 231.6 6.34933 231.376 6.264C231.152 6.168 230.875 6.12 230.544 6.12C230.288 6.12 230.027 6.14667 229.76 6.2C229.493 6.25333 229.296 6.30133 229.168 6.344V13H227.232ZM239.489 11.64C240.086 11.64 240.539 11.608 240.849 11.544V9.4C240.742 9.368 240.587 9.336 240.385 9.304C240.182 9.272 239.958 9.256 239.713 9.256C239.499 9.256 239.281 9.272 239.057 9.304C238.843 9.336 238.646 9.39467 238.465 9.48C238.294 9.56533 238.155 9.688 238.049 9.848C237.942 9.99733 237.889 10.1893 237.889 10.424C237.889 10.8827 238.033 11.2027 238.321 11.384C238.609 11.5547 238.998 11.64 239.489 11.64ZM239.329 4.424C239.969 4.424 240.507 4.504 240.945 4.664C241.382 4.824 241.729 5.048 241.985 5.336C242.251 5.624 242.438 5.976 242.545 6.392C242.662 6.79733 242.721 7.24533 242.721 7.736V12.808C242.422 12.872 241.969 12.9467 241.361 13.032C240.763 13.128 240.086 13.176 239.329 13.176C238.827 13.176 238.369 13.128 237.953 13.032C237.537 12.936 237.179 12.7813 236.881 12.568C236.593 12.3547 236.363 12.0773 236.193 11.736C236.033 11.3947 235.953 10.9733 235.953 10.472C235.953 9.992 236.043 9.58667 236.225 9.256C236.417 8.92533 236.673 8.65867 236.993 8.456C237.313 8.24267 237.681 8.09333 238.097 8.008C238.523 7.912 238.966 7.864 239.424 7.864C239.638 7.864 239.862 7.88 240.097 7.912C240.331 7.93333 240.582 7.976 240.849 8.04V7.72C240.849 7.496 240.822 7.28267 240.769 7.08C240.715 6.87733 240.619 6.70133 240.481 6.552C240.353 6.392 240.177 6.26933 239.953 6.184C239.739 6.09867 239.467 6.056 239.137 6.056C238.689 6.056 238.278 6.088 237.905 6.152C237.531 6.216 237.227 6.29067 236.993 6.376L236.753 4.808C236.998 4.72267 237.355 4.63733 237.825 4.552C238.294 4.46667 238.795 4.424 239.329 4.424ZM247.032 13C246.499 11.9013 245.95 10.6427 245.384 9.224C244.83 7.79467 244.323 6.264 243.864 4.632H245.928C246.046 5.10133 246.179 5.608 246.328 6.152C246.488 6.68533 246.654 7.224 246.824 7.768C247.006 8.30133 247.187 8.824 247.368 9.336C247.56 9.83733 247.736 10.2907 247.896 10.696C248.056 10.2907 248.227 9.83733 248.408 9.336C248.59 8.824 248.766 8.30133 248.936 7.768C249.118 7.224 249.288 6.68533 249.448 6.152C249.608 5.608 249.747 5.10133 249.864 4.632H251.864C251.406 6.264 250.894 7.79467 250.328 9.224C249.774 10.6427 249.23 11.9013 248.696 13H247.032ZM252.659 8.856C252.659 8.12 252.765 7.47467 252.979 6.92C253.203 6.36533 253.496 5.90667 253.859 5.544C254.221 5.17067 254.637 4.89333 255.107 4.712C255.576 4.52 256.056 4.424 256.547 4.424C257.699 4.424 258.595 4.78133 259.235 5.496C259.885 6.21067 260.211 7.27733 260.211 8.696C260.211 8.80267 260.205 8.92533 260.195 9.064C260.195 9.192 260.189 9.30933 260.179 9.416H254.659C254.712 10.088 254.947 10.6107 255.363 10.984C255.789 11.3467 256.403 11.528 257.203 11.528C257.672 11.528 258.099 11.4853 258.483 11.4C258.877 11.3147 259.187 11.224 259.411 11.128L259.667 12.712C259.56 12.7653 259.411 12.824 259.219 12.888C259.037 12.9413 258.824 12.9893 258.579 13.032C258.344 13.0853 258.088 13.128 257.811 13.16C257.533 13.192 257.251 13.208 256.963 13.208C256.227 13.208 255.587 13.1013 255.043 12.888C254.499 12.664 254.051 12.36 253.699 11.976C253.347 11.5813 253.085 11.1227 252.915 10.6C252.744 10.0667 252.659 9.48533 252.659 8.856ZM258.275 7.992C258.275 7.72533 258.237 7.47467 258.163 7.24C258.088 6.99467 257.976 6.78667 257.827 6.616C257.688 6.43467 257.512 6.296 257.299 6.2C257.096 6.09333 256.851 6.04 256.563 6.04C256.264 6.04 256.003 6.09867 255.779 6.216C255.555 6.32267 255.363 6.46667 255.203 6.648C255.053 6.82933 254.936 7.03733 254.851 7.272C254.765 7.50667 254.707 7.74667 254.675 7.992H258.275ZM263.975 3.304C263.602 3.304 263.245 3.352 262.903 3.448C262.562 3.53333 262.205 3.67733 261.831 3.88L261.287 2.392C261.682 2.168 262.13 1.992 262.631 1.864C263.143 1.72533 263.666 1.656 264.199 1.656C264.839 1.656 265.367 1.74667 265.783 1.928C266.199 2.09867 266.53 2.31733 266.775 2.584C267.021 2.85067 267.191 3.144 267.287 3.464C267.383 3.784 267.431 4.09333 267.431 4.392C267.431 4.75467 267.362 5.08 267.223 5.368C267.095 5.656 266.93 5.92267 266.727 6.168C266.525 6.41333 266.306 6.648 266.071 6.872C265.837 7.08533 265.618 7.30933 265.415 7.544C265.213 7.768 265.042 8.008 264.903 8.264C264.775 8.52 264.711 8.808 264.711 9.128C264.711 9.18133 264.711 9.24533 264.711 9.32C264.711 9.384 264.717 9.448 264.727 9.512H263.063C263.042 9.40533 263.026 9.29333 263.015 9.176C263.005 9.048 262.999 8.93067 262.999 8.824C262.999 8.472 263.058 8.15733 263.175 7.88C263.293 7.60267 263.442 7.34667 263.623 7.112C263.805 6.87733 263.997 6.65867 264.199 6.456C264.413 6.25333 264.61 6.05067 264.791 5.848C264.973 5.64533 265.122 5.43733 265.239 5.224C265.357 5.01067 265.415 4.776 265.415 4.52C265.415 4.168 265.293 3.88 265.047 3.656C264.813 3.42133 264.455 3.304 263.975 3.304ZM265.223 11.944C265.223 12.3173 265.101 12.6213 264.855 12.856C264.61 13.0907 264.306 13.208 263.943 13.208C263.591 13.208 263.287 13.0907 263.031 12.856C262.786 12.6213 262.663 12.3173 262.663 11.944C262.663 11.5707 262.786 11.2667 263.031 11.032C263.287 10.7867 263.591 10.664 263.943 10.664C264.306 10.664 264.61 10.7867 264.855 11.032C265.101 11.2667 265.223 11.5707 265.223 11.944Z" fill="white"/>
</svg>
