<svg width="263" height="14" viewBox="0 0 263 14" fill="none" xmlns="http://www.w3.org/2000/svg">
<path d="M8.432 3.16C8.60267 3.736 8.784 4.33867 8.976 4.968C9.168 5.58667 9.36533 6.21067 9.568 6.84C9.78133 7.45867 9.98933 8.072 10.192 8.68C10.4053 9.27733 10.608 9.84267 10.8 10.376C10.96 9.8 11.1147 9.176 11.264 8.504C11.4133 7.82133 11.5627 7.11733 11.712 6.392C11.8613 5.656 12.0053 4.90933 12.144 4.152C12.2933 3.39467 12.432 2.648 12.56 1.912H14.64C14.2667 3.91733 13.8507 5.848 13.392 7.704C12.9333 9.54933 12.4213 11.3147 11.856 13H9.936C9.104 10.8453 8.29867 8.49333 7.52 5.944C7.12533 7.23467 6.72533 8.46133 6.32 9.624C5.91467 10.7867 5.50933 11.912 5.104 13H3.184C2.608 11.3147 2.09067 9.54933 1.632 7.704C1.184 5.848 0.773333 3.91733 0.4 1.912H2.56C2.688 2.63733 2.82133 3.37867 2.96 4.136C3.10933 4.89333 3.25867 5.64 3.408 6.376C3.568 7.10133 3.728 7.80533 3.888 8.488C4.048 9.17067 4.208 9.8 4.368 10.376C4.57067 9.832 4.77333 9.26133 4.976 8.664C5.18933 8.056 5.39733 7.44267 5.6 6.824C5.80267 6.19467 5.99467 5.57067 6.176 4.952C6.368 4.33333 6.544 3.736 6.704 3.16H8.432ZM16.2476 13V0.903999L18.1836 0.584V4.728C18.397 4.65333 18.6423 4.58933 18.9196 4.536C19.2076 4.48267 19.4903 4.456 19.7676 4.456C20.4396 4.456 20.9943 4.552 21.4316 4.744C21.8796 4.92533 22.237 5.18667 22.5036 5.528C22.7703 5.85867 22.957 6.25867 23.0636 6.728C23.181 7.19733 23.2396 7.72 23.2396 8.296V13H21.3036V8.6C21.3036 8.152 21.2716 7.77333 21.2076 7.464C21.1543 7.144 21.0583 6.888 20.9196 6.696C20.7916 6.49333 20.6156 6.34933 20.3916 6.264C20.1676 6.168 19.8903 6.12 19.5596 6.12C19.3036 6.12 19.0423 6.14667 18.7756 6.2C18.509 6.25333 18.3116 6.30133 18.1836 6.344V13H16.2476ZM27.5121 13H25.5761V4.632H27.5121V13ZM27.7201 2.184C27.7201 2.54667 27.6028 2.83467 27.3681 3.048C27.1335 3.26133 26.8561 3.368 26.5361 3.368C26.2055 3.368 25.9228 3.26133 25.6881 3.048C25.4535 2.83467 25.3361 2.54667 25.3361 2.184C25.3361 1.81067 25.4535 1.51733 25.6881 1.304C25.9228 1.09067 26.2055 0.983999 26.5361 0.983999C26.8561 0.983999 27.1335 1.09067 27.3681 1.304C27.6028 1.51733 27.7201 1.81067 27.7201 2.184ZM29.518 8.824C29.518 8.20533 29.614 7.62933 29.806 7.096C29.998 6.552 30.27 6.08267 30.622 5.688C30.9847 5.29333 31.422 4.984 31.934 4.76C32.446 4.536 33.022 4.424 33.662 4.424C34.4513 4.424 35.198 4.568 35.902 4.856L35.486 6.44C35.262 6.344 35.006 6.264 34.718 6.2C34.4407 6.136 34.142 6.104 33.822 6.104C33.0647 6.104 32.4887 6.344 32.094 6.824C31.6993 7.29333 31.502 7.96 31.502 8.824C31.502 9.656 31.6887 10.3173 32.062 10.808C32.4353 11.288 33.0647 11.528 33.95 11.528C34.2807 11.528 34.606 11.496 34.926 11.432C35.246 11.368 35.5233 11.288 35.758 11.192L36.03 12.792C35.8167 12.8987 35.4913 12.9947 35.054 13.08C34.6273 13.1653 34.1847 13.208 33.726 13.208C33.0113 13.208 32.3873 13.1013 31.854 12.888C31.3313 12.664 30.894 12.36 30.542 11.976C30.2007 11.5813 29.9447 11.1173 29.774 10.584C29.6033 10.04 29.518 9.45333 29.518 8.824ZM37.5289 13V0.903999L39.4649 0.584V4.728C39.6782 4.65333 39.9235 4.58933 40.2009 4.536C40.4889 4.48267 40.7715 4.456 41.0489 4.456C41.7209 4.456 42.2755 4.552 42.7129 4.744C43.1609 4.92533 43.5182 5.18667 43.7849 5.528C44.0515 5.85867 44.2382 6.25867 44.3449 6.728C44.4622 7.19733 44.5209 7.72 44.5209 8.296V13H42.5849V8.6C42.5849 8.152 42.5529 7.77333 42.4889 7.464C42.4355 7.144 42.3395 6.888 42.2009 6.696C42.0729 6.49333 41.8969 6.34933 41.6729 6.264C41.4489 6.168 41.1715 6.12 40.8409 6.12C40.5849 6.12 40.3235 6.14667 40.0569 6.2C39.7902 6.25333 39.5929 6.30133 39.4649 6.344V13H37.5289ZM55.3438 8.6C55.3438 7.72533 55.2318 7.096 55.0078 6.712C54.7944 6.31733 54.3891 6.12 53.7918 6.12C53.5784 6.12 53.3438 6.136 53.0878 6.168C52.8318 6.2 52.6398 6.22667 52.5118 6.248V13H50.5758V4.904C50.9491 4.79733 51.4344 4.696 52.0318 4.6C52.6398 4.504 53.2798 4.456 53.9518 4.456C54.5278 4.456 54.9971 4.53067 55.3598 4.68C55.7331 4.82933 56.0424 5.02667 56.2878 5.272C56.4051 5.18667 56.5544 5.096 56.7358 5C56.9171 4.904 57.1198 4.81867 57.3438 4.744C57.5678 4.65867 57.8024 4.58933 58.0478 4.536C58.3038 4.48267 58.5598 4.456 58.8158 4.456C59.4664 4.456 59.9998 4.552 60.4158 4.744C60.8424 4.92533 61.1731 5.18667 61.4078 5.528C61.6531 5.85867 61.8184 6.264 61.9038 6.744C61.9998 7.21333 62.0478 7.73067 62.0478 8.296V13H60.1118V8.6C60.1118 7.72533 60.0051 7.096 59.7918 6.712C59.5784 6.31733 59.1678 6.12 58.5598 6.12C58.2504 6.12 57.9571 6.17333 57.6798 6.28C57.4024 6.376 57.1944 6.472 57.0558 6.568C57.1411 6.83467 57.1998 7.11733 57.2318 7.416C57.2638 7.71467 57.2798 8.03467 57.2798 8.376V13H55.3438V8.6ZM71.9875 8.808C71.9875 9.46933 71.8915 10.072 71.6995 10.616C71.5075 11.16 71.2355 11.624 70.8835 12.008C70.5315 12.392 70.1048 12.6907 69.6035 12.904C69.1128 13.1173 68.5688 13.224 67.9715 13.224C67.3742 13.224 66.8302 13.1173 66.3395 12.904C65.8488 12.6907 65.4275 12.392 65.0755 12.008C64.7235 11.624 64.4462 11.16 64.2435 10.616C64.0515 10.072 63.9555 9.46933 63.9555 8.808C63.9555 8.14667 64.0515 7.54933 64.2435 7.016C64.4462 6.472 64.7235 6.008 65.0755 5.624C65.4382 5.24 65.8648 4.94667 66.3555 4.744C66.8462 4.53067 67.3848 4.424 67.9715 4.424C68.5582 4.424 69.0968 4.53067 69.5875 4.744C70.0888 4.94667 70.5155 5.24 70.8675 5.624C71.2195 6.008 71.4915 6.472 71.6835 7.016C71.8862 7.54933 71.9875 8.14667 71.9875 8.808ZM70.0035 8.808C70.0035 7.976 69.8222 7.32 69.4595 6.84C69.1075 6.34933 68.6115 6.104 67.9715 6.104C67.3315 6.104 66.8302 6.34933 66.4675 6.84C66.1155 7.32 65.9395 7.976 65.9395 8.808C65.9395 9.65067 66.1155 10.3173 66.4675 10.808C66.8302 11.2987 67.3315 11.544 67.9715 11.544C68.6115 11.544 69.1075 11.2987 69.4595 10.808C69.8222 10.3173 70.0035 9.65067 70.0035 8.808ZM80.846 12.744C80.4727 12.84 79.9873 12.936 79.39 13.032C78.7927 13.1387 78.1367 13.192 77.422 13.192C76.75 13.192 76.1847 13.096 75.726 12.904C75.278 12.712 74.9153 12.4453 74.638 12.104C74.3713 11.7627 74.1793 11.3573 74.062 10.888C73.9447 10.408 73.886 9.88533 73.886 9.32V4.632H75.822V9.016C75.822 9.912 75.95 10.552 76.206 10.936C76.4727 11.32 76.9313 11.512 77.582 11.512C77.8167 11.512 78.062 11.5013 78.318 11.48C78.5847 11.4587 78.782 11.432 78.91 11.4V4.632H80.846V12.744ZM83.2141 2.424L85.1501 2.104V4.632H88.1261V6.248H85.1501V9.656C85.1501 10.328 85.2568 10.808 85.4701 11.096C85.6835 11.384 86.0461 11.528 86.5581 11.528C86.9101 11.528 87.2195 11.4907 87.4861 11.416C87.7635 11.3413 87.9821 11.272 88.1421 11.208L88.4621 12.744C88.2381 12.84 87.9448 12.936 87.5821 13.032C87.2195 13.1387 86.7928 13.192 86.3021 13.192C85.7048 13.192 85.2035 13.112 84.7981 12.952C84.4035 12.792 84.0888 12.5627 83.8541 12.264C83.6195 11.9547 83.4541 11.5867 83.3581 11.16C83.2621 10.7227 83.2141 10.2267 83.2141 9.672V2.424ZM89.9976 13V0.903999L91.9336 0.584V4.728C92.147 4.65333 92.3923 4.58933 92.6696 4.536C92.9576 4.48267 93.2403 4.456 93.5176 4.456C94.1896 4.456 94.7443 4.552 95.1816 4.744C95.6296 4.92533 95.987 5.18667 96.2536 5.528C96.5203 5.85867 96.707 6.25867 96.8136 6.728C96.931 7.19733 96.9896 7.72 96.9896 8.296V13H95.0536V8.6C95.0536 8.152 95.0216 7.77333 94.9576 7.464C94.9043 7.144 94.8083 6.888 94.6696 6.696C94.5416 6.49333 94.3656 6.34933 94.1416 6.264C93.9176 6.168 93.6403 6.12 93.3096 6.12C93.0536 6.12 92.7923 6.14667 92.5256 6.2C92.259 6.25333 92.0616 6.30133 91.9336 6.344V13H89.9976ZM104.565 8.792C104.565 9.64533 104.767 10.3173 105.173 10.808C105.578 11.288 106.138 11.528 106.853 11.528C107.162 11.528 107.423 11.5173 107.637 11.496C107.861 11.464 108.042 11.432 108.181 11.4V6.6C108.01 6.48267 107.781 6.376 107.493 6.28C107.215 6.17333 106.917 6.12 106.597 6.12C105.893 6.12 105.375 6.36 105.045 6.84C104.725 7.32 104.565 7.97067 104.565 8.792ZM110.117 12.744C109.733 12.8613 109.247 12.968 108.661 13.064C108.085 13.16 107.477 13.208 106.837 13.208C106.175 13.208 105.583 13.1067 105.061 12.904C104.538 12.7013 104.09 12.4133 103.717 12.04C103.354 11.656 103.071 11.1973 102.868 10.664C102.677 10.12 102.581 9.512 102.581 8.84C102.581 8.17867 102.661 7.58133 102.821 7.048C102.991 6.504 103.237 6.04 103.557 5.656C103.877 5.272 104.266 4.97867 104.725 4.776C105.183 4.56267 105.711 4.456 106.309 4.456C106.714 4.456 107.071 4.504 107.381 4.6C107.69 4.696 107.957 4.80267 108.181 4.92V0.903999L110.117 0.584V12.744ZM114.528 13H112.592V4.632H114.528V13ZM114.736 2.184C114.736 2.54667 114.618 2.83467 114.384 3.048C114.149 3.26133 113.872 3.368 113.552 3.368C113.221 3.368 112.938 3.26133 112.704 3.048C112.469 2.83467 112.352 2.54667 112.352 2.184C112.352 1.81067 112.469 1.51733 112.704 1.304C112.938 1.09067 113.221 0.983999 113.552 0.983999C113.872 0.983999 114.149 1.09067 114.384 1.304C114.618 1.51733 114.736 1.81067 114.736 2.184ZM118.518 8.792C118.518 9.64533 118.72 10.3173 119.126 10.808C119.531 11.288 120.091 11.528 120.806 11.528C121.115 11.528 121.376 11.5173 121.59 11.496C121.814 11.464 121.995 11.432 122.134 11.4V6.6C121.963 6.48267 121.734 6.376 121.446 6.28C121.168 6.17333 120.87 6.12 120.55 6.12C119.846 6.12 119.328 6.36 118.998 6.84C118.678 7.32 118.518 7.97067 118.518 8.792ZM124.07 12.744C123.686 12.8613 123.2 12.968 122.614 13.064C122.038 13.16 121.43 13.208 120.79 13.208C120.128 13.208 119.536 13.1067 119.014 12.904C118.491 12.7013 118.043 12.4133 117.67 12.04C117.307 11.656 117.024 11.1973 116.822 10.664C116.63 10.12 116.534 9.512 116.534 8.84C116.534 8.17867 116.614 7.58133 116.774 7.048C116.944 6.504 117.19 6.04 117.51 5.656C117.83 5.272 118.219 4.97867 118.678 4.776C119.136 4.56267 119.664 4.456 120.262 4.456C120.667 4.456 121.024 4.504 121.334 4.6C121.643 4.696 121.91 4.80267 122.134 4.92V0.903999L124.07 0.584V12.744ZM130.167 2.424L132.103 2.104V4.632H135.079V6.248H132.103V9.656C132.103 10.328 132.21 10.808 132.423 11.096C132.637 11.384 132.999 11.528 133.511 11.528C133.863 11.528 134.173 11.4907 134.439 11.416C134.717 11.3413 134.935 11.272 135.095 11.208L135.415 12.744C135.191 12.84 134.898 12.936 134.535 13.032C134.173 13.1387 133.746 13.192 133.255 13.192C132.658 13.192 132.157 13.112 131.751 12.952C131.357 12.792 131.042 12.5627 130.807 12.264C130.573 11.9547 130.407 11.5867 130.311 11.16C130.215 10.7227 130.167 10.2267 130.167 9.672V2.424ZM136.951 13V0.903999L138.887 0.584V4.728C139.1 4.65333 139.345 4.58933 139.623 4.536C139.911 4.48267 140.193 4.456 140.471 4.456C141.143 4.456 141.697 4.552 142.135 4.744C142.583 4.92533 142.94 5.18667 143.207 5.528C143.473 5.85867 143.66 6.25867 143.767 6.728C143.884 7.19733 143.943 7.72 143.943 8.296V13H142.007V8.6C142.007 8.152 141.975 7.77333 141.911 7.464C141.857 7.144 141.761 6.888 141.623 6.696C141.495 6.49333 141.319 6.34933 141.095 6.264C140.871 6.168 140.593 6.12 140.263 6.12C140.007 6.12 139.745 6.14667 139.479 6.2C139.212 6.25333 139.015 6.30133 138.887 6.344V13H136.951ZM145.799 8.856C145.799 8.12 145.906 7.47467 146.119 6.92C146.343 6.36533 146.637 5.90667 146.999 5.544C147.362 5.17067 147.778 4.89333 148.247 4.712C148.717 4.52 149.197 4.424 149.687 4.424C150.839 4.424 151.735 4.78133 152.375 5.496C153.026 6.21067 153.351 7.27733 153.351 8.696C153.351 8.80267 153.346 8.92533 153.335 9.064C153.335 9.192 153.33 9.30933 153.319 9.416H147.799C147.853 10.088 148.087 10.6107 148.503 10.984C148.93 11.3467 149.543 11.528 150.343 11.528C150.813 11.528 151.239 11.4853 151.623 11.4C152.018 11.3147 152.327 11.224 152.551 11.128L152.807 12.712C152.701 12.7653 152.551 12.824 152.359 12.888C152.178 12.9413 151.965 12.9893 151.719 13.032C151.485 13.0853 151.229 13.128 150.951 13.16C150.674 13.192 150.391 13.208 150.103 13.208C149.367 13.208 148.727 13.1013 148.183 12.888C147.639 12.664 147.191 12.36 146.839 11.976C146.487 11.5813 146.226 11.1227 146.055 10.6C145.885 10.0667 145.799 9.48533 145.799 8.856ZM151.415 7.992C151.415 7.72533 151.378 7.47467 151.303 7.24C151.229 6.99467 151.117 6.78667 150.967 6.616C150.829 6.43467 150.653 6.296 150.439 6.2C150.237 6.09333 149.991 6.04 149.703 6.04C149.405 6.04 149.143 6.09867 148.919 6.216C148.695 6.32267 148.503 6.46667 148.343 6.648C148.194 6.82933 148.077 7.03733 147.991 7.272C147.906 7.50667 147.847 7.74667 147.815 7.992H151.415ZM158.674 8.824C158.674 8.20533 158.77 7.62933 158.962 7.096C159.154 6.552 159.426 6.08267 159.778 5.688C160.141 5.29333 160.578 4.984 161.09 4.76C161.602 4.536 162.178 4.424 162.818 4.424C163.608 4.424 164.354 4.568 165.058 4.856L164.642 6.44C164.418 6.344 164.162 6.264 163.874 6.2C163.597 6.136 163.298 6.104 162.978 6.104C162.221 6.104 161.645 6.344 161.25 6.824C160.856 7.29333 160.658 7.96 160.658 8.824C160.658 9.656 160.845 10.3173 161.218 10.808C161.592 11.288 162.221 11.528 163.106 11.528C163.437 11.528 163.762 11.496 164.082 11.432C164.402 11.368 164.68 11.288 164.914 11.192L165.186 12.792C164.973 12.8987 164.648 12.9947 164.21 13.08C163.784 13.1653 163.341 13.208 162.882 13.208C162.168 13.208 161.544 13.1013 161.01 12.888C160.488 12.664 160.05 12.36 159.698 11.976C159.357 11.5813 159.101 11.1173 158.93 10.584C158.76 10.04 158.674 9.45333 158.674 8.824ZM171.453 6.376C171.293 6.32267 171.069 6.26933 170.781 6.216C170.504 6.152 170.178 6.12 169.805 6.12C169.592 6.12 169.362 6.14133 169.117 6.184C168.882 6.22667 168.717 6.264 168.621 6.296V13H166.685V5.032C167.058 4.89333 167.522 4.76533 168.077 4.648C168.642 4.52 169.266 4.456 169.949 4.456C170.077 4.456 170.226 4.46667 170.397 4.488C170.568 4.49867 170.738 4.52 170.909 4.552C171.08 4.57333 171.245 4.60533 171.405 4.648C171.565 4.68 171.693 4.712 171.789 4.744L171.453 6.376ZM175.09 13H173.154V4.632H175.09V13ZM175.298 2.184C175.298 2.54667 175.181 2.83467 174.946 3.048C174.712 3.26133 174.434 3.368 174.114 3.368C173.784 3.368 173.501 3.26133 173.266 3.048C173.032 2.83467 172.914 2.54667 172.914 2.184C172.914 1.81067 173.032 1.51733 173.266 1.304C173.501 1.09067 173.784 0.983999 174.114 0.983999C174.434 0.983999 174.712 1.09067 174.946 1.304C175.181 1.51733 175.298 1.81067 175.298 2.184ZM182.328 8.6C182.328 7.72533 182.216 7.096 181.992 6.712C181.779 6.31733 181.373 6.12 180.776 6.12C180.563 6.12 180.328 6.136 180.072 6.168C179.816 6.2 179.624 6.22667 179.496 6.248V13H177.56V4.904C177.933 4.79733 178.419 4.696 179.016 4.6C179.624 4.504 180.264 4.456 180.936 4.456C181.512 4.456 181.981 4.53067 182.344 4.68C182.717 4.82933 183.027 5.02667 183.272 5.272C183.389 5.18667 183.539 5.096 183.72 5C183.901 4.904 184.104 4.81867 184.328 4.744C184.552 4.65867 184.787 4.58933 185.032 4.536C185.288 4.48267 185.544 4.456 185.8 4.456C186.451 4.456 186.984 4.552 187.4 4.744C187.827 4.92533 188.157 5.18667 188.392 5.528C188.637 5.85867 188.803 6.264 188.888 6.744C188.984 7.21333 189.032 7.73067 189.032 8.296V13H187.096V8.6C187.096 7.72533 186.989 7.096 186.776 6.712C186.563 6.31733 186.152 6.12 185.544 6.12C185.235 6.12 184.941 6.17333 184.664 6.28C184.387 6.376 184.179 6.472 184.04 6.568C184.125 6.83467 184.184 7.11733 184.216 7.416C184.248 7.71467 184.264 8.03467 184.264 8.376V13H182.328V8.6ZM193.356 13H191.42V4.632H193.356V13ZM193.564 2.184C193.564 2.54667 193.447 2.83467 193.212 3.048C192.977 3.26133 192.7 3.368 192.38 3.368C192.049 3.368 191.767 3.26133 191.532 3.048C191.297 2.83467 191.18 2.54667 191.18 2.184C191.18 1.81067 191.297 1.51733 191.532 1.304C191.767 1.09067 192.049 0.983999 192.38 0.983999C192.7 0.983999 192.977 1.09067 193.212 1.304C193.447 1.51733 193.564 1.81067 193.564 2.184ZM195.826 4.904C196.199 4.79733 196.684 4.696 197.282 4.6C197.879 4.504 198.54 4.456 199.266 4.456C199.948 4.456 200.519 4.552 200.978 4.744C201.436 4.92533 201.799 5.18667 202.066 5.528C202.343 5.85867 202.535 6.264 202.642 6.744C202.759 7.21333 202.818 7.73067 202.818 8.296V13H200.882V8.6C200.882 8.152 200.85 7.77333 200.786 7.464C200.732 7.144 200.636 6.888 200.498 6.696C200.37 6.49333 200.188 6.34933 199.954 6.264C199.73 6.168 199.452 6.12 199.122 6.12C198.876 6.12 198.62 6.136 198.354 6.168C198.087 6.2 197.89 6.22667 197.762 6.248V13H195.826V4.904ZM208.129 11.64C208.726 11.64 209.18 11.608 209.489 11.544V9.4C209.382 9.368 209.228 9.336 209.025 9.304C208.822 9.272 208.598 9.256 208.353 9.256C208.14 9.256 207.921 9.272 207.697 9.304C207.484 9.336 207.286 9.39467 207.105 9.48C206.934 9.56533 206.796 9.688 206.689 9.848C206.582 9.99733 206.529 10.1893 206.529 10.424C206.529 10.8827 206.673 11.2027 206.961 11.384C207.249 11.5547 207.638 11.64 208.129 11.64ZM207.969 4.424C208.609 4.424 209.148 4.504 209.585 4.664C210.022 4.824 210.369 5.048 210.625 5.336C210.892 5.624 211.078 5.976 211.185 6.392C211.302 6.79733 211.361 7.24533 211.361 7.736V12.808C211.062 12.872 210.609 12.9467 210.001 13.032C209.404 13.128 208.726 13.176 207.969 13.176C207.468 13.176 207.009 13.128 206.593 13.032C206.177 12.936 205.82 12.7813 205.521 12.568C205.233 12.3547 205.004 12.0773 204.833 11.736C204.673 11.3947 204.593 10.9733 204.593 10.472C204.593 9.992 204.684 9.58667 204.865 9.256C205.057 8.92533 205.313 8.65867 205.633 8.456C205.953 8.24267 206.321 8.09333 206.737 8.008C207.164 7.912 207.606 7.864 208.065 7.864C208.278 7.864 208.502 7.88 208.737 7.912C208.972 7.93333 209.222 7.976 209.489 8.04V7.72C209.489 7.496 209.462 7.28267 209.409 7.08C209.356 6.87733 209.26 6.70133 209.121 6.552C208.993 6.392 208.817 6.26933 208.593 6.184C208.38 6.09867 208.108 6.056 207.777 6.056C207.329 6.056 206.918 6.088 206.545 6.152C206.172 6.216 205.868 6.29067 205.633 6.376L205.393 4.808C205.638 4.72267 205.996 4.63733 206.465 4.552C206.934 4.46667 207.436 4.424 207.969 4.424ZM216.644 13.16C216.068 13.1493 215.588 13.0853 215.204 12.968C214.831 12.8507 214.532 12.6853 214.308 12.472C214.084 12.248 213.924 11.976 213.828 11.656C213.743 11.3253 213.7 10.952 213.7 10.536V0.903999L215.636 0.584V10.168C215.636 10.4027 215.652 10.6 215.684 10.76C215.727 10.92 215.796 11.0587 215.892 11.176C215.988 11.2827 216.116 11.368 216.276 11.432C216.447 11.4853 216.66 11.528 216.916 11.56L216.644 13.16ZM222.216 13V0.903999L224.152 0.584V4.728C224.366 4.65333 224.611 4.58933 224.888 4.536C225.176 4.48267 225.459 4.456 225.736 4.456C226.408 4.456 226.963 4.552 227.4 4.744C227.848 4.92533 228.206 5.18667 228.472 5.528C228.739 5.85867 228.926 6.25867 229.032 6.728C229.15 7.19733 229.208 7.72 229.208 8.296V13H227.272V8.6C227.272 8.152 227.24 7.77333 227.176 7.464C227.123 7.144 227.027 6.888 226.888 6.696C226.76 6.49333 226.584 6.34933 226.36 6.264C226.136 6.168 225.859 6.12 225.528 6.12C225.272 6.12 225.011 6.14667 224.744 6.2C224.478 6.25333 224.28 6.30133 224.152 6.344V13H222.216ZM234.473 11.64C235.07 11.64 235.524 11.608 235.833 11.544V9.4C235.726 9.368 235.572 9.336 235.369 9.304C235.166 9.272 234.942 9.256 234.697 9.256C234.484 9.256 234.265 9.272 234.041 9.304C233.828 9.336 233.63 9.39467 233.449 9.48C233.278 9.56533 233.14 9.688 233.033 9.848C232.926 9.99733 232.873 10.1893 232.873 10.424C232.873 10.8827 233.017 11.2027 233.305 11.384C233.593 11.5547 233.982 11.64 234.473 11.64ZM234.313 4.424C234.953 4.424 235.492 4.504 235.929 4.664C236.366 4.824 236.713 5.048 236.969 5.336C237.236 5.624 237.422 5.976 237.529 6.392C237.646 6.79733 237.705 7.24533 237.705 7.736V12.808C237.406 12.872 236.953 12.9467 236.345 13.032C235.748 13.128 235.07 13.176 234.313 13.176C233.812 13.176 233.353 13.128 232.937 13.032C232.521 12.936 232.164 12.7813 231.865 12.568C231.577 12.3547 231.348 12.0773 231.177 11.736C231.017 11.3947 230.937 10.9733 230.937 10.472C230.937 9.992 231.028 9.58667 231.209 9.256C231.401 8.92533 231.657 8.65867 231.977 8.456C232.297 8.24267 232.665 8.09333 233.081 8.008C233.508 7.912 233.95 7.864 234.409 7.864C234.622 7.864 234.846 7.88 235.081 7.912C235.316 7.93333 235.566 7.976 235.833 8.04V7.72C235.833 7.496 235.806 7.28267 235.753 7.08C235.7 6.87733 235.604 6.70133 235.465 6.552C235.337 6.392 235.161 6.26933 234.937 6.184C234.724 6.09867 234.452 6.056 234.121 6.056C233.673 6.056 233.262 6.088 232.889 6.152C232.516 6.216 232.212 6.29067 231.977 6.376L231.737 4.808C231.982 4.72267 232.34 4.63733 232.809 4.552C233.278 4.46667 233.78 4.424 234.313 4.424ZM242.017 13C241.483 11.9013 240.934 10.6427 240.369 9.224C239.814 7.79467 239.307 6.264 238.849 4.632H240.913C241.03 5.10133 241.163 5.608 241.313 6.152C241.473 6.68533 241.638 7.224 241.809 7.768C241.99 8.30133 242.171 8.824 242.353 9.336C242.545 9.83733 242.721 10.2907 242.881 10.696C243.041 10.2907 243.211 9.83733 243.393 9.336C243.574 8.824 243.75 8.30133 243.921 7.768C244.102 7.224 244.273 6.68533 244.433 6.152C244.593 5.608 244.731 5.10133 244.849 4.632H246.849C246.39 6.264 245.878 7.79467 245.313 9.224C244.758 10.6427 244.214 11.9013 243.681 13H242.017ZM247.643 8.856C247.643 8.12 247.75 7.47467 247.963 6.92C248.187 6.36533 248.48 5.90667 248.843 5.544C249.206 5.17067 249.622 4.89333 250.091 4.712C250.56 4.52 251.04 4.424 251.531 4.424C252.683 4.424 253.579 4.78133 254.219 5.496C254.87 6.21067 255.195 7.27733 255.195 8.696C255.195 8.80267 255.19 8.92533 255.179 9.064C255.179 9.192 255.174 9.30933 255.163 9.416H249.643C249.696 10.088 249.931 10.6107 250.347 10.984C250.774 11.3467 251.387 11.528 252.187 11.528C252.656 11.528 253.083 11.4853 253.467 11.4C253.862 11.3147 254.171 11.224 254.395 11.128L254.651 12.712C254.544 12.7653 254.395 12.824 254.203 12.888C254.022 12.9413 253.808 12.9893 253.563 13.032C253.328 13.0853 253.072 13.128 252.795 13.16C252.518 13.192 252.235 13.208 251.947 13.208C251.211 13.208 250.571 13.1013 250.027 12.888C249.483 12.664 249.035 12.36 248.683 11.976C248.331 11.5813 248.07 11.1227 247.899 10.6C247.728 10.0667 247.643 9.48533 247.643 8.856ZM253.259 7.992C253.259 7.72533 253.222 7.47467 253.147 7.24C253.072 6.99467 252.96 6.78667 252.811 6.616C252.672 6.43467 252.496 6.296 252.283 6.2C252.08 6.09333 251.835 6.04 251.547 6.04C251.248 6.04 250.987 6.09867 250.763 6.216C250.539 6.32267 250.347 6.46667 250.187 6.648C250.038 6.82933 249.92 7.03733 249.835 7.272C249.75 7.50667 249.691 7.74667 249.659 7.992H253.259ZM258.96 3.304C258.586 3.304 258.229 3.352 257.888 3.448C257.546 3.53333 257.189 3.67733 256.816 3.88L256.272 2.392C256.666 2.168 257.114 1.992 257.616 1.864C258.128 1.72533 258.65 1.656 259.184 1.656C259.824 1.656 260.352 1.74667 260.768 1.928C261.184 2.09867 261.514 2.31733 261.76 2.584C262.005 2.85067 262.176 3.144 262.272 3.464C262.368 3.784 262.416 4.09333 262.416 4.392C262.416 4.75467 262.346 5.08 262.208 5.368C262.08 5.656 261.914 5.92267 261.712 6.168C261.509 6.41333 261.29 6.648 261.056 6.872C260.821 7.08533 260.602 7.30933 260.4 7.544C260.197 7.768 260.026 8.008 259.888 8.264C259.76 8.52 259.696 8.808 259.696 9.128C259.696 9.18133 259.696 9.24533 259.696 9.32C259.696 9.384 259.701 9.448 259.712 9.512H258.048C258.026 9.40533 258.01 9.29333 258 9.176C257.989 9.048 257.984 8.93067 257.984 8.824C257.984 8.472 258.042 8.15733 258.16 7.88C258.277 7.60267 258.426 7.34667 258.608 7.112C258.789 6.87733 258.981 6.65867 259.184 6.456C259.397 6.25333 259.594 6.05067 259.776 5.848C259.957 5.64533 260.106 5.43733 260.224 5.224C260.341 5.01067 260.4 4.776 260.4 4.52C260.4 4.168 260.277 3.88 260.032 3.656C259.797 3.42133 259.44 3.304 258.96 3.304ZM260.208 11.944C260.208 12.3173 260.085 12.6213 259.84 12.856C259.594 13.0907 259.29 13.208 258.928 13.208C258.576 13.208 258.272 13.0907 258.016 12.856C257.77 12.6213 257.648 12.3173 257.648 11.944C257.648 11.5707 257.77 11.2667 258.016 11.032C258.272 10.7867 258.576 10.664 258.928 10.664C259.29 10.664 259.594 10.7867 259.84 11.032C260.085 11.2667 260.208 11.5707 260.208 11.944Z" fill="white"/>
</svg>
