<svg width="248" height="16" viewBox="0 0 248 16" fill="none" xmlns="http://www.w3.org/2000/svg">
<path d="M8.432 3.16C8.60267 3.736 8.784 4.33867 8.976 4.968C9.168 5.58667 9.36533 6.21067 9.568 6.84C9.78133 7.45867 9.98933 8.072 10.192 8.68C10.4053 9.27733 10.608 9.84267 10.8 10.376C10.96 9.8 11.1147 9.176 11.264 8.504C11.4133 7.82133 11.5627 7.11733 11.712 6.392C11.8613 5.656 12.0053 4.90933 12.144 4.152C12.2933 3.39467 12.432 2.648 12.56 1.912H14.64C14.2667 3.91733 13.8507 5.848 13.392 7.704C12.9333 9.54933 12.4213 11.3147 11.856 13H9.936C9.104 10.8453 8.29867 8.49333 7.52 5.944C7.12533 7.23467 6.72533 8.46133 6.32 9.624C5.91467 10.7867 5.50933 11.912 5.104 13H3.184C2.608 11.3147 2.09067 9.54933 1.632 7.704C1.184 5.848 0.773333 3.91733 0.4 1.912H2.56C2.688 2.63733 2.82133 3.37867 2.96 4.136C3.10933 4.89333 3.25867 5.64 3.408 6.376C3.568 7.10133 3.728 7.80533 3.888 8.488C4.048 9.17067 4.208 9.8 4.368 10.376C4.57067 9.832 4.77333 9.26133 4.976 8.664C5.18933 8.056 5.39733 7.44267 5.6 6.824C5.80267 6.19467 5.99467 5.57067 6.176 4.952C6.368 4.33333 6.544 3.736 6.704 3.16H8.432ZM16.2476 13V0.903999L18.1836 0.584V4.728C18.397 4.65333 18.6423 4.58933 18.9196 4.536C19.2076 4.48267 19.4903 4.456 19.7676 4.456C20.4396 4.456 20.9943 4.552 21.4316 4.744C21.8796 4.92533 22.237 5.18667 22.5036 5.528C22.7703 5.85867 22.957 6.25867 23.0636 6.728C23.181 7.19733 23.2396 7.72 23.2396 8.296V13H21.3036V8.6C21.3036 8.152 21.2716 7.77333 21.2076 7.464C21.1543 7.144 21.0583 6.888 20.9196 6.696C20.7916 6.49333 20.6156 6.34933 20.3916 6.264C20.1676 6.168 19.8903 6.12 19.5596 6.12C19.3036 6.12 19.0423 6.14667 18.7756 6.2C18.509 6.25333 18.3116 6.30133 18.1836 6.344V13H16.2476ZM27.5121 13H25.5761V4.632H27.5121V13ZM27.7201 2.184C27.7201 2.54667 27.6028 2.83467 27.3681 3.048C27.1335 3.26133 26.8561 3.368 26.5361 3.368C26.2055 3.368 25.9228 3.26133 25.6881 3.048C25.4535 2.83467 25.3361 2.54667 25.3361 2.184C25.3361 1.81067 25.4535 1.51733 25.6881 1.304C25.9228 1.09067 26.2055 0.983999 26.5361 0.983999C26.8561 0.983999 27.1335 1.09067 27.3681 1.304C27.6028 1.51733 27.7201 1.81067 27.7201 2.184ZM29.518 8.824C29.518 8.20533 29.614 7.62933 29.806 7.096C29.998 6.552 30.27 6.08267 30.622 5.688C30.9847 5.29333 31.422 4.984 31.934 4.76C32.446 4.536 33.022 4.424 33.662 4.424C34.4513 4.424 35.198 4.568 35.902 4.856L35.486 6.44C35.262 6.344 35.006 6.264 34.718 6.2C34.4407 6.136 34.142 6.104 33.822 6.104C33.0647 6.104 32.4887 6.344 32.094 6.824C31.6993 7.29333 31.502 7.96 31.502 8.824C31.502 9.656 31.6887 10.3173 32.062 10.808C32.4353 11.288 33.0647 11.528 33.95 11.528C34.2807 11.528 34.606 11.496 34.926 11.432C35.246 11.368 35.5233 11.288 35.758 11.192L36.03 12.792C35.8167 12.8987 35.4913 12.9947 35.054 13.08C34.6273 13.1653 34.1847 13.208 33.726 13.208C33.0113 13.208 32.3873 13.1013 31.854 12.888C31.3313 12.664 30.894 12.36 30.542 11.976C30.2007 11.5813 29.9447 11.1173 29.774 10.584C29.6033 10.04 29.518 9.45333 29.518 8.824ZM37.5289 13V0.903999L39.4649 0.584V4.728C39.6782 4.65333 39.9235 4.58933 40.2009 4.536C40.4889 4.48267 40.7715 4.456 41.0489 4.456C41.7209 4.456 42.2755 4.552 42.7129 4.744C43.1609 4.92533 43.5182 5.18667 43.7849 5.528C44.0515 5.85867 44.2382 6.25867 44.3449 6.728C44.4622 7.19733 44.5209 7.72 44.5209 8.296V13H42.5849V8.6C42.5849 8.152 42.5529 7.77333 42.4889 7.464C42.4355 7.144 42.3395 6.888 42.2009 6.696C42.0729 6.49333 41.8969 6.34933 41.6729 6.264C41.4489 6.168 41.1715 6.12 40.8409 6.12C40.5849 6.12 40.3235 6.14667 40.0569 6.2C39.7902 6.25333 39.5929 6.30133 39.4649 6.344V13H37.5289ZM50.1118 8.856C50.1118 8.12 50.2184 7.47467 50.4318 6.92C50.6558 6.36533 50.9491 5.90667 51.3118 5.544C51.6744 5.17067 52.0904 4.89333 52.5598 4.712C53.0291 4.52 53.5091 4.424 53.9998 4.424C55.1518 4.424 56.0478 4.78133 56.6878 5.496C57.3384 6.21067 57.6638 7.27733 57.6638 8.696C57.6638 8.80267 57.6584 8.92533 57.6478 9.064C57.6478 9.192 57.6424 9.30933 57.6318 9.416H52.1118C52.1651 10.088 52.3998 10.6107 52.8158 10.984C53.2424 11.3467 53.8558 11.528 54.6558 11.528C55.1251 11.528 55.5518 11.4853 55.9358 11.4C56.3304 11.3147 56.6398 11.224 56.8638 11.128L57.1198 12.712C57.0131 12.7653 56.8638 12.824 56.6718 12.888C56.4904 12.9413 56.2771 12.9893 56.0318 13.032C55.7971 13.0853 55.5411 13.128 55.2638 13.16C54.9864 13.192 54.7038 13.208 54.4158 13.208C53.6798 13.208 53.0398 13.1013 52.4958 12.888C51.9518 12.664 51.5038 12.36 51.1518 11.976C50.7998 11.5813 50.5384 11.1227 50.3678 10.6C50.1971 10.0667 50.1118 9.48533 50.1118 8.856ZM55.7278 7.992C55.7278 7.72533 55.6904 7.47467 55.6158 7.24C55.5411 6.99467 55.4291 6.78667 55.2798 6.616C55.1411 6.43467 54.9651 6.296 54.7518 6.2C54.5491 6.09333 54.3038 6.04 54.0158 6.04C53.7171 6.04 53.4558 6.09867 53.2318 6.216C53.0078 6.32267 52.8158 6.46667 52.6558 6.648C52.5064 6.82933 52.3891 7.03733 52.3038 7.272C52.2184 7.50667 52.1598 7.74667 52.1278 7.992H55.7278ZM66.5484 4.632C65.6844 7.81067 64.6817 10.6907 63.5404 13.272C63.327 13.752 63.1084 14.1627 62.8844 14.504C62.6604 14.8453 62.4097 15.128 62.1324 15.352C61.855 15.576 61.5457 15.736 61.2044 15.832C60.863 15.9387 60.4684 15.992 60.0204 15.992C59.7217 15.992 59.423 15.96 59.1244 15.896C58.8364 15.832 58.6177 15.7627 58.4684 15.688L58.8204 14.136C59.2044 14.2853 59.583 14.36 59.9564 14.36C60.4577 14.36 60.847 14.2373 61.1244 13.992C61.4124 13.7573 61.663 13.3893 61.8764 12.888C61.2684 11.7147 60.6817 10.4347 60.1164 9.048C59.5617 7.66133 59.0657 6.18933 58.6284 4.632H60.6924C60.799 5.08 60.927 5.56533 61.0764 6.088C61.2364 6.61067 61.407 7.144 61.5884 7.688C61.7697 8.22133 61.9617 8.75467 62.1644 9.288C62.367 9.82133 62.5697 10.3173 62.7724 10.776C63.1137 9.82667 63.4337 8.81867 63.7324 7.752C64.031 6.67467 64.303 5.63467 64.5484 4.632H66.5484ZM67.5493 8.856C67.5493 8.12 67.6559 7.47467 67.8693 6.92C68.0933 6.36533 68.3866 5.90667 68.7493 5.544C69.1119 5.17067 69.5279 4.89333 69.9973 4.712C70.4666 4.52 70.9466 4.424 71.4373 4.424C72.5893 4.424 73.4853 4.78133 74.1253 5.496C74.7759 6.21067 75.1013 7.27733 75.1013 8.696C75.1013 8.80267 75.0959 8.92533 75.0853 9.064C75.0853 9.192 75.0799 9.30933 75.0693 9.416H69.5493C69.6026 10.088 69.8373 10.6107 70.2533 10.984C70.6799 11.3467 71.2933 11.528 72.0933 11.528C72.5626 11.528 72.9893 11.4853 73.3733 11.4C73.7679 11.3147 74.0773 11.224 74.3013 11.128L74.5573 12.712C74.4506 12.7653 74.3013 12.824 74.1093 12.888C73.9279 12.9413 73.7146 12.9893 73.4693 13.032C73.2346 13.0853 72.9786 13.128 72.7013 13.16C72.4239 13.192 72.1413 13.208 71.8533 13.208C71.1173 13.208 70.4773 13.1013 69.9333 12.888C69.3893 12.664 68.9413 12.36 68.5893 11.976C68.2373 11.5813 67.9759 11.1227 67.8053 10.6C67.6346 10.0667 67.5493 9.48533 67.5493 8.856ZM73.1653 7.992C73.1653 7.72533 73.1279 7.47467 73.0533 7.24C72.9786 6.99467 72.8666 6.78667 72.7173 6.616C72.5786 6.43467 72.4026 6.296 72.1893 6.2C71.9866 6.09333 71.7413 6.04 71.4533 6.04C71.1546 6.04 70.8933 6.09867 70.6693 6.216C70.4453 6.32267 70.2533 6.46667 70.0933 6.648C69.9439 6.82933 69.8266 7.03733 69.7413 7.272C69.6559 7.50667 69.5973 7.74667 69.5653 7.992H73.1653ZM79.2499 11.608C79.7619 11.608 80.1352 11.5493 80.3699 11.432C80.6045 11.304 80.7219 11.0907 80.7219 10.792C80.7219 10.5147 80.5939 10.2853 80.3379 10.104C80.0925 9.92267 79.6819 9.72533 79.1059 9.512C78.7539 9.384 78.4285 9.25067 78.1299 9.112C77.8419 8.96267 77.5912 8.792 77.3779 8.6C77.1645 8.408 76.9939 8.17867 76.8659 7.912C76.7485 7.63467 76.6899 7.29867 76.6899 6.904C76.6899 6.136 76.9725 5.53333 77.5379 5.096C78.1032 4.648 78.8712 4.424 79.8419 4.424C80.3325 4.424 80.8019 4.472 81.2499 4.568C81.6979 4.65333 82.0339 4.73867 82.2579 4.824L81.9059 6.392C81.6925 6.296 81.4205 6.21067 81.0899 6.136C80.7592 6.05067 80.3752 6.008 79.9379 6.008C79.5432 6.008 79.2232 6.07733 78.9779 6.216C78.7325 6.344 78.6099 6.54667 78.6099 6.824C78.6099 6.96267 78.6312 7.08533 78.6739 7.192C78.7272 7.29867 78.8125 7.4 78.9299 7.496C79.0472 7.58133 79.2019 7.672 79.3939 7.768C79.5859 7.85333 79.8205 7.944 80.0979 8.04C80.5565 8.21067 80.9459 8.38133 81.2659 8.552C81.5859 8.712 81.8472 8.89867 82.0499 9.112C82.2632 9.31467 82.4179 9.54933 82.5139 9.816C82.6099 10.0827 82.6579 10.4027 82.6579 10.776C82.6579 11.576 82.3592 12.184 81.7619 12.6C81.1752 13.0053 80.3325 13.208 79.2339 13.208C78.4979 13.208 77.9059 13.144 77.4579 13.016C77.0099 12.8987 76.6952 12.8027 76.5139 12.728L76.8499 11.112C77.1379 11.2293 77.4792 11.3413 77.8739 11.448C78.2792 11.5547 78.7379 11.608 79.2499 11.608ZM89.7208 8.792C89.7208 9.64533 89.9234 10.3173 90.3288 10.808C90.7341 11.288 91.2941 11.528 92.0088 11.528C92.3181 11.528 92.5794 11.5173 92.7928 11.496C93.0168 11.464 93.1981 11.432 93.3368 11.4V6.6C93.1661 6.48267 92.9368 6.376 92.6488 6.28C92.3714 6.17333 92.0728 6.12 91.7528 6.12C91.0488 6.12 90.5314 6.36 90.2008 6.84C89.8808 7.32 89.7208 7.97067 89.7208 8.792ZM95.2728 12.744C94.8888 12.8613 94.4034 12.968 93.8168 13.064C93.2408 13.16 92.6328 13.208 91.9928 13.208C91.3314 13.208 90.7394 13.1067 90.2168 12.904C89.6941 12.7013 89.2461 12.4133 88.8728 12.04C88.5101 11.656 88.2274 11.1973 88.0247 10.664C87.8328 10.12 87.7368 9.512 87.7368 8.84C87.7368 8.17867 87.8168 7.58133 87.9768 7.048C88.1474 6.504 88.3928 6.04 88.7128 5.656C89.0328 5.272 89.4221 4.97867 89.8808 4.776C90.3394 4.56267 90.8674 4.456 91.4648 4.456C91.8701 4.456 92.2274 4.504 92.5368 4.6C92.8461 4.696 93.1128 4.80267 93.3368 4.92V0.903999L95.2728 0.584V12.744ZM99.684 13H97.748V4.632H99.684V13ZM99.892 2.184C99.892 2.54667 99.7747 2.83467 99.54 3.048C99.3053 3.26133 99.028 3.368 98.708 3.368C98.3773 3.368 98.0947 3.26133 97.86 3.048C97.6253 2.83467 97.508 2.54667 97.508 2.184C97.508 1.81067 97.6253 1.51733 97.86 1.304C98.0947 1.09067 98.3773 0.983999 98.708 0.983999C99.028 0.983999 99.3053 1.09067 99.54 1.304C99.7747 1.51733 99.892 1.81067 99.892 2.184ZM103.674 8.792C103.674 9.64533 103.877 10.3173 104.282 10.808C104.687 11.288 105.247 11.528 105.962 11.528C106.271 11.528 106.533 11.5173 106.746 11.496C106.97 11.464 107.151 11.432 107.29 11.4V6.6C107.119 6.48267 106.89 6.376 106.602 6.28C106.325 6.17333 106.026 6.12 105.706 6.12C105.002 6.12 104.485 6.36 104.154 6.84C103.834 7.32 103.674 7.97067 103.674 8.792ZM109.226 12.744C108.842 12.8613 108.357 12.968 107.77 13.064C107.194 13.16 106.586 13.208 105.946 13.208C105.285 13.208 104.693 13.1067 104.17 12.904C103.647 12.7013 103.199 12.4133 102.826 12.04C102.463 11.656 102.181 11.1973 101.978 10.664C101.786 10.12 101.69 9.512 101.69 8.84C101.69 8.17867 101.77 7.58133 101.93 7.048C102.101 6.504 102.346 6.04 102.666 5.656C102.986 5.272 103.375 4.97867 103.834 4.776C104.293 4.56267 104.821 4.456 105.418 4.456C105.823 4.456 106.181 4.504 106.49 4.6C106.799 4.696 107.066 4.80267 107.29 4.92V0.903999L109.226 0.584V12.744ZM115.324 2.424L117.26 2.104V4.632H120.236V6.248H117.26V9.656C117.26 10.328 117.366 10.808 117.58 11.096C117.793 11.384 118.156 11.528 118.668 11.528C119.02 11.528 119.329 11.4907 119.596 11.416C119.873 11.3413 120.092 11.272 120.252 11.208L120.572 12.744C120.348 12.84 120.054 12.936 119.692 13.032C119.329 13.1387 118.902 13.192 118.411 13.192C117.814 13.192 117.313 13.112 116.908 12.952C116.513 12.792 116.198 12.5627 115.964 12.264C115.729 11.9547 115.564 11.5867 115.468 11.16C115.372 10.7227 115.324 10.2267 115.324 9.672V2.424ZM122.107 13V0.903999L124.043 0.584V4.728C124.256 4.65333 124.502 4.58933 124.779 4.536C125.067 4.48267 125.35 4.456 125.627 4.456C126.299 4.456 126.854 4.552 127.291 4.744C127.739 4.92533 128.096 5.18667 128.363 5.528C128.63 5.85867 128.816 6.25867 128.923 6.728C129.04 7.19733 129.099 7.72 129.099 8.296V13H127.163V8.6C127.163 8.152 127.131 7.77333 127.067 7.464C127.014 7.144 126.918 6.888 126.779 6.696C126.651 6.49333 126.475 6.34933 126.251 6.264C126.027 6.168 125.75 6.12 125.419 6.12C125.163 6.12 124.902 6.14667 124.635 6.2C124.368 6.25333 124.171 6.30133 124.043 6.344V13H122.107ZM130.956 8.856C130.956 8.12 131.062 7.47467 131.276 6.92C131.5 6.36533 131.793 5.90667 132.156 5.544C132.518 5.17067 132.934 4.89333 133.404 4.712C133.873 4.52 134.353 4.424 134.844 4.424C135.996 4.424 136.892 4.78133 137.532 5.496C138.182 6.21067 138.508 7.27733 138.508 8.696C138.508 8.80267 138.502 8.92533 138.492 9.064C138.492 9.192 138.486 9.30933 138.476 9.416H132.956C133.009 10.088 133.244 10.6107 133.66 10.984C134.086 11.3467 134.7 11.528 135.5 11.528C135.969 11.528 136.396 11.4853 136.78 11.4C137.174 11.3147 137.484 11.224 137.708 11.128L137.964 12.712C137.857 12.7653 137.708 12.824 137.516 12.888C137.334 12.9413 137.121 12.9893 136.876 13.032C136.641 13.0853 136.385 13.128 136.108 13.16C135.83 13.192 135.548 13.208 135.26 13.208C134.524 13.208 133.884 13.1013 133.34 12.888C132.796 12.664 132.348 12.36 131.996 11.976C131.644 11.5813 131.382 11.1227 131.212 10.6C131.041 10.0667 130.956 9.48533 130.956 8.856ZM136.572 7.992C136.572 7.72533 136.534 7.47467 136.46 7.24C136.385 6.99467 136.273 6.78667 136.124 6.616C135.985 6.43467 135.809 6.296 135.596 6.2C135.393 6.09333 135.148 6.04 134.86 6.04C134.561 6.04 134.3 6.09867 134.076 6.216C133.852 6.32267 133.66 6.46667 133.5 6.648C133.35 6.82933 133.233 7.03733 133.148 7.272C133.062 7.50667 133.004 7.74667 132.972 7.992H136.572ZM143.831 8.824C143.831 8.20533 143.927 7.62933 144.118 7.096C144.311 6.552 144.583 6.08267 144.935 5.688C145.297 5.29333 145.735 4.984 146.247 4.76C146.759 4.536 147.335 4.424 147.975 4.424C148.764 4.424 149.511 4.568 150.215 4.856L149.799 6.44C149.575 6.344 149.319 6.264 149.031 6.2C148.753 6.136 148.455 6.104 148.135 6.104C147.377 6.104 146.801 6.344 146.407 6.824C146.012 7.29333 145.815 7.96 145.815 8.824C145.815 9.656 146.001 10.3173 146.375 10.808C146.748 11.288 147.377 11.528 148.263 11.528C148.593 11.528 148.919 11.496 149.239 11.432C149.559 11.368 149.836 11.288 150.071 11.192L150.343 12.792C150.129 12.8987 149.804 12.9947 149.367 13.08C148.94 13.1653 148.497 13.208 148.039 13.208C147.324 13.208 146.7 13.1013 146.167 12.888C145.644 12.664 145.207 12.36 144.855 11.976C144.513 11.5813 144.257 11.1173 144.087 10.584C143.916 10.04 143.831 9.45333 143.831 8.824ZM156.609 6.376C156.449 6.32267 156.225 6.26933 155.937 6.216C155.66 6.152 155.335 6.12 154.961 6.12C154.748 6.12 154.519 6.14133 154.273 6.184C154.039 6.22667 153.873 6.264 153.777 6.296V13H151.841V5.032C152.215 4.89333 152.679 4.76533 153.233 4.648C153.799 4.52 154.423 4.456 155.105 4.456C155.233 4.456 155.383 4.46667 155.553 4.488C155.724 4.49867 155.895 4.52 156.065 4.552C156.236 4.57333 156.401 4.60533 156.561 4.648C156.721 4.68 156.849 4.712 156.945 4.744L156.609 6.376ZM160.247 13H158.311V4.632H160.247V13ZM160.455 2.184C160.455 2.54667 160.337 2.83467 160.103 3.048C159.868 3.26133 159.591 3.368 159.271 3.368C158.94 3.368 158.657 3.26133 158.423 3.048C158.188 2.83467 158.071 2.54667 158.071 2.184C158.071 1.81067 158.188 1.51733 158.423 1.304C158.657 1.09067 158.94 0.983999 159.271 0.983999C159.591 0.983999 159.868 1.09067 160.103 1.304C160.337 1.51733 160.455 1.81067 160.455 2.184ZM167.484 8.6C167.484 7.72533 167.372 7.096 167.148 6.712C166.935 6.31733 166.53 6.12 165.932 6.12C165.719 6.12 165.484 6.136 165.228 6.168C164.972 6.2 164.78 6.22667 164.652 6.248V13H162.716V4.904C163.09 4.79733 163.575 4.696 164.172 4.6C164.78 4.504 165.42 4.456 166.092 4.456C166.668 4.456 167.138 4.53067 167.5 4.68C167.874 4.82933 168.183 5.02667 168.428 5.272C168.546 5.18667 168.695 5.096 168.876 5C169.058 4.904 169.26 4.81867 169.484 4.744C169.708 4.65867 169.943 4.58933 170.188 4.536C170.444 4.48267 170.7 4.456 170.956 4.456C171.607 4.456 172.14 4.552 172.556 4.744C172.983 4.92533 173.314 5.18667 173.548 5.528C173.794 5.85867 173.959 6.264 174.044 6.744C174.14 7.21333 174.188 7.73067 174.188 8.296V13H172.252V8.6C172.252 7.72533 172.146 7.096 171.932 6.712C171.719 6.31733 171.308 6.12 170.7 6.12C170.391 6.12 170.098 6.17333 169.82 6.28C169.543 6.376 169.335 6.472 169.196 6.568C169.282 6.83467 169.34 7.11733 169.372 7.416C169.404 7.71467 169.42 8.03467 169.42 8.376V13H167.484V8.6ZM178.512 13H176.576V4.632H178.512V13ZM178.72 2.184C178.72 2.54667 178.603 2.83467 178.368 3.048C178.133 3.26133 177.856 3.368 177.536 3.368C177.205 3.368 176.923 3.26133 176.688 3.048C176.453 2.83467 176.336 2.54667 176.336 2.184C176.336 1.81067 176.453 1.51733 176.688 1.304C176.923 1.09067 177.205 0.983999 177.536 0.983999C177.856 0.983999 178.133 1.09067 178.368 1.304C178.603 1.51733 178.72 1.81067 178.72 2.184ZM180.982 4.904C181.355 4.79733 181.841 4.696 182.438 4.6C183.035 4.504 183.697 4.456 184.422 4.456C185.105 4.456 185.675 4.552 186.134 4.744C186.593 4.92533 186.955 5.18667 187.222 5.528C187.499 5.85867 187.691 6.264 187.798 6.744C187.915 7.21333 187.974 7.73067 187.974 8.296V13H186.038V8.6C186.038 8.152 186.006 7.77333 185.942 7.464C185.889 7.144 185.793 6.888 185.654 6.696C185.526 6.49333 185.345 6.34933 185.11 6.264C184.886 6.168 184.609 6.12 184.278 6.12C184.033 6.12 183.777 6.136 183.51 6.168C183.243 6.2 183.046 6.22667 182.918 6.248V13H180.982V4.904ZM193.285 11.64C193.883 11.64 194.336 11.608 194.645 11.544V9.4C194.539 9.368 194.384 9.336 194.181 9.304C193.979 9.272 193.755 9.256 193.509 9.256C193.296 9.256 193.077 9.272 192.853 9.304C192.64 9.336 192.443 9.39467 192.261 9.48C192.091 9.56533 191.952 9.688 191.845 9.848C191.739 9.99733 191.685 10.1893 191.685 10.424C191.685 10.8827 191.829 11.2027 192.117 11.384C192.405 11.5547 192.795 11.64 193.285 11.64ZM193.125 4.424C193.765 4.424 194.304 4.504 194.741 4.664C195.179 4.824 195.525 5.048 195.781 5.336C196.048 5.624 196.235 5.976 196.341 6.392C196.459 6.79733 196.517 7.24533 196.517 7.736V12.808C196.219 12.872 195.765 12.9467 195.157 13.032C194.56 13.128 193.883 13.176 193.125 13.176C192.624 13.176 192.165 13.128 191.749 13.032C191.333 12.936 190.976 12.7813 190.677 12.568C190.389 12.3547 190.16 12.0773 189.989 11.736C189.829 11.3947 189.749 10.9733 189.749 10.472C189.749 9.992 189.84 9.58667 190.021 9.256C190.213 8.92533 190.469 8.65867 190.789 8.456C191.109 8.24267 191.477 8.09333 191.893 8.008C192.32 7.912 192.763 7.864 193.221 7.864C193.435 7.864 193.659 7.88 193.893 7.912C194.128 7.93333 194.379 7.976 194.645 8.04V7.72C194.645 7.496 194.619 7.28267 194.565 7.08C194.512 6.87733 194.416 6.70133 194.277 6.552C194.149 6.392 193.973 6.26933 193.749 6.184C193.536 6.09867 193.264 6.056 192.933 6.056C192.485 6.056 192.075 6.088 191.701 6.152C191.328 6.216 191.024 6.29067 190.789 6.376L190.549 4.808C190.795 4.72267 191.152 4.63733 191.621 4.552C192.091 4.46667 192.592 4.424 193.125 4.424ZM201.8 13.16C201.224 13.1493 200.744 13.0853 200.36 12.968C199.987 12.8507 199.688 12.6853 199.464 12.472C199.24 12.248 199.08 11.976 198.984 11.656C198.899 11.3253 198.856 10.952 198.856 10.536V0.903999L200.792 0.584V10.168C200.792 10.4027 200.808 10.6 200.84 10.76C200.883 10.92 200.952 11.0587 201.048 11.176C201.144 11.2827 201.272 11.368 201.432 11.432C201.603 11.4853 201.816 11.528 202.072 11.56L201.8 13.16ZM207.373 13V0.903999L209.309 0.584V4.728C209.522 4.65333 209.767 4.58933 210.045 4.536C210.333 4.48267 210.615 4.456 210.893 4.456C211.565 4.456 212.119 4.552 212.557 4.744C213.005 4.92533 213.362 5.18667 213.629 5.528C213.895 5.85867 214.082 6.25867 214.189 6.728C214.306 7.19733 214.365 7.72 214.365 8.296V13H212.429V8.6C212.429 8.152 212.397 7.77333 212.333 7.464C212.279 7.144 212.183 6.888 212.045 6.696C211.917 6.49333 211.741 6.34933 211.517 6.264C211.293 6.168 211.015 6.12 210.685 6.12C210.429 6.12 210.167 6.14667 209.901 6.2C209.634 6.25333 209.437 6.30133 209.309 6.344V13H207.373ZM219.629 11.64C220.226 11.64 220.68 11.608 220.989 11.544V9.4C220.882 9.368 220.728 9.336 220.525 9.304C220.322 9.272 220.098 9.256 219.853 9.256C219.64 9.256 219.421 9.272 219.197 9.304C218.984 9.336 218.786 9.39467 218.605 9.48C218.434 9.56533 218.296 9.688 218.189 9.848C218.082 9.99733 218.029 10.1893 218.029 10.424C218.029 10.8827 218.173 11.2027 218.461 11.384C218.749 11.5547 219.138 11.64 219.629 11.64ZM219.469 4.424C220.109 4.424 220.648 4.504 221.085 4.664C221.522 4.824 221.869 5.048 222.125 5.336C222.392 5.624 222.578 5.976 222.685 6.392C222.802 6.79733 222.861 7.24533 222.861 7.736V12.808C222.562 12.872 222.109 12.9467 221.501 13.032C220.904 13.128 220.226 13.176 219.469 13.176C218.968 13.176 218.509 13.128 218.093 13.032C217.677 12.936 217.32 12.7813 217.021 12.568C216.733 12.3547 216.504 12.0773 216.333 11.736C216.173 11.3947 216.093 10.9733 216.093 10.472C216.093 9.992 216.184 9.58667 216.365 9.256C216.557 8.92533 216.813 8.65867 217.133 8.456C217.453 8.24267 217.821 8.09333 218.237 8.008C218.664 7.912 219.106 7.864 219.565 7.864C219.778 7.864 220.002 7.88 220.237 7.912C220.472 7.93333 220.722 7.976 220.989 8.04V7.72C220.989 7.496 220.962 7.28267 220.909 7.08C220.856 6.87733 220.76 6.70133 220.621 6.552C220.493 6.392 220.317 6.26933 220.093 6.184C219.88 6.09867 219.608 6.056 219.277 6.056C218.829 6.056 218.418 6.088 218.045 6.152C217.672 6.216 217.368 6.29067 217.133 6.376L216.893 4.808C217.138 4.72267 217.496 4.63733 217.965 4.552C218.434 4.46667 218.936 4.424 219.469 4.424ZM227.173 13C226.64 11.9013 226.09 10.6427 225.525 9.224C224.97 7.79467 224.464 6.264 224.005 4.632H226.069C226.186 5.10133 226.32 5.608 226.469 6.152C226.629 6.68533 226.794 7.224 226.965 7.768C227.146 8.30133 227.328 8.824 227.509 9.336C227.701 9.83733 227.877 10.2907 228.037 10.696C228.197 10.2907 228.368 9.83733 228.549 9.336C228.73 8.824 228.906 8.30133 229.077 7.768C229.258 7.224 229.429 6.68533 229.589 6.152C229.749 5.608 229.888 5.10133 230.005 4.632H232.005C231.546 6.264 231.034 7.79467 230.469 9.224C229.914 10.6427 229.37 11.9013 228.837 13H227.173ZM232.799 8.856C232.799 8.12 232.906 7.47467 233.119 6.92C233.343 6.36533 233.637 5.90667 233.999 5.544C234.362 5.17067 234.778 4.89333 235.247 4.712C235.717 4.52 236.197 4.424 236.687 4.424C237.839 4.424 238.735 4.78133 239.375 5.496C240.026 6.21067 240.351 7.27733 240.351 8.696C240.351 8.80267 240.346 8.92533 240.335 9.064C240.335 9.192 240.33 9.30933 240.319 9.416H234.799C234.853 10.088 235.087 10.6107 235.503 10.984C235.93 11.3467 236.543 11.528 237.343 11.528C237.813 11.528 238.239 11.4853 238.623 11.4C239.018 11.3147 239.327 11.224 239.551 11.128L239.807 12.712C239.701 12.7653 239.551 12.824 239.359 12.888C239.178 12.9413 238.965 12.9893 238.719 13.032C238.485 13.0853 238.229 13.128 237.951 13.16C237.674 13.192 237.391 13.208 237.103 13.208C236.367 13.208 235.727 13.1013 235.183 12.888C234.639 12.664 234.191 12.36 233.839 11.976C233.487 11.5813 233.226 11.1227 233.055 10.6C232.885 10.0667 232.799 9.48533 232.799 8.856ZM238.415 7.992C238.415 7.72533 238.378 7.47467 238.303 7.24C238.229 6.99467 238.117 6.78667 237.967 6.616C237.829 6.43467 237.653 6.296 237.439 6.2C237.237 6.09333 236.991 6.04 236.703 6.04C236.405 6.04 236.143 6.09867 235.919 6.216C235.695 6.32267 235.503 6.46667 235.343 6.648C235.194 6.82933 235.077 7.03733 234.991 7.272C234.906 7.50667 234.847 7.74667 234.815 7.992H238.415ZM244.116 3.304C243.743 3.304 243.385 3.352 243.044 3.448C242.703 3.53333 242.345 3.67733 241.972 3.88L241.428 2.392C241.823 2.168 242.271 1.992 242.772 1.864C243.284 1.72533 243.807 1.656 244.34 1.656C244.98 1.656 245.508 1.74667 245.924 1.928C246.34 2.09867 246.671 2.31733 246.916 2.584C247.161 2.85067 247.332 3.144 247.428 3.464C247.524 3.784 247.572 4.09333 247.572 4.392C247.572 4.75467 247.503 5.08 247.364 5.368C247.236 5.656 247.071 5.92267 246.868 6.168C246.665 6.41333 246.447 6.648 246.212 6.872C245.977 7.08533 245.759 7.30933 245.556 7.544C245.353 7.768 245.183 8.008 245.044 8.264C244.916 8.52 244.852 8.808 244.852 9.128C244.852 9.18133 244.852 9.24533 244.852 9.32C244.852 9.384 244.857 9.448 244.868 9.512H243.204C243.183 9.40533 243.167 9.29333 243.156 9.176C243.145 9.048 243.14 8.93067 243.14 8.824C243.14 8.472 243.199 8.15733 243.316 7.88C243.433 7.60267 243.583 7.34667 243.764 7.112C243.945 6.87733 244.137 6.65867 244.34 6.456C244.553 6.25333 244.751 6.05067 244.932 5.848C245.113 5.64533 245.263 5.43733 245.38 5.224C245.497 5.01067 245.556 4.776 245.556 4.52C245.556 4.168 245.433 3.88 245.188 3.656C244.953 3.42133 244.596 3.304 244.116 3.304ZM245.364 11.944C245.364 12.3173 245.241 12.6213 244.996 12.856C244.751 13.0907 244.447 13.208 244.084 13.208C243.732 13.208 243.428 13.0907 243.172 12.856C242.927 12.6213 242.804 12.3173 242.804 11.944C242.804 11.5707 242.927 11.2667 243.172 11.032C243.428 10.7867 243.732 10.664 244.084 10.664C244.447 10.664 244.751 10.7867 244.996 11.032C245.241 11.2667 245.364 11.5707 245.364 11.944Z" fill="white"/>
</svg>
