<svg width="146" height="53" viewBox="0 0 146 53" fill="none" xmlns="http://www.w3.org/2000/svg">
<path opacity="0.4" d="M101.909 42.4714C101.909 42.4714 91.9185 9.14951 111.695 2.38705C131.472 -4.35497 146.713 19.712 144.976 26.6583C143.219 33.5842 133.065 53.7694 101.909 42.4714Z" fill="url(#paint0_linear)"/>
<path d="M103.053 46.1695C99.6002 42.2264 98.1292 36.179 98.9668 28.2112C99.8249 20.182 103.543 12.8884 111.388 10.212C131.165 3.47 145.773 25.3305 144.057 32.2564C141.544 42.1651 132.881 49.3975 123.259 51.0115C114.065 52.5846 107.159 50.848 103.053 46.1695Z" fill="white"/>
<path d="M100.275 36.1176C104.034 44.5757 113.881 48.2123 122.298 44.2284C130.695 40.2445 134.475 30.1723 130.716 21.7346C126.957 13.2764 117.109 9.66023 108.692 13.6237C100.295 17.5872 96.5153 27.6594 100.275 36.1176Z" fill="#595959"/>
<path d="M105.607 33.5228C107.997 38.896 114.249 41.2251 119.561 38.7122C124.893 36.1788 127.283 29.7841 124.873 24.3905C122.503 18.9968 116.251 16.6882 110.919 19.2216C105.607 21.7345 103.237 28.1497 105.607 33.5228Z" fill="#5F283E"/>
<path opacity="0.2" d="M111.388 10.212C131.165 3.47 145.773 25.3305 144.057 32.2564C142.994 36.4038 138.908 45.3318 129.081 49.377C134.843 44.5351 145.793 33.2371 135.966 23.9004C123.075 11.6421 107.997 13.1949 102.297 24.7584C100.54 28.3133 99.498 32.236 98.9055 35.9339C98.2517 26.4133 99.8453 14.1755 111.388 10.212Z" fill="#2E0035"/>
<path d="M98.2927 32.7261C98.2927 32.7261 98.354 30.826 99.0078 27.741C99.3142 26.2088 99.8658 24.4109 100.601 22.4904C101.398 20.5904 102.542 18.67 103.972 16.9129C104.34 16.5043 104.79 16.1366 105.198 15.728L105.811 15.1355L106.526 14.6656C106.996 14.3387 107.486 14.0118 107.977 13.6849C108.508 13.4398 109.039 13.215 109.591 12.9699L110.408 12.6021L111.286 12.3774C111.879 12.2344 112.471 12.0914 113.084 11.9484C114.331 11.7849 115.618 11.7032 116.905 11.5806C118.212 11.6623 119.54 11.7441 120.889 11.8258C121.604 11.9484 122.339 12.0709 123.075 12.1935L125.056 12.643C127.774 13.3581 130.471 14.5226 132.922 16.1775C135.394 17.7506 137.601 19.8754 139.194 22.3883C139.95 23.655 140.624 24.9829 141.053 26.3722C141.462 27.7615 141.707 29.1916 141.707 30.6013C141.626 33.4003 140.829 36.1584 139.46 38.4261C138.112 40.6939 136.457 42.6348 134.741 44.1875C133.045 45.7402 131.329 47.0069 129.796 48.0693C129 48.58 128.264 49.0499 127.569 49.4994C126.875 49.8876 126.221 50.2757 125.629 50.6026C124.464 51.2973 123.504 51.7467 122.87 52.094C122.217 52.4414 121.89 52.6252 121.89 52.6252C121.89 52.6252 122.278 52.5639 122.952 52.4209C123.647 52.2575 124.689 52.1553 125.976 51.7467C126.63 51.5629 127.324 51.3586 128.101 51.1338C128.877 50.8682 129.694 50.5413 130.573 50.2145C131.451 49.8467 132.371 49.3972 133.351 48.9478C134.291 48.3962 135.313 47.865 136.314 47.1499C138.357 45.8015 140.481 43.9832 142.32 41.3681C144.179 38.8347 145.732 35.2594 145.977 31.0712C146.079 28.9669 145.834 26.8217 145.323 24.7378C144.792 22.6539 143.914 20.7334 142.892 18.9968C140.767 15.5441 138.009 12.8269 135.047 10.8655C132.064 8.94509 128.897 7.67841 125.772 6.94292C124.954 6.77947 124.158 6.61603 123.361 6.47302C122.625 6.3913 121.89 6.33001 121.154 6.26872C119.499 6.24829 118.069 6.26871 116.557 6.28914C115.066 6.53431 113.575 6.67732 112.165 7.0655C111.47 7.3311 110.776 7.57626 110.101 7.82142L109.1 8.2096L108.14 8.76123C107.507 9.12897 106.894 9.49671 106.281 9.86446C105.709 10.3344 105.157 10.8043 104.647 11.2742C104.381 11.5193 104.115 11.7441 103.87 11.9892C103.645 12.2752 103.421 12.5408 103.196 12.8269C102.767 13.3785 102.317 13.8892 101.929 14.4613C100.417 16.7904 99.4572 19.242 98.9056 21.5098C98.3336 23.7776 98.1293 25.8002 98.068 27.4754C97.9658 29.1507 98.1088 30.4583 98.1497 31.3368C98.2314 32.2766 98.2927 32.7261 98.2927 32.7261Z" fill="#5F283E"/>
<path opacity="0.45" d="M128.244 22.0206C128.244 24.3293 126.425 26.1884 124.178 26.1884C121.931 26.1884 120.112 24.3088 120.112 22.0002C120.112 19.6916 121.931 17.8324 124.178 17.8324C126.425 17.8324 128.244 19.712 128.244 22.0206Z" fill="white"/>
<path opacity="0.4" d="M44.091 42.3899C44.091 42.3899 54.3062 9.21097 34.5705 2.38723C14.8143 -4.41609 -0.631084 19.5079 1.06464 26.4542C2.80122 33.4005 12.9143 53.6062 44.091 42.3899Z" fill="url(#paint1_linear)"/>
<path d="M42.9266 46.0879C46.3998 42.1449 47.8708 36.1179 47.0536 28.1296C46.2159 20.1005 42.4976 12.7864 34.6728 10.0896C14.9166 3.28629 0.24758 25.1059 1.9433 32.0523C4.41538 41.9814 13.0574 49.2138 22.7006 50.8686C31.8942 52.4622 38.8201 50.7665 42.9266 46.0879Z" fill="white"/>
<path d="M45.7255 36.0359C41.9459 44.4941 32.078 48.0899 23.6811 44.0855C15.2843 40.0812 11.5455 30.009 15.3047 21.5712C19.0843 13.1335 28.9522 9.53775 37.3491 13.5217C45.7664 17.526 49.5051 27.5982 45.7255 36.0359Z" fill="#595959"/>
<path d="M40.6383 33.3595C38.2275 38.7531 31.8941 41.0822 26.5413 38.508C21.1681 35.9337 18.7573 29.4982 21.1886 24.1046C23.5993 18.6905 29.9123 16.4023 35.2855 18.9561C40.6587 21.4895 43.0491 27.9455 40.6383 33.3595Z" fill="#5F283E"/>
<path opacity="0.2" d="M34.6932 10.1099C14.937 3.30655 0.267997 25.1262 1.96372 32.0725C3.00567 36.2199 7.07131 45.1684 16.8983 49.234C11.137 44.3716 0.227134 33.0532 10.0746 23.7369C23.007 11.5196 38.0642 13.1131 43.7438 24.6767C45.5008 28.2316 46.5224 32.1542 47.0944 35.8726C47.789 26.352 46.2159 14.0938 34.6932 10.1099Z" fill="#2E0035"/>
<path d="M47.7072 32.665C47.7072 32.665 47.6459 30.7649 47.0126 27.6595C46.7266 26.1272 46.175 24.3294 45.419 22.4089C44.6427 20.5089 43.4986 18.5884 42.0684 16.8314C41.7007 16.4228 41.2512 16.0551 40.8426 15.6465L40.2297 15.054L39.5147 14.5841C39.0448 14.2572 38.5544 13.9303 38.0641 13.6034C37.5329 13.3583 37.0017 13.1335 36.4501 12.8884L35.6329 12.5206L34.7544 12.2959C34.1619 12.1529 33.5694 12.0098 32.9565 11.8464C31.7102 11.683 30.4231 11.6012 29.136 11.4787C27.8285 11.5604 26.5005 11.6421 25.1521 11.7238C24.437 11.8464 23.7015 11.969 22.966 12.0916L20.9843 12.541C18.2671 13.2357 15.5702 14.4002 13.1186 16.0551C10.6465 17.6078 8.44005 19.7325 6.82605 22.2455C6.07012 23.5121 5.39592 24.8401 4.96688 26.2294C4.55828 27.6187 4.31311 29.0488 4.31311 30.4585C4.39483 33.2574 5.17119 36.0155 6.54002 38.3037C7.88843 40.5715 9.54329 42.5328 11.239 44.0855C12.9347 45.6587 14.6305 46.9254 16.1832 47.9877C16.9799 48.4985 17.7154 48.9684 18.3896 49.4179C19.0843 49.806 19.738 50.1942 20.3305 50.5211C21.4951 51.2157 22.4553 51.6652 23.0886 52.033C23.7424 52.3803 24.0693 52.5641 24.0693 52.5641C24.0693 52.5641 23.6811 52.5029 23.0069 52.3598C22.3123 52.1964 21.2703 52.0942 19.9832 51.6856C19.3294 51.5018 18.6348 51.2975 17.8585 51.0727C17.0821 50.8071 16.2649 50.4598 15.3864 50.1534C14.5079 49.7856 13.6089 49.3157 12.6078 48.8663C11.668 48.3146 10.6465 47.7834 9.66587 47.048C7.62283 45.6791 5.51851 43.8608 3.65934 41.2662C1.80018 38.7328 0.267897 35.1575 0.0227323 30.9692C-0.0794196 28.8649 0.165745 26.7197 0.696935 24.6358C1.22812 22.5519 2.10663 20.6315 3.14858 18.8949C5.27334 15.4421 8.03144 12.7453 11.0143 10.784C13.9971 8.86358 17.1842 7.61732 20.3101 6.88182C21.1273 6.71838 21.9241 6.57537 22.7209 6.41193C23.4564 6.35063 24.1919 6.26892 24.9274 6.20763C26.5822 6.18719 28.0123 6.22805 29.5242 6.22805C31.0156 6.47322 32.507 6.61623 33.8963 7.02484C34.5909 7.29043 35.2856 7.53559 35.9598 7.78076L36.9609 8.18937L37.9211 8.74099C38.5544 9.10873 39.1673 9.47648 39.7598 9.84423C40.3319 10.3141 40.8631 10.784 41.3942 11.2539C41.6598 11.4991 41.9254 11.7238 42.1706 11.969C42.3953 12.255 42.6201 12.5206 42.8448 12.8066C43.2738 13.3787 43.7233 13.8894 44.1115 14.4615C45.6029 16.7906 46.5631 19.2626 47.1148 21.51C47.6664 23.7778 47.8911 25.8004 47.932 27.4756C48.0137 29.1509 47.8911 30.4585 47.8298 31.337C47.789 32.2155 47.7072 32.665 47.7072 32.665Z" fill="#5F283E"/>
<path opacity="0.45" d="M43.4577 24.6358C43.4577 26.9444 41.6394 28.8036 39.3921 28.8036C37.1447 28.8036 35.3264 26.924 35.3264 24.6154C35.3264 22.3067 37.1447 20.4476 39.3921 20.4476C41.6598 20.4476 43.4781 22.3272 43.4577 24.6358Z" fill="white"/>
<path d="M93.8391 23.3692C94.8606 24.0434 100.99 28.8241 116.987 20.6519C132.984 12.4798 139.113 10.7841 139.113 10.7841C139.113 10.7841 119.275 -5.47853 106.772 1.9377C96.4133 8.04638 93.8391 23.3692 93.8391 23.3692Z" fill="#ECD0BA"/>
<path d="M50.5063 23.3692C49.4848 24.0434 43.3557 28.8241 27.3587 20.6519C11.3617 12.4798 5.23257 10.7841 5.23257 10.7841C5.23257 10.7841 25.0705 -5.47853 37.5739 1.9377C47.9321 8.04638 50.5063 23.3692 50.5063 23.3692Z" fill="#ECD0BA"/>
<path d="M136.886 9.8036C137.274 10.3757 132.779 14.094 127.917 17.322C123.075 20.5704 117.845 23.2876 117.845 23.2876C117.845 23.2876 116.476 23.8597 114.372 24.5748C112.247 25.2898 109.366 26.1479 106.363 26.5565C103.38 27.006 100.275 26.9038 98.0682 26.4339C95.8412 25.964 94.5133 25.2285 94.595 24.9221C94.6767 24.5748 96.1273 24.6361 98.2112 24.493C100.295 24.35 102.992 23.9414 105.627 23.1038C108.242 22.3274 110.796 21.2038 112.676 20.3048C114.555 19.4059 115.802 18.7521 115.802 18.7521C115.802 18.7521 121.052 16.6478 126.242 14.237C131.39 11.8671 136.498 9.23155 136.886 9.8036Z" fill="#5F283E"/>
<path d="M50.588 23.3691C50.7106 23.6552 49.5461 24.5541 47.4622 25.31C45.3987 26.0659 42.4568 26.5767 39.5148 26.5358C36.5728 26.5358 33.6308 26.0251 31.5061 25.4735C29.3813 24.9423 28.0125 24.4519 28.0125 24.4519C28.0125 24.4519 26.6845 23.8799 24.764 22.8788C22.864 21.8981 20.4124 20.468 18.0425 18.997C13.323 16.0346 8.68535 12.9292 9.01223 12.3163C9.31869 11.7034 14.5489 13.726 19.6565 15.8712C22.2103 16.954 24.7436 17.9959 26.6232 18.711C28.5232 19.4261 29.7695 19.8142 29.7695 19.8142C29.7695 19.8142 30.9749 20.3863 32.834 21.0809C34.6728 21.796 37.1857 22.5723 39.7804 23.0014C42.375 23.4508 45.0105 23.5326 47.0332 23.3896C49.0762 23.2874 50.445 23.0218 50.588 23.3691Z" fill="#5F283E"/>
<defs>
<linearGradient id="paint0_linear" x1="99.3825" y1="23.5257" x2="145.107" y2="23.5257" gradientUnits="userSpaceOnUse">
<stop offset="0.1559" stop-color="#D70036"/>
<stop offset="1" stop-color="#D70036"/>
</linearGradient>
<linearGradient id="paint1_linear" x1="0.931636" y1="23.4522" x2="46.7327" y2="23.4522" gradientUnits="userSpaceOnUse">
<stop offset="0.1559" stop-color="#D70036"/>
<stop offset="1" stop-color="#D70036"/>
</linearGradient>
</defs>
</svg>
