<svg width="25" height="25" viewBox="0 0 25 25" fill="none" xmlns="http://www.w3.org/2000/svg">
<path d="M21.3408 3.00906C19.9367 1.60111 18.2853 0.599232 16.5245 -0.00012207V3.78574C17.3722 4.20954 18.1758 4.76102 18.8805 5.47032C22.4005 9.00615 22.4005 14.755 18.8805 18.2891C15.3606 21.8178 9.63829 21.8178 6.11307 18.2891C2.59667 14.7514 2.59667 9.00615 6.11307 5.47032C6.1219 5.45968 6.15016 5.44194 6.16252 5.42599H6.16605L8.25187 7.51663L8.23951 0.877631L1.63059 0.868764L3.70758 2.95409C3.69522 2.97537 3.67579 2.99665 3.65989 3.00906C-1.21996 7.90674 -1.21996 15.8526 3.65989 20.7503C8.54682 25.6533 16.4556 25.6533 21.3408 20.7503C26.2171 15.8526 26.2224 7.90674 21.3408 3.00906Z" fill="#E2E1E1"/>
</svg>
