<svg width="210" height="45" viewBox="0 0 210 45" fill="none" xmlns="http://www.w3.org/2000/svg">
<rect width="210" height="45" rx="22.5" fill="url(#paint0_linear)"/>
<path d="M80.188 17.526V19.488H76.354V30H74.068V19.488H70.234V17.526H80.188ZM81.8098 30V16.392L83.9878 16.032V20.694C84.2278 20.61 84.5038 20.538 84.8158 20.478C85.1398 20.418 85.4578 20.388 85.7698 20.388C86.5258 20.388 87.1498 20.496 87.6418 20.712C88.1458 20.916 88.5478 21.21 88.8478 21.594C89.1478 21.966 89.3578 22.416 89.4778 22.944C89.6098 23.472 89.6758 24.06 89.6758 24.708V30H87.4978V25.05C87.4978 24.546 87.4618 24.12 87.3898 23.772C87.3298 23.412 87.2218 23.124 87.0658 22.908C86.9218 22.68 86.7238 22.518 86.4718 22.422C86.2198 22.314 85.9078 22.26 85.5358 22.26C85.2478 22.26 84.9538 22.29 84.6538 22.35C84.3538 22.41 84.1318 22.464 83.9878 22.512V30H81.8098ZM94.4824 30H92.3044V20.586H94.4824V30ZM94.7164 17.832C94.7164 18.24 94.5844 18.564 94.3204 18.804C94.0564 19.044 93.7444 19.164 93.3844 19.164C93.0124 19.164 92.6944 19.044 92.4304 18.804C92.1664 18.564 92.0344 18.24 92.0344 17.832C92.0344 17.412 92.1664 17.082 92.4304 16.842C92.6944 16.602 93.0124 16.482 93.3844 16.482C93.7444 16.482 94.0564 16.602 94.3204 16.842C94.5844 17.082 94.7164 17.412 94.7164 17.832ZM99.619 28.434C100.195 28.434 100.615 28.368 100.879 28.236C101.143 28.092 101.275 27.852 101.275 27.516C101.275 27.204 101.131 26.946 100.843 26.742C100.567 26.538 100.105 26.316 99.457 26.076C99.061 25.932 98.695 25.782 98.359 25.626C98.035 25.458 97.753 25.266 97.513 25.05C97.273 24.834 97.081 24.576 96.937 24.276C96.805 23.964 96.739 23.586 96.739 23.142C96.739 22.278 97.057 21.6 97.693 21.108C98.329 20.604 99.193 20.352 100.285 20.352C100.837 20.352 101.365 20.406 101.869 20.514C102.373 20.61 102.751 20.706 103.003 20.802L102.607 22.566C102.367 22.458 102.061 22.362 101.689 22.278C101.317 22.182 100.885 22.134 100.393 22.134C99.949 22.134 99.589 22.212 99.313 22.368C99.037 22.512 98.899 22.74 98.899 23.052C98.899 23.208 98.923 23.346 98.971 23.466C99.031 23.586 99.127 23.7 99.259 23.808C99.391 23.904 99.565 24.006 99.781 24.114C99.997 24.21 100.261 24.312 100.573 24.42C101.089 24.612 101.527 24.804 101.887 24.996C102.247 25.176 102.541 25.386 102.769 25.626C103.009 25.854 103.183 26.118 103.291 26.418C103.399 26.718 103.453 27.078 103.453 27.498C103.453 28.398 103.117 29.082 102.445 29.55C101.785 30.006 100.837 30.234 99.601 30.234C98.773 30.234 98.107 30.162 97.603 30.018C97.099 29.886 96.745 29.778 96.541 29.694L96.919 27.876C97.243 28.008 97.627 28.134 98.071 28.254C98.527 28.374 99.043 28.434 99.619 28.434ZM118.203 25.284C118.203 26.028 118.095 26.706 117.879 27.318C117.663 27.93 117.357 28.452 116.961 28.884C116.565 29.316 116.085 29.652 115.521 29.892C114.969 30.132 114.357 30.252 113.685 30.252C113.013 30.252 112.401 30.132 111.849 29.892C111.297 29.652 110.823 29.316 110.427 28.884C110.031 28.452 109.719 27.93 109.491 27.318C109.275 26.706 109.167 26.028 109.167 25.284C109.167 24.54 109.275 23.868 109.491 23.268C109.719 22.656 110.031 22.134 110.427 21.702C110.835 21.27 111.315 20.94 111.867 20.712C112.419 20.472 113.025 20.352 113.685 20.352C114.345 20.352 114.951 20.472 115.503 20.712C116.067 20.94 116.547 21.27 116.943 21.702C117.339 22.134 117.645 22.656 117.861 23.268C118.089 23.868 118.203 24.54 118.203 25.284ZM115.971 25.284C115.971 24.348 115.767 23.61 115.359 23.07C114.963 22.518 114.405 22.242 113.685 22.242C112.965 22.242 112.401 22.518 111.993 23.07C111.597 23.61 111.399 24.348 111.399 25.284C111.399 26.232 111.597 26.982 111.993 27.534C112.401 28.086 112.965 28.362 113.685 28.362C114.405 28.362 114.963 28.086 115.359 27.534C115.767 26.982 115.971 26.232 115.971 25.284ZM120.447 20.892C120.867 20.772 121.413 20.658 122.085 20.55C122.757 20.442 123.501 20.388 124.317 20.388C125.085 20.388 125.727 20.496 126.243 20.712C126.759 20.916 127.167 21.21 127.467 21.594C127.779 21.966 127.995 22.422 128.115 22.962C128.247 23.49 128.313 24.072 128.313 24.708V30H126.135V25.05C126.135 24.546 126.099 24.12 126.027 23.772C125.967 23.412 125.859 23.124 125.703 22.908C125.559 22.68 125.355 22.518 125.091 22.422C124.839 22.314 124.527 22.26 124.155 22.26C123.879 22.26 123.591 22.278 123.291 22.314C122.991 22.35 122.769 22.38 122.625 22.404V30H120.447V20.892ZM130.454 25.338C130.454 24.51 130.574 23.784 130.814 23.16C131.066 22.536 131.396 22.02 131.804 21.612C132.212 21.192 132.68 20.88 133.208 20.676C133.736 20.46 134.276 20.352 134.828 20.352C136.124 20.352 137.132 20.754 137.852 21.558C138.584 22.362 138.95 23.562 138.95 25.158C138.95 25.278 138.944 25.416 138.932 25.572C138.932 25.716 138.926 25.848 138.914 25.968H132.704C132.764 26.724 133.028 27.312 133.496 27.732C133.976 28.14 134.666 28.344 135.566 28.344C136.094 28.344 136.574 28.296 137.006 28.2C137.45 28.104 137.798 28.002 138.05 27.894L138.338 29.676C138.218 29.736 138.05 29.802 137.834 29.874C137.63 29.934 137.39 29.988 137.114 30.036C136.85 30.096 136.562 30.144 136.25 30.18C135.938 30.216 135.62 30.234 135.296 30.234C134.468 30.234 133.748 30.114 133.136 29.874C132.524 29.622 132.02 29.28 131.624 28.848C131.228 28.404 130.934 27.888 130.742 27.3C130.55 26.7 130.454 26.046 130.454 25.338ZM136.772 24.366C136.772 24.066 136.73 23.784 136.646 23.52C136.562 23.244 136.436 23.01 136.268 22.818C136.112 22.614 135.914 22.458 135.674 22.35C135.446 22.23 135.17 22.17 134.846 22.17C134.51 22.17 134.216 22.236 133.964 22.368C133.712 22.488 133.496 22.65 133.316 22.854C133.148 23.058 133.016 23.292 132.92 23.556C132.824 23.82 132.758 24.09 132.722 24.366H136.772Z" fill="white"/>
<defs>
<linearGradient id="paint0_linear" x1="4.2" y1="22.0909" x2="236.88" y2="22.0909" gradientUnits="userSpaceOnUse">
<stop stop-color="#FFA89D"/>
<stop offset="0.5" stop-color="#F89EBD"/>
<stop offset="1" stop-color="#F77ED9"/>
</linearGradient>
</defs>
</svg>
