<svg width="210" height="45" viewBox="0 0 210 45" fill="none" xmlns="http://www.w3.org/2000/svg">
<rect width="210" height="45" rx="22.5" fill="url(#paint0_linear)"/>
<path d="M92.022 16.4C93.834 16.4 95.22 16.73 96.18 17.39C97.152 18.05 97.638 19.082 97.638 20.486C97.638 21.218 97.506 21.848 97.242 22.376C96.99 22.892 96.618 23.318 96.126 23.654C95.634 23.978 95.034 24.218 94.326 24.374C93.618 24.53 92.808 24.608 91.896 24.608H90.762V29H88.494V16.706C89.022 16.586 89.604 16.508 90.24 16.472C90.888 16.424 91.482 16.4 92.022 16.4ZM92.184 18.362C91.608 18.362 91.134 18.38 90.762 18.416V22.664H91.86C92.952 22.664 93.792 22.514 94.38 22.214C94.968 21.902 95.262 21.32 95.262 20.468C95.262 20.06 95.184 19.718 95.028 19.442C94.872 19.166 94.656 18.95 94.38 18.794C94.104 18.638 93.774 18.53 93.39 18.47C93.018 18.398 92.616 18.362 92.184 18.362ZM102.877 29.18C102.229 29.168 101.689 29.096 101.257 28.964C100.837 28.832 100.501 28.646 100.249 28.406C99.9968 28.154 99.8168 27.848 99.7088 27.488C99.6128 27.116 99.5648 26.696 99.5648 26.228V15.392L101.743 15.032V25.814C101.743 26.078 101.761 26.3 101.797 26.48C101.845 26.66 101.923 26.816 102.031 26.948C102.139 27.068 102.283 27.164 102.463 27.236C102.655 27.296 102.895 27.344 103.183 27.38L102.877 29.18ZM108.257 27.47C108.929 27.47 109.439 27.434 109.787 27.362V24.95C109.667 24.914 109.493 24.878 109.265 24.842C109.037 24.806 108.785 24.788 108.509 24.788C108.269 24.788 108.023 24.806 107.771 24.842C107.531 24.878 107.309 24.944 107.105 25.04C106.913 25.136 106.757 25.274 106.637 25.454C106.517 25.622 106.457 25.838 106.457 26.102C106.457 26.618 106.619 26.978 106.943 27.182C107.267 27.374 107.705 27.47 108.257 27.47ZM108.077 19.352C108.797 19.352 109.403 19.442 109.895 19.622C110.387 19.802 110.777 20.054 111.065 20.378C111.365 20.702 111.575 21.098 111.695 21.566C111.827 22.022 111.893 22.526 111.893 23.078V28.784C111.557 28.856 111.047 28.94 110.363 29.036C109.691 29.144 108.929 29.198 108.077 29.198C107.513 29.198 106.997 29.144 106.529 29.036C106.061 28.928 105.659 28.754 105.323 28.514C104.999 28.274 104.741 27.962 104.549 27.578C104.369 27.194 104.279 26.72 104.279 26.156C104.279 25.616 104.381 25.16 104.585 24.788C104.801 24.416 105.089 24.116 105.449 23.888C105.809 23.648 106.223 23.48 106.691 23.384C107.171 23.276 107.669 23.222 108.185 23.222C108.425 23.222 108.677 23.24 108.941 23.276C109.205 23.3 109.487 23.348 109.787 23.42V23.06C109.787 22.808 109.757 22.568 109.697 22.34C109.637 22.112 109.529 21.914 109.373 21.746C109.229 21.566 109.031 21.428 108.779 21.332C108.539 21.236 108.233 21.188 107.861 21.188C107.357 21.188 106.895 21.224 106.475 21.296C106.055 21.368 105.713 21.452 105.449 21.548L105.179 19.784C105.455 19.688 105.857 19.592 106.385 19.496C106.913 19.4 107.477 19.352 108.077 19.352ZM122.017 19.586C121.045 23.162 119.917 26.402 118.633 29.306C118.393 29.846 118.147 30.308 117.895 30.692C117.643 31.076 117.361 31.394 117.049 31.646C116.737 31.898 116.389 32.078 116.005 32.186C115.621 32.306 115.177 32.366 114.673 32.366C114.337 32.366 114.001 32.33 113.665 32.258C113.341 32.186 113.095 32.108 112.927 32.024L113.323 30.278C113.755 30.446 114.181 30.53 114.601 30.53C115.165 30.53 115.603 30.392 115.915 30.116C116.239 29.852 116.521 29.438 116.761 28.874C116.077 27.554 115.417 26.114 114.781 24.554C114.157 22.994 113.599 21.338 113.107 19.586H115.429C115.549 20.09 115.693 20.636 115.861 21.224C116.041 21.812 116.233 22.412 116.437 23.024C116.641 23.624 116.857 24.224 117.085 24.824C117.313 25.424 117.541 25.982 117.769 26.498C118.153 25.43 118.513 24.296 118.849 23.096C119.185 21.884 119.491 20.714 119.767 19.586H122.017Z" fill="white"/>
<defs>
<linearGradient id="paint0_linear" x1="4.2" y1="22.0909" x2="236.88" y2="22.0909" gradientUnits="userSpaceOnUse">
<stop stop-color="#FFA89D"/>
<stop offset="0.5" stop-color="#F89EBD"/>
<stop offset="1" stop-color="#F77ED9"/>
</linearGradient>
</defs>
</svg>
