<svg width="140" height="48" viewBox="0 0 140 48" fill="none" xmlns="http://www.w3.org/2000/svg">
<path d="M131.01 2.09633C124.734 1.0086 103.145 -1.4175 89.3923 1.11738C76.0038 3.58132 77.3232 6.81612 77.4557 8.041C75.2755 6.6506 72.698 6.17294 70.2105 6.17294C67.7229 6.17294 65.1407 6.6506 62.9605 8.041C63.0977 6.81139 64.3887 3.57659 51.005 1.11265C37.2523 -1.4175 15.4883 1.0086 9.21258 2.09633C2.93686 3.18406 0 4.76836 0 4.76836V11.6447C0 11.6447 2.53015 10.6799 4.46441 13.0918C6.09127 15.1254 6.54055 16.8942 8.49373 17.6225C8.41807 21.6849 8.80114 28.7409 10.6266 33.9668C12.8683 40.3702 16.7888 44.0495 23.3152 45.8892C26.4271 46.7688 30.0024 47.2039 33.5446 47.2039C37.257 47.2039 40.9411 46.7215 44.0151 45.7615C50.707 43.6712 55.5923 38.3555 57.7725 30.7887C59.7494 23.9171 60.35 17.2252 59.9953 13.3472C60.5391 13.4986 61.0121 13.3567 61.485 12.8979C61.485 12.8979 61.5465 12.8932 61.5465 12.8885C61.641 12.7939 61.7593 12.6899 61.8444 12.5716C62.6153 11.744 65.1029 9.6253 70.2199 9.6253C75.337 9.6253 77.8151 11.744 78.586 12.5716C78.6711 12.6899 78.586 12.7986 78.6805 12.8885L78.5103 12.8979C78.9832 13.3567 79.6926 13.4938 80.2365 13.3472C79.8818 17.2252 80.6243 23.9171 82.6058 30.7887C84.7813 38.3508 89.7139 43.6712 96.4058 45.7615C99.4798 46.7215 103.178 47.2039 106.895 47.2039C110.433 47.2039 114.017 46.7688 117.129 45.8892C123.656 44.0495 127.572 40.3702 129.808 33.9668C131.639 28.7362 131.993 21.6849 131.918 17.6225C133.871 16.8942 134.145 15.1254 135.772 13.0918C137.702 10.6799 140 11.6447 140 11.6447V4.76836C139.986 4.76836 137.285 3.18406 131.01 2.09633ZM7.01348 8.41461C4.74817 8.41461 2.91322 8.05992 2.91322 7.62482C2.91322 7.18973 4.74817 6.83504 7.01348 6.83504C9.27879 6.83504 11.1137 7.18973 11.1137 7.62482C11.1137 8.05992 9.27879 8.41461 7.01348 8.41461ZM56.3774 30.3914C54.3391 37.4711 49.7943 42.4416 43.5848 44.3806C37.834 46.1777 29.851 46.225 23.7219 44.4941C17.6165 42.7726 14.1168 39.4811 12.0218 33.4891C10.0544 27.8707 9.86049 20.0202 10.0355 16.4307C10.4895 13.8012 11.8515 8.4288 15.5309 6.4567C20.4777 3.80359 31.1137 2.11052 41.7309 3.92182C52.3528 5.73312 56.4625 8.38623 58.1509 11.5265C58.2123 11.64 58.2738 11.744 58.34 11.848C59.144 14.7849 58.638 22.5409 56.3774 30.3914ZM128.437 33.4891C126.342 39.4811 122.842 42.7726 116.737 44.4941C110.612 46.225 102.629 46.1777 96.874 44.3806C90.6597 42.4416 86.1196 37.4711 84.0813 30.3914C81.8208 22.5409 81.3147 14.7849 82.1187 11.848C82.1802 11.744 82.2464 11.64 82.3079 11.5265C83.9962 8.39096 88.1059 5.73312 98.7278 3.92182C109.35 2.11052 119.981 3.80359 124.928 6.4567C128.607 8.4288 129.965 13.8012 130.423 16.4307C130.598 20.0202 130.4 27.8755 128.437 33.4891ZM133.445 8.41461C131.18 8.41461 129.345 8.05992 129.345 7.62482C129.345 7.18973 131.18 6.83504 133.445 6.83504C135.711 6.83504 137.546 7.18973 137.546 7.62482C137.541 8.05992 135.706 8.41461 133.445 8.41461Z" fill="white"/>
<path d="M11.1139 7.62481C11.1139 7.18972 9.2789 6.83502 7.01359 6.83502C4.74828 6.83502 2.91333 7.18972 2.91333 7.62481C2.91333 8.0599 4.74828 8.41459 7.01359 8.41459C9.2789 8.41459 11.1139 8.0599 11.1139 7.62481Z" fill="#3C405B"/>
<path d="M133.445 6.83972C131.18 6.83972 129.345 7.19442 129.345 7.62951C129.345 8.0646 131.18 8.41929 133.445 8.41929C135.711 8.41929 137.545 8.0646 137.545 7.62951C137.541 7.18969 135.706 6.83972 133.445 6.83972Z" fill="#3C405B"/>
</svg>
