<svg width="139" height="53" viewBox="0 0 139 53" fill="none" xmlns="http://www.w3.org/2000/svg">
<path d="M97.4485 1.23942C87.9132 3.36449 77.8328 10.2947 77.8328 10.2947C76.0177 8.23967 74.4227 8.08966 69.5825 8.08966C64.7423 8.08966 63.1273 8.23967 61.3172 10.2947C61.3172 10.2947 51.1968 3.36449 41.6615 1.23942C31.9612 -0.92066 10.5004 -0.560647 0 4.75954V13.7099C0 13.7099 1.79506 15.0399 3.00011 20.7251C4.21015 26.4103 5.28519 33.9106 12.0604 42.2509C18.8307 50.5962 30.8661 54.3663 41.7465 52.0462C55.352 49.1411 62.4572 35.5957 63.4223 22.4152C63.4223 22.4152 60.6022 21.2051 60.8422 18.185C61.0822 15.1599 64.7773 15.6449 69.6175 15.6449C74.4577 15.6449 78.1528 15.1599 78.3928 18.185C78.6328 21.2101 75.8127 22.4152 75.8127 22.4152C76.7778 35.6007 83.888 49.1461 97.4935 52.0462C108.374 54.3663 120.409 50.5962 127.185 42.2509C133.96 33.9056 134.905 26.4053 136.115 20.7251C137.325 15.0399 139 13.7099 139 13.7099V4.75954C128.505 -0.560647 107.154 -0.92066 97.4485 1.23942ZM56.077 31.7305C54.987 39.4708 47.6117 48.7861 33.7012 48.4211C21.9508 48.1161 13.6255 40.2008 9.99536 29.9205C6.36523 19.6401 11.6654 10.2997 15.3156 7.54465C21.2408 3.06948 36.4813 1.61943 46.7617 7.90966C57.0421 14.1949 57.1621 23.9902 56.077 31.7305ZM129.245 29.9205C125.615 40.2008 117.289 48.1161 105.539 48.4261C91.6283 48.7911 84.253 39.4758 83.163 31.7355C82.073 23.9952 82.198 14.1999 92.4783 7.90966C102.759 1.61943 117.999 3.06948 123.924 7.54465C127.575 10.2997 132.875 19.6401 129.245 29.9205Z" fill="white"/>
</svg>
