<svg width="140" height="47" viewBox="0 0 140 47" fill="none" xmlns="http://www.w3.org/2000/svg">
<path d="M83.125 3.74852C79.0007 5.10937 74.1385 7.03724 70 7.03724C65.8615 7.03724 60.9993 5.10937 56.875 3.74852C45.7601 0.086513 17.7365 -2.27607 0 3.39413L0.534459 13.1989C0.534459 13.1989 3.75541 12.4901 4.81959 16.034C5.88378 19.5778 8.35743 34.1881 12.8743 39.8961C18.4885 46.9838 30.573 47.2579 38.7459 46.9035C49.752 46.431 56.9554 41.5499 60.0297 33.2808C63.104 25.0118 64.8399 17.924 66.8074 15.6796C67.8716 14.4699 69.0682 14.3801 70 14.3801C70.9365 14.3801 72.1331 14.4699 73.1926 15.6796C75.1601 17.924 76.8959 25.0118 79.9703 33.2808C83.0446 41.5499 90.248 46.431 101.254 46.9035C109.427 47.2531 121.511 46.9838 127.126 39.8961C131.647 34.1881 134.116 19.5778 135.18 16.034C136.245 12.4901 139.466 13.1989 139.466 13.1989L140 3.39413C122.264 -2.27607 94.2399 0.086513 83.125 3.74852ZM3.27297 8.00117C3.27297 7.30657 5.05608 6.73955 7.25541 6.73955C9.45473 6.73955 11.2378 7.30185 11.2378 8.00117C11.2378 8.69577 9.45473 9.26279 7.25541 9.26279C5.05135 9.26279 3.27297 8.70049 3.27297 8.00117ZM55.1013 33.2808C52.1453 38.8329 47.1791 41.668 39.7297 42.613C32.2804 43.5581 23.3743 42.1027 18.8811 39.4235C14.927 37.0704 13.0068 29.6188 12.0608 25.1299C11.1149 20.641 9.45946 10.9544 14.0709 7.76491C18.6824 4.57542 30.275 4.34389 37.9561 4.81168C43.75 5.16607 56.2838 6.70175 58.6486 11.1907C61.0135 15.6796 57.4946 28.7872 55.1013 33.2808ZM127.939 25.1299C126.993 29.6188 125.073 37.0704 121.119 39.4235C116.626 42.1027 107.72 43.5581 100.27 42.613C92.8209 41.668 87.8547 38.8329 84.8986 33.2808C82.5054 28.7872 78.9865 15.6796 81.3513 11.1907C83.7162 6.70175 96.25 5.16607 102.044 4.81168C109.725 4.34389 121.318 4.57542 125.929 7.76491C130.541 10.9544 128.885 20.641 127.939 25.1299ZM132.749 9.26279C130.55 9.26279 128.767 8.70049 128.767 8.00117C128.767 7.30657 130.55 6.73955 132.749 6.73955C134.949 6.73955 136.732 7.30185 136.732 8.00117C136.727 8.70049 134.949 9.26279 132.749 9.26279Z" fill="white"/>
</svg>
