<svg width="140" height="55" viewBox="0 0 140 55" fill="none" xmlns="http://www.w3.org/2000/svg">
<path d="M133.075 10.3385C132.119 10.1543 131.246 9.80502 130.214 9.35184C121.993 2.95067 102.351 -0.193263 71.7818 0.00972397C71.1266 0.0144446 70.5939 0.0191652 70.1791 0.0191652C69.7643 0.0191652 69.2269 0.0144446 68.5717 0.00972397C38.0074 -0.188542 18.3461 2.95067 10.1253 9.34712C9.09293 9.80502 8.06532 10.1496 7.10842 10.3337C4.23771 10.8955 0 12.0898 0 12.0898V18.8875C0 18.8875 3.7899 18.6468 4.75151 21.0448C5.71313 23.4429 6.54276 33.2948 9.24377 39.1154C12.8781 46.9516 18.8364 53.315 29.2963 54.6274C40.8168 56.0719 49.2734 53.2584 55.8209 47.1027C63.7636 39.6299 64.3152 28.8433 63.3064 19.605C63.3064 19.605 65.8754 18.3257 70.1838 18.3257C74.497 18.3257 77.0613 19.605 77.0613 19.605C76.0572 28.8386 76.5993 39.6299 84.5421 47.1027C91.0896 53.2584 99.532 56.0719 111.053 54.6274C121.508 53.3197 127.442 46.9563 131.072 39.1154C133.773 33.2948 134.475 23.4429 135.437 21.0448C136.394 18.6468 140 18.8875 140 18.8875V12.0898C140 12.0898 135.951 10.8955 133.075 10.3385ZM56.7542 40.8337C53.3414 46.4323 45.3845 52.0641 33.7367 51.795C22.0889 51.5259 16.5125 46.5551 12.9724 39.866C9.23434 32.8086 7.74007 21.8898 10.3987 16.2487C13.0525 10.6075 21.8296 6.49586 34.4626 6.57611C47.1003 6.65636 54.4303 12.5383 56.9993 16.5697C62.2269 24.793 60.4168 34.8291 56.7542 40.8337ZM70.1886 14.5729C66.837 14.5729 62.8822 15.1724 62.0054 15.5736C62.0054 15.5736 58.8896 8.29914 47.0721 5.33931C41.2741 3.88536 36.0889 3.41329 31.5165 3.55963C41.1232 2.0632 53.4875 1.3551 68.567 1.45424C69.2269 1.45896 69.769 1.46368 70.1886 1.46368C70.6081 1.46368 71.1502 1.45896 71.8101 1.45424C86.8943 1.3551 99.2586 2.0632 108.865 3.55963C104.288 3.41329 99.103 3.88536 93.3051 5.33931C81.4875 8.29914 78.3717 15.5736 78.3717 15.5736C77.4949 15.1724 73.5401 14.5729 70.1886 14.5729ZM127.409 39.866C123.869 46.5551 118.293 51.5259 106.645 51.795C94.9973 52.0641 87.0404 46.4323 83.6276 40.8337C79.965 34.8291 78.1549 24.793 83.3872 16.5697C85.9562 12.5335 93.2862 6.65636 105.924 6.57611C118.562 6.49586 127.334 10.6075 129.988 16.2487C132.642 21.8898 131.143 32.8039 127.409 39.866Z" fill="white"/>
</svg>
