<svg width="140" height="57" viewBox="0 0 140 57" fill="none" xmlns="http://www.w3.org/2000/svg">
<path d="M130.398 13.3667C128.346 10.997 124.448 7.93202 122.116 6.17724C121.516 5.69952 120.901 5.24072 120.262 4.8103C120.239 4.79138 120.22 4.78192 120.22 4.78192V4.78665C115.707 1.76425 110.277 0 104.431 0C96.5607 0 89.4375 3.19741 84.2866 8.36718C81.794 10.6943 79.6466 13.2484 77.4236 15.7458C74.6093 18.9101 72.9444 17.3587 70.1301 17.3587C67.3158 17.3587 65.6509 18.9148 62.8366 15.7458C60.6135 13.2484 58.4662 10.6943 55.9735 8.36718C50.8227 3.19741 43.6143 0 35.7438 0C29.8976 0 24.1224 1.76425 19.8655 4.78665V4.78192C19.8655 4.78192 19.9365 4.79611 19.9081 4.8103C19.2696 5.24072 18.6973 5.69952 18.0966 6.17724C15.7647 7.93202 11.7632 10.997 9.71519 13.3667C6.66441 16.8857 0 17.1222 0 17.1222V24.392C0 24.392 3.9873 24.1555 5.27856 25.6833C6.04007 26.582 6.86307 30.9146 8.20163 35.4458C8.61313 37.0634 9.19491 38.6195 9.86655 40.1095C10.4956 41.5899 11.2288 42.9663 12.0659 44.092L12.0754 44.0826C17.1648 51.7876 25.9009 56.8722 35.8242 56.8722C47.3462 56.8722 57.2648 50.0139 61.7345 40.1615C61.7393 40.152 61.7487 40.1426 61.7582 40.1331C61.7818 40.0953 61.8007 40.0622 61.8244 40.0243C63.8677 36.5573 65.9205 27.0692 66.8475 25.5603C67.784 24.0373 70.1301 23.9191 70.1301 23.9191C70.1301 23.9191 72.4761 24.0373 73.4126 25.5603C74.3397 27.0692 76.3972 36.5573 78.4358 40.0243C78.4594 40.0622 78.4783 40.1 78.502 40.1331C78.5067 40.1426 78.5162 40.152 78.5209 40.1615C82.9906 50.0139 92.9045 56.8722 104.427 56.8722C114.35 56.8722 123.081 51.7876 128.171 44.0826V44.092C129.008 42.9663 129.727 41.5899 130.356 40.1095C131.027 38.6195 131.581 37.0587 131.992 35.4458C133.331 30.9146 134.088 26.582 134.849 25.6833C136.14 24.1603 140 24.392 140 24.392V17.1222C140.005 17.1222 133.449 16.8857 130.398 13.3667ZM35.8289 53.0079C22.2589 53.0079 11.2619 42.0061 11.2619 28.4408C11.2619 14.8755 22.2589 3.86905 35.8289 3.86905C49.399 3.86905 60.396 14.8708 60.396 28.4361C60.396 42.0014 49.399 53.0079 35.8289 53.0079ZM104.431 53.0079C90.8612 53.0079 79.8642 42.0061 79.8642 28.4408C79.8642 14.8755 90.8659 3.87378 104.431 3.87378C117.997 3.87378 128.998 14.8755 128.998 28.4408C128.998 42.0061 118.001 53.0079 104.431 53.0079Z" fill="white"/>
</svg>
