<svg width="170" height="154" viewBox="0 0 170 154" fill="none" xmlns="http://www.w3.org/2000/svg">
<path d="M146.668 0.237241C158.638 10.3955 154.993 28.1885 141.341 31.553C141.341 31.553 170.802 27.714 154.993 0C154.993 0 170.176 5.84475 169.831 22.7104C169.486 39.5545 166.596 53.9615 158.767 57.5632C158.767 57.5632 171.427 53.8105 168.494 38.7565C168.494 38.7565 176.56 62.2649 155.359 69.8782C151.844 71.1506 147.66 71.8624 142.484 70.2664C142.484 70.2664 147.897 84.4145 145.266 94.163C142.635 103.933 143.454 103.049 143.54 106.003C143.627 108.937 138.709 110.08 138.925 119.181C138.968 121.359 135.151 121.338 128.486 137.341C127.861 138.85 128.098 141.956 127.753 143.336C127.214 145.666 124.238 153.15 124.238 153.15C124.238 153.15 126.394 141.158 127.171 134.106C127.839 128.067 126.61 119.375 124.647 114.975C120.701 106.133 125.941 102.315 124.108 96.4707C122.275 90.6259 118.501 77.4267 120.226 72.6819C120.226 72.6819 103.188 75.766 94.8845 65.1118C94.8845 65.1118 78.709 73.9328 70.7075 66.1039C65.2079 60.712 38.8526 83.1636 26.3435 68.8214C26.3435 68.8214 23.4104 71.5388 24.7691 76.3268C26.322 81.8265 21.4046 89.0515 20.7576 95.3923C20.1106 101.733 25.7828 110.382 21.3399 115.148C16.897 119.914 23.9711 133.265 20.4341 140.101C20.4341 140.101 18.2773 122.157 8.91713 117.628C8.91713 117.628 7.8819 110.921 4.7762 104.709C1.6705 98.498 -2.34102 89.7632 1.71364 85.4498C5.74673 81.1147 -5.51142 58.2102 14.5678 60.9709C14.5678 60.9709 -3.54879 31.5746 16.1422 21.7399C16.1422 21.7399 5.07814 29.3963 12.0444 40.525C12.0444 40.525 8.96026 6.4055 40.3623 14.6442C40.3623 14.6442 22.5045 14.8815 22.9143 27.5846C22.9143 27.5846 32.9216 13.8247 42.6053 16.8872C52.289 19.9713 50.7146 9.05828 58.5436 6.29766C66.3725 3.53704 81.5343 8.97201 90.075 1.98419C98.6157 -5.00362 107.89 12.3796 116.215 12.5522C124.561 12.7247 133.145 7.41916 133.037 3.62331C133.037 3.62331 136.596 11.517 127.149 16.003C127.149 16.003 139.249 16.5853 140.607 7.28976C140.607 7.28976 142.462 14.5795 138.58 17.793C138.58 17.793 146.452 14.2344 145.072 7.3976C145.072 7.3976 149.471 13.1992 146.344 18.742C146.344 18.6989 153.893 7.87208 146.668 0.237241Z" fill="#251F12"/>
<path d="M142.505 70.2233C142.505 70.2233 149.321 71.2585 152.362 79.2384C155.424 87.2183 161.916 84.6518 161.916 84.6518C161.916 84.6518 154.13 91.0573 146.884 76.5641C146.884 76.5641 148.911 81.7187 148.544 85.0616C148.178 88.383 150.615 91.8769 150.615 91.8769C150.615 91.8769 147.272 89.3104 145.827 84.6302C144.403 79.9501 142.505 70.2233 142.505 70.2233Z" fill="#251F12"/>
<path d="M73.8995 14.6012C73.8995 14.6012 73.5113 15.3129 72.8212 16.5207C72.4545 17.1245 72.1742 17.9225 71.7859 18.7637C71.3977 19.6264 71.0958 20.6832 70.6644 21.7831C69.9312 24.0477 69.1547 26.6789 68.3136 29.5473C67.4509 32.4158 66.4804 35.4783 65.2079 38.4762C64.604 39.9859 63.7845 41.4094 63.0727 42.8544C62.21 44.2131 61.4121 45.615 60.3768 46.7796C59.8808 47.3619 59.4494 47.9874 58.9102 48.5266C58.3711 49.0442 57.8319 49.5402 57.3143 50.0147C56.3437 51.05 55.0928 51.6538 54.1223 52.3871C53.0871 53.0557 52.0087 53.4439 51.1244 53.8753C50.2402 54.3282 49.3775 54.4792 48.7089 54.6948C47.3502 55.083 46.5737 55.2556 46.5737 55.2556C46.5737 55.2556 47.2855 54.8674 48.5364 54.2635C49.1402 53.94 49.9382 53.6596 50.7147 53.0773C51.4911 52.5165 52.44 51.9989 53.3243 51.2441C53.7557 50.8559 54.2086 50.4676 54.683 50.0579C55.1575 49.6696 55.6536 49.2383 56.0634 48.7207C56.4947 48.2246 56.9476 47.7286 57.4221 47.211C57.8534 46.6718 58.2417 46.0895 58.673 45.5072C59.5788 44.3857 60.2043 43.0053 61.0238 41.7329C61.6924 40.3526 62.4257 38.9938 62.9865 37.5272C64.2589 34.6804 65.251 31.6825 66.3078 28.8787C67.2999 26.075 68.3567 23.4438 69.392 21.2655C69.9527 20.1871 70.4272 19.195 70.9879 18.3539C71.5487 17.5343 71.98 16.7795 72.433 16.2403C73.3604 15.1835 73.8995 14.6012 73.8995 14.6012Z" fill="#55463F"/>
<path d="M63.5039 20.2518C63.5039 20.2518 63.202 20.7047 62.7059 21.5242C62.404 21.9125 62.253 22.4732 61.9727 23.0124C61.7138 23.5731 61.5413 24.2849 61.3256 25.0182C61.1531 25.773 61.0237 26.5926 60.9159 27.4984C60.8296 28.4258 60.7217 29.3748 60.6139 30.3884C60.4845 31.4021 60.3767 32.4804 60.1179 33.5588C59.9022 34.6587 59.514 35.7371 59.1473 36.8155C58.6513 37.8507 58.1768 38.9075 57.5298 39.8349C56.969 40.827 56.2142 41.625 55.524 42.423C54.877 43.2641 54.0359 43.868 53.3457 44.515C52.6556 45.1836 51.8791 45.6365 51.2106 46.1326C49.8949 47.1247 48.6225 47.707 47.7813 48.1815C46.9187 48.6128 46.4226 48.8501 46.4226 48.8501C46.4226 48.8501 46.8108 48.4618 47.501 47.7933C48.1696 47.1247 49.2264 46.262 50.3047 45.0973C50.8439 44.515 51.5125 43.9543 52.0732 43.2425C52.634 42.5308 53.3242 41.8622 53.8849 41.0642C54.4672 40.2878 55.0495 39.4683 55.5456 38.6056C56.1063 37.7644 56.4945 36.8155 56.9259 35.9097C57.271 34.9607 57.6376 34.0117 57.8749 33.0196C58.1337 32.0275 58.3709 31.057 58.5434 30.0649C58.7376 29.0728 58.9317 28.1023 59.1689 27.1749C59.3846 26.2475 59.7081 25.3632 60.0316 24.5868C60.3982 23.8104 60.7649 23.1202 61.1962 22.5595C61.6491 22.0203 61.9727 21.5027 62.3609 21.2223C63.0726 20.5968 63.5039 20.2518 63.5039 20.2518Z" fill="#55463F"/>
<path d="M41.4192 23.7673C41.4192 23.7673 41.1173 24.1555 40.5997 24.8241C40.0605 25.4711 39.3056 26.3985 38.3998 27.52C37.494 28.6199 36.4588 29.914 35.402 31.2943C34.3236 32.6961 33.2452 34.1843 32.2531 35.7587C30.2258 38.8428 28.7808 42.2289 27.8965 44.9248C27.4436 46.2836 27.0554 47.4266 26.7966 48.2031C26.4946 49.0011 26.3221 49.454 26.3221 49.454C26.3221 49.454 26.2143 47.5129 26.5593 44.6013C26.7319 43.1563 27.077 41.4525 27.6808 39.684C28.0259 38.8213 28.3279 37.8939 28.8023 37.0312C29.2337 36.1469 29.7297 35.3058 30.2474 34.4431C31.3473 32.804 32.5335 31.2296 33.806 29.914C34.4099 29.2238 35.0784 28.6415 35.6823 28.0592C36.2646 27.4769 36.8901 26.9808 37.4724 26.5063C38.5939 25.5574 39.586 24.9103 40.2977 24.4359C41.0095 24.0261 41.4192 23.7673 41.4192 23.7673Z" fill="#55463F"/>
<path d="M14.9774 93.3219C14.9774 93.3219 14.3735 92.2219 14.05 90.3887C13.899 89.4829 13.8127 88.3829 13.8774 87.2183C13.899 86.0537 14.1363 84.8243 14.4166 83.6166C14.7617 82.4304 15.1715 81.2657 15.6675 80.2089C16.1852 79.1737 16.7243 78.2463 17.2851 77.513C17.7811 76.7366 18.3635 76.219 18.687 75.8092C19.0536 75.421 19.2693 75.2053 19.2693 75.2053C19.2693 75.2053 19.183 75.5072 18.9889 76.0033C18.7948 76.4993 18.4929 77.1895 18.1909 78.0091C17.8458 78.8286 17.5223 79.7991 17.1341 80.8128C16.8106 81.848 16.444 82.948 16.1636 84.0695C15.5813 86.2909 15.2362 88.577 15.0852 90.324C14.9342 92.0925 14.9774 93.3219 14.9774 93.3219Z" fill="#55463F"/>
<path d="M15.4091 73.3505C15.4091 73.3505 14.7837 73.9113 13.9425 74.7524C13.0798 75.572 12.0015 76.6503 11.0309 77.7934C10.0388 78.9149 9.17615 80.1658 8.5507 81.1579C8.22719 81.654 7.94681 82.0637 7.77428 82.3872C7.58017 82.6892 7.45077 82.8617 7.45077 82.8617C7.45077 82.8617 7.4292 82.6461 7.4292 82.2794C7.45077 81.9128 7.4292 81.3736 7.58017 80.7481C7.68801 80.1227 7.92525 79.411 8.27032 78.6992C8.6154 77.9659 9.08988 77.2542 9.62907 76.6072C10.729 75.2916 12.174 74.3426 13.3386 73.8682C14.5464 73.3937 15.4091 73.3505 15.4091 73.3505Z" fill="#55463F"/>
<path d="M12.605 70.1585C12.605 70.1585 12.0011 70.6114 11.2246 71.28C10.4267 71.927 9.45612 72.7897 8.59343 73.7387C7.70917 74.6661 6.93274 75.6797 6.32886 76.5209C6.02692 76.9307 5.76811 77.2973 5.59557 77.5561C5.42303 77.8149 5.29363 77.9659 5.29363 77.9659C5.29363 77.9659 5.16422 77.211 5.3799 76.1111C5.46617 75.5503 5.70341 74.9249 6.00535 74.2994C6.17789 73.9975 6.32886 73.6524 6.5661 73.372C6.80334 73.0701 7.01901 72.7681 7.27782 72.4878C8.31305 71.3878 9.6718 70.633 10.7502 70.3526C11.8501 70.0507 12.605 70.1585 12.605 70.1585Z" fill="#55463F"/>
<path d="M165.28 20.036C165.28 20.036 165.259 20.2517 165.216 20.6615C165.151 21.0713 165.172 21.6752 164.957 22.4085C164.806 23.1849 164.525 24.0691 164.159 25.1044C163.771 26.118 163.253 27.2395 162.563 28.3826C161.873 29.5257 161.031 30.7119 160.039 31.8765C159.026 33.0411 157.904 34.2058 156.632 35.2842C154.108 37.484 151.132 39.4466 148.026 41.1289C146.474 41.97 144.856 42.7033 143.26 43.3719C141.729 44.0621 140.068 44.6444 138.688 45.3345C135.819 46.6717 133.231 48.1814 131.139 49.648C129.047 51.1361 127.408 52.5164 126.373 53.6164C125.316 54.6948 124.798 55.4065 124.798 55.4065C124.798 55.4065 125.143 54.5869 126.028 53.336C126.934 52.1067 128.314 50.3382 130.298 48.5912C131.29 47.7285 132.412 46.8011 133.684 45.96C134.935 45.0973 136.294 44.2346 137.782 43.4582C139.292 42.6386 140.758 41.97 142.354 41.2583C143.885 40.5897 145.438 39.8349 146.926 39.0153C149.946 37.4409 152.814 35.6077 155.316 33.6666C156.545 32.6745 157.71 31.6824 158.745 30.6687C159.759 29.6335 160.686 28.6198 161.441 27.6062C162.196 26.5925 162.843 25.622 163.382 24.7162C163.878 23.8103 164.288 22.9908 164.525 22.2791C164.827 21.5889 164.978 21.0066 165.108 20.6184C165.216 20.2302 165.28 20.036 165.28 20.036Z" fill="#55463F"/>
<path d="M165.604 31.2295C165.604 31.2295 165.712 31.6824 165.733 32.502C165.733 33.3215 165.604 34.5077 165.194 35.8665C164.978 36.535 164.72 37.2683 164.331 38.0016C164.008 38.7565 163.49 39.4682 163.016 40.2231C162.433 40.8916 161.916 41.6896 161.226 42.3151C160.557 42.9621 159.867 43.6307 159.112 44.1915C158.357 44.7738 157.581 45.313 156.783 45.7659C156.006 46.2619 155.187 46.6717 154.389 47.0168C153.591 47.3618 152.836 47.7501 152.06 47.9657C151.305 48.2245 150.593 48.4402 149.924 48.6343C148.609 49.0225 147.444 49.1519 146.646 49.2813C145.848 49.3892 145.395 49.4323 145.395 49.4323C145.395 49.4323 145.805 49.2166 146.495 48.8069C147.185 48.4186 148.242 47.9657 149.407 47.3187C149.989 46.9952 150.636 46.6501 151.305 46.305C151.995 45.9815 152.642 45.4855 153.375 45.1188C154.108 44.7306 154.799 44.2346 155.51 43.7817C156.244 43.3288 156.934 42.8327 157.602 42.272C158.314 41.7759 158.94 41.1936 159.565 40.6328C160.212 40.0721 160.751 39.4466 161.334 38.8859C161.808 38.2389 162.39 37.6997 162.779 37.0742C163.21 36.4703 163.577 35.888 163.922 35.3273C165.216 33.0627 165.604 31.2295 165.604 31.2295Z" fill="#55463F"/>
<path d="M122.706 33.0628C122.706 33.0628 122.749 33.602 122.663 34.5509C122.577 35.4999 122.34 36.8371 121.865 38.4115C121.348 39.9643 120.636 41.7544 119.601 43.5229C119.105 44.4288 118.501 45.2915 117.897 46.1757C117.207 46.9953 116.581 47.9011 115.848 48.6991C115.071 49.4755 114.36 50.2951 113.562 51.0068C112.764 51.7185 111.987 52.4303 111.168 53.0341C109.55 54.2635 107.954 55.2987 106.531 56.0536C105.15 56.8947 103.856 57.3476 103.015 57.7358C102.153 58.0809 101.635 58.275 101.635 58.275C101.635 58.275 102.045 57.9299 102.757 57.326C103.468 56.7221 104.547 55.9673 105.733 54.9105C106.337 54.3929 106.984 53.8537 107.695 53.2929C108.364 52.6891 109.054 52.042 109.787 51.4166C110.542 50.7911 111.189 50.0147 111.944 49.3461C112.699 48.656 113.346 47.858 114.058 47.1031C114.77 46.3483 115.395 45.5503 116.064 44.7738C116.646 43.9543 117.314 43.1994 117.832 42.4014C118.371 41.6034 118.91 40.8486 119.363 40.0722C119.838 39.3173 120.226 38.584 120.614 37.8939C121.326 36.5136 121.865 35.3274 122.21 34.4647C122.534 33.5804 122.706 33.0628 122.706 33.0628Z" fill="#55463F"/>
<path d="M116.517 38.584C116.517 38.584 116.366 39.2311 115.913 40.3094C115.438 41.3662 114.662 42.8544 113.519 44.4935C112.354 46.1326 110.801 47.9011 108.947 49.5834C107.998 50.4029 107.027 51.2656 105.949 52.0421C104.849 52.7753 103.792 53.6165 102.627 54.2635C101.463 54.9105 100.32 55.6222 99.1334 56.1614C97.9472 56.7222 96.8042 57.3045 95.618 57.7143C93.3103 58.6417 91.0888 59.3318 89.1478 59.7847C87.2498 60.3455 85.5676 60.4533 84.4461 60.7121C83.303 60.9062 82.656 60.9709 82.656 60.9709C82.656 60.9709 83.2599 60.6906 84.3167 60.2592C85.3735 59.8279 86.9263 59.2887 88.6949 58.4907C89.5791 58.1025 90.5496 57.6927 91.5849 57.2829C92.577 56.8084 93.6553 56.3124 94.7337 55.7948C95.8552 55.3419 96.8904 54.6517 98.0335 54.1125C99.1766 53.5733 100.233 52.8616 101.355 52.2146C102.498 51.6107 103.512 50.8343 104.568 50.1657C105.582 49.4324 106.596 48.7207 107.545 47.9874C108.451 47.211 109.399 46.5208 110.176 45.766C110.995 45.0327 111.729 44.2994 112.419 43.6308C113.066 42.9191 113.691 42.2936 114.209 41.6897C114.727 41.1074 115.136 40.5467 115.481 40.0938C116.172 39.1448 116.517 38.584 116.517 38.584Z" fill="#55463F"/>
<path d="M81.8792 34.2921C81.8792 34.2921 81.9223 34.8098 82.0086 35.694C82.0302 36.1469 82.0949 36.6861 82.0517 37.3116C82.0302 37.937 82.0733 38.6703 81.9655 39.4252C81.8361 40.978 81.5341 42.7897 80.9302 44.666C80.6067 45.5934 80.2832 46.564 79.8087 47.4914C79.3558 48.4403 78.8166 49.3461 78.2343 50.2304C77.5873 51.0715 76.9618 51.9342 76.2285 52.6891C75.56 53.4871 74.7404 54.1125 74.0071 54.7595C72.4543 55.9889 70.9014 56.9378 69.4995 57.6064C68.8094 57.9731 68.1408 58.2103 67.5585 58.4476C66.9762 58.6848 66.4585 58.8573 66.0272 58.9867C65.1645 59.224 64.6685 59.375 64.6685 59.375C64.6685 59.375 65.0782 59.073 65.8115 58.5554C66.5448 58.0593 67.58 57.3261 68.7662 56.4418C69.9525 55.5575 71.2896 54.436 72.6052 53.1851C73.8777 51.8911 75.1718 50.4676 76.2501 48.8717C78.4284 45.7228 79.8087 42.0348 80.6067 39.1664C80.844 38.4546 80.9734 37.786 81.1459 37.2037C81.3184 36.6214 81.4263 36.0822 81.5341 35.6509C81.7498 34.7882 81.8792 34.2921 81.8792 34.2921Z" fill="#55463F"/>
<path d="M111.448 21.6536C111.448 21.6536 110.974 21.5673 110.176 21.4163C109.356 21.2438 108.235 21.0497 106.876 20.834C106.207 20.7262 105.452 20.6399 104.698 20.5752C103.921 20.4674 103.102 20.489 102.282 20.4243C101.441 20.4243 100.578 20.4243 99.7156 20.489C98.8529 20.5105 97.9686 20.6615 97.1059 20.7909C93.6336 21.3516 90.3554 22.8398 88.0045 24.2201C87.4006 24.5436 86.9046 24.9318 86.4085 25.2122C85.9341 25.5141 85.5243 25.7945 85.1792 26.0318C84.489 26.4847 84.1008 26.7435 84.1008 26.7435C84.1008 26.7435 84.3596 26.3553 84.8557 25.6867C85.1145 25.3632 85.3949 24.9318 85.8047 24.522C86.2144 24.1123 86.6242 23.5731 87.185 23.1202C88.2418 22.1496 89.6005 21.0928 91.2612 20.2733C92.0807 19.8635 92.9434 19.4537 93.8708 19.1518C94.7982 18.8498 95.7472 18.591 96.7177 18.4185C97.6882 18.2891 98.6803 18.1597 99.6293 18.1597C100.6 18.095 101.549 18.2244 102.455 18.3107C104.266 18.5695 105.905 18.9577 107.243 19.4969C108.58 19.9929 109.68 20.5321 110.37 20.9634C111.038 21.3948 111.448 21.6536 111.448 21.6536Z" fill="#55463F"/>
<path d="M137.739 76.9522C137.739 76.9522 138.451 77.6855 139.205 79.0658C139.917 80.4246 140.607 82.4303 140.737 84.5224C140.909 86.6144 140.456 88.7496 139.723 90.1515C139.378 90.8632 138.968 91.3808 138.688 91.7259C138.386 92.0709 138.192 92.2435 138.192 92.2435C138.192 92.2435 138.256 91.9847 138.364 91.5533C138.515 91.1435 138.601 90.5181 138.731 89.8279C138.968 88.4045 139.076 86.5281 138.925 84.6518C138.817 82.7539 138.472 80.8775 138.213 79.4109C137.933 77.9228 137.739 76.9522 137.739 76.9522Z" fill="#55463F"/>
<path d="M10.1034 69.5978C10.1034 69.5978 9.60733 69.9429 9.00344 70.4821C8.39956 70.9997 7.7094 71.6898 7.08395 72.4231C6.76044 72.7898 6.48006 73.178 6.17812 73.5662C5.89775 73.9544 5.61737 74.321 5.38013 74.6446C5.14289 74.9896 4.92722 75.27 4.77624 75.4641C4.62527 75.6582 4.49587 75.7876 4.49587 75.7876C4.49587 75.7876 4.3449 75.1837 4.43117 74.2995C4.4743 73.8466 4.60371 73.3505 4.79781 72.8113C5.01349 72.2722 5.337 71.7761 5.72521 71.2801C6.15655 70.8271 6.60947 70.3958 7.12708 70.137C7.62313 69.835 8.14075 69.6625 8.59366 69.5762C9.49949 69.4037 10.1034 69.5978 10.1034 69.5978Z" fill="#55463F"/>
<path d="M14.1796 76.1974C14.1796 76.1974 14.1364 76.3484 13.9854 76.5425C13.8345 76.7366 13.6835 77.0601 13.4463 77.3621C13.0149 78.0091 12.4542 78.7855 11.915 79.5835C11.3758 80.3599 10.8366 81.1795 10.3621 81.8265C10.1249 82.15 9.90922 82.4304 9.75825 82.6029C9.60728 82.797 9.47788 82.9049 9.47788 82.9049C9.47788 82.9049 9.32691 82.3225 9.39161 81.4814C9.45631 80.6403 9.77982 79.5404 10.4268 78.5914C11.0739 77.6424 12.0013 76.9091 12.7777 76.5856C13.5972 76.2406 14.1796 76.1974 14.1796 76.1974Z" fill="#55463F"/>
<path d="M18.5579 78.2678C18.5579 78.2678 18.4716 78.9149 18.3422 79.8207C18.2128 80.7265 17.954 81.8696 17.6736 82.9911C17.3717 84.1126 17.0697 85.2341 16.7678 86.0968C16.6384 86.5281 16.4443 86.8948 16.3796 87.1536C16.2717 87.4124 16.1855 87.5634 16.1855 87.5634C16.1855 87.5634 15.8835 86.9595 15.7325 86.0105C15.5816 85.0616 15.6247 83.7675 15.9266 82.5597C16.2286 81.3304 16.8109 80.1873 17.3932 79.4109C17.6736 79.0227 17.9971 78.7423 18.1912 78.5482C18.4069 78.3325 18.5579 78.2678 18.5579 78.2678Z" fill="#55463F"/>
<path d="M17.0696 75.1621C17.0696 75.1621 16.6599 75.9386 16.1422 77.0816C15.6031 78.2031 14.956 79.6913 14.3737 81.201C13.7698 82.6891 13.2954 84.242 12.9071 85.4498C12.713 86.0537 12.5189 86.5497 12.4111 86.9163C12.2817 87.283 12.1954 87.4771 12.1954 87.4771C12.1954 87.4771 11.9366 86.6144 11.8719 85.2988C11.8288 84.6302 11.8935 83.8753 12.0013 83.0558C12.1307 82.2362 12.368 81.3951 12.6699 80.554C13.3169 78.8933 14.3306 77.4052 15.2795 76.4778C16.2716 75.5504 17.0696 75.1621 17.0696 75.1621Z" fill="#55463F"/>
<path d="M22.5478 77.8366C22.5478 77.8366 22.6987 78.764 22.6556 80.1227C22.6125 81.4815 22.3321 83.2715 21.7929 84.9969C21.2537 86.7223 20.4773 88.3614 19.7009 89.5045C18.946 90.6476 18.2559 91.273 18.2559 91.273C18.2559 91.273 18.2774 91.0358 18.3853 90.6476C18.4931 90.2809 18.5794 89.6986 18.7735 89.0732C19.097 87.7791 19.5715 86.1184 20.0675 84.4577C20.5851 82.7971 21.1459 81.1364 21.6419 79.907C22.138 78.6777 22.5478 77.8366 22.5478 77.8366Z" fill="#55463F"/>
<path d="M11.4404 71.4957C11.4404 71.4957 11.1169 71.927 10.7071 72.4662C10.2758 73.0054 9.715 73.6308 9.17582 74.2563C8.61507 74.8602 8.05432 75.4856 7.57984 75.9817C7.32103 76.2405 7.10536 76.4346 6.95438 76.5856C6.80341 76.7365 6.67401 76.8228 6.67401 76.8228C6.67401 76.8228 6.52304 76.3052 6.63087 75.5287C6.71714 74.7739 7.14849 73.8034 7.83865 73.0485C8.5288 72.2937 9.41306 71.776 10.1463 71.6035C10.9012 71.4094 11.4404 71.4957 11.4404 71.4957Z" fill="#55463F"/>
<path d="M16.1852 71.1507C16.1852 71.1507 15.6892 71.7114 14.9343 72.4447C14.1795 73.178 13.1442 74.0622 12.1521 74.9465C11.1385 75.8092 10.168 76.6935 9.4131 77.3836C9.04645 77.7503 8.67981 78.0306 8.50727 78.2679C8.2916 78.4835 8.14062 78.6129 8.14062 78.6129C8.14062 78.6129 8.16219 77.8581 8.57197 76.8013C9.00332 75.7661 9.88758 74.5367 10.9875 73.5878C12.109 72.6388 13.3815 71.9486 14.4167 71.582C15.4304 71.2154 16.1852 71.1507 16.1852 71.1507Z" fill="#55463F"/>
<path d="M19.5931 83.4009C19.5931 83.4009 19.6578 83.5518 19.7009 83.8322C19.7225 84.1126 19.8087 84.5224 19.8087 84.9753C19.8303 85.9027 19.6793 87.132 19.3558 88.2967C19.0323 89.4613 18.5147 90.5828 17.9971 91.3808C17.4579 92.1788 16.9187 92.5886 16.9187 92.5886C16.9187 92.5886 16.9403 91.9415 17.005 91.0357C17.0912 90.1299 17.2853 88.9652 17.6089 87.8222C17.9324 86.6791 18.3637 85.5792 18.7951 84.7596C19.248 83.9401 19.5931 83.4009 19.5931 83.4009Z" fill="#55463F"/>
<path d="M125.359 79.1306C125.359 79.1306 125.316 80.2521 125.359 81.8696C125.381 82.6892 125.402 83.6166 125.488 84.6087C125.553 85.6008 125.639 86.6575 125.812 87.6928C126.071 89.7848 126.524 91.8553 126.89 93.4297C127.063 94.2277 127.214 94.8963 127.365 95.3708C127.473 95.8452 127.537 96.1256 127.537 96.1256C127.537 96.1256 127.343 95.9099 127.063 95.5217C126.782 95.1119 126.33 94.5728 125.941 93.8179C125.51 93.0846 125.122 92.1788 124.777 91.1651C124.432 90.1515 124.194 89.0515 124.022 87.93C123.741 85.6655 123.914 83.3793 124.345 81.7402C124.777 80.1011 125.359 79.1306 125.359 79.1306Z" fill="#55463F"/>
<path d="M137.739 81.8481C137.739 81.8481 138.343 82.5382 138.817 83.7891C139.313 85.0185 139.615 86.8301 139.421 88.6418C139.378 89.0947 139.27 89.5261 139.184 89.9574C139.119 90.3888 138.925 90.7985 138.796 91.2083C138.688 91.6181 138.451 91.9632 138.3 92.3082C138.149 92.6533 137.933 92.9553 137.739 93.2356C137.394 93.7964 136.963 94.1846 136.704 94.465C136.466 94.7238 136.294 94.8748 136.294 94.8748C136.294 94.8748 136.337 94.6375 136.423 94.2709C136.531 93.9042 136.661 93.3866 136.812 92.7827C137.135 91.575 137.48 90.0005 137.631 88.4261C137.825 86.8517 137.847 85.2342 137.804 83.9833C137.804 82.7323 137.739 81.8481 137.739 81.8481Z" fill="#55463F"/>
<path d="M132.8 79.1306C132.8 79.1306 132.994 79.2168 133.274 79.4972C133.533 79.756 133.943 80.1658 134.288 80.7265C135.021 81.8265 135.56 83.5519 135.625 85.2988C135.647 86.1615 135.582 87.0458 135.431 87.8222C135.258 88.6202 135.064 89.3319 134.806 89.9358C134.31 91.122 133.77 91.8121 133.77 91.8121C133.77 91.8121 133.749 91.5965 133.749 91.2083C133.749 90.8416 133.77 90.324 133.77 89.6985C133.792 89.0947 133.792 88.3829 133.835 87.6497C133.835 86.9164 133.857 86.1399 133.813 85.3635C133.749 83.8107 133.576 82.2794 133.317 81.1147C133.123 79.9285 132.8 79.1306 132.8 79.1306Z" fill="#55463F"/>
<path d="M136.294 84.7381C136.294 84.7381 136.682 85.6439 136.876 87.0889C137.07 88.5339 137.005 90.475 136.553 92.3729C136.315 93.3219 136.013 94.2493 135.625 95.0688C135.258 95.8884 134.827 96.6432 134.396 97.2255C134.008 97.8294 133.555 98.2608 133.274 98.5843C132.972 98.8862 132.8 99.0588 132.8 99.0588C132.8 99.0588 132.843 98.8215 132.972 98.4117C133.123 98.0235 133.274 97.4412 133.468 96.7942C133.878 95.457 134.396 93.7316 134.806 91.9847C135.237 90.2377 135.582 88.4476 135.841 87.0889C136.1 85.6655 136.294 84.7381 136.294 84.7381Z" fill="#55463F"/>
<path d="M129.349 80.0364C129.349 80.0364 129.565 80.2089 129.888 80.5971C130.169 80.9853 130.6 81.5676 130.902 82.3441C131.592 83.8969 131.959 86.1399 131.829 88.3613C131.7 90.5828 131.161 92.7179 130.557 94.2492C130.277 95.0257 129.91 95.608 129.716 96.0393C129.5 96.4707 129.349 96.7079 129.349 96.7079C129.349 96.7079 129.349 96.4275 129.371 95.953C129.414 95.4786 129.479 94.81 129.543 94.012C129.629 93.214 129.716 92.3082 129.802 91.3161C129.888 90.3455 129.996 89.3103 130.039 88.2751C130.169 86.2262 130.126 84.1773 129.91 82.6244C129.737 81.0716 129.349 80.0364 129.349 80.0364Z" fill="#55463F"/>
<path d="M127.516 78.3972C127.516 78.3972 127.58 79.2383 127.602 80.4461C127.602 81.6539 127.537 83.2283 127.451 84.7596C127.365 86.3124 127.257 87.8653 127.192 89.0299C127.171 89.6122 127.106 90.1298 127.128 90.4749C127.106 90.8415 127.084 91.0572 127.084 91.0572C127.084 91.0572 126.588 90.3671 126.179 89.1593C125.79 87.9731 125.575 86.2908 125.661 84.6517C125.769 83.0126 126.157 81.3951 126.61 80.252C127.041 79.1089 127.516 78.3972 127.516 78.3972Z" fill="#55463F"/>
<path d="M129.392 84.3714C129.392 84.3714 129.759 84.9106 130.082 85.7949C130.384 86.6791 130.578 87.9085 130.514 89.1594C130.427 90.4103 130.039 91.6396 129.543 92.4592C129.047 93.2787 128.508 93.6885 128.508 93.6885C128.508 93.6885 128.486 93.516 128.508 93.2356C128.551 92.9768 128.508 92.567 128.551 92.1572C128.594 91.273 128.637 90.173 128.702 89.0515C128.788 87.93 128.896 86.787 129.047 85.9027C129.22 85.0184 129.392 84.3714 129.392 84.3714Z" fill="#55463F"/>
<path d="M133.123 87.1321C133.123 87.1321 133.49 87.6713 133.813 88.5555C134.115 89.4398 134.31 90.6691 134.245 91.92C134.159 93.171 133.77 94.4003 133.274 95.2198C132.778 96.0394 132.239 96.4492 132.239 96.4492C132.239 96.4492 132.218 96.2766 132.239 95.9963C132.282 95.7375 132.239 95.3277 132.282 94.9179C132.325 94.0336 132.368 92.9337 132.433 91.8122C132.519 90.6907 132.627 89.5476 132.778 88.6634C132.951 87.7575 133.123 87.1321 133.123 87.1321Z" fill="#55463F"/>
<path d="M138.99 75.1407C138.99 75.1407 139.896 76.4132 140.823 78.5699C141.276 79.6483 141.729 80.9423 142.074 82.3657C142.441 83.7892 142.678 85.342 142.786 86.9165C142.786 87.7144 142.872 88.4909 142.807 89.2673C142.786 90.0437 142.721 90.7986 142.592 91.5319C142.484 92.2652 142.354 92.9769 142.16 93.6239C141.966 94.2709 141.837 94.8964 141.578 95.4355C141.168 96.5355 140.65 97.3982 140.284 97.9589C139.917 98.5412 139.701 98.8432 139.701 98.8432C139.701 98.8432 139.788 98.455 139.96 97.808C140.047 97.4844 140.154 97.0962 140.284 96.6649C140.37 96.212 140.456 95.6944 140.564 95.1552C140.715 94.616 140.737 93.9905 140.823 93.3651C140.931 92.7396 140.952 92.071 140.996 91.3593C141.082 90.6692 141.017 89.9574 141.06 89.2242C141.103 88.4909 141.017 87.7576 140.974 87.0243C140.823 84.048 140.262 81.0933 139.809 78.8718C139.4 76.6288 138.99 75.1407 138.99 75.1407Z" fill="#55463F"/>
<path d="M141.923 79.0874C141.923 79.0874 142.613 79.7776 143.325 81.0285C144.036 82.2578 144.77 84.0479 145.093 85.9458C145.417 87.8437 145.33 89.8064 144.964 91.2082C144.791 91.92 144.533 92.4591 144.36 92.8474C144.187 93.2356 144.058 93.4297 144.058 93.4297C144.058 93.4297 144.036 93.1709 144.015 92.7611C144.036 92.3513 143.972 91.769 143.929 91.1004C143.842 89.7417 143.648 87.9947 143.325 86.2477C143.044 84.5008 142.635 82.7323 142.376 81.3735C142.095 79.9932 141.923 79.0874 141.923 79.0874Z" fill="#55463F"/>
<path d="M124.691 76.0465C124.604 76.0681 124.669 76.8876 124.669 78.2032C124.669 79.4757 124.626 81.1579 124.561 82.8186C124.496 84.4793 124.432 86.14 124.389 87.3909C124.389 88.0164 124.324 88.5555 124.345 88.9438C124.345 89.332 124.324 89.5476 124.324 89.5476C124.324 89.5476 123.806 88.8144 123.375 87.5419C122.944 86.2694 122.706 84.5009 122.771 82.7539C122.836 81.007 123.202 79.2816 123.655 78.0307C123.871 77.4052 124.13 76.9092 124.324 76.5641C124.518 76.1759 124.691 76.0465 124.691 76.0465Z" fill="#55463F"/>
<path d="M157.991 36.6213C157.991 36.6213 157.71 37.0311 156.869 37.6134C156.093 38.1526 154.95 38.9075 153.569 39.7055C150.809 41.3661 147.078 43.3719 143.411 45.4424C141.556 46.456 139.766 47.5344 138.084 48.5481C137.286 49.1088 136.445 49.5617 135.733 50.1009C135.021 50.6401 134.288 51.0714 133.706 51.5891C133.124 52.1067 132.52 52.5165 132.11 52.9909C131.7 53.4654 131.226 53.8105 130.988 54.1987C130.449 54.9536 130.147 55.4065 130.147 55.4065C130.147 55.4065 130.277 54.9104 130.579 53.9615C130.708 53.487 131.053 53.0125 131.398 52.4302C131.722 51.8047 132.218 51.2655 132.757 50.6185C133.274 49.9499 133.943 49.3676 134.612 48.7206C135.302 48.052 136.078 47.4697 136.876 46.8442C138.494 45.6149 140.349 44.4503 142.225 43.3719C145.999 41.2583 149.946 39.5761 152.965 38.4761C154.475 37.9154 155.748 37.5056 156.632 37.2036C157.02 37.0527 157.408 36.9664 157.624 36.837C157.861 36.686 157.991 36.6213 157.991 36.6213Z" fill="#55463F"/>
<path d="M150.679 16.7147C150.679 16.7147 150.852 17.2107 150.852 18.1381C150.852 18.6126 150.787 19.1518 150.636 19.7988C150.442 20.4243 150.205 21.136 149.773 21.8477C149.364 22.5379 148.825 23.2927 148.134 23.9182C147.789 24.2201 147.444 24.5868 147.056 24.8887C146.646 25.1475 146.236 25.4279 145.805 25.7083C144.942 26.2475 143.993 26.6357 143.023 27.0886C142.031 27.3905 141.017 27.7356 140.003 27.9944C138.968 28.1669 137.933 28.361 136.919 28.5336C135.906 28.6414 134.892 28.663 133.921 28.7277C132.951 28.8355 132.024 28.7277 131.139 28.7061C130.255 28.6846 129.414 28.6199 128.659 28.5552C125.596 28.1454 123.612 27.6709 123.612 27.6709C123.612 27.6709 125.661 27.3474 128.681 27.1748C129.435 27.0886 130.233 26.9807 131.096 26.8945C131.959 26.7866 132.865 26.7651 133.771 26.6141C134.698 26.4847 135.625 26.3337 136.596 26.2259C137.545 26.0318 138.494 25.8377 139.464 25.6436C140.413 25.4279 141.319 25.126 142.246 24.8887C143.088 24.5005 144.015 24.2848 144.791 23.8535C145.589 23.4437 146.344 23.0555 146.97 22.5594C147.315 22.3438 147.595 22.085 147.876 21.8261C148.156 21.5673 148.458 21.3517 148.652 21.0497C149.126 20.5321 149.472 19.9714 149.773 19.4753C150.011 18.9577 150.248 18.4832 150.356 18.0519C150.658 17.2323 150.679 16.7147 150.679 16.7147Z" fill="#55463F"/>
<path d="M139.874 23.7672C139.874 23.7672 138.041 23.9613 135.366 24.0476C132.67 24.1339 129.09 24.1123 125.553 24.0476C122.016 23.9829 118.479 23.875 115.869 24.0692C114.575 24.177 113.519 24.3495 112.893 24.7162C112.246 25.0613 112.181 25.6004 112.16 25.5789C112.16 25.5789 112.16 25.471 112.16 25.2554C112.16 25.0397 112.289 24.673 112.57 24.3711C113.152 23.7025 114.274 23.1202 115.611 22.732C118.307 21.9124 121.973 21.6105 125.596 21.6752C129.22 21.7614 132.8 22.1928 135.474 22.7104C138.127 23.1633 139.874 23.7672 139.874 23.7672Z" fill="#55463F"/>
<path d="M119.191 16.7148C119.191 16.7148 118.781 16.801 118.069 16.9304C117.703 16.9736 117.293 17.103 116.754 17.0598C116.236 17.0598 115.632 17.0814 114.985 16.9951C113.713 16.8442 112.225 16.4991 110.758 15.8305C109.248 15.2266 107.825 14.2777 106.445 13.3503C105.108 12.3582 103.835 11.3229 102.67 10.3524C101.506 9.38187 100.427 8.56232 99.4569 7.89373C98.4648 7.28984 97.5805 6.88006 96.9119 6.66439C96.2218 6.49185 95.812 6.38401 95.812 6.38401C95.812 6.38401 96.2002 6.29775 96.9551 6.18991C97.6884 6.12521 98.8099 6.23304 100.039 6.64282C101.269 7.07417 102.606 7.78589 103.9 8.62702C105.215 9.46814 106.509 10.4602 107.803 11.3876C108.45 11.8621 109.076 12.3366 109.745 12.7464C110.392 13.1562 111.017 13.6091 111.664 13.9326C112.915 14.6874 114.166 15.2051 115.266 15.658C115.826 15.8305 116.344 16.003 116.797 16.154C117.25 16.3266 117.703 16.3697 118.048 16.456C118.781 16.6069 119.191 16.7148 119.191 16.7148Z" fill="#55463F"/>
<path d="M101.613 12.9188C101.613 12.9188 100.47 12.7894 98.8744 12.4659C98.098 12.315 97.1706 12.1208 96.1785 11.9267C95.2079 11.7542 94.1943 11.4954 93.1806 11.3876C92.1669 11.1719 91.1533 11.1072 90.2259 11.0209C89.7298 10.9778 89.2769 10.9778 88.8456 10.9562C88.4142 10.9778 88.026 10.9993 87.6162 10.9993C86.883 11.1288 86.1928 11.1719 85.7615 11.3444C85.287 11.4738 85.0066 11.5385 85.0066 11.5385C85.0066 11.5385 85.1791 11.3229 85.5242 10.9346C85.6968 10.7621 85.9124 10.4817 86.2144 10.3092C86.5163 10.1151 86.8398 9.85628 87.2496 9.66217C88.0476 9.27396 89.0613 8.97202 90.1612 8.86418C90.7004 8.84261 91.2827 8.73478 91.8434 8.82105C92.4042 8.86418 92.9865 8.88575 93.5688 8.99359C95.8334 9.3818 97.947 10.2661 99.3704 11.1719C100.815 12.0561 101.613 12.9188 101.613 12.9188Z" fill="#55463F"/>
<path d="M28.6512 14.6011C28.6728 14.6442 28.0473 14.6442 27.2493 15.1403C26.8396 15.3128 26.3866 15.6794 25.869 16.0461C25.373 16.4559 24.8122 16.9088 24.2515 17.4911C23.6692 18.0303 23.1084 18.6773 22.5261 19.389C21.9438 20.0792 21.4262 20.8772 20.8654 21.6752C20.3478 22.5163 19.8517 23.379 19.4204 24.3064C18.9243 25.1906 18.644 26.2043 18.2558 27.1748C18.0401 28.1885 17.6734 29.159 17.544 30.1727C17.4146 31.1863 17.1774 32.1784 17.199 33.149C17.1774 33.645 17.1558 34.1195 17.1343 34.594C17.1558 35.0685 17.199 35.5214 17.2205 35.9743C17.2637 36.8801 17.3068 37.7428 17.4793 38.5408C17.6303 39.3172 17.695 40.0721 17.8244 40.7191C17.9754 41.3661 18.1264 41.9269 18.2342 42.3798C18.4499 43.3288 18.5577 43.8679 18.5577 43.8679C18.5577 43.8679 18.2773 43.3935 17.7813 42.5523C17.544 42.121 17.2637 41.6034 16.9401 40.9995C16.6382 40.374 16.401 39.6407 16.1206 38.8428C15.7971 38.0448 15.5814 37.1605 15.4304 36.19C15.3442 35.7155 15.2579 35.2194 15.1501 34.7018C15.1285 34.1842 15.1069 33.6666 15.0854 33.1274C14.9991 32.049 15.0854 30.9275 15.2579 29.806C15.3657 28.663 15.7324 27.563 15.9912 26.4415C16.4441 25.3632 16.7892 24.2632 17.3715 23.2711C17.8675 22.2359 18.5361 21.3301 19.1616 20.4674C19.8302 19.6263 20.4988 18.8283 21.232 18.1597C21.9222 17.4695 22.6771 16.8872 23.3888 16.4127C24.0789 15.9167 24.7907 15.55 25.4161 15.2481C26.0631 14.9893 26.6239 14.752 27.1415 14.6658C27.6375 14.5148 28.0042 14.5364 28.263 14.5579C28.5218 14.6011 28.6512 14.6011 28.6512 14.6011Z" fill="#55463F"/>
<path d="M19.593 31.2295C19.593 31.2295 19.4205 33.0411 19.7008 35.6292C19.8087 36.9233 20.0891 38.4114 20.391 40.0074C20.7576 41.5818 21.1243 43.2641 21.6635 44.9247C21.9007 45.7659 22.1379 46.5854 22.4399 47.405C22.7203 48.203 22.9359 49.0225 23.2594 49.799C23.7986 51.3518 24.3594 52.7752 24.8123 54.0262C25.2868 55.2771 25.6534 56.3339 25.9338 57.0671C26.171 57.822 26.322 58.2534 26.322 58.2534C26.322 58.2534 26.0201 57.9083 25.524 57.3044C25.0495 56.6789 24.2947 55.8162 23.583 54.6516C22.8497 53.5085 22.0301 52.1498 21.3184 50.5969C20.5635 49.0657 19.9165 47.3618 19.3773 45.6149C18.3205 42.121 17.9755 38.3683 18.3421 35.6292C18.4931 34.2489 18.795 33.1274 19.0754 32.3726C19.3558 31.6177 19.593 31.2295 19.593 31.2295Z" fill="#55463F"/>
<path d="M165.604 56.3123C165.604 56.3123 165.582 56.4417 165.561 56.7005C165.561 56.9593 165.496 57.326 165.28 57.8004C165.129 58.3181 164.784 58.7925 164.418 59.3964C164.008 59.9356 163.555 60.6042 162.93 61.1865C162.347 61.8335 161.636 62.3943 160.881 63.0197C160.083 63.5589 159.242 64.2059 158.293 64.6589C156.438 65.7372 154.238 66.4274 152.016 66.9234C150.895 67.096 149.773 67.3116 148.652 67.3116C147.53 67.4195 146.431 67.3548 145.374 67.2469C144.317 67.2038 143.303 66.9881 142.354 66.7725C141.88 66.6646 141.427 66.5784 140.974 66.4705C140.543 66.3195 140.133 66.1686 139.723 66.0392C138.127 65.5431 136.876 64.8961 136.035 64.4216C135.194 63.9471 134.719 63.6668 134.719 63.6668C134.719 63.6668 135.259 63.7746 136.208 63.9687C136.661 64.0765 137.221 64.2059 137.868 64.3569C138.515 64.4863 139.249 64.551 140.047 64.702C140.823 64.853 141.686 64.9392 142.613 65.0039C143.519 65.0902 144.468 65.1549 145.46 65.1333C145.956 65.1333 146.452 65.1333 146.948 65.1333C147.444 65.0686 147.962 65.0255 148.458 65.0039C149.493 64.9824 150.507 64.7236 151.52 64.5726C152.534 64.3785 153.548 64.1197 154.518 63.8177C155.489 63.4727 156.459 63.1923 157.344 62.7609C159.134 61.9845 160.751 61.0787 162.024 60.1513C162.692 59.6984 163.21 59.2239 163.706 58.8141C164.116 58.3612 164.612 57.973 164.827 57.6063C165.108 57.2613 165.324 56.9378 165.41 56.6789C165.561 56.4417 165.604 56.3123 165.604 56.3123Z" fill="#55463F"/>
<path d="M99.5862 66.2765C99.5862 66.2765 100.104 66.2118 101.01 66.0824C101.463 66.0608 102.023 65.9746 102.606 65.8236C103.209 65.6942 103.857 65.5863 104.59 65.3275C106.035 64.9178 107.609 64.2276 109.227 63.3433C110.025 62.8904 110.823 62.3728 111.621 61.8121C112.419 61.2513 113.195 60.6474 113.907 59.9788C114.662 59.3534 115.352 58.6417 116.02 57.9515C116.646 57.2182 117.336 56.5281 117.875 55.7732C119.04 54.3282 119.967 52.84 120.679 51.5244C121.003 50.8559 121.369 50.252 121.585 49.6697C121.801 49.0873 122.081 48.6129 122.21 48.1815C122.512 47.3188 122.685 46.8228 122.685 46.8228C122.685 46.8228 122.706 47.3404 122.685 48.2678C122.706 48.7423 122.577 49.2814 122.491 49.9285C122.426 50.5755 122.189 51.2656 121.973 52.0421C121.499 53.5733 120.722 55.2987 119.622 56.981C119.083 57.8437 118.458 58.6848 117.767 59.4828C117.056 60.2592 116.322 61.0788 115.503 61.7689C114.683 62.4806 113.821 63.1277 112.936 63.71C112.052 64.3139 111.103 64.7668 110.197 65.2197C109.248 65.6079 108.343 65.9961 107.437 66.1902C106.552 66.4706 105.668 66.5784 104.87 66.6647C104.072 66.7941 103.317 66.751 102.67 66.7294C102.002 66.751 101.463 66.6647 101.01 66.5569C100.104 66.3843 99.5862 66.2765 99.5862 66.2765Z" fill="#55463F"/>
<path d="M126.481 60.9493C126.481 60.9493 126.545 61.2297 126.438 61.7689C126.351 62.2865 126.136 63.0198 125.747 63.8394C125.381 64.6589 124.798 65.5432 124.065 66.4059C123.677 66.8156 123.289 67.2686 122.814 67.6352C122.34 68.0018 121.887 68.3901 121.348 68.7136C120.83 69.0586 120.291 69.3175 119.752 69.5763C119.234 69.8782 118.63 69.986 118.113 70.1801C117.573 70.3743 117.013 70.4174 116.517 70.5037C116.021 70.6115 115.525 70.6115 115.072 70.6115C114.187 70.6546 113.432 70.5037 112.936 70.4174C112.419 70.3096 112.138 70.2233 112.138 70.2233C112.138 70.2233 112.419 70.0939 112.893 69.9213C113.368 69.7488 114.058 69.5547 114.813 69.2527C115.201 69.1018 115.611 68.9724 116.042 68.7783C116.473 68.5842 116.926 68.4332 117.358 68.196C118.242 67.743 119.191 67.3117 120.054 66.7078C120.959 66.1902 121.757 65.5216 122.555 64.9177C123.31 64.2707 124 63.6452 124.604 63.0629C125.791 61.8767 126.524 60.9925 126.481 60.9493Z" fill="#55463F"/>
<path d="M44.7188 66.3628C44.7188 66.3628 45.2795 66.1255 46.25 65.7804C47.2421 65.4785 48.6224 64.8746 50.2616 64.2923C51.9007 63.6668 53.7986 62.912 55.8259 62.0709C57.8101 61.165 59.9453 60.2808 61.9295 59.1161C65.9841 56.981 69.6506 54.1772 71.8936 51.5891C72.4543 50.9421 72.9288 50.3167 73.3817 49.7559C73.7699 49.1736 74.1366 48.656 74.3738 48.2246C74.8483 47.3188 75.1718 46.8012 75.1718 46.8012C75.1718 46.8012 75.064 47.3835 74.8052 48.4187C74.4817 49.4108 73.9856 50.8774 72.9935 52.4303C72.519 53.2067 71.9367 54.0262 71.2466 54.8242C70.578 55.6438 69.8016 56.4202 68.9389 57.1751C68.0762 57.9299 67.1703 58.6848 66.1567 59.3534C65.1646 60.022 64.1294 60.669 63.0725 61.2513C58.8022 63.559 54.1652 64.9609 50.6498 65.6295C47.0912 66.2765 44.7188 66.3628 44.7188 66.3628Z" fill="#55463F"/>
<path d="M85.0067 46.8228C85.0067 46.8228 85.1361 48.5697 84.2519 51.0068C83.8205 52.2146 83.1735 53.6165 82.2245 54.9321C81.3403 56.3124 80.1109 57.5633 78.86 58.7279C77.5229 59.8279 76.0994 60.7984 74.6544 61.5532C73.2094 62.265 71.8291 62.8257 70.5782 63.1492C69.3704 63.559 68.292 63.6453 67.5803 63.7747C66.847 63.8825 66.4373 63.9041 66.4373 63.9041C66.4373 63.9041 66.8039 63.6884 67.4509 63.3218C68.0548 62.9336 69.0038 62.5238 70.039 61.8768C70.5566 61.5748 71.1389 61.2513 71.7428 60.9062C72.3251 60.518 72.929 60.1082 73.576 59.7416C74.2015 59.3318 74.7838 58.8358 75.4524 58.4044C76.0779 57.9515 76.6602 57.4123 77.2856 56.9378C77.8679 56.3987 78.4718 55.9026 79.011 55.3419C79.5286 54.7595 80.1109 54.2635 80.5639 53.6812C81.556 52.5812 82.3539 51.4382 83.0225 50.4245C84.3166 48.3756 85.0067 46.8228 85.0067 46.8228Z" fill="#55463F"/>
</svg>
