<svg width="170" height="125" viewBox="0 0 170 125" fill="none" xmlns="http://www.w3.org/2000/svg">
<path d="M140.694 81.9682C140.694 81.9682 136.136 96.2867 147.941 104.13C147.941 104.13 145.203 121.348 148.038 124.36C150.889 127.372 157.605 98.1872 156.526 83.595C156.526 83.595 171.022 82.242 169.943 72.24C168.863 62.238 164.032 62.5118 164.032 62.5118C164.032 62.5118 171.006 60.0798 169.669 48.1934C168.332 36.3069 152.226 34.1487 141.483 39.8181C141.483 39.8181 147.12 30.3637 139.872 29.0108C132.624 27.6579 130.74 35.2278 130.74 35.2278C130.74 35.2278 119.466 8.47528 106.049 11.7288C92.6325 14.9822 97.4644 21.4569 97.4644 21.4569C97.4644 21.4569 69.0207 -7.74374 48.8878 1.98445C32.7171 9.796 39.7556 20.3617 39.7556 20.3617C39.7556 20.3617 22.3125 12.518 11.8434 26.0311C1.37432 39.5443 11.5696 47.3719 11.5696 47.3719C11.5696 47.3719 0.295199 50.3516 0.021392 61.4166C-0.252415 72.4977 10.2167 78.1671 10.2167 78.1671C10.2167 78.1671 7.80072 108.705 18.8013 121.67C18.8013 121.67 23.3594 112.747 19.0751 103.035C19.0751 103.035 30.0757 88.4429 22.8279 79.2624C22.8279 79.2624 39.7395 78.1832 47.5188 69.0027C47.5188 69.0027 70.3414 80.3576 92.0849 62.2541C92.0849 62.2541 99.8642 79.5523 121.881 66.5706C121.898 66.5545 124.587 79.2624 140.694 81.9682Z" fill="#DB7F1E"/>
<path d="M140.694 81.9682C140.694 81.9682 136.136 96.2867 147.941 104.13C147.941 104.13 145.203 121.348 148.038 124.36C150.889 127.372 157.605 98.1872 156.526 83.595C156.526 83.595 171.022 82.242 169.943 72.24C168.863 62.238 164.032 62.5118 164.032 62.5118C164.032 62.5118 171.006 60.0798 169.669 48.1934C168.332 36.3069 152.226 34.1487 141.483 39.8181C141.483 39.8181 147.12 30.3637 139.872 29.0108C132.624 27.6579 130.74 35.2278 130.74 35.2278C130.74 35.2278 119.466 8.47528 106.049 11.7288C92.6325 14.9822 97.4644 21.4569 97.4644 21.4569C97.4644 21.4569 69.0207 -7.74374 48.8878 1.98445C32.7171 9.796 39.7556 20.3617 39.7556 20.3617C39.7556 20.3617 22.3125 12.518 11.8434 26.0311C1.37432 39.5443 11.5696 47.3719 11.5696 47.3719C11.5696 47.3719 0.295199 50.3516 0.021392 61.4166C-0.252415 72.4977 10.2167 78.1671 10.2167 78.1671C10.2167 78.1671 7.80072 108.705 18.8013 121.67C18.8013 121.67 23.3594 112.747 19.0751 103.035C19.0751 103.035 30.0757 88.4429 22.8279 79.2624C22.8279 79.2624 39.7395 78.1832 47.5188 69.0027C47.5188 69.0027 70.3414 80.3576 92.0849 62.2541C92.0849 62.2541 99.8642 79.5523 121.881 66.5706C121.898 66.5545 124.587 79.2624 140.694 81.9682Z" fill="#DB7F1E"/>
<path opacity="0.45" d="M18.8175 121.686C7.81689 108.721 10.2328 78.1833 10.2328 78.1833C10.2328 78.1833 14.4849 81.7267 22.9729 79.4396C29.963 88.6362 19.0913 103.051 19.0913 103.051C23.3756 112.763 18.8175 121.686 18.8175 121.686ZM156.526 83.5789C146.186 85.2539 140.694 81.9521 140.694 81.9521C140.694 81.9521 136.136 96.2706 147.941 104.114C147.941 104.114 145.203 121.332 148.038 124.344C150.889 127.356 157.605 98.1712 156.526 83.5789Z" fill="#DB7F1E"/>
<path opacity="0.45" d="M20.7985 114.165C20.3637 114.197 19.9288 114.245 19.4778 114.31C13.8406 115.115 12.4233 85.1251 18.6725 84.513C22.1998 84.1748 23.8587 88.0886 24.6479 91.5515C25.6949 87.5088 25.711 83.0635 22.9568 79.4234C14.4688 81.7266 10.2167 78.1672 10.2167 78.1672C10.2167 78.1672 7.80078 108.705 18.8014 121.67C18.8175 121.686 20.3637 118.626 20.7985 114.165Z" fill="#DB7F1E"/>
<path opacity="0.45" d="M156.526 83.5788C146.186 85.2539 140.694 81.9521 140.694 81.9521C140.694 81.9521 138.31 89.4576 141.467 96.5605C141.918 92.4212 143.593 83.8043 149.359 88.3302C156.816 94.1768 151.984 115.711 149.761 115.308C147.539 114.906 150.567 101.425 150.567 101.425C150.567 101.425 149.246 102.004 147.78 103.985C147.845 104.034 147.893 104.066 147.958 104.114C147.958 104.114 145.219 121.332 148.054 124.344C150.889 127.356 157.605 98.1711 156.526 83.5788Z" fill="#DB7F1E"/>
<path opacity="0.45" d="M98.9944 57.9215C99.0749 58.0182 97.6737 59.4194 95.3382 61.2233C93.0028 63.0433 89.6527 65.1694 86.0771 66.925C82.5176 68.6805 78.7488 70.0013 75.8658 70.7905C72.9827 71.5797 71.0178 71.9179 71.0178 71.9179C71.0178 71.9179 69.0528 72.2561 66.0731 72.4816C63.0935 72.691 59.0669 72.7071 55.1209 71.8857C53.1559 71.4991 51.2232 70.871 49.5159 70.114C47.8247 69.3409 46.198 68.4873 45.2155 67.1988C44.2008 65.9264 44.1525 64.4285 44.4746 63.591C44.7967 62.7051 45.3121 62.4474 45.3283 62.4957C45.3927 62.5602 45.0061 62.9145 44.8612 63.7037C44.7001 64.4768 44.8773 65.717 45.8114 66.6995C46.7295 67.7142 48.2596 68.4228 49.9508 69.0671C51.6258 69.7113 53.4941 70.1945 55.3786 70.4844C59.1635 71.0965 63.0452 70.9354 65.9121 70.6294C68.7951 70.3073 70.6795 69.9368 70.6795 69.9368C70.6795 69.9368 72.5962 69.663 75.3987 69.0027C78.2173 68.3423 81.9217 67.1827 85.4812 65.6365C89.0407 64.0902 92.4391 62.1736 94.8873 60.5952C97.3354 58.9846 98.8977 57.7927 98.9944 57.9215ZM73.6753 49.9973C71.3399 50.0939 68.1186 49.9006 65.3806 48.4511C64.0115 47.7424 62.8197 46.7599 61.9821 45.6002C61.1446 44.4728 60.7259 43.1682 60.6131 42.0247C60.5004 40.8811 60.6936 39.8986 60.9191 39.2222C61.0963 38.8517 61.2574 38.5135 61.4023 38.1914C61.6117 37.837 61.805 37.531 61.9821 37.2572C62.3043 36.7418 62.5459 36.3713 62.6586 36.162C60.9674 36.3552 59.8883 36.5163 59.5501 36.5002C59.1313 36.5163 59.083 36.5163 59.083 36.5163C59.0025 36.5163 58.6642 36.5163 57.9395 36.4358C57.2469 36.3391 56.2483 36.1298 55.1531 35.5821C54.0579 35.0506 52.8821 34.2131 51.964 32.9729C51.046 31.7488 50.3856 30.1704 50.1923 28.5276C49.983 26.8686 50.2246 25.1775 50.9655 23.8084C51.6741 22.4072 52.7694 21.3281 53.8485 20.6838C56.0711 19.3148 57.9717 19.9913 57.9717 19.798C57.9878 19.7658 57.5851 19.492 56.7798 19.3953C55.9906 19.2826 54.7504 19.347 53.478 20.0074C52.2056 20.6194 50.901 21.7307 49.983 23.2769C49.0327 24.807 48.63 26.7881 48.775 28.6887C48.9038 30.6053 49.5803 32.4736 50.6111 33.9715C51.6419 35.4855 53.0271 36.5807 54.3156 37.2572C56.9248 38.6262 59.0669 38.4974 58.9542 38.5457C58.9058 38.5457 59.1152 38.5457 59.083 38.5457C59.083 38.5618 59.1313 38.4813 59.0991 38.6262C58.8092 39.5604 58.632 40.8328 58.8414 42.2662C59.0508 43.6836 59.6467 45.262 60.7259 46.5988C61.7889 47.9357 63.2384 48.9987 64.8007 49.6912C67.9576 51.1408 71.3882 51.0764 73.7558 50.7543C76.1557 50.416 77.6697 49.9328 77.6374 49.8201C77.5891 49.659 76.0268 49.9006 73.6753 49.9973ZM156.397 55.4412C156.317 55.3445 156.977 54.9258 157.09 53.8789C157.138 53.3796 157.074 52.7675 156.784 52.2038C156.51 51.6562 155.962 51.173 155.318 50.8509C154.013 50.1905 152.306 50.11 150.905 50.3194C150.551 50.3677 150.212 50.4482 149.906 50.5288L149.665 50.5932C149.504 50.6254 149.359 50.6898 149.198 50.7381C148.892 50.8348 148.586 50.9475 148.28 51.1086C147.007 51.7367 145.558 52.5259 144.72 52.9769C145.574 51.4951 146.524 49.965 147.023 48.9503C147.136 48.6926 147.249 48.4511 147.329 48.2095C147.378 48.0323 147.41 47.984 147.426 47.8873C147.474 47.7102 147.506 47.5652 147.523 47.4364C147.587 46.9371 147.539 46.776 147.539 46.776C147.49 46.7921 147.668 45.8741 146.46 45.1332C145.88 44.7627 145.026 44.5694 144.011 44.6339C142.997 44.6983 141.837 44.956 140.726 45.262C138.487 45.8741 136.361 46.921 134.863 47.839C133.349 48.7571 132.415 49.5141 132.318 49.4013C132.222 49.3047 132.995 48.3544 134.412 47.1948C135.829 46.0351 137.955 44.7305 140.291 43.893C141.467 43.4742 142.626 43.1199 143.866 42.9588C145.074 42.7978 146.395 42.9588 147.378 43.4903C148.376 43.9896 149.037 44.8432 149.278 45.5197C149.536 46.1801 149.552 46.5827 149.552 46.5827C149.552 46.5827 149.616 46.921 149.488 47.7424C149.455 47.9357 149.407 48.1772 149.326 48.4188C149.294 48.5316 149.23 48.7088 149.214 48.7732L149.198 48.7893C149.182 48.8215 149.149 48.8537 149.117 48.902C149.101 48.9181 149.117 48.9342 149.182 48.9342H149.246H149.278L149.552 48.8859C149.939 48.8215 150.341 48.7571 150.76 48.7249C152.419 48.6121 154.352 48.8376 155.93 49.8362C156.703 50.3355 157.331 51.0281 157.637 51.8334C157.927 52.6226 157.895 53.3957 157.718 53.9916C157.315 55.2801 156.397 55.5378 156.397 55.4412ZM130.885 77.8611C130.965 77.7484 132.077 78.4409 133.72 79.4717C135.362 80.4864 137.569 81.8394 139.92 82.7091C142.272 83.611 144.736 83.901 146.524 83.6594C148.312 83.4339 149.423 82.9346 149.423 82.9346C149.423 82.9346 149.713 82.838 150.196 82.6447C150.679 82.4353 151.356 82.1293 152.065 81.63C152.773 81.1307 153.53 80.4059 154.094 79.504C154.642 78.602 154.931 77.4907 154.706 76.4115C154.48 75.3324 153.772 74.3177 152.967 73.4802C152.161 72.6266 151.291 71.8857 150.583 71.2092C149.149 69.8724 148.231 68.9543 148.328 68.8416C148.408 68.7289 149.504 69.4536 151.082 70.5972C151.871 71.177 152.805 71.8213 153.756 72.6588C154.69 73.4963 155.672 74.5915 156.091 76.0411C156.526 77.4907 156.204 79.1013 155.56 80.2932C154.915 81.5011 154.03 82.4192 153.192 83.0795C152.354 83.756 151.549 84.1587 151.002 84.4164C150.454 84.6741 150.116 84.8029 150.116 84.8029C150.116 84.8029 149.794 84.9318 149.198 85.0767C148.602 85.2378 147.748 85.415 146.701 85.4794C144.607 85.6404 141.821 85.1411 139.389 83.9815C136.941 82.8702 134.799 81.2918 133.269 80.0677C131.738 78.8758 130.804 77.9578 130.885 77.8611ZM169.604 70.1784C169.33 70.259 168.396 68.149 166.898 66.4901C165.417 64.7989 163.564 63.6232 163.564 63.6232C163.564 63.6232 161.873 62.2219 159.812 61.3361C157.766 60.418 155.463 60.1764 155.463 59.8865C155.431 59.6127 157.879 59.3228 160.279 59.9832C162.679 60.5791 164.772 61.9964 164.772 61.9964C164.772 61.9964 166.753 63.5587 168.058 65.6526C169.395 67.7142 169.878 70.114 169.604 70.1784ZM141.821 39.496C141.676 39.4476 141.869 38.4974 142.111 37.1122C142.336 35.7432 142.514 33.8266 141.869 32.2481C141.257 30.6053 139.888 29.5584 138.777 29.5101C138.213 29.4456 137.73 29.5262 137.392 29.6067C137.054 29.6872 136.876 29.7678 136.876 29.7678C136.876 29.7678 136.103 29.9288 135.04 30.6697C133.993 31.3945 132.689 32.7635 131.642 34.2614C130.579 35.7593 129.886 37.4666 129.693 38.8195C129.484 40.1724 129.693 41.1227 129.532 41.1549C129.419 41.2032 128.936 40.2852 128.904 38.7551C128.855 37.2411 129.435 35.2278 130.434 33.5044C131.432 31.7649 132.673 30.2026 133.913 29.1879C134.525 28.6887 135.121 28.3343 135.556 28.1249C135.99 27.9155 136.264 27.835 136.264 27.835C136.264 27.835 136.538 27.7545 137.021 27.6579C137.504 27.5773 138.229 27.5129 139.083 27.674C139.937 27.835 140.919 28.3021 141.66 29.0591C142.417 29.8161 142.948 30.7825 143.238 31.7972C143.834 33.891 143.351 35.9365 142.884 37.3055C142.401 38.6907 141.95 39.5443 141.821 39.496ZM120.528 17.3015C120.384 17.3982 119.627 16.0452 117.79 14.8534C115.97 13.6615 113.12 12.6951 110.204 12.6146C107.305 12.228 104.471 13.0333 102.57 13.9353C101.604 14.3863 100.863 14.8695 100.363 15.2238C99.8641 15.5781 99.6064 15.8036 99.6064 15.8036C99.6064 15.8036 99.3165 15.9969 98.8816 16.3996C98.4468 16.8022 97.8508 17.3982 97.4321 18.2518C96.514 19.8946 96.9489 22.9226 97.8508 25.6768C98.7528 28.4471 100.283 31.008 101.668 32.7474C103.053 34.4869 104.181 35.4855 104.084 35.5982C104.02 35.6949 102.699 34.9057 101.072 33.2628C99.4454 31.6361 97.6414 29.0752 96.4979 26.16C95.9342 24.7104 95.4993 23.2286 95.2738 21.7307C95.0483 20.249 95.1772 18.6867 95.7248 17.4787C96.2563 16.2707 96.9811 15.4815 97.4965 14.9661C98.0119 14.4507 98.334 14.2091 98.334 14.2091C98.334 14.2091 99.5903 13.1622 101.797 12.228C103.971 11.31 107.225 10.5852 110.333 11.1972C113.442 11.471 116.421 12.7273 118.241 14.2091C120.094 15.7231 120.625 17.2693 120.528 17.3015ZM31.9762 77.99C32.0084 78.1188 30.1884 78.8436 27.3214 79.4395C24.4706 80.0032 20.589 80.5509 16.6269 80.0516C12.6486 79.5845 8.91196 77.539 6.60876 75.3969C5.433 74.3338 4.57937 73.303 4.03176 72.5299C3.48414 71.7568 3.21034 71.2898 3.21034 71.2898C3.21034 71.2898 2.92042 70.8227 2.51777 69.9529C2.11511 69.0832 1.59971 67.7786 1.24537 66.1519C0.488375 62.9467 0.5528 58.2115 2.5983 54.2976C4.59548 50.3355 8.36435 47.984 11.2635 47.4041C12.7291 47.0659 13.9854 47.1142 14.823 47.2592C15.6766 47.388 16.1276 47.5974 16.1115 47.6618C16.0954 47.8712 14.1465 47.3719 11.4406 48.2417C8.767 49.047 5.44911 51.4468 3.85459 55.0385C2.17953 58.6141 2.27617 62.834 3.04927 65.6526C3.40361 67.086 3.90291 68.1973 4.27335 68.9543C4.6438 69.7113 4.9176 70.114 4.9176 70.114C4.9176 70.114 5.78734 71.8696 7.83284 73.8668C9.84612 75.8639 13.164 77.8933 16.8524 78.5215C20.5246 79.1818 24.3901 78.908 27.2248 78.602C30.0595 78.2638 31.9439 77.8289 31.9762 77.99ZM11.795 42.991C11.6983 43.0555 10.7803 42.0246 9.70117 40.2046C8.65426 38.4329 7.46239 35.6466 7.78452 32.6669C8.05833 29.6872 9.68506 27.0619 11.1346 25.4674C11.8594 24.646 12.552 24.05 13.0513 23.6474C13.5506 23.2447 13.8566 23.0353 13.8566 23.0353C13.8566 23.0353 15.0646 22.1817 17.0456 21.3603C19.0267 20.5067 21.797 19.798 24.5834 19.5081C27.3698 19.2182 30.1884 19.2182 32.2661 19.653C34.3599 20.0557 35.584 20.8127 35.5195 20.9093C35.4551 21.0543 34.1666 20.5711 32.1533 20.4261C30.1561 20.249 27.4342 20.4583 24.7766 20.9254C22.1191 21.3764 19.5582 22.1978 17.7865 23.0515C15.9987 23.9051 14.984 24.6943 14.984 24.6943C14.984 24.6943 14.7102 24.8554 14.2592 25.1936C13.8083 25.5157 13.1801 26.0311 12.4876 26.7237C11.1346 28.0766 9.60453 30.2832 9.18577 32.828C8.71868 35.3566 9.57232 37.9981 10.3776 39.8342C11.2152 41.7025 11.9238 42.8944 11.795 42.991ZM42.3003 48.2095C42.3808 48.3061 41.656 49.0309 40.2065 49.4496C38.7891 49.9006 36.6792 49.8684 34.7948 49.1275C32.9103 48.4188 31.2997 47.227 30.2206 46.1479C29.1414 45.0848 28.6099 44.1668 28.6099 44.1668C28.6099 44.1668 28.465 43.9413 28.2878 43.5386C28.0945 43.136 27.8368 42.5078 27.6597 41.7347C27.4986 40.9616 27.4181 39.9792 27.6436 38.9806C27.8529 37.982 28.3683 36.9995 29.0287 36.2103C30.3816 34.6319 32.105 33.7138 33.3452 33.0373C33.9894 32.683 34.682 32.5058 35.1652 32.6347C35.6645 32.7958 35.7289 33.1179 35.6806 33.1501C35.6323 33.2145 35.439 33.0212 35.1169 33.0373C34.7786 33.0535 34.2955 33.2789 33.7801 33.6977C32.6848 34.5513 31.1547 35.6627 30.1722 37.0639C29.1575 38.4652 29.0931 40.1241 29.4797 41.2677C29.6568 41.8475 29.8823 42.3146 30.0595 42.6367C30.2367 42.9588 30.3494 43.136 30.3494 43.136C30.3494 43.136 30.7199 43.893 31.5735 44.8755C32.411 45.8418 33.7962 47.0498 35.3585 47.8229C36.9208 48.6282 38.7086 48.8698 40.0454 48.6926C41.3822 48.5316 42.2197 48.0806 42.3003 48.2095ZM123.589 65.572C123.766 65.7814 120.255 68.745 115.89 70.3234C113.748 71.1287 111.461 71.628 109.721 71.7729C107.982 71.9501 106.806 71.8857 106.806 71.8857C106.806 71.8857 105.63 71.8213 103.907 71.4347C102.2 71.0643 99.9769 70.2589 97.9958 69.051C95.9986 67.843 94.2913 66.2485 93.2766 64.8633C92.2297 63.4943 91.811 62.4152 91.9237 62.3669C92.0526 62.2863 92.7129 63.2044 93.8726 64.3479C95.0161 65.5237 96.7717 66.8444 98.7045 67.7947C100.637 68.7611 102.715 69.357 104.293 69.5986C105.872 69.8563 106.935 69.8724 106.935 69.8724C106.935 69.8724 107.998 69.9851 109.608 69.9207C111.219 69.8724 113.361 69.5664 115.455 68.9705C119.675 67.8108 123.428 65.3304 123.589 65.572ZM110.736 56.5525C110.736 56.633 110.172 56.6653 109.512 56.1337C108.868 55.6183 108.223 54.5231 108.352 53.1863C108.417 51.8012 109.657 50.5449 110.929 50.1905C111.493 49.965 112.475 49.965 112.346 49.9489C112.427 49.9328 112.443 49.9328 112.443 49.9167C112.427 49.8845 112.346 49.7879 112.33 49.7718C112.314 49.7396 112.33 49.804 112.298 49.7073C112.266 49.5624 112.234 49.4335 112.202 49.3047C112.153 49.047 112.121 48.8215 112.105 48.6121C112.057 47.8068 112.121 47.4364 112.121 47.4364C112.121 47.4364 112.153 47.1626 112.298 46.6794C112.459 46.2123 112.733 45.5197 113.409 44.8755C114.762 43.5225 117.356 43.4259 119.111 44.6017C120.867 45.7452 121.865 47.4364 122.445 48.6926C123.057 49.9489 123.411 50.8026 123.283 50.867C123.154 50.9314 122.574 50.2066 121.769 49.1114C121.012 48.0162 119.82 46.5666 118.386 45.8418C116.985 45.0848 115.262 45.4553 114.714 46.1801C114.102 46.9049 114.118 47.7424 114.102 47.7102C114.102 47.7102 114.038 47.9357 114.038 48.4833C114.038 48.6121 114.054 48.7732 114.07 48.9503C114.086 49.0309 114.102 49.1275 114.118 49.2242C114.134 49.3691 114.263 49.6751 114.344 49.9006C114.537 50.3838 115.085 51.0764 115.664 51.9139C116.164 52.6226 116.711 53.3957 117.291 54.2332C116.131 53.5567 114.07 52.2682 113.039 51.7851C112.475 51.5112 112.04 51.5596 111.896 51.5274C111.686 51.5274 111.461 51.5435 111.251 51.5918C110.365 51.7528 109.528 52.3971 109.351 53.299C109.125 54.201 109.447 55.1513 109.85 55.6667C110.317 56.2787 110.768 56.4398 110.736 56.5525ZM142.079 64.1708C141.95 64.1064 142.063 63.6554 141.869 63.0917C141.692 62.5279 141.225 61.8515 140.597 61.32C139.324 60.1925 137.714 59.7093 137.714 59.7093C137.714 59.7093 136.232 58.9362 134.509 58.7591C132.801 58.5175 131.046 59.0007 130.917 58.7591C130.772 58.5175 132.479 57.4545 134.509 57.3417C135.507 57.2451 136.506 57.3578 137.263 57.5028C138.004 57.6638 138.487 57.841 138.487 57.841C138.487 57.841 138.954 58.0504 139.598 58.4692C140.243 58.8879 141.016 59.5483 141.644 60.3536C142.288 61.175 142.691 62.1897 142.642 63.0111C142.61 63.8487 142.175 64.2352 142.079 64.1708Z" fill="#DB7F1E"/>
<g opacity="0.45">
<g opacity="0.45">
<path opacity="0.45" d="M14.5009 105.161C14.2915 104.952 16.788 102.359 18.8657 99.508C19.8965 98.0906 20.8145 96.6088 21.3944 95.4492C21.9903 94.2895 22.2963 93.5003 22.2963 93.5003C22.2963 93.5003 22.6829 92.7433 23.1016 91.5354C23.5365 90.3274 23.9391 88.6684 24.068 86.9451C24.1807 85.2378 23.9875 83.4983 23.6653 82.242C23.3432 80.9696 22.9728 80.1482 23.1177 80.0677C23.2144 80.0033 23.8264 80.7119 24.4062 81.9682C25.0022 83.2245 25.437 85.0767 25.5015 86.9612C25.5659 88.8456 25.2599 90.7139 24.8894 92.0669C24.519 93.4359 24.1485 94.3056 24.1485 94.3056C24.1485 94.3056 23.762 95.1593 23.0211 96.3511C22.2963 97.543 21.2011 99.0409 19.977 100.394C17.5288 103.132 14.678 105.338 14.5009 105.161Z" fill="#DB7F1E"/>
</g>
<g opacity="0.45">
<path opacity="0.45" d="M152.419 105.838C152.403 105.95 151.517 105.95 150.261 105.516C149.004 105.097 147.458 104.179 146.17 102.987C144.865 101.795 143.786 100.394 143.061 99.2986C142.336 98.2033 141.95 97.4141 141.95 97.4141C141.95 97.4141 141.579 96.6249 141.128 95.4008C140.677 94.1768 140.194 92.4695 140.017 90.7139C139.582 87.1866 140.645 83.8043 140.919 83.901C141.177 83.9493 140.677 87.2994 141.434 90.4884C141.757 92.083 142.352 93.5808 142.852 94.6922C143.351 95.8035 143.754 96.5122 143.754 96.5122C143.754 96.5122 145.01 99.5563 147.168 101.972C148.231 103.196 149.504 104.195 150.583 104.791C151.646 105.403 152.451 105.677 152.419 105.838Z" fill="#DB7F1E"/>
</g>
</g>
<path opacity="0.45" d="M10.2328 78.1833C10.2328 78.1833 10.2328 78.1993 10.2328 78.2473C10.2168 78.2153 10.2328 78.1833 10.2328 78.1833Z" fill="#DB7F1E"/>
<path opacity="0.45" d="M10.2006 78.6503C10.2006 78.6824 10.2006 78.7304 10.2006 78.7624C10.1846 78.7304 10.2006 78.6824 10.2006 78.6503Z" fill="#DB7F1E"/>
<path opacity="0.45" d="M23.1017 79.6168C23.4399 80.0678 23.7298 80.5348 23.9714 81.018C23.7137 80.5509 23.4238 80.0839 23.1017 79.6168Z" fill="#DB7F1E"/>
<path opacity="0.45" d="M169.943 72.24C168.863 62.238 164.032 62.5118 164.032 62.5118C164.032 62.5118 171.006 60.0798 169.669 48.1934C169.476 46.4861 168.96 45.0043 168.219 43.6997C168.187 55.1191 156.333 59.7255 155.447 59.8865C154.368 60.0798 167.253 65.8619 164.837 71.7729C162.437 77.6678 148.199 67.4726 148.199 67.4726C148.199 67.4726 155.721 74.1889 148.199 76.6048C140.677 79.0208 127.792 65.3304 129.951 61.3039C132.093 57.2773 141.644 60.3536 141.644 60.3536C141.644 60.3536 132.898 55.1191 133.703 52.7031C134.509 50.2872 146.46 45.1171 146.46 45.1171C143.641 42.6367 132.302 49.4013 132.302 49.4013L139.872 42.234C139.872 42.234 135.846 43.3132 132.624 39.8181C131.159 38.2236 133.494 33.6011 136.474 29.043C132.012 30.1221 130.74 35.2117 130.74 35.2117C130.74 35.2117 128.018 28.7531 123.653 22.5844L125.908 40.3657L119.997 35.5338L125.36 47.3397C118.113 38.7551 114.618 45.1976 114.618 45.1976C116.76 42.7816 122.944 48.145 124.813 52.4454C126.697 56.7458 120.512 66.9411 107.627 62.383C94.7424 57.8249 104.938 47.082 104.938 47.082C104.938 47.082 93.1318 55.6667 68.167 57.8249C43.2023 59.967 46.9551 51.6562 46.9551 51.6562C46.9551 51.6562 19.8965 66.6673 14.517 56.7297C9.15364 46.7921 24.7123 47.8712 24.7123 47.8712C13.3252 35.0667 14.7425 26.0472 17.6255 20.8771C15.5639 22.0851 13.599 23.744 11.8273 26.0311C1.35821 39.5443 11.5535 47.3719 11.5535 47.3719C11.5535 47.3719 0.279085 50.3516 0.00527869 61.4166C-0.268528 72.4977 10.2006 78.1671 10.2006 78.1671C10.2006 78.1671 14.4526 81.7105 22.9406 79.4234C22.8923 79.3751 22.8601 79.3107 22.8279 79.2624C22.8279 79.2624 39.7395 78.1832 47.5188 69.0027C47.5188 69.0027 70.3414 80.3576 92.0849 62.2541C92.0849 62.2541 99.8642 79.5523 121.881 66.5706C121.881 66.5706 124.571 79.2624 140.677 81.9682C140.677 81.9682 146.186 85.27 156.51 83.595C156.526 83.5789 171.022 82.2259 169.943 72.24Z" fill="#86511A"/>
<g opacity="0.45">
<path opacity="0.45" d="M49.0167 18.7833C49.9992 17.6236 50.6112 16.319 51.9802 15.5781C53.7036 14.644 55.6686 14.4346 57.6013 14.4507C60.9675 14.4507 64.5109 14.2252 67.5389 12.5985C68.8435 11.9059 69.0207 10.3114 68.457 9.08729C65.8639 3.51452 56.9732 4.30373 52.1896 5.88214C47.2772 7.49277 42.4775 12.9689 44.8774 18.2679C45.5377 19.7335 47.9859 19.9912 49.0167 18.7833Z" fill="#DB7F1E"/>
</g>
<g opacity="0.45">
<path opacity="0.45" d="M71.791 14.4346C72.0165 15.0788 72.2581 15.562 72.854 15.9163C73.4016 16.2385 74.0459 16.3351 74.674 16.464C75.5116 16.6572 76.1397 16.3029 76.639 15.6586C76.8323 15.4009 76.8645 15.0949 76.8806 14.7889C76.8967 14.2252 76.5585 13.5326 76.027 13.291C74.7707 12.7273 73.6755 12.1153 72.3869 12.9689C71.936 13.2749 71.5977 13.887 71.791 14.4346Z" fill="#DB7F1E"/>
</g>
<g opacity="0.45">
<path opacity="0.45" d="M107.434 27.7868C107.338 26.466 107.144 24.9359 107.305 23.6152C107.386 23.0032 107.644 22.5039 107.837 21.9241C108.175 20.9094 108.095 20.0718 107.885 19.0249C107.611 17.5915 105.936 16.8667 104.632 17.1727C99.4938 18.4129 99.8481 26.6432 103.134 29.5584C104.648 30.8792 107.611 30.0899 107.434 27.7868Z" fill="#DB7F1E"/>
</g>
<g opacity="0.45">
<path opacity="0.45" d="M110.816 20.0557C111.283 19.9591 111.734 19.9107 112.121 19.6047C112.652 19.2021 112.652 18.5739 112.121 18.1713C111.734 17.8814 111.283 17.833 110.816 17.7203C108.867 17.3015 108.851 20.4745 110.816 20.0557Z" fill="#DB7F1E"/>
</g>
<g opacity="0.45">
<path opacity="0.45" d="M151.243 45.1331C152.838 45.0043 154.69 44.9882 156.252 45.3425C157.815 45.6968 159.2 46.6793 160.843 46.1961C161.712 45.9384 162.115 45.1009 161.954 44.2473C161.535 41.9924 158.813 41.2515 156.864 40.9294C154.481 40.5428 152.532 40.8488 150.406 41.9924C148.972 42.7655 149.568 45.262 151.243 45.1331Z" fill="#DB7F1E"/>
</g>
<g opacity="0.45">
<path opacity="0.45" d="M155.125 63.0756C155.64 64.0903 156.864 64.2352 157.444 65.1372C157.782 65.6526 157.831 66.329 158.121 66.8767C158.394 67.376 158.781 67.8269 159.071 68.3101C159.78 69.5342 160.005 70.871 161.245 71.7408C162.743 72.7877 164.644 72.3528 165.401 70.6455C166.593 67.988 163.999 64.0903 161.535 62.9951C160.44 62.5119 159.151 62.4958 157.992 62.2058C156.977 61.9481 156.059 61.771 155.189 62.4313C155.012 62.5924 155.028 62.8823 155.125 63.0756Z" fill="#DB7F1E"/>
</g>
<g opacity="0.45">
<path opacity="0.45" d="M159.49 77.5873C159.763 77.6839 159.876 77.845 160.182 77.8611C160.44 77.8611 160.778 77.7323 161.02 77.6678C161.616 77.5068 162.099 77.3779 162.566 76.9592C163.13 76.4438 162.662 75.5901 161.986 75.5418C161.374 75.5096 160.875 75.7673 160.327 76.025C160.085 76.1377 159.779 76.2183 159.586 76.4277C159.409 76.6048 159.393 76.8464 159.264 77.0558C159.135 77.2652 159.264 77.5068 159.49 77.5873Z" fill="#DB7F1E"/>
</g>
<g opacity="0.45">
<path opacity="0.45" d="M146.508 90.6656C146.234 91.1971 145.799 91.7448 145.638 92.3085C145.429 93.001 145.638 93.8708 145.847 94.5311C146.282 95.9485 146.943 97.1726 148.441 97.5752C149.198 97.7846 149.81 97.092 149.649 96.3673C149.423 95.3365 148.795 94.6117 148.473 93.6292C148.328 93.1943 148.28 92.7272 148.118 92.3085C147.893 91.7448 147.571 91.4226 147.474 90.7945C147.41 90.3435 146.701 90.2791 146.508 90.6656Z" fill="#DB7F1E"/>
</g>
<g opacity="0.45">
<path opacity="0.45" d="M18.7529 85.7371C18.9623 89.0228 18.0281 92.0669 17.2228 95.2076C17.0134 95.9968 18.0281 96.3189 18.463 95.7391C20.6696 92.7594 20.7662 89.1194 20.0897 85.5599C19.9448 84.8029 18.7046 84.964 18.7529 85.7371Z" fill="#DB7F1E"/>
</g>
<g opacity="0.45">
<path opacity="0.45" d="M8.26792 57.1323C6.1741 61.5454 6.97942 65.1532 10.8288 68.3584C15.1614 71.9662 20.0899 72.1273 25.1956 70.42C26.7096 69.9207 26.5485 68.0685 25.1956 67.5048C22.0227 66.1841 18.6726 65.4593 15.5157 64.1708C13.0676 63.1722 9.63695 59.9831 9.2504 57.2612C9.16987 56.8102 8.46119 56.7297 8.26792 57.1323Z" fill="#DB7F1E"/>
</g>
<g opacity="0.45">
<path opacity="0.45" d="M30.3656 68.8416C31.1065 69.4376 31.7185 69.5825 32.6527 69.3409C33.5869 69.0993 34.4083 68.6484 34.6499 67.6498C34.8109 66.9572 34.5371 66.329 33.9573 65.9425C32.5883 65.0405 30.3173 66.1841 30.0757 67.7303C30.0274 68.1007 30.0435 68.5678 30.3656 68.8416Z" fill="#DB7F1E"/>
</g>
<g opacity="0.45">
<path opacity="0.45" d="M15.4835 37.8853C14.9842 36.3069 14.9681 34.664 15.5801 33.1017C16.1117 31.7488 17.1425 30.5892 17.4324 29.1235C17.529 28.6242 17.2069 28.0444 16.6271 28.0766C11.7146 28.3182 11.763 35.6787 13.132 38.8839C13.6957 40.2046 15.9184 39.2543 15.4835 37.8853Z" fill="#DB7F1E"/>
</g>
<g opacity="0.45">
<path opacity="0.45" d="M69.7292 34.5514C66.7979 37.6277 67.4743 41.8636 70.5184 44.6822C73.5625 47.5008 80.3755 49.4175 82.8719 44.795C83.3229 43.9574 83.178 43.0072 82.5498 42.3307C80.7298 40.3335 77.7501 40.3657 75.3986 39.4799C73.8041 38.884 71.8391 36.6935 71.5009 35.0185C71.3398 34.2292 70.2607 34.0038 69.7292 34.5514Z" fill="#DB7F1E"/>
</g>
<g opacity="0.45">
<path opacity="0.45" d="M94.0338 38.6423C93.921 39.947 93.9694 40.8811 94.7908 41.9763C95.435 42.83 96.1276 43.6353 96.949 44.344C98.8173 45.9546 101.668 47.0337 103.762 45.2459C104.277 44.8111 104.406 44.0218 104.245 43.4098C103.794 41.5737 101.878 40.5268 100.315 39.6409C99.6388 39.2544 99.0912 38.8356 98.5113 38.3363C97.6577 37.6115 96.9329 37.5471 95.9504 37.1928C94.9518 36.8223 94.1143 37.7404 94.0338 38.6423Z" fill="#DB7F1E"/>
</g>
<g opacity="0.45">
<path opacity="0.45" d="M66.4115 63.1722C73.5465 65.5076 81.2292 64.1869 87.2691 59.9992C88.7187 59.0007 87.865 56.6652 86.045 57.1001C79.522 58.6624 72.9506 60.2247 66.4115 61.8515C65.735 62.0447 65.7994 62.9789 66.4115 63.1722Z" fill="#DB7F1E"/>
</g>
<g opacity="0.45">
<path opacity="0.45" d="M92.5841 57.5994C93.2928 57.4222 93.8565 56.939 94.5652 56.7458C95.3866 56.5203 95.902 55.6183 95.6765 54.7969C95.4672 54.056 94.5169 53.3634 93.7277 53.6856C92.7935 54.0721 91.505 54.6358 91.0862 55.6183C90.6353 56.6813 91.3762 57.8893 92.5841 57.5994Z" fill="#DB7F1E"/>
</g>
<g opacity="0.45">
<path opacity="0.45" d="M103.037 61.1911C103.295 65.2016 106.967 66.4579 110.543 66.6028C114.456 66.7639 118.145 64.9922 119.514 61.2072C119.916 60.0798 118.853 58.7591 117.694 58.8235C115.278 58.9524 112.958 59.5644 110.543 59.7093C109.399 59.7738 108.272 59.5805 107.128 59.5322C105.678 59.4516 105.066 59.7416 103.762 60.2409C103.375 60.4019 103.021 60.7402 103.037 61.1911Z" fill="#DB7F1E"/>
</g>
<g opacity="0.45">
<path opacity="0.45" d="M136.135 66.1519C137.102 68.4551 140.307 68.8094 142.224 70.114C144.688 71.7891 146.266 74.3822 148.602 76.2183C149.52 76.9431 150.857 76.5082 150.921 75.2519C151.114 71.4186 148.408 68.7128 145.429 66.7317C143.367 65.3627 138.487 62.6246 136.393 65.2016C136.184 65.4432 135.991 65.8136 136.135 66.1519Z" fill="#DB7F1E"/>
</g>
</svg>
