<svg width="171" height="120" viewBox="0 0 171 120" fill="none" xmlns="http://www.w3.org/2000/svg">
<path d="M143.158 78.5242C143.158 78.5242 132.667 86.3725 146.303 100.233C146.303 100.233 141.365 109.148 146.586 119.994C146.586 119.994 156.274 116.196 154.702 103.639C154.702 103.639 167.016 97.36 159.687 79.5759C159.687 79.5759 164.673 79.8427 168.857 70.4248C173.056 61.0069 164.406 52.8918 164.406 52.8918C164.406 52.8918 170.351 43.0186 162.833 33.0043C156.542 24.638 147.105 29.865 147.105 29.865C147.105 29.865 144.746 11.0291 130.591 10.5111C116.436 9.99314 112.504 15.4869 112.504 15.4869C112.504 15.4869 110.649 5.01734 101.731 5.80216C92.8134 6.58699 92.8134 12.5988 92.8134 12.5988C92.8134 12.5988 71.5969 -4.40059 54.0291 1.0932C39.2451 5.72368 42.5007 18.3594 42.5007 18.3594C42.5007 18.3594 21.0011 16.2718 10.2591 28.829C-0.482888 41.3862 9.74007 51.8558 9.74007 51.8558C9.74007 51.8558 -10.7059 62.5765 7.6483 83.5157C7.6483 83.5157 -1.0019 95.8061 13.9394 103.136C13.9394 103.136 16.5344 112.696 21.1426 116.682C21.1426 116.682 24.6971 111.518 22.3379 102.352C22.3379 102.352 29.9344 91.364 24.6971 80.1096C24.6971 80.1096 44.8756 82.982 44.8756 57.0827C44.8756 57.0827 55.0986 62.0585 66.8943 57.0827C78.69 52.1069 78.69 45.3103 78.69 45.3103C78.69 45.3103 80.2628 58.1344 94.685 58.9192C109.107 59.7041 115.131 51.071 115.131 51.071C115.131 51.071 113.039 69.9068 134.004 66.2495C133.973 66.2338 132.148 74.6001 143.158 78.5242Z" fill="#EAA16E"/>
</svg>
