<svg width="170" height="110" viewBox="0 0 170 110" fill="none" xmlns="http://www.w3.org/2000/svg">
<path d="M22.0719 109.231C22.0719 109.231 15.8763 102.692 15.489 98.4615C15.489 98.4615 1.5489 87.3077 4.64671 74.2308L0 75.7692C0 75.7692 2.19945 49.4923 14.2035 39.1077L8.78229 38.8462C8.78229 38.8462 15.1018 29.7385 21.948 28.5846C21.948 28.5846 19.7485 19.6154 21.6847 16.5385C21.6847 16.5385 24.7825 21.1538 28.6547 21.1538C32.527 21.1538 35.2376 5.76923 58.8584 7.69231L56.535 0C56.535 0 63.8923 2.30769 74.7347 1.53846C85.577 0.769231 100.679 -1.53846 118.104 9.61539L118.878 5C118.878 5 129.334 7.69231 134.755 20C134.755 20 145.984 15.3846 159.537 30.3846L156.052 32.3077C156.052 32.3077 170.38 42.6923 169.992 63.4615C169.605 84.2308 163.022 93.4615 163.022 93.4615L160.312 88.8462C160.312 88.8462 151.793 107.308 146.759 110L147.533 102.692L145.597 104.231C145.597 104.231 145.597 84.6154 144.435 82.6923C143.274 80.7692 123.138 65.3846 120.815 48.4615C121.016 49.9077 114.557 53.6462 113.643 54.2C107.664 57.8308 101.314 59.2308 94.5761 60.7846C95.4125 59.8462 96.7446 58.8615 97.4261 57.8615C97.581 57.6308 98.4639 55.6923 98.4174 55.7231C95.1028 57.3846 91.7106 57.9846 88.1637 59.0308C85.0968 59.9538 81.9835 60.7692 78.8083 61.2308C70.6301 62.4 62.2815 61.2462 54.2117 59.8769C49.0073 59 44.0354 56.6462 39.2492 53.6308C38.9085 60.6308 35.8881 67.4615 30.9007 72.4154C31.0401 71.4 30.9161 70.3385 30.5444 69.3846C29.2123 71.5538 27.5705 73.6308 26.0061 75.6308C25.6963 76.0308 21.0496 80.1692 20.9102 79.6154C20.9102 79.6308 25.5569 98.0769 22.0719 109.231Z" fill="#A95913"/>
</svg>
