<svg width="149" height="160" viewBox="0 0 149 160" fill="none" xmlns="http://www.w3.org/2000/svg">
<path d="M62.8242 6.279C62.8242 6.279 62.3504 6.50461 61.6059 6.95585C61.2449 7.22659 60.7936 7.47477 60.3198 7.90344C59.846 8.28699 59.3271 8.76079 58.8082 9.32483C58.2667 9.84376 57.7704 10.5206 57.2289 11.1749C56.7551 11.8969 56.191 12.6189 55.8075 13.4762C55.3337 14.2884 55.0178 15.1909 54.6568 16.0934C54.4312 17.041 54.1154 17.966 54.0928 18.9587C53.9349 19.9289 54.1154 20.899 54.1605 21.8241C54.4538 22.7265 54.5215 23.6741 54.9953 24.4412C55.1983 24.8473 55.3788 25.2309 55.5593 25.637C55.7624 26.0205 56.0557 26.3364 56.2813 26.6748C56.5295 27.0133 56.7551 27.3291 56.9807 27.645C57.2289 27.9383 57.5222 28.209 57.7704 28.4572C58.2893 28.9536 58.718 29.4725 59.1918 29.8335C59.6656 30.1945 60.0717 30.5103 60.4101 30.7585C61.0869 31.2774 61.4705 31.5707 61.4705 31.5707L60.1393 33.3982C60.1393 33.3982 59.7332 33.0373 59.0338 32.4281C58.6954 32.1122 58.2667 31.7512 57.7929 31.3226C57.3191 30.8939 56.8679 30.2847 56.349 29.6981C56.1008 29.3822 55.8075 29.0889 55.5593 28.7505C55.3337 28.3895 55.0855 28.006 54.8599 27.5999C54.6343 27.1938 54.341 26.8102 54.1379 26.3815C53.9574 25.9303 53.7769 25.4565 53.5964 25.0053C53.1452 24.1028 53.1001 22.9973 52.8745 21.982C52.8745 20.9216 52.7616 19.8386 53.0098 18.8008C53.0775 17.7404 53.4836 16.7477 53.7995 15.7775C54.2282 14.8525 54.6343 13.9049 55.1983 13.1152C55.6721 12.2579 56.3038 11.5585 56.8453 10.859C57.4545 10.2273 57.996 9.57301 58.5826 9.07666C59.1466 8.53517 59.7107 8.1065 60.207 7.74551C60.6808 7.36196 61.1998 7.11378 61.5607 6.8656C62.3504 6.45949 62.8242 6.279 62.8242 6.279Z" fill="#CD8C00"/>
<path d="M76.4742 0.931873C76.4742 0.931873 77.0383 1.11237 78.031 1.45079C78.5274 1.60873 79.114 1.87947 79.7908 2.15021C80.4677 2.42095 81.1897 2.82706 81.9793 3.25574C82.7239 3.75209 83.6038 4.22589 84.3934 4.92531C85.2282 5.53447 85.9953 6.36926 86.7399 7.22661C87.0783 7.7004 87.4618 8.15164 87.7551 8.648C88.0259 9.16692 88.3192 9.7084 88.6125 10.2499C89.0412 11.378 89.4473 12.5737 89.5826 13.8146C89.718 14.4238 89.718 15.0555 89.718 15.6647C89.718 16.2739 89.7857 16.9056 89.6729 17.4922C89.5601 18.7105 89.3796 19.8838 89.0411 20.9893C88.793 22.1174 88.4094 23.1552 88.0259 24.1479C87.6874 25.1632 87.2588 26.0431 86.8527 26.8553C86.4466 27.6676 86.1081 28.4572 85.7246 29.089C85.341 29.7207 85.0252 30.2847 84.7544 30.736C84.2129 31.661 83.8971 32.1799 83.8971 32.1799L82.0244 30.9165C82.0244 30.9165 82.3403 30.4427 82.9269 29.5853C83.2202 29.1566 83.5586 28.6377 83.9647 28.0511C84.3709 27.4645 84.7319 26.7425 85.1605 25.998C85.6118 25.2309 86.063 24.4187 86.424 23.4936C86.8301 22.5912 87.2813 21.621 87.5521 20.5832C87.9356 19.5679 88.1387 18.4624 88.3192 17.3568C88.4545 16.7928 88.432 16.2288 88.4545 15.6647C88.4771 15.1007 88.5222 14.5141 88.432 13.95C88.3643 12.7994 88.071 11.6938 87.7326 10.6109C87.507 10.092 87.2588 9.57303 87.0332 9.07667C86.7624 8.58031 86.4465 8.15164 86.1532 7.67784C85.499 6.75281 84.8221 5.94059 84.055 5.28629C83.333 4.56432 82.5208 4.06796 81.7988 3.52648C81.0317 3.07524 80.3549 2.62401 79.7006 2.3307C79.0463 2.0374 78.4822 1.72154 78.0084 1.54104C77.0157 1.15749 76.4742 0.931873 76.4742 0.931873Z" fill="#CD8C00"/>
<path d="M124.982 82.8537C128.298 86.7794 119.702 104.152 129.133 124.548C134.909 137.047 125.523 139.687 131.728 159.338C131.728 159.338 142.242 142.823 145.964 123.036C153.59 82.6958 145.265 78.3639 138.361 73.2198C132.721 69.0008 124.982 82.8537 124.982 82.8537Z" fill="#CD8C00"/>
<path d="M24.018 82.8537C20.7015 86.7794 29.2975 104.152 19.8667 124.548C14.0909 137.047 23.4766 139.687 17.2721 159.338C17.2721 159.338 6.75828 142.823 3.03559 123.036C-4.59029 82.6958 3.73501 78.3639 10.6389 73.2198C16.3019 69.0008 24.018 82.8537 24.018 82.8537Z" fill="#CD8C00"/>
<path d="M60.7713 31.1421C54.6345 26.4944 48.8587 3.41367 65.7123 0.435516C82.566 -2.5652 91.2974 10.2048 83.4684 30.578C75.6169 50.9513 60.7713 31.1421 60.7713 31.1421Z" fill="#CD8C00"/>
<path d="M74.5113 88.9228C43.5115 88.9228 44.2334 77.8675 30.6964 81.4323C26.2517 82.6055 25.7102 84.2074 23.4766 83.9366C17.9941 83.3049 12.3311 79.3115 9.98468 74.5735C6.1943 66.9025 22.5065 30.4878 74.5113 30.1268V88.9228Z" fill="#CD8C00"/>
<path d="M74.5114 88.9228C105.511 88.9228 104.789 77.8675 118.326 81.4323C122.771 82.6055 123.312 84.2074 125.546 83.9366C131.029 83.3049 135.654 78.6346 139.038 74.5735C144.882 67.5117 127.712 27.7804 74.5114 30.1268V88.9228Z" fill="#CD8C00"/>
<path d="M71.646 86.441C71.646 86.441 71.4655 86.3282 71.127 86.1026C70.766 85.9221 70.3374 85.4934 69.8184 84.9294C69.2995 84.3428 68.758 83.5982 68.1714 82.7183C67.6074 81.8158 66.9982 80.778 66.4567 79.5822C65.8476 78.409 65.3963 77.0779 64.8323 75.679C64.3811 74.2576 63.7945 72.7686 63.456 71.1667C63.0274 69.5873 62.6889 67.9403 62.4182 66.2256C62.1023 64.5335 61.9895 62.7963 61.7865 61.059C61.7639 59.3217 61.5834 57.5619 61.6737 55.8472C61.7188 54.1325 61.7639 52.4404 62.0121 50.816C62.1926 49.1915 62.3731 47.6122 62.7341 46.1682C63.0499 44.7017 63.2755 43.3029 63.7042 42.062C64.0652 40.7985 64.4262 39.6704 64.742 38.6777C65.1482 37.7076 65.4866 36.8502 65.7799 36.1508C66.3891 34.7745 66.7275 33.9623 66.7275 33.9623C66.7275 33.9623 66.5019 34.7971 66.0958 36.2636C65.8927 36.9856 65.6445 37.8655 65.3512 38.8582C65.1482 39.8961 64.9225 41.0467 64.6292 42.2876C64.2908 43.5285 64.178 44.9273 63.9524 46.3713C63.7042 47.8152 63.614 49.372 63.5012 50.9513C63.3207 52.5307 63.3658 54.2002 63.3207 55.8698C63.253 57.5394 63.4335 59.2315 63.4786 60.9462C63.6591 62.6383 63.7493 64.3305 64.0426 66C64.2908 67.647 64.539 69.294 64.9225 70.8283C65.2158 72.4076 65.6671 73.8741 66.0281 75.2955C66.5019 76.6717 66.8629 78.0255 67.3592 79.1987C68.2617 81.5902 69.2544 83.508 70.0892 84.7263C70.5404 85.2903 70.8563 85.8093 71.2173 86.0349C71.4655 86.2831 71.646 86.441 71.646 86.441Z" fill="#CDC36D"/>
<path d="M67.1336 54.7417C67.1336 54.7417 67.111 56.4113 67.2464 58.8705C67.3592 61.3298 67.6299 64.5787 68.194 67.7599C68.7129 70.9636 69.5477 74.0997 70.2922 76.4236C70.6532 77.5968 70.9916 78.567 71.2624 79.2438C71.5106 79.9207 71.6459 80.3268 71.6459 80.3268C71.6459 80.3268 71.3977 79.9883 70.9691 79.4017C70.563 78.7926 69.9538 77.9352 69.3898 76.8071C69.0739 76.2657 68.7806 75.6339 68.5098 74.9571C68.2391 74.2802 67.9232 73.5808 67.6976 72.8363C67.1787 71.3472 66.7726 69.7002 66.5018 68.0306C65.9378 64.714 65.9378 61.3072 66.2537 58.8254C66.5695 56.3436 67.1336 54.7417 67.1336 54.7417Z" fill="#CDC36D"/>
<path d="M57.8157 35.0453C57.8157 35.0453 57.7255 35.1806 57.5224 35.4514C57.3419 35.7221 57.0486 36.1057 56.8004 36.6472C56.5071 37.1661 56.1913 37.8204 55.9205 38.61C55.5821 39.3771 55.3565 40.3022 54.9955 41.2498C54.7248 42.2425 54.3863 43.3029 54.1607 44.4535C53.89 45.6042 53.6869 46.8225 53.4839 48.086C53.2357 49.3494 53.1454 50.658 52.9424 51.9892C52.8521 53.3203 52.6716 54.674 52.6716 56.0503C52.5814 57.404 52.5814 58.7803 52.6265 60.1114C52.6265 61.4651 52.7619 62.7737 52.8296 64.0372C52.9424 65.3006 53.1229 66.5415 53.2357 67.6922C53.4613 68.8428 53.6643 69.9483 53.8448 70.9411C54.093 71.9338 54.3412 72.8588 54.5443 73.6485C54.7247 74.4833 55.0181 75.1375 55.1985 75.7241C55.5821 76.8748 55.7852 77.5291 55.7852 77.5291C55.7852 77.5291 55.4693 76.9199 54.8827 75.837C54.6345 75.2955 54.2284 74.6412 53.9351 73.8515C53.6192 73.0619 53.2582 72.1819 52.9198 71.1667C52.6491 70.1514 52.3332 69.0459 52.0173 67.8952C51.7917 66.722 51.4984 65.4585 51.3405 64.1725C51.2277 62.8639 50.9795 61.5102 51.0021 60.134C50.9344 58.7577 50.9344 57.3589 51.0021 55.9375C51.0246 54.5386 51.2277 53.1398 51.3405 51.7636C51.5435 50.3873 51.724 49.0561 52.0399 47.7701C52.2881 46.4841 52.6265 45.2432 52.9875 44.0925C53.3259 42.9419 53.7546 41.8815 54.1156 40.8888C54.9278 38.9485 55.7852 37.4143 56.5523 36.4215C56.8907 35.9026 57.2517 35.6093 57.4773 35.3611C57.7029 35.1581 57.8157 35.0453 57.8157 35.0453Z" fill="#CDC36D"/>
<path d="M53.3485 84.1847C53.3485 84.1847 52.8747 83.8689 52.1076 83.2372C51.363 82.5603 50.2801 81.6127 49.2197 80.2364C48.1818 78.8602 46.9635 77.2357 45.9933 75.2954C45.0006 73.3777 44.0981 71.2343 43.4664 69.0007C42.8121 66.7896 42.406 64.4883 42.1804 62.345C42.1127 61.262 41.9999 60.2242 42.045 59.2314C42.0676 58.2387 42.045 57.3137 42.1353 56.4563C42.2481 54.7416 42.4963 53.3202 42.6993 52.3501C42.9024 51.3799 43.0152 50.8159 43.0152 50.8159C43.0152 50.8159 43.0152 51.3799 43.0152 52.3727C42.9475 53.3654 43.0377 54.7868 43.0829 56.4563C43.0829 57.2911 43.2182 58.2162 43.2859 59.1637C43.3536 60.1113 43.5792 61.1266 43.6695 62.1645C44.0079 64.2176 44.4366 66.4061 45.0909 68.5269C45.3842 69.6098 45.7452 70.6477 46.1287 71.6855C46.5348 72.7008 46.8958 73.7161 47.347 74.6637C48.1818 76.5814 49.1069 78.2961 50.0093 79.7175C50.9118 81.1389 51.724 82.2896 52.3558 83.0341C52.9875 83.7561 53.3485 84.1847 53.3485 84.1847Z" fill="#CDC36D"/>
<path d="M40.1499 42.5132C40.1499 42.5132 40.0145 43.0547 39.7663 44.0248C39.4956 44.9724 39.2248 46.3713 38.8638 48.0183C38.5254 49.6653 38.2095 51.6056 37.9614 53.7038C37.7809 54.7417 37.7809 55.8246 37.6455 56.9076C37.5778 58.0131 37.5327 59.1187 37.5101 60.2242C37.5552 61.3297 37.465 62.4578 37.6004 63.5408C37.7132 64.6237 37.7132 65.7067 37.9162 66.722C38.0742 67.7373 38.187 68.7525 38.4352 69.6776C38.6608 70.6026 38.7961 71.5051 39.112 72.2947C39.4053 73.0844 39.6309 73.8289 39.834 74.4832C40.1047 75.115 40.3529 75.6564 40.556 76.1077C40.9395 77.0327 41.1651 77.5516 41.1651 77.5516C41.1651 77.5516 40.8267 77.0778 40.2627 76.2656C39.9919 75.8369 39.6535 75.3406 39.2699 74.754C38.9541 74.1222 38.5931 73.4228 38.2321 72.6332C37.826 71.8661 37.6004 70.941 37.2394 70.016C36.8784 69.091 36.6528 68.0531 36.4497 66.9927C36.2015 65.9323 36.0887 64.8042 35.9759 63.6761C35.818 62.548 35.8857 61.3748 35.818 60.2242C35.8857 57.9003 36.0662 55.599 36.4948 53.4782C36.8558 51.3574 37.465 49.4171 37.9614 47.7701C39.0218 44.4986 40.1499 42.5132 40.1499 42.5132Z" fill="#CDC36D"/>
<path d="M28.5756 57.8551C28.5756 57.8551 28.3951 59.4119 28.5079 61.6906C28.5304 62.8187 28.6658 64.1273 28.8689 65.5261C29.117 66.9024 29.3878 68.3689 29.8841 69.7677C30.0646 70.4897 30.3805 71.1666 30.6287 71.8434C30.8994 72.5203 31.2379 73.152 31.5086 73.8063C31.8019 74.438 32.1854 75.0021 32.4788 75.5887C32.7721 76.1753 33.1556 76.6491 33.4489 77.1229C33.7873 77.5741 34.013 78.0705 34.3063 78.4315C34.5996 78.815 34.8477 79.1309 35.0508 79.4016C35.4569 79.9431 35.6825 80.2815 35.6825 80.2815C35.6825 80.2815 35.3667 80.0559 34.8252 79.6498C34.5544 79.4467 34.2386 79.176 33.855 78.8827C33.4489 78.612 33.1105 78.1833 32.7044 77.7772C32.2983 77.3485 31.8245 76.8973 31.4409 76.3332C31.0574 75.7692 30.561 75.2277 30.2226 74.5734C29.8841 73.9191 29.4329 73.2648 29.1396 72.5428C28.8463 71.8209 28.4853 71.0989 28.2823 70.3318C27.7859 68.8201 27.5152 67.2183 27.4024 65.7517C27.3121 64.2627 27.3572 62.8638 27.5603 61.6906C27.8761 59.2765 28.5756 57.8551 28.5756 57.8551Z" fill="#CDC36D"/>
<path d="M25.3265 48.3116C25.3265 48.3116 24.4015 50.1842 23.7246 53.1398C23.4087 54.6289 23.0929 56.3436 23.0026 58.2162C22.8898 59.1412 22.9801 60.1114 22.9575 61.1041C22.9801 62.0743 23.0929 63.067 23.1831 64.0597C23.3411 65.0524 23.4539 66.0451 23.6569 66.9927C23.9051 67.9403 24.063 68.9105 24.3338 69.813C24.6045 70.7154 24.8753 71.5953 25.1234 72.4076C25.4393 73.2198 25.7326 73.9869 25.9808 74.7089C26.4771 76.1528 27.0638 77.2809 27.4022 78.1157C27.7406 78.9505 27.9437 79.4243 27.9437 79.4243C27.9437 79.4243 27.6278 79.0182 27.1089 78.2736C26.6351 77.5065 25.7777 76.5138 25.0783 75.115C24.7173 74.4381 24.2887 73.6936 23.9277 72.8814C23.5892 72.0466 23.2508 71.1667 22.8898 70.2642C22.574 69.3392 22.3032 68.3464 22.0325 67.3537C21.7843 66.361 21.6489 65.3006 21.4684 64.2628C21.2879 62.1645 21.1977 60.0437 21.491 58.0808C21.5812 57.0881 21.8069 56.1631 22.0099 55.2832C22.213 54.4033 22.4837 53.591 22.777 52.8691C23.3185 51.4025 23.9954 50.2745 24.4466 49.4848C24.9881 48.6951 25.3265 48.3116 25.3265 48.3116Z" fill="#CDC36D"/>
<path d="M13.2561 64.6915C13.2561 64.6915 13.3012 65.9775 13.7073 67.7599C13.9104 68.6623 14.1811 69.6776 14.5647 70.7155C14.7452 71.2569 14.9934 71.7759 15.219 72.3173C15.422 72.8588 15.7605 73.3777 16.0086 73.8967C16.3019 74.4156 16.6178 74.9119 16.9337 75.4083C17.2947 75.8821 17.6105 76.3559 17.949 76.8071C18.6709 77.6645 19.3252 78.4993 19.9795 79.1536C20.5887 79.853 21.1527 80.3945 21.5363 80.778C21.9198 81.1616 22.1454 81.4097 22.1454 81.4097C22.1454 81.4097 21.8521 81.2969 21.3558 81.0487C20.882 80.778 20.1149 80.4847 19.3478 79.8981C18.5356 79.3792 17.6782 78.6346 16.8209 77.7773C16.4373 77.3035 16.0086 76.8523 15.6025 76.3333C15.2641 75.7919 14.8806 75.2504 14.5421 74.6863C14.2714 74.0997 13.933 73.5357 13.7073 72.9265C13.4592 72.3399 13.2787 71.7307 13.1433 71.1216C12.8274 69.9484 12.7372 68.7977 12.7372 67.8275C12.7823 65.9098 13.2561 64.6915 13.2561 64.6915Z" fill="#CDC36D"/>
<path d="M72.6385 39.3771C72.6385 39.3771 72.7288 39.535 72.8867 39.8283C73.0447 40.1216 73.2928 40.5503 73.541 41.1369C74.0599 42.2875 74.7142 43.9571 75.3685 46.0102C75.9551 48.0859 76.6771 50.5 77.1509 53.1397C77.6924 55.7795 78.0985 58.6223 78.3692 61.465C78.5046 62.8864 78.5949 64.3304 78.64 65.7292C78.7302 67.128 78.6625 68.5269 78.6851 69.8806C78.64 72.5654 78.3692 75.0698 78.1211 77.2132C77.8052 79.334 77.4442 81.0938 77.1283 82.3121C76.8125 83.5305 76.632 84.2073 76.632 84.2073C76.632 84.2073 76.6997 83.5079 76.8125 82.2444C76.993 81.0035 77.0381 79.2212 77.196 77.1229C77.2186 76.0625 77.2637 74.9119 77.2863 73.6935C77.2637 72.4752 77.2411 71.2117 77.2186 69.8806C77.1058 67.2409 77.0155 64.4206 76.7222 61.6004C76.4966 58.7802 76.1131 55.9825 75.7295 53.3654C75.346 50.7482 74.9173 48.3115 74.4886 46.2358C74.0148 44.1827 73.6764 42.4229 73.2928 41.2497C72.8867 40.0314 72.6385 39.3771 72.6385 39.3771Z" fill="#CDC36D"/>
<path d="M80.3323 32.5183C80.3323 32.5183 81.0091 33.105 82.2049 34.1428C82.7689 34.6843 83.333 35.4739 84.0775 36.3313C84.7318 37.2338 85.3861 38.2942 86.0404 39.5125C86.5819 40.7534 87.2813 42.0845 87.7325 43.5736C88.2966 45.0401 88.7027 46.642 89.0637 48.3116C89.3795 49.9812 89.6728 51.741 89.8308 53.5234C89.8985 54.4258 89.9661 55.3057 90.0564 56.2308L90.1015 58.9607C90.1241 60.7882 89.8985 62.5932 89.7857 64.3756C89.5149 66.1354 89.3795 67.8952 88.996 69.5648C88.8155 70.3996 88.6576 71.2118 88.4771 72.024C88.2515 72.8137 88.0258 73.5808 87.8002 74.3253C87.3941 75.8369 86.8526 77.1907 86.3788 78.4767C85.9502 79.7627 85.341 80.8682 84.8672 81.8609C84.416 82.8537 83.9422 83.6884 83.5135 84.3653C82.7013 85.6964 82.2275 86.4635 82.2275 86.4635C82.2275 86.4635 82.5884 85.6513 83.2202 84.2074C83.5586 83.508 83.9422 82.628 84.2806 81.5902C84.6416 80.5524 85.1154 79.4243 85.4538 78.1382C85.8373 76.8522 86.2886 75.4985 86.5819 73.9869C86.9654 72.4978 87.2362 70.9185 87.5069 69.294C87.8453 67.6696 87.9582 65.9549 88.1838 64.2176C88.2515 62.4804 88.4545 60.7206 88.3868 58.9382L88.4094 56.2985C88.3643 55.4185 88.2966 54.5386 88.2515 53.6813C88.1386 51.944 87.8905 50.2519 87.6197 48.6274C87.2813 47.003 87.0106 45.4237 86.5593 43.9797C86.2209 42.4906 85.6343 41.1821 85.1831 39.9412C84.619 38.7454 84.1001 37.6399 83.5586 36.7148C82.9494 35.8349 82.4756 35.0227 81.9793 34.4135C80.9189 33.1952 80.3323 32.5183 80.3323 32.5183Z" fill="#CDC36D"/>
<path d="M89.244 85.4708C89.244 85.4708 90.2142 83.7787 91.3648 81.1615C91.9514 79.8529 92.6057 78.3187 93.2149 76.6492C93.8241 74.9796 94.4332 73.1747 94.907 71.3472C95.2003 70.4447 95.3808 69.5197 95.6064 68.6172C95.8095 67.7147 95.99 66.8122 96.1705 65.9323C96.351 65.0524 96.4412 64.1951 96.5766 63.4054C96.712 62.5932 96.7797 61.8261 96.8699 61.1267C96.9376 60.4047 97.073 59.7504 97.0955 59.1864C97.1406 58.5998 97.1858 58.0808 97.2083 57.6747C97.276 56.8399 97.3437 56.3436 97.3437 56.3436C97.3437 56.3436 97.4339 56.8174 97.5468 57.6522C97.637 58.4869 97.8401 59.7053 97.8401 61.1718C97.8626 61.8938 97.9077 62.706 97.8401 63.5408C97.7724 64.3756 97.7724 65.278 97.637 66.1805C97.5016 67.083 97.4339 68.0306 97.2083 68.9782C96.9827 69.9258 96.8248 70.8959 96.5315 71.821C95.99 73.7161 95.3583 75.5662 94.5912 77.2358C93.8466 78.9054 93.0118 80.417 92.2222 81.6579C90.6429 84.0946 89.244 85.4708 89.244 85.4708Z" fill="#CDC36D"/>
<path d="M97.4341 35.0453C97.4341 35.0453 97.5695 35.1581 97.8628 35.3611C98.1335 35.5868 98.5622 35.8575 99.036 36.2862C99.4421 36.7825 100.051 37.3466 100.57 38.0911C101.067 38.8582 101.698 39.693 102.149 40.7308C102.691 41.7236 103.12 42.8742 103.548 44.07C103.954 45.2883 104.361 46.5969 104.631 47.9732C104.902 49.3494 105.195 50.7708 105.308 52.2373C105.511 53.7039 105.511 55.1929 105.601 56.682C105.534 58.1711 105.579 59.6827 105.398 61.1492C105.308 62.6158 105.083 64.0597 104.834 65.436C104.654 66.8348 104.248 68.1208 103.932 69.3617C103.616 70.6026 103.142 71.7307 102.804 72.7911C102.465 73.8515 101.946 74.754 101.585 75.5888C101.224 76.4236 100.818 77.1004 100.48 77.6645C99.8031 78.77 99.4195 79.4017 99.4195 79.4017C99.4195 79.4017 99.6903 78.7249 100.187 77.5291C100.435 76.9425 100.751 76.2205 100.999 75.3632C101.247 74.5058 101.631 73.5808 101.901 72.5204C102.149 71.46 102.533 70.3319 102.736 69.091C102.962 67.8501 103.232 66.5641 103.368 65.2104C103.593 63.8567 103.684 62.4578 103.774 61.0364C103.932 59.615 103.864 58.1711 103.909 56.7271C103.842 55.2832 103.864 53.8167 103.684 52.4178C103.571 50.9964 103.39 49.5976 103.165 48.2665C102.917 46.9353 102.668 45.6493 102.353 44.4535C102.014 43.2578 101.698 42.1297 101.247 41.137C100.886 40.0991 100.39 39.2418 100.006 38.4521C99.6 37.685 99.1037 37.0758 98.7652 36.5344C97.953 35.5868 97.4341 35.0453 97.4341 35.0453Z" fill="#CDC36D"/>
<path d="M108.151 48.3116C108.151 48.3116 109.053 50.2293 109.888 53.2977C110.272 54.8319 110.678 56.6369 110.903 58.6223C111.039 59.615 111.129 60.6303 111.174 61.6907C111.264 62.7286 111.197 63.8115 111.197 64.8719C111.152 65.9323 110.994 67.0153 110.903 68.0531C110.7 69.091 110.52 70.1063 110.249 71.0764C109.933 72.0466 109.708 72.9942 109.302 73.8289C108.895 74.6637 108.58 75.476 108.151 76.1528C107.722 76.8297 107.294 77.4388 106.91 77.9578C106.526 78.4767 106.098 78.8602 105.782 79.2212C105.15 79.8981 104.767 80.2591 104.767 80.2591C104.767 80.2591 105.037 79.8078 105.534 79.0182C105.759 78.6346 106.12 78.2059 106.391 77.6193C106.662 77.0327 106.933 76.401 107.294 75.7016C107.609 75.0022 107.812 74.1899 108.128 73.3777C108.422 72.5655 108.557 71.6179 108.828 70.7154C109.053 69.7904 109.121 68.7977 109.302 67.805C109.392 66.8122 109.505 65.797 109.527 64.7591C109.55 63.7438 109.64 62.706 109.572 61.6907C109.55 60.6754 109.55 59.6827 109.459 58.7126C109.347 56.7723 109.144 54.9899 108.963 53.4331C108.557 50.3873 108.151 48.3116 108.151 48.3116Z" fill="#CDC36D"/>
<path d="M113.746 80.3268C113.746 80.3268 114.085 79.8079 114.626 78.8603C114.852 78.3639 115.19 77.8224 115.438 77.1004C115.709 76.401 116.025 75.6114 116.296 74.7315C116.927 72.9942 117.379 70.896 117.83 68.6398C118.258 66.3836 118.574 63.9469 118.732 61.5103C118.8 60.2919 118.845 59.0736 118.822 57.8778C118.755 56.682 118.8 55.4863 118.642 54.3582C118.552 53.2075 118.416 52.1246 118.236 51.0867C118.123 50.0489 117.807 49.1013 117.604 48.1988C117.401 47.2964 117.063 46.5292 116.837 45.8073C116.611 45.0853 116.341 44.4987 116.093 44.0023C115.641 43.0096 115.371 42.4456 115.371 42.4456C115.371 42.4456 115.732 42.9645 116.363 43.8444C116.679 44.2956 117.063 44.8597 117.401 45.5365C117.74 46.2359 118.236 46.9805 118.484 47.883C118.777 48.7854 119.206 49.733 119.432 50.7934C119.725 51.8538 119.996 52.9594 120.109 54.1551C120.492 56.5016 120.515 59.051 120.402 61.5779C120.221 64.1049 119.838 66.6092 119.274 68.9105C118.687 71.2118 117.943 73.2875 117.153 75.0248C116.792 75.9047 116.341 76.6492 115.957 77.3261C115.596 78.0029 115.145 78.5444 114.852 78.9956C114.536 79.4469 114.197 79.7176 114.017 79.9432C113.859 80.214 113.746 80.3268 113.746 80.3268Z" fill="#CDC36D"/>
<path d="M123.312 48.3116C123.312 48.3116 123.583 48.6274 123.989 49.1915C124.215 49.4622 124.395 49.8683 124.643 50.3196C124.914 50.7708 125.117 51.2897 125.32 51.8763C125.749 53.0496 126.065 54.4935 126.223 56.0277C126.403 57.5845 126.336 59.2315 126.2 60.8785C125.839 64.1725 124.892 67.3537 123.809 69.5648C122.748 71.7984 121.643 73.0393 121.643 73.0393C121.643 73.0393 121.778 72.6557 122.026 71.9789C122.274 71.3246 122.568 70.3544 122.884 69.2038C123.199 68.0531 123.538 66.6994 123.809 65.2555C124.102 63.8115 124.328 62.2322 124.508 60.6754C124.666 59.1187 124.756 57.5393 124.734 56.0728C124.734 55.3283 124.666 54.6289 124.643 53.952C124.531 53.2977 124.531 52.6434 124.395 52.0794C124.192 50.9062 123.967 49.9812 123.696 49.3043C123.425 48.6951 123.312 48.3116 123.312 48.3116Z" fill="#CDC36D"/>
<path d="M123.583 80.3267C123.583 80.3267 124.847 79.4242 126.539 77.9351C127.374 77.168 128.344 76.3107 129.269 75.2728C129.765 74.7765 130.171 74.2124 130.645 73.671C131.096 73.1295 131.48 72.4977 131.886 71.9111C132.202 71.2794 132.653 70.6928 132.879 70.0159C133.127 69.3617 133.443 68.7299 133.578 68.0756C133.759 67.4213 133.917 66.7896 133.962 66.1804C134.052 65.5713 134.12 64.9847 134.075 64.4206C134.052 63.8791 134.075 63.3602 134.052 62.909C133.984 62.4578 133.917 62.0742 133.872 61.7358C133.781 61.0815 133.736 60.6754 133.736 60.6754C133.736 60.6754 133.917 61.0138 134.187 61.623C134.323 61.9388 134.481 62.3224 134.661 62.7511C134.819 63.2023 134.909 63.7212 135.045 64.3078C135.203 64.8944 135.248 65.5262 135.225 66.2256C135.225 66.564 135.248 66.925 135.225 67.286C135.158 67.647 135.112 68.0079 135.045 68.3689C134.955 69.136 134.706 69.858 134.413 70.6026C134.165 71.3697 133.714 72.0239 133.353 72.7459C132.879 73.4002 132.45 74.0771 131.954 74.6637C131.457 75.2503 130.916 75.8143 130.374 76.3107C129.292 77.326 128.163 78.0931 127.171 78.7022C125.072 79.898 123.583 80.3267 123.583 80.3267Z" fill="#CDC36D"/>
<path d="M67.0435 2.64659C67.0435 2.64659 66.8404 3.03014 66.4569 3.68443C66.3441 4.02286 66.2087 4.42897 66.0508 4.92533C65.9831 5.44425 65.8252 5.98573 65.7575 6.5949C65.6221 7.8358 65.5318 9.27975 65.577 10.8591C65.5995 12.4158 65.7123 14.108 65.9154 15.755C66.0959 17.4246 66.3441 19.0941 66.6374 20.6283C66.9307 22.1851 67.2691 23.6065 67.6075 24.8248C67.9685 26.0206 68.3069 27.0359 68.6228 27.7127C68.9612 28.367 69.1643 28.7506 69.1643 28.7506C69.1643 28.7506 68.871 28.4573 68.3521 27.8706C67.9008 27.2615 67.2691 26.359 66.7051 25.1632C66.1636 23.9675 65.5995 22.5461 65.1934 20.9667C64.7422 19.3874 64.4489 17.6727 64.2458 15.9355C64.0879 14.1982 63.9751 12.461 64.0879 10.814C64.1556 9.16694 64.4489 7.6553 64.8099 6.36928C64.9678 5.73755 65.2611 5.17351 65.4642 4.67715C65.7575 4.20335 66.0056 3.79724 66.2087 3.45881C66.7276 2.93989 67.0435 2.64659 67.0435 2.64659Z" fill="#CDC36D"/>
<path d="M71.646 7.11376C71.646 7.11376 71.8942 7.33938 72.3003 7.74549C72.5259 7.92599 72.7064 8.24185 72.932 8.60284C73.1802 8.96383 73.4284 9.36994 73.5863 9.84374C73.7894 10.3175 73.9924 10.8365 74.1052 11.4005C74.2632 11.9645 74.3985 12.5511 74.4662 13.1829C74.6693 14.4238 74.6918 15.7549 74.6918 17.0861C74.6467 19.7484 74.1729 22.343 73.6766 24.2381C73.1576 26.1559 72.6387 27.3742 72.6387 27.3742C72.6387 27.3742 72.6613 26.0431 72.7064 24.1028C72.7741 22.1625 72.9546 19.5904 72.9997 17.0409C73.0448 15.7775 73.0448 14.4915 72.9771 13.3182C72.932 12.145 72.8418 11.0395 72.6387 10.1145C72.571 9.64068 72.4808 9.23457 72.368 8.87358C72.2777 8.51259 72.1875 8.17416 72.0296 7.92599C71.7588 7.42963 71.646 7.11376 71.646 7.11376Z" fill="#CDC36D"/>
<path d="M72.7516 1.11243C72.7516 1.11243 73.1351 1.29292 73.7894 1.65391C74.3986 2.10514 75.3011 2.782 76.0907 3.81984C76.9481 4.83512 77.6926 6.16626 78.3695 7.6779C78.6628 8.445 79.0012 9.23466 79.2043 10.0694C79.475 10.8817 79.5878 11.7616 79.7909 12.6189C79.8585 13.4988 80.0165 14.3562 79.9939 15.2361C80.039 16.0934 79.9714 16.9508 79.8811 17.763C79.836 18.5752 79.6104 19.3649 79.475 20.0869C79.3171 20.8089 79.0463 21.4857 78.8433 22.0949C78.3243 23.2906 77.8054 24.2382 77.3767 24.87C76.9481 25.5017 76.6999 25.8401 76.6999 25.8401C76.6999 25.8401 76.8353 25.434 77.0834 24.7346C77.3993 24.0577 77.6024 23.0199 77.9182 21.8241C78.1439 20.6058 78.3695 19.1844 78.4146 17.6502C78.4597 16.8831 78.4371 16.0934 78.3695 15.3038C78.3695 14.4916 78.2115 13.7019 78.1213 12.8897C77.6249 9.66334 76.542 6.52725 75.3011 4.38388C74.7145 3.30092 74.0827 2.46613 73.6089 1.92465C73.0675 1.40573 72.7516 1.11243 72.7516 1.11243Z" fill="#CDC36D"/>
<path d="M80.3323 5.71498C80.3323 5.71498 80.6481 5.96316 81.1445 6.41439C81.5957 6.93331 82.2726 7.70041 82.8141 8.76082C83.9647 10.8365 84.9349 13.95 85.0477 17.1312C85.0928 18.7331 85.0026 20.335 84.6641 21.8015C84.5288 22.5461 84.3031 23.2229 84.055 23.8772C83.8519 24.5315 83.5135 25.0955 83.2653 25.637C83.0397 26.1785 82.6561 26.6072 82.408 27.0133C82.1598 27.4194 81.8665 27.7353 81.6183 27.9834C81.1445 28.4798 80.8738 28.7731 80.8738 28.7731C80.8738 28.7731 81.0768 28.4347 81.4378 27.8706C81.6183 27.5773 81.8665 27.2615 82.047 26.8102C82.2275 26.3816 82.5208 25.9303 82.7013 25.3888C82.8818 24.8474 83.1525 24.2833 83.2879 23.6516C83.4232 22.9973 83.5812 22.3204 83.6714 21.621C83.8293 20.9216 83.8293 20.1996 83.897 19.4551C83.9422 18.7106 83.9422 17.9435 83.897 17.1989C83.8519 15.6873 83.6037 14.1756 83.333 12.7768C83.1299 12.1 83.0397 11.4005 82.8141 10.7914C82.6336 10.1596 82.4305 9.57304 82.2049 9.05412C81.7762 7.99372 81.325 7.15893 80.964 6.59489C80.5579 6.03084 80.3323 5.71498 80.3323 5.71498Z" fill="#CDC36D"/>
<path d="M61.8767 8.7833C61.8767 8.7833 61.8091 9.12173 61.6286 9.7309C61.5834 10.0242 61.5383 10.3852 61.4932 10.7913C61.4706 11.1974 61.4706 11.6712 61.4481 12.1676C61.4481 14.1981 61.6737 16.9055 62.0798 19.5904C62.4859 22.2752 63.0274 24.9375 63.5914 26.9004C63.8847 27.8706 64.1555 28.6828 64.4037 29.2468C64.6744 29.7657 64.8323 30.1042 64.8323 30.1042C64.8323 30.1042 64.5841 29.8786 64.1329 29.4273C63.7494 28.9535 63.1853 28.2316 62.689 27.284C62.1926 26.3364 61.7188 25.1857 61.3353 23.8997C60.9066 22.6362 60.6584 21.2374 60.4102 19.8386C60.2297 18.4397 60.0944 17.0183 60.1395 15.6872C60.1395 14.3561 60.2974 13.1152 60.5005 12.0548C60.7035 10.9944 61.0871 10.1596 61.3578 9.59553C61.6511 9.07661 61.8767 8.7833 61.8767 8.7833Z" fill="#CDC36D"/>
<path d="M60.839 3.21061C60.839 3.21061 60.1396 4.18077 59.3499 5.73753C58.9212 6.50463 58.5603 7.42966 58.1541 8.44494C57.8157 9.46022 57.4096 10.5432 57.2291 11.6713C56.9584 12.7768 56.8681 13.9275 56.8004 14.9879C56.7553 15.5293 56.8004 16.0483 56.7779 16.5446C56.7553 17.041 56.823 17.5148 56.8681 17.9434C56.9358 18.3721 56.9132 18.7782 56.9809 19.1392C57.0486 19.5002 57.0937 19.7935 57.1389 20.0417C57.2066 20.5606 57.2517 20.8539 57.2517 20.8539C57.2517 20.8539 57.1389 20.5832 56.9358 20.1094C56.7553 19.6356 56.4169 18.9362 56.2364 18.0563C56.1236 17.6276 56.0108 17.1538 55.9431 16.6349C55.898 16.1159 55.7626 15.5745 55.7852 15.0104C55.8077 14.4464 55.74 13.8598 55.8303 13.2506C55.898 12.664 55.9431 12.0548 56.101 11.4682C56.5974 9.00899 57.7255 6.82049 58.8084 5.3991C59.8688 3.93259 60.839 3.21061 60.839 3.21061Z" fill="#CDC36D"/>
<path d="M140.121 83.4403C140.121 83.4403 140.414 83.8464 140.888 84.5684C141.317 85.3129 141.948 86.4184 142.467 87.8173C143.573 90.6149 144.317 94.5858 144.453 98.5792C144.498 100.565 144.43 102.55 144.272 104.4C144.092 106.25 143.821 107.965 143.528 109.431C142.919 112.342 142.264 114.215 142.264 114.215C142.264 114.215 142.287 113.718 142.332 112.861C142.422 112.003 142.445 110.763 142.558 109.319C142.625 107.852 142.716 106.16 142.761 104.332C142.783 102.505 142.828 100.587 142.738 98.6469C142.625 94.7888 142.174 90.9533 141.52 88.1331C141.204 86.7117 140.866 85.5611 140.572 84.7489C140.301 83.9141 140.121 83.4403 140.121 83.4403Z" fill="#CDC36D"/>
<path d="M137.504 85.4709C137.504 85.4709 137.797 85.7642 138.293 86.3057C138.745 86.8923 139.421 87.7045 140.008 88.8326C141.249 91.0211 142.354 94.2474 142.896 97.564C143.437 100.858 143.483 104.22 143.257 106.702C143.031 109.183 142.648 110.808 142.648 110.808C142.648 110.808 142.58 110.402 142.535 109.68C142.467 108.958 142.377 107.942 142.287 106.702C142.174 105.483 142.016 104.062 141.881 102.55C141.7 101.039 141.52 99.4366 141.226 97.8347C140.73 94.6535 139.963 91.5174 139.128 89.2387C138.722 88.0881 138.338 87.163 138.023 86.5087C137.684 85.8319 137.504 85.4709 137.504 85.4709Z" fill="#CDC36D"/>
<path d="M132.991 87.2306C132.991 87.2306 133.826 88.3813 134.796 90.299C135.744 92.2168 136.646 94.9693 137.098 97.767C137.549 100.565 137.662 103.385 137.639 105.506C137.594 107.626 137.413 109.025 137.413 109.025C137.413 109.025 137.323 108.687 137.188 108.078C137.075 107.469 136.849 106.611 136.669 105.573C136.285 103.498 135.879 100.745 135.428 98.0377C134.999 95.3077 134.435 92.6455 133.894 90.6375C133.623 89.6222 133.397 88.7874 133.24 88.1782C133.082 87.5691 132.991 87.2306 132.991 87.2306Z" fill="#CDC36D"/>
<path d="M138.993 96.7066C138.993 96.7066 139.489 97.4511 139.985 98.7146C140.482 99.978 140.82 101.783 140.82 103.565C140.843 105.348 140.572 107.108 140.279 108.394C139.963 109.68 139.625 110.537 139.625 110.537C139.625 110.537 139.444 109.634 139.309 108.326C139.173 107.017 139.151 105.28 139.128 103.588C139.128 101.896 139.083 100.226 139.015 98.9176C138.993 98.2634 138.97 97.7219 138.97 97.3383C138.993 96.9322 138.993 96.7066 138.993 96.7066Z" fill="#CDC36D"/>
<path d="M136.601 112.139C136.601 112.139 136.353 111.958 135.947 111.643C135.564 111.282 134.977 110.763 134.435 110.041C133.307 108.619 132.202 106.408 131.525 104.107C130.871 101.783 130.577 99.3915 130.577 97.6091C130.6 95.8042 130.78 94.631 130.78 94.631C130.78 94.631 130.871 94.9243 131.006 95.4206C131.119 95.917 131.344 96.639 131.525 97.4963C131.954 99.211 132.495 101.445 133.127 103.633C133.759 105.844 134.526 107.988 135.225 109.544C135.586 110.334 135.902 110.988 136.15 111.417C136.466 111.891 136.601 112.139 136.601 112.139Z" fill="#CDC36D"/>
<path d="M135.27 112.929C135.27 112.929 134.39 112.455 133.442 111.304C132.495 110.176 131.57 108.394 131.028 106.521C130.487 104.648 130.284 102.708 130.329 101.264C130.374 99.8202 130.6 98.85 130.6 98.85C130.6 98.85 130.69 99.0756 130.803 99.4817C130.893 99.8878 131.119 100.452 131.277 101.151C131.66 102.505 132.111 104.31 132.63 106.07C133.127 107.83 133.713 109.544 134.255 110.83C134.525 111.462 134.751 112.004 134.954 112.365C135.18 112.703 135.27 112.929 135.27 112.929Z" fill="#CDC36D"/>
<path d="M130.058 111.913C130.058 111.913 129.314 111.485 128.569 110.469C127.802 109.477 127.125 107.92 126.787 106.318C126.448 104.716 126.426 103.069 126.584 101.851C126.764 100.632 127.035 99.8427 127.035 99.8427C127.035 99.8427 127.103 100.046 127.193 100.384C127.261 100.723 127.441 101.219 127.554 101.783C127.825 102.934 128.118 104.445 128.434 105.934C128.727 107.423 129.088 108.89 129.427 109.996C129.585 110.56 129.72 111.011 129.855 111.349C129.991 111.71 130.058 111.913 130.058 111.913Z" fill="#CDC36D"/>
<path d="M144.092 85.358C144.092 85.358 144.318 85.5611 144.656 85.9672C144.972 86.3959 145.468 86.9825 145.874 87.7947C146.754 89.3966 147.454 91.7656 147.724 94.1571C147.995 96.5487 147.86 98.9628 147.544 100.723C147.228 102.482 146.822 103.633 146.822 103.633C146.822 103.633 146.777 103.34 146.732 102.821C146.709 102.302 146.619 101.557 146.574 100.7C146.461 98.9402 146.303 96.6389 146.032 94.3602C145.784 92.0814 145.401 89.8478 144.972 88.1782C144.746 87.3434 144.566 86.644 144.385 86.1702C144.182 85.6513 144.092 85.358 144.092 85.358Z" fill="#CDC36D"/>
<path d="M8.87895 83.4403C8.87895 83.4403 8.72101 83.9141 8.40515 84.7037C8.11185 85.516 7.77342 86.6666 7.45756 88.088C6.80326 90.9082 6.35203 94.7437 6.23922 98.6018C6.14897 100.542 6.1941 102.46 6.21666 104.287C6.26178 106.115 6.35203 107.807 6.41971 109.274C6.53252 110.74 6.55508 111.958 6.64533 112.816C6.71302 113.673 6.71302 114.169 6.71302 114.169C6.71302 114.169 6.05873 112.297 5.44956 109.386C5.15625 107.942 4.88551 106.228 4.70502 104.355C4.52453 102.505 4.45684 100.52 4.52453 98.5341C4.63733 94.5632 5.40443 90.5698 6.50996 87.7721C7.02888 86.3733 7.66061 85.2678 8.08928 84.5232C8.60821 83.8464 8.87895 83.4403 8.87895 83.4403Z" fill="#CDC36D"/>
<path d="M11.5187 85.4709C11.5187 85.4709 11.3382 85.8544 10.9998 86.4862C10.6839 87.1405 10.3004 88.0655 9.89426 89.2161C9.08203 91.4949 8.31493 94.631 7.79601 97.8122C7.50271 99.3915 7.34478 101.016 7.14172 102.528C6.98379 104.039 6.84842 105.461 6.73561 106.679C6.6228 107.897 6.55512 108.935 6.48743 109.657C6.41975 110.379 6.37462 110.785 6.37462 110.785C6.37462 110.785 5.99107 109.161 5.76545 106.679C5.53984 104.197 5.58496 100.858 6.12644 97.5414C6.66793 94.2474 7.75089 91.0211 9.01435 88.81C9.60095 87.7045 10.2778 86.8697 10.729 86.2831C11.2254 85.7642 11.5187 85.4709 11.5187 85.4709Z" fill="#CDC36D"/>
<path d="M16.0311 87.2306C16.0311 87.2306 15.9635 87.5691 15.783 88.1782C15.625 88.7648 15.3994 89.6222 15.1287 90.6375C14.5872 92.6455 14.0006 95.3077 13.5945 98.0377C13.1432 100.745 12.7597 103.52 12.3536 105.573C12.1731 106.611 11.9475 107.469 11.8346 108.078C11.6993 108.687 11.609 109.025 11.609 109.025C11.609 109.025 11.4285 107.604 11.3834 105.483C11.3383 103.362 11.4511 100.542 11.9249 97.7444C12.3761 94.9468 13.2786 92.1942 14.2262 90.2765C15.1738 88.3813 16.0311 87.2306 16.0311 87.2306Z" fill="#CDC36D"/>
<path d="M10.0071 96.7066C10.0071 96.7066 10.0297 96.9322 10.0071 97.3158C9.98458 97.6993 9.98458 98.2408 9.96202 98.8951C9.9169 100.204 9.84921 101.873 9.84921 103.565C9.82665 105.258 9.80409 106.995 9.66872 108.303C9.53335 109.612 9.35285 110.514 9.35285 110.514C9.35285 110.514 9.01443 109.68 8.69856 108.371C8.40526 107.085 8.13452 105.325 8.15708 103.543C8.15708 101.76 8.51807 99.9555 8.99186 98.692C9.51079 97.4511 10.0071 96.7066 10.0071 96.7066Z" fill="#CDC36D"/>
<path d="M12.4214 112.139C12.4214 112.139 12.5568 111.868 12.8275 111.417C13.0982 110.966 13.3915 110.334 13.7525 109.544C14.4745 107.988 15.2416 105.822 15.8508 103.633C16.4825 101.445 17.0465 99.1884 17.4527 97.4963C17.6332 96.639 17.8813 95.9395 17.9716 95.4206C18.107 94.9243 18.1972 94.631 18.1972 94.631C18.1972 94.631 18.4003 95.8267 18.4003 97.6091C18.4003 99.3915 18.1295 101.783 17.4527 104.107C16.7758 106.408 15.6928 108.619 14.5422 110.041C14.0007 110.763 13.4141 111.282 13.0306 111.643C12.6696 111.981 12.4214 112.139 12.4214 112.139Z" fill="#CDC36D"/>
<path d="M13.7524 112.929C13.7524 112.929 13.8652 112.703 14.0683 112.342C14.2714 111.981 14.497 111.439 14.7677 110.808C15.3092 109.522 15.8958 107.807 16.3922 106.047C16.9111 104.287 17.3623 102.505 17.7459 101.129C17.9264 100.452 18.1294 99.8653 18.2197 99.4592C18.3325 99.0531 18.4227 98.8274 18.4227 98.8274C18.4227 98.8274 18.6258 99.775 18.6935 101.242C18.7386 102.686 18.5355 104.626 17.9941 106.498C17.4526 108.371 16.5275 110.153 15.5799 111.282C14.6324 112.455 13.7524 112.929 13.7524 112.929Z" fill="#CDC36D"/>
<path d="M18.964 111.913C18.964 111.913 19.0317 111.71 19.167 111.372C19.3024 111.056 19.4378 110.582 19.5957 110.018C19.9341 108.913 20.2726 107.446 20.5884 105.957C20.9043 104.468 21.1976 102.956 21.4683 101.806C21.5812 101.219 21.7616 100.745 21.8293 100.407C21.9196 100.068 21.9873 99.8653 21.9873 99.8653C21.9873 99.8653 22.258 100.655 22.4385 101.873C22.5964 103.092 22.5739 104.716 22.2354 106.341C21.897 107.942 21.2202 109.499 20.4531 110.492C19.7085 111.507 18.964 111.913 18.964 111.913Z" fill="#CDC36D"/>
<path d="M4.93077 85.358C4.93077 85.358 4.84052 85.6513 4.63747 86.1251C4.45697 86.5989 4.25392 87.2983 4.05086 88.1331C3.62219 89.8027 3.23864 92.0363 2.99046 94.315C2.74228 96.5938 2.58435 98.8951 2.44897 100.655C2.40385 101.535 2.29104 102.279 2.29104 102.776C2.24592 103.295 2.2008 103.588 2.2008 103.588C2.2008 103.588 1.79468 102.46 1.47882 100.677C1.16295 98.9176 1.05015 96.5035 1.29832 94.112C1.56907 91.7204 2.26848 89.3514 3.14839 87.7496C3.5545 86.9373 4.05086 86.3282 4.36673 85.9221C4.70515 85.5611 4.93077 85.358 4.93077 85.358Z" fill="#CDC36D"/>
<path d="M139.038 74.5735C139.038 74.5735 138.361 75.8821 136.985 77.5742C135.631 79.2889 133.533 81.4097 131.028 83.0342C129.81 83.869 128.456 84.5684 127.17 85.1098C126.539 85.4257 125.862 85.6062 125.253 85.8093C124.643 86.0349 124.034 86.1702 123.493 86.3056C122.387 86.5989 121.44 86.7117 120.785 86.7794C120.131 86.8697 119.747 86.9148 119.747 86.9148L119.68 84.6586C119.68 84.6586 120.018 84.6586 120.627 84.6361C121.237 84.6361 122.094 84.6135 123.132 84.4556C123.651 84.3879 124.215 84.3202 124.801 84.1623C125.388 84.0269 126.02 83.9141 126.629 83.6885C127.892 83.3049 129.201 82.7634 130.442 82.0866C132.969 80.778 135.202 78.9279 136.714 77.3486C138.248 75.7918 139.038 74.5735 139.038 74.5735Z" fill="#776B61"/>
<path d="M9.9845 74.5735C9.9845 74.5735 10.6613 75.8821 12.0376 77.5742C13.3913 79.2889 15.4896 81.4097 17.9939 83.0342C19.2123 83.869 20.566 84.5684 21.852 85.1098C22.4837 85.4257 23.138 85.6062 23.7697 85.8093C24.3789 86.0349 24.9881 86.1702 25.5296 86.3056C26.6351 86.5989 27.5827 86.7117 28.237 86.7794C28.8913 86.8697 29.2748 86.9148 29.2748 86.9148L29.3425 84.6586C29.3425 84.6586 29.0041 84.6586 28.3949 84.6361C27.7857 84.6361 26.9284 84.6135 25.8905 84.4556C25.3716 84.3879 24.8076 84.3202 24.221 84.1623C23.6344 84.0269 23.0026 83.9141 22.3935 83.6885C21.13 83.3049 19.8214 82.7634 18.5805 82.0866C16.0536 80.778 13.82 78.9279 12.3084 77.3486C10.7742 75.7918 9.9845 74.5735 9.9845 74.5735Z" fill="#776B61"/>
<path d="M82.408 4.81252C82.408 4.81252 82.769 5.0607 83.3556 5.55706C83.6037 5.85036 83.9873 6.16623 84.2806 6.5949C84.5965 7.02358 84.98 7.51994 85.2959 8.08398C86.6947 10.3402 87.8679 13.7244 88.5222 17.2441C88.635 18.124 88.8155 19.0039 88.8606 19.8838C88.9509 20.7637 88.996 21.621 88.9734 22.4784C89.0186 23.3132 88.9283 24.1254 88.8832 24.9151C88.8381 25.6822 88.7027 26.4267 88.6124 27.1036C88.5222 27.7804 88.3417 28.3896 88.2289 28.9311C88.1161 29.4725 87.9582 29.9463 87.8228 30.3299C87.552 31.097 87.4167 31.5257 87.4167 31.5257L85.3636 30.6232C85.3636 30.6232 85.5215 30.2396 85.8148 29.5853C85.9502 29.2469 86.1532 28.8634 86.2886 28.367C86.424 27.8707 86.6496 27.3517 86.7849 26.72C86.8977 26.1108 87.1008 25.434 87.1911 24.712C87.2813 23.99 87.4392 23.2229 87.4618 22.4333C87.5295 21.6436 87.552 20.8088 87.552 19.974C87.5746 19.1392 87.4618 18.2819 87.4392 17.4246C87.1008 14.0177 86.2209 10.6109 85.0251 8.28704C84.7544 7.70043 84.4385 7.18151 84.1452 6.75284C83.8745 6.3016 83.5586 5.96317 83.333 5.66987C82.7464 5.08326 82.408 4.81252 82.408 4.81252Z" fill="#CD8C00"/>
<path d="M94.907 27.3518C94.907 27.3518 96.8699 28.3219 99.7126 29.9915C102.533 31.6611 106.233 34.2782 108.873 37.9333C109.55 38.8357 110.159 39.7833 110.7 40.7309C111.264 41.6785 111.693 42.6938 112.144 43.6414C112.505 44.6341 112.934 45.5591 113.182 46.5067C113.43 47.4318 113.769 48.3117 113.904 49.1239C114.288 50.7709 114.536 52.1472 114.649 53.1173C114.784 54.0875 114.874 54.6515 114.874 54.6515L112.618 54.832C112.618 54.832 112.573 54.2905 112.505 53.3655C112.46 52.4179 112.302 51.0868 112.031 49.5074C111.941 48.6952 111.693 47.883 111.512 46.9805C111.332 46.0781 110.971 45.1756 110.7 44.2054C110.339 43.2804 109.978 42.2877 109.527 41.3626C109.076 40.4151 108.557 39.4675 107.97 38.5875C105.669 34.9325 102.24 32.1349 99.5321 30.3074C96.8022 28.4573 94.907 27.3518 94.907 27.3518Z" fill="#CD8C00"/>
<path d="M94.907 32.5183C94.907 32.5183 95.5161 32.4958 96.5765 32.4507C97.637 32.4281 99.1486 32.383 100.954 32.4507C101.856 32.4958 102.849 32.5635 103.887 32.7214C104.924 32.8568 106.007 33.0824 107.113 33.3983C108.241 33.6916 109.324 34.1654 110.452 34.6392C111.512 35.2258 112.618 35.8124 113.588 36.5795C114.626 37.2789 115.483 38.1814 116.363 39.0387C117.153 39.9637 117.988 40.8436 118.619 41.8364C118.958 42.3102 119.274 42.784 119.612 43.2352C119.883 43.709 120.154 44.2053 120.424 44.6566C120.966 45.5816 121.44 46.4615 121.801 47.3189C122.613 48.9884 123.154 50.4324 123.493 51.4477C123.876 52.463 124.079 53.027 124.079 53.027L121.913 53.6813C121.913 53.6813 121.733 53.1172 121.44 52.1245C121.146 51.1318 120.718 49.7104 120.041 48.086C119.747 47.2512 119.341 46.3713 118.89 45.4688C118.665 45.0176 118.439 44.5438 118.191 44.07C117.92 43.6187 117.627 43.1675 117.333 42.6937C116.792 41.7236 116.047 40.8662 115.371 39.9412C114.581 39.1064 113.836 38.1814 112.889 37.4819C112.009 36.6923 111.016 36.0831 110.023 35.4739C108.986 34.955 107.97 34.4361 106.91 34.0977C105.872 33.7367 104.812 33.4434 103.796 33.2629C102.781 33.0598 101.833 32.9245 100.931 32.8342C99.126 32.6537 97.637 32.6086 96.5765 32.5635C95.5161 32.5183 94.907 32.5183 94.907 32.5183Z" fill="#CD8C00"/>
<path d="M57.1388 32.5183C57.1388 32.5183 56.5296 32.5409 55.4692 32.5409C54.4088 32.5634 52.8972 32.6085 51.1148 32.8116C50.2123 32.9019 49.2422 33.0372 48.2495 33.2403C47.2342 33.4433 46.1963 33.7141 45.1359 34.0751C44.0755 34.4135 43.0377 34.9324 42.0224 35.4513C41.0297 36.0605 40.037 36.6922 39.1571 37.4593C38.2095 38.1587 37.4649 39.0838 36.6753 39.9186C35.9759 40.8436 35.2313 41.7009 34.7124 42.6711C34.4191 43.1449 34.1484 43.5961 33.8551 44.0474C33.6294 44.5212 33.3813 44.995 33.1556 45.4462C32.6818 46.3487 32.2983 47.206 32.005 48.0634C31.3281 49.6878 30.8995 51.1092 30.6062 52.1019C30.3129 53.0946 30.1324 53.6587 30.1324 53.6587L27.9664 53.0044C27.9664 53.0044 28.1695 52.4178 28.553 51.4251C28.914 50.4098 29.4329 48.9658 30.2452 47.2963C30.6062 46.4389 31.08 45.559 31.6214 44.634C31.8922 44.1827 32.1629 43.7089 32.4337 43.2126C32.7495 42.7613 33.088 42.2875 33.4264 41.8138C34.0581 40.821 34.8929 39.9637 35.6826 39.0161C36.5625 38.1813 37.4198 37.2563 38.4577 36.5569C39.4278 35.7898 40.5333 35.2032 41.5937 34.6165C42.7218 34.1202 43.8048 33.669 44.9329 33.3756C46.0384 33.0598 47.1214 32.8342 48.1592 32.6988C49.1971 32.5409 50.1898 32.4732 51.0922 32.4281C52.9197 32.3378 54.4314 32.3829 55.4692 32.4281C56.5522 32.4957 57.1388 32.5183 57.1388 32.5183Z" fill="#CD8C00"/>
</svg>
