<svg width="47" height="38" viewBox="0 0 47 38" fill="none" xmlns="http://www.w3.org/2000/svg">
<path d="M46.7718 14.4439C46.2831 14.6068 45.4143 12.9778 43.6224 11.2402C41.8848 9.44826 39.1155 7.71067 36.0203 6.84186C32.9252 5.91875 29.7215 5.86444 27.4409 6.19024C25.106 6.51604 23.6941 7.00475 23.6941 7.00475C23.6941 7.00475 22.1194 7.27628 19.8388 8.09079C17.5582 8.85099 14.5717 10.3714 11.6938 12.2719C5.99223 16.0729 0.833701 21.1771 0.0734963 20.5255C-0.578108 19.9825 3.16862 13.738 8.70726 8.52516C11.4223 5.91874 14.6803 3.69244 17.341 2.38923C20.0017 1.03172 21.9565 0.488725 21.9565 0.488725C21.9565 0.488725 24.0199 0 27.0608 0C30.1016 0 34.1741 0.651629 37.7579 2.44354C41.3961 4.18115 44.3826 7.05905 45.7401 9.71977C47.2062 12.3262 47.1519 14.3353 46.7718 14.4439Z" fill="#C07772"/>
<path d="M40.9074 28.3992C41.2332 28.725 38.7897 31.7115 35.4774 34.0464C33.8483 35.1867 32.0021 36.1098 30.4817 36.5985C29.0156 37.0872 27.9296 37.2501 27.9296 37.2501C27.9296 37.2501 26.8436 37.3587 25.2146 37.1415C23.6399 36.9243 21.5764 36.327 19.7845 35.1867C17.9926 34.0464 16.6351 32.4174 16.0378 30.9513C15.4405 29.4852 15.4948 28.4535 15.712 28.4535C16.0921 28.3992 17.6125 31.8744 20.9791 33.1233C22.5539 33.8292 24.2372 34.1007 25.4861 34.1007C26.735 34.1007 27.5495 33.9378 27.5495 33.9378C27.5495 33.9378 30.9704 33.7749 34.2284 32.0916C37.5408 30.354 40.5816 28.0191 40.9074 28.3992Z" fill="#C07772"/>
</svg>
