<svg width="92" height="49" viewBox="0 0 92 49" fill="none" xmlns="http://www.w3.org/2000/svg">
<path d="M2.8299 4.41407C2.8299 4.41407 28.2229 10.564 43.8102 10.564C59.3974 10.564 88.2197 2.85535 88.2197 2.85535C88.2197 2.85535 80.1993 37.204 46.1908 38.0542C13.911 38.8477 2.8299 4.41407 2.8299 4.41407Z" fill="#5F283E"/>
<path d="M18.6156 19.5478L14.5629 23.9123C21.4213 31.4508 31.6238 38.2242 46.1342 37.8558C60.2477 37.5157 69.8835 31.3942 76.3451 24.3374L73.8795 19.8596C73.8795 19.8596 84.1104 7.41812 85.9808 3.25208C79.0091 5.03752 56.7618 10.3939 43.7536 10.3939C28.1663 10.3939 2.77325 4.24399 2.77325 4.24399C2.77325 4.24399 3.085 5.12255 3.68015 6.59625C6.48585 10.4222 14.7329 17.1106 18.6156 19.5478Z" fill="white"/>
<path d="M58.1789 44.7709C58.3206 44.9693 55.9966 46.528 53.3043 47.3499C50.6403 48.2001 47.8062 48.3418 47.8062 48.3418C47.8062 48.3418 44.9722 48.2851 42.2799 47.4916C39.5875 46.7264 37.2069 45.2527 37.3486 45.0543C37.462 44.8276 39.9559 45.8762 42.5633 46.2729C45.1706 46.7264 47.7779 46.5563 47.7779 46.5563C47.7779 46.5563 50.3852 46.6414 52.9925 46.1312C55.5999 45.6494 58.0655 44.5442 58.1789 44.7709Z" fill="#C07772"/>
<path opacity="0.15" d="M43.7536 10.3939C28.1663 10.3939 2.77325 4.24399 2.77325 4.24399C2.77325 4.24399 3.085 5.12255 3.68015 6.59625C5.749 9.37361 10.7086 13.7097 14.7613 16.7988C13.5993 14.9283 12.7491 12.3777 15.8949 11.6692C21.0812 10.4789 32.6724 17.1106 47.2961 15.2118C61.9481 13.3129 73.511 8.83515 75.6366 11.1874C77.7621 13.5397 69.4867 19.6895 70.1952 19.9163C70.9037 20.143 73.9645 24.3941 68.2964 30.7707C67.9563 31.1674 67.5312 31.5359 67.0778 31.9326C70.677 29.7504 73.7378 27.1147 76.2884 24.3374L73.8795 19.8596C73.8795 19.8596 84.1104 7.41812 85.9808 3.25208C79.0091 5.00918 56.7902 10.3939 43.7536 10.3939Z" fill="#2E0035"/>
<path opacity="0.15" d="M15.8098 22.5804L14.5629 23.9124C16.3483 25.8963 18.3888 27.8234 20.6561 29.5522C18.3321 26.7465 16.575 24.0541 15.8098 22.5804Z" fill="#2E0035"/>
<path d="M6.20238 1.155C6.1457 1.63678 5.26714 2.06189 4.67199 2.65704C4.0485 3.22385 3.68008 3.84734 3.68008 3.84734C3.68008 3.84734 2.99991 4.13075 2.34807 4.66921C1.6679 5.17934 1.10109 6.00121 0.619307 5.97287C0.137519 5.97287 -0.202567 4.72589 0.137519 3.45057C0.449264 2.20359 1.35616 1.155 1.35616 1.155C1.35616 1.155 2.51812 0.418145 3.79344 0.304783C5.0971 0.13474 6.25906 0.673209 6.20238 1.155Z" fill="#C07772"/>
<path d="M90.4302 6.45493C89.9485 6.39825 89.5233 5.43467 88.8715 4.81118C88.248 4.15935 87.5679 3.73424 87.5679 3.73424C87.5679 3.73424 87.1994 3.02573 86.6043 2.3739C86.0091 1.69373 85.1022 1.21194 85.0739 0.701813C85.0456 0.220025 86.3492 -0.205082 87.7096 0.106663C89.0699 0.390068 90.1752 1.29696 90.1752 1.29696C90.1752 1.29696 90.9971 2.48726 91.1954 3.8476C91.4222 5.26463 90.912 6.51161 90.4302 6.45493Z" fill="#C07772"/>
<path d="M88.1629 2.20378C88.333 2.65723 78.1304 6.73826 67.4177 9.26056C62.0614 10.5359 56.6484 11.4995 52.539 12.0096C48.4296 12.5197 45.6806 12.6898 45.6806 12.6898C45.6806 12.6898 45.0288 12.7464 43.7251 12.7181C42.4498 12.7181 40.6643 12.5764 38.5955 12.293C36.5266 12.0096 34.146 11.5561 31.6521 11.1027C29.1581 10.6492 26.4091 10.2241 23.7167 9.65732C18.3321 8.58039 13.0324 7.1917 9.09306 6.05809C5.15374 4.89613 2.57476 4.01757 2.63144 3.79085C2.7448 3.25238 13.4292 5.68966 24.1418 7.1917C26.8342 7.53179 29.5549 7.87188 32.0772 8.18362C34.6278 8.52371 36.9517 8.86379 38.9356 9.03383C40.9194 9.23222 42.5348 9.26056 43.6684 9.23222C44.7737 9.20388 45.4539 9.11886 45.4539 9.11886C45.4539 9.11886 48.1462 9.06217 52.1706 8.72209C56.1949 8.41034 61.5513 7.73017 66.8793 6.79494C77.5636 4.95281 87.9929 1.722 88.1629 2.20378Z" fill="#C07772"/>
<g opacity="0.15">
<path opacity="0.15" d="M77.0819 17.7339C77.1386 17.8189 75.4665 18.6408 72.8592 19.6894C70.2519 20.738 66.6526 21.8433 62.94 22.7502C59.2274 23.5721 55.4581 24.1672 52.5958 24.4506C49.7334 24.734 47.8062 24.7907 47.8062 24.7907C47.8062 24.7907 45.8791 24.819 43.0167 24.734C40.1543 24.649 36.3283 24.2806 32.5591 23.6571C28.8181 22.9769 25.1339 22.07 22.4698 21.1915C19.7775 20.3129 18.0487 19.576 18.1054 19.491C18.1621 19.3777 19.9475 19.9161 22.6682 20.5963C25.3889 21.3048 29.0732 22.0417 32.7858 22.5518C36.5267 23.0052 40.2677 23.2603 43.0734 23.2603C45.8791 23.2886 47.7495 23.2036 47.7495 23.2036C47.7495 23.2036 49.62 23.1753 52.4257 22.9769C55.2314 22.8069 58.944 22.3251 62.6283 21.6449C66.2842 20.9081 69.9118 19.9445 72.5758 19.0943C75.2681 18.2724 77.0252 17.6206 77.0819 17.7339Z" fill="black"/>
</g>
</svg>
