<svg width="93" height="56" viewBox="0 0 93 56" fill="none" xmlns="http://www.w3.org/2000/svg">
<path d="M4.2817 24.4725C1.15227 15.3143 5.85913 2.39683 16.6213 5.77756C26.8237 8.98169 35.5759 12.3877 46.5162 11.328C67.5063 9.28444 82.441 -6.71097 89.4377 12.6904C96.4343 32.0918 64.6313 50.8372 45.2441 50.156C30.4874 49.6262 12.6268 40.8464 5.17219 26.617C4.84143 25.9106 4.53612 25.2042 4.2817 24.4725Z" fill="#5F283E"/>
<path d="M45.2696 50.1306C54.9632 50.4586 67.7353 45.9678 77.2508 38.954C52.8006 28.6856 30.9455 33.5045 16.545 39.5847C24.9919 46.0434 35.7541 49.8026 45.2696 50.1306Z" fill="#E2A8C3"/>
<path d="M75.0118 3.55713C67.4808 5.02043 57.889 10.1925 46.5416 11.3025C35.6014 12.3622 26.8491 8.95621 16.6467 5.75208C16.3414 5.67639 16.0615 5.65117 15.7562 5.57548C16.3414 9.66263 19.4963 24.9012 44.3027 25.2291C69.0837 25.5319 74.2485 8.14887 75.0118 3.55713Z" fill="white"/>
<path d="M92.0075 9.33515C91.9821 9.76405 90.0484 9.91543 88.1911 9.23424C86.3338 8.57827 84.8073 7.24112 84.8073 7.24112C84.8073 7.24112 83.5352 5.6769 82.9754 3.7847C82.3648 1.91772 82.6447 0.000292022 83.0772 0.000292022C83.5097 -0.0249373 84.0695 1.58974 85.0108 2.85121C85.9268 4.13791 87.1226 5.07139 87.1226 5.07139C87.1226 5.07139 88.013 6.2824 89.2597 7.26635C90.4555 8.27552 92.033 8.90626 92.0075 9.33515Z" fill="#C07772"/>
<path d="M9.62472 1.64009C10.0572 1.74101 9.93003 3.65844 9.1922 5.47495C8.47981 7.29147 7.18224 8.83046 7.18224 8.83046C7.18224 8.83046 5.65569 10.1424 3.84928 10.8993C2.04286 11.6814 0.134676 11.8328 0.00746318 11.4291C-0.119749 11.0002 1.43224 10.1172 2.65348 9.00706C3.9256 7.89697 4.89242 6.6355 4.89242 6.6355C4.89242 6.6355 6.1391 5.62633 7.23313 4.36486C8.3526 3.07816 9.21764 1.53917 9.62472 1.64009Z" fill="#C07772"/>
<path opacity="0.15" d="M75.0118 3.55713C67.4808 5.02043 57.889 10.1925 46.5416 11.3025C35.6014 12.3622 26.8491 8.95621 16.6467 5.75208C16.3414 5.67639 16.0615 5.65117 15.7562 5.57548C16.0361 7.61906 16.9775 12.4126 20.8956 16.7773C20.4885 14.2039 20.6666 11.353 23.6434 11.353C29.0626 11.353 33.8204 15.1374 45.6003 14.5067C57.3801 13.8759 63.7407 8.50208 66.9211 10.3943C68.4476 11.3025 68.1423 14.431 67.5062 17.408C72.8746 12.2613 74.6047 6.05484 75.0118 3.55713Z" fill="#2E0035"/>
<path d="M58.6014 51.392C58.6778 51.5938 56.4134 52.7796 53.9709 53.6878C52.7497 54.142 51.4775 54.4952 50.5107 54.7222C49.5439 54.9241 48.857 54.9998 48.857 54.9998C48.857 54.9998 48.1955 55.0502 47.1778 54.9998C46.1855 54.9493 44.8625 54.8232 43.5904 54.5709C41.0207 54.0663 38.5782 53.2589 38.6291 53.0571C38.68 52.83 41.2242 53.2337 43.743 53.4608C45.0151 53.5617 46.2618 53.5869 47.1778 53.5365C48.0937 53.486 48.7043 53.4103 48.7043 53.4103C48.7043 53.4103 49.3149 53.3851 50.2308 53.2842C51.1468 53.158 52.3935 52.931 53.6147 52.6282C56.0826 51.9975 58.5251 51.1649 58.6014 51.392Z" fill="#C07772"/>
<path opacity="0.45" d="M45.2697 50.1309C54.9632 50.4589 67.7354 45.9681 77.2254 38.9543C77.1745 38.9291 77.1236 38.9038 77.0728 38.9038C75.6225 38.2983 74.1978 37.7433 72.773 37.2639C72.6712 37.2387 72.5694 37.1882 72.4677 37.163C71.5263 36.835 70.6104 36.5575 69.669 36.28C69.3382 41.0483 65.9035 47.7341 49.3659 47.936C31.8869 48.1378 28.6303 40.6699 28.4267 35.5483C28.096 35.624 27.7652 35.7249 27.4345 35.8259C26.6203 36.0529 25.8316 36.28 25.0429 36.5071C24.534 36.6584 24.0506 36.835 23.5418 36.9864C22.9566 37.163 22.3969 37.3649 21.8371 37.5415C21.1756 37.7685 20.565 37.9956 19.9289 38.2479C19.5982 38.374 19.2674 38.5002 18.9367 38.6263C18.1734 38.9291 17.4101 39.2318 16.6978 39.5346C16.6469 39.5598 16.5705 39.585 16.5197 39.6103C24.992 46.0438 35.7542 49.8029 45.2697 50.1309Z" fill="#E2A8C3"/>
</svg>
