<svg width="92" height="60" viewBox="0 0 92 60" fill="none" xmlns="http://www.w3.org/2000/svg">
<path d="M44.8839 46.3208C42.02 46.3599 39.2737 46.7514 36.6844 47.4561C27.8571 49.9226 19.3044 56.4999 10.1633 56.6957C-0.037154 56.8914 -6.15741 37.7076 9.65325 19.4634C25.4639 1.21924 57.556 -13.6971 82.8609 20.7163C88.1573 27.92 95.6115 40.2916 90.0012 50.4707C84.7833 59.9452 71.0127 54.19 64.5786 50.8231C58.8507 47.8476 51.6712 46.2033 44.8839 46.3208Z" fill="#5F283E"/>
<path d="M57.1636 58.3403C57.0067 58.6535 54.4958 57.6747 51.9065 57.3224C49.3171 56.97 46.767 57.2049 46.767 57.2049C46.767 57.2049 44.2169 57.1266 41.6276 57.6356C39.0775 58.1054 36.6058 59.2408 36.4489 58.9667C36.2527 58.6927 38.489 56.97 41.1568 55.9913C43.8246 54.9733 46.6886 54.7776 46.6886 54.7776C46.6886 54.7776 49.5918 54.8167 52.2988 55.6781C55.0058 56.4611 57.3205 58.0662 57.1636 58.3403Z" fill="#C07772"/>
<path d="M14.0472 43.1107C16.9896 47.3389 20.8344 50.2361 25.15 52.2328C28.9948 50.471 32.8395 48.5917 36.7235 47.4955C39.2737 46.7908 42.0592 46.3993 44.9231 46.3602C51.7103 46.2427 58.8899 47.887 64.5786 50.8233C65.4809 51.2931 66.5009 51.8021 67.6387 52.3111C77.0152 49.8837 83.6847 47.0257 83.6847 47.0257C47.3948 19.1113 14.0472 43.1107 14.0472 43.1107Z" fill="#E2A8C3"/>
<path d="M17.6566 11.7117C26.3269 14.922 46.6101 19.072 72.6997 9.715C53.4365 -6.45421 32.2118 -0.0335102 17.6566 11.7117Z" fill="white"/>
<path opacity="0.45" d="M36.6843 47.4954C39.2344 46.7907 42.0199 46.3992 44.8839 46.3601C51.6711 46.2426 58.8506 47.887 64.5393 50.8232C65.4417 51.2931 66.4617 51.802 67.5994 52.311C76.976 49.8836 83.6455 47.0256 83.6455 47.0256C79.2907 43.6587 74.9751 41.0747 70.738 39.1172C67.364 45.2639 53.6719 46.2818 34.2911 44.2851C24.6399 43.3063 22.9137 40.6832 23.8553 38.021C17.6566 40.5266 14.008 43.1497 14.008 43.1497C16.9504 47.378 20.7952 50.2751 25.1107 52.2718C28.9947 50.4317 32.8395 48.5525 36.6843 47.4954Z" fill="#E2A8C3"/>
<path d="M10.1632 56.6962C8.86852 56.7354 7.65232 56.4222 6.51458 55.8741C5.53377 51.2934 5.21991 43.7765 12.6741 41.31C23.6199 37.669 16.3227 46.3996 22.9137 46.3996C24.9538 46.3996 30.054 46.9477 36.2135 47.6133C27.5824 50.1972 19.1866 56.5005 10.1632 56.6962ZM88.4319 52.5462C88.4319 50.0798 88.0395 46.2038 84.6263 43.6199C75.1321 36.3379 74.779 43.5416 71.1304 47.9265C70.1103 49.1401 66.4225 49.5316 61.5184 49.5316C62.5385 49.9623 63.5977 50.3538 64.5393 50.8628C70.4634 53.8774 82.4293 58.9278 88.4319 52.5462Z" fill="white"/>
<g opacity="0.15">
<path opacity="0.15" d="M10.4771 52.4675C9.18239 52.5066 7.96618 52.1934 6.82844 51.6453C6.59305 50.6274 6.43612 49.4137 6.35765 48.1609C5.72993 50.8231 6.04379 53.6811 6.47535 55.8736C7.61309 56.4217 8.82929 56.7349 10.124 56.6957C19.1474 56.5 27.5432 50.1967 36.1743 47.6128C33.1142 47.2996 30.3287 46.9864 28.0139 46.7515C22.3252 49.4529 16.5581 52.35 10.4771 52.4675Z" fill="#2E0035"/>
<path opacity="0.15" d="M69.561 48.7482C67.8348 49.2963 64.9709 49.492 61.5184 49.492C62.5384 49.9227 63.5977 50.3142 64.5393 50.8232C70.4242 53.8769 82.39 58.9273 88.4318 52.5458C88.4318 51.5279 88.3534 50.275 88.0395 48.9439C83.2532 53.0547 75.4851 51.1755 69.561 48.7482Z" fill="#2E0035"/>
</g>
<path opacity="0.15" d="M17.6566 11.712C19.3828 12.3384 21.6191 13.0431 24.2476 13.6304C26.4054 10.0285 31.9372 5.68278 46.0609 6.19173C58.066 6.66154 64.7355 8.93228 68.3841 11.0856C69.7965 10.6549 71.2088 10.1851 72.6604 9.63699C53.4365 -6.45392 32.2118 -0.0332159 17.6566 11.712Z" fill="#2E0035"/>
</svg>
