<svg width="92" height="57" viewBox="0 0 92 57" fill="none" xmlns="http://www.w3.org/2000/svg">
<path d="M6.60693 15.868C6.60693 15.868 52.2347 -2.76347 81.4365 6.55225C81.4365 6.55225 55.8849 79.2149 6.60693 15.868Z" fill="#5F283E"/>
<path d="M29.8588 38.1884C45.5182 46.5353 57.5639 40.0515 65.8864 30.8849C49.3144 26.4506 37.2687 32.1518 29.8588 38.1884Z" fill="#E2A8C3"/>
<path d="M64.7183 45.2308C64.9008 45.4544 62.1997 48.5472 58.9875 51.2301C57.3814 52.5716 55.5928 53.7267 54.1327 54.4347C52.7091 55.1427 51.6505 55.4781 51.6505 55.4781C51.6505 55.4781 50.6285 55.8135 48.9859 55.9625C47.3798 56.1488 45.1532 55.9998 43.1455 55.3663C38.9113 54.1739 36.0641 50.7457 36.3561 50.5594C36.5386 50.3358 39.6413 53.1305 43.5106 53.8013C45.4087 54.1739 47.3433 54.1739 48.7304 53.8758C50.1175 53.6522 51.03 53.2796 51.03 53.2796C51.03 53.2796 51.9426 53.0933 53.2931 52.5343C54.6437 51.9754 56.3958 51.0811 58.0384 49.9632C61.3966 47.6901 64.4993 44.97 64.7183 45.2308Z" fill="#C07772"/>
<path d="M89.5763 11.508C89.2843 11.359 89.6493 9.79394 89.3573 8.34069C89.1383 6.85017 88.3717 5.69502 88.3717 5.69502C88.3717 5.69502 87.8972 4.3163 86.8752 3.23567C85.8896 2.11779 84.466 1.44705 84.5025 1.14895C84.539 0.813586 86.3276 0.925374 87.8607 1.93147C89.4303 2.86304 90.4159 4.57714 90.4159 4.57714C90.4159 4.57714 91.1824 6.40302 90.9634 8.2289C90.8539 10.1293 89.8683 11.6571 89.5763 11.508Z" fill="#C07772"/>
<path d="M2.73767 23.2458C2.51865 23.4694 1.38708 22.426 0.730044 20.9728C0.0730044 19.5568 0 17.9545 0 17.9545C0 17.9545 0.146009 16.3522 0.839551 14.9362C1.53309 13.5202 2.66466 12.5141 2.92018 12.7377C3.13919 12.924 2.55515 14.1909 2.37264 15.4579C2.15363 16.7621 2.29964 17.9917 2.29964 17.9917C2.29964 17.9917 2.11713 19.2214 2.29964 20.5256C2.44565 21.7926 2.99318 23.0595 2.73767 23.2458Z" fill="#C07772"/>
<path d="M72.8949 5.99336C54.4978 2.86328 32.0124 8.30366 18.4701 12.5516C20.8792 16.576 27.7051 22.7617 46.3578 19.7806C63.9518 16.9859 70.4857 10.2786 72.8949 5.99336Z" fill="white"/>
<path opacity="0.2" d="M72.8949 5.99336C54.4978 2.86328 32.0124 8.30366 18.4701 12.5516C19.8937 14.8992 22.8139 17.9547 28.6542 19.5198C28.1067 18.3646 28.2527 17.0604 30.0048 15.8308C35.0786 12.179 60.9587 7.59567 63.6233 9.71965C64.7914 10.6512 64.2074 12.6262 63.2218 14.6011C68.7336 11.7318 71.5078 8.45271 72.8949 5.99336Z" fill="#2E0035"/>
<path d="M85.0867 8.89984C84.9407 9.57057 74.3915 6.62681 63.8424 7.26028C58.6591 7.59564 53.2568 8.52721 49.3145 9.08616C45.3358 9.75689 42.7076 10.204 42.7076 10.204C42.7076 10.204 32.0855 11.471 21.6459 13.9303C11.1332 16.2034 0.985615 19.9669 0.730099 19.3707C0.474584 18.8118 10.2937 13.8931 20.7698 10.7257C31.2094 7.40933 41.9776 5.58345 41.9776 5.58345C41.9776 5.58345 44.6788 5.21082 48.7305 4.80093C52.8187 4.46556 58.1116 3.86935 63.7694 3.94388C74.9756 4.20472 85.3057 8.3409 85.0867 8.89984Z" fill="#C07772"/>
</svg>
