<svg width="214" height="73" viewBox="0 0 214 73" fill="none" xmlns="http://www.w3.org/2000/svg">
<path d="M199.542 19.1209C181.966 -3.19388 146.22 1.39599 134.058 0C130.673 5.92239 121.134 18.994 103.05 17.6191C84.1826 16.1808 79.0005 4.5687 77.7103 0.211511C68.7844 2.58047 33.525 -4.63216 14.8271 19.0997C9.39122 25.9951 4.33604 40.1877 0 57.5107C15.1867 65.2944 33.7153 67.9594 50.6153 69.7573C69.5247 71.7667 88.5821 72.1686 107.597 71.9994C143.766 71.6609 181.246 68.8478 213.65 54.6975C209.483 38.6859 204.682 25.6566 199.542 19.1209Z" fill="white"/>
<path opacity="0.15" d="M174.71 11.5698C174.71 11.5698 154.617 70.5399 98.0366 65.5058C41.4566 60.4718 35.1112 7.33948 35.1112 7.33948L30.5848 67.071C37.3109 68.2766 44.1005 69.1016 50.6152 69.7996C69.5245 71.8089 88.5819 72.2108 107.597 72.0416C132.661 71.8089 158.382 70.3707 182.579 64.8078L174.71 11.5698Z" fill="#2E0035"/>
<path d="M14.8271 19.121C9.39122 26.0164 4.33604 40.209 0 57.532C12.7754 64.0889 27.8775 66.9866 42.4086 68.8268C43.7834 61.6988 44.7987 52.8787 44.5237 43.0221C44.0161 24.2185 36.5496 11.4854 32.552 5.96484C26.0162 8.65107 19.8189 12.7756 14.8271 19.121Z" fill="#C83634"/>
<path d="M199.542 19.1209C193.81 11.8449 186.153 7.44538 178.01 4.75916C174.055 11.5699 162.083 35.9363 171.792 66.9654C186.302 64.3638 200.409 60.4931 213.65 54.7188C209.483 38.686 204.682 25.6567 199.542 19.1209Z" fill="#C83634"/>
<path opacity="0.2" d="M106.138 29.0196C130.102 27.6025 139.726 9.64492 143.703 2.24193C139.895 2.17848 136.659 2.13617 134.311 1.86121C130.927 7.7836 121.388 20.8552 103.303 19.4803C84.4363 18.042 79.2542 6.42991 77.964 2.07272C76.2084 2.53805 73.4376 2.62265 69.9899 2.66495C72.4012 7.78359 80.4387 30.5214 106.138 29.0196Z" fill="#2E0035"/>
<path d="M105.863 27.1584C129.827 25.7412 139.451 7.7837 143.428 0.38071C139.62 0.317255 136.384 0.274968 134.036 0C130.652 5.92239 121.113 18.994 103.028 17.6191C84.1613 16.1808 78.9792 4.5687 77.689 0.211511C75.9334 0.676842 73.1626 0.761445 69.7149 0.803747C72.1473 5.92239 80.1849 28.6601 105.863 27.1584Z" fill="#C83634"/>
<path opacity="0.6" d="M0 57.532C12.7754 64.0889 27.8775 66.9866 42.4086 68.8268C43.7834 61.6988 44.7987 52.8787 44.5237 43.0221C44.0161 24.2185 36.5496 11.4854 32.552 5.96484C32.1713 6.1129 31.8117 6.28214 31.4521 6.45135C34.7094 18.5499 43.4027 57.0032 22.3147 58.1877C8.43941 58.9703 5.73203 47.4216 6.07045 36.9517C3.93416 42.9798 1.88247 49.9598 0 57.532Z" fill="#C83634"/>
<path opacity="0.6" d="M178.01 4.75916C174.055 11.5699 162.083 35.9363 171.792 66.9654C186.302 64.3638 200.409 60.4931 213.65 54.7188C211.874 47.8657 209.97 41.5626 207.982 36.0632C204.132 48.6483 196.983 61.3391 184.482 53.5977C165.108 41.6049 176.847 12.7121 180.168 5.54175C179.448 5.26678 178.729 4.99182 178.01 4.75916Z" fill="#C83634"/>
<path opacity="0.6" d="M124.349 11.316C127.162 11.2525 129.002 12.437 126.062 17.1115C119.717 27.1584 92.495 26.1008 86.1496 19.2266C82.575 15.3559 86.065 14.3406 89.7876 14.1714C81.5174 10.0046 78.6408 3.2996 77.7313 0.232651C75.9757 0.697981 73.2049 0.782601 69.7572 0.824903C72.1685 5.92239 80.206 28.6601 105.905 27.1584C129.87 25.7412 139.493 7.7837 143.47 0.38071C139.663 0.317256 136.426 0.274968 134.079 0C132.387 2.91889 129.235 7.52988 124.349 11.316Z" fill="#C83634"/>
</svg>
