<svg width="214" height="91" viewBox="0 0 214 91" fill="none" xmlns="http://www.w3.org/2000/svg">
<path opacity="0.25" d="M115.723 42.5536C115.512 42.9334 115.448 43.1444 115.448 43.1444C115.448 43.1444 115.554 42.9334 115.723 42.5536Z" fill="url(#paint0_radial)"/>
<path d="M199.075 37.5305C181.539 15.2681 145.877 19.8472 133.744 18.4545C130.367 24.363 120.85 37.4039 102.808 36.0323C83.9855 34.5974 78.8155 23.0125 77.5283 18.6655C68.6233 21.0289 33.4465 13.8332 14.7924 37.5095C9.36923 44.3887 4.32588 58.548 0 75.8305C15.1511 83.596 33.6364 86.2548 50.4757 88.0484C69.3408 90.0531 88.3536 90.4541 107.324 90.2852C143.408 89.9476 180.801 87.1411 213.129 73.0239C208.993 57.0287 204.203 44.0299 199.075 37.5305Z" fill="#5F2D40"/>
<path d="M77.5283 18.6666C68.6233 21.03 33.4465 13.8343 14.7924 37.5106C9.36923 44.3898 4.32588 58.5492 0 75.8316C15.1511 83.5971 33.6364 86.2559 50.4757 88.0496C65.6268 89.6533 80.8624 90.2231 96.0979 90.3075C96.0135 81.297 95.5493 37.8271 93.6501 34.9784C93.6501 34.9784 93.1437 34.5563 92.3629 33.8178C81.9386 29.8717 78.5201 22.064 77.5283 18.6666Z" fill="#E8C72F"/>
<path d="M120.618 90.033C152.482 89.0834 184.768 85.4117 213.15 73.0249C208.993 57.0297 204.203 44.0309 199.075 37.5104C181.54 15.2479 145.877 19.827 133.744 18.4343C131.486 22.3804 126.464 29.5128 117.981 33.3955L120.618 90.033Z" fill="#E8C72F"/>
<path opacity="0.35" d="M174.28 29.977C174.28 29.977 154.234 88.809 97.786 83.7867C41.3385 78.7645 35.0079 25.7566 35.0079 25.7566L30.4921 85.3483C37.2025 86.5511 43.9762 87.3741 50.4756 88.0704C69.3407 90.0751 88.3535 90.4761 107.324 90.3072C132.33 90.0751 157.99 88.6402 182.13 83.0904L174.28 29.977Z" fill="#8CA030"/>
<path d="M14.7924 37.5316C9.36923 44.4108 4.32588 58.5702 0 75.8526C12.7455 82.3942 27.8123 85.2851 42.3093 87.121C43.6809 80.0097 44.6938 71.2102 44.4194 61.3767C43.913 42.6172 36.464 29.9138 32.4758 24.4062C25.9553 27.0651 19.7725 31.1799 14.7924 37.5316Z" fill="#86B3FB"/>
<path d="M14.7924 37.5316C9.36923 44.4108 4.32588 58.5702 0 75.8526C12.7455 82.3942 27.8123 85.2851 42.3093 87.121C43.6809 80.0097 44.6938 71.2102 44.4194 61.3767C43.913 42.6172 36.464 29.9138 32.4758 24.4062C25.9553 27.0651 19.7725 31.1799 14.7924 37.5316Z" fill="#8CA030"/>
<path d="M199.075 37.5315C193.356 30.2725 185.718 25.8833 177.593 23.2034C173.647 29.9982 161.704 54.3075 171.389 85.264C185.865 82.6685 199.94 78.8068 213.15 73.046C208.993 57.0297 204.203 44.0309 199.075 37.5315Z" fill="#86B3FB"/>
<path d="M199.075 37.5315C193.356 30.2725 185.718 25.8833 177.593 23.2034C173.647 29.9982 161.704 54.3075 171.389 85.264C185.865 82.6685 199.94 78.8068 213.15 73.046C208.993 57.0297 204.203 44.0309 199.075 37.5315Z" fill="#8CA030"/>
<path opacity="0.35" d="M0 75.8526C12.7455 82.3942 27.8123 85.2851 42.3093 87.121C43.6809 80.0097 44.6938 71.2102 44.4194 61.3767C43.913 42.6172 36.464 29.9138 32.4758 24.4062C32.0959 24.554 31.7372 24.7228 31.3785 24.8916C34.6282 36.9619 43.301 75.3251 22.2625 76.5068C8.41965 77.2875 5.71861 65.7659 6.05624 55.3205C3.92495 61.3134 1.87807 68.277 0 75.8526Z" fill="#8CA030"/>
<path opacity="0.35" d="M177.593 23.1823C173.647 29.9771 161.704 54.2864 171.389 85.2429C185.865 82.6473 199.94 78.7857 213.15 73.0249C211.377 66.1879 209.478 59.8995 207.495 54.413C203.654 66.9686 196.522 79.6298 184.05 71.9065C164.721 59.9417 176.433 31.1166 179.746 23.963C179.028 23.6887 178.311 23.4144 177.593 23.1823Z" fill="#8CA030"/>
<path d="M82.7405 3.49463C82.5506 3.30471 82.424 3.2414 82.424 3.34691C82.424 3.34691 72.8226 1.44775 69.9528 6.59661C67.104 11.7244 60.3514 22.001 61.8919 34.4511C61.8919 34.4511 70.7335 26.8755 77.7394 30.3995C81.4322 32.2565 84.8296 34.7887 87.7628 37.7852C90.6326 40.7183 92.173 43.5671 94.8741 46.3525C97.0898 43.2295 95.1273 37.5531 93.5658 34.7254C92.2363 32.3198 90.2528 32.3198 88.6068 30.1463C87.2985 28.4159 85.7792 27.0443 84.7874 24.8919C83.2892 21.6211 82.5717 18.0338 82.2974 14.4254C82.213 12.8428 83.4158 4.16989 82.7405 3.49463Z" fill="#86B3FB"/>
<path d="M82.7405 3.49463C82.5506 3.30471 82.424 3.2414 82.424 3.34691C82.424 3.34691 72.8226 1.44775 69.9528 6.59661C67.104 11.7244 60.3514 22.001 61.8919 34.4511C61.8919 34.4511 70.7335 26.8755 77.7394 30.3995C81.4322 32.2565 84.8296 34.7887 87.7628 37.7852C90.6326 40.7183 92.173 43.5671 94.8741 46.3525C97.0898 43.2295 95.1273 37.5531 93.5658 34.7254C92.2363 32.3198 90.2528 32.3198 88.6068 30.1463C87.2985 28.4159 85.7792 27.0443 84.7874 24.8919C83.2892 21.6211 82.5717 18.0338 82.2974 14.4254C82.213 12.8428 83.4158 4.16989 82.7405 3.49463Z" fill="#8CA030"/>
<path d="M127.265 0.498008C127.476 0.308091 127.582 0.244786 127.582 0.350295C127.582 0.350295 137.837 -1.52778 140.876 3.55777C143.915 8.62222 151.132 18.7722 149.465 31.0535C149.465 31.0535 140.053 23.5835 132.562 27.0442C129.798 28.3314 126.78 29.9984 124.374 31.8132C122.201 33.4591 121.273 36.329 120.576 38.8612C120.428 39.3888 118.74 44.7275 118.55 44.4743C116.187 41.3934 115.786 34.6408 117.453 31.8343C118.867 29.4498 119.226 28.9222 120.977 26.7698C122.37 25.0606 123.995 23.7101 125.029 21.5788C126.611 18.3502 127.392 14.8051 127.687 11.26C127.814 9.74063 126.548 1.17327 127.265 0.498008Z" fill="#86B3FB"/>
<path d="M127.265 0.498008C127.476 0.308091 127.582 0.244786 127.582 0.350295C127.582 0.350295 137.837 -1.52778 140.876 3.55777C143.915 8.62222 151.132 18.7722 149.465 31.0535C149.465 31.0535 140.053 23.5835 132.562 27.0442C129.798 28.3314 126.78 29.9984 124.374 31.8132C122.201 33.4591 121.273 36.329 120.576 38.8612C120.428 39.3888 118.74 44.7275 118.55 44.4743C116.187 41.3934 115.786 34.6408 117.453 31.8343C118.867 29.4498 119.226 28.9222 120.977 26.7698C122.37 25.0606 123.995 23.7101 125.029 21.5788C126.611 18.3502 127.392 14.8051 127.687 11.26C127.814 9.74063 126.548 1.17327 127.265 0.498008Z" fill="#8CA030"/>
<path opacity="0.45" d="M64.234 17.8862L69.5306 7.4408C69.4884 7.4619 69.4673 7.5041 69.4251 7.52521C67.969 10.0996 65.88 13.6236 64.234 17.8862Z" fill="#86B3FB"/>
<path opacity="0.35" d="M77.7603 30.3784C81.4531 32.2354 84.8505 34.7676 87.7837 37.7641C90.6535 40.6972 92.194 43.5249 94.895 46.3314C97.1107 43.2084 95.1482 37.532 93.5867 34.7043C92.2573 32.2987 90.2737 32.2987 88.6278 30.1252C87.3194 28.3948 85.8001 27.0232 84.8083 24.8708C83.3101 21.6 82.5926 18.0127 82.3183 14.4043C82.1917 12.8428 83.3945 4.16989 82.7192 3.49463C82.5293 3.30471 82.4238 3.2414 82.4238 3.34691C82.4238 3.34691 72.8225 1.44775 69.9526 6.5966L69.5095 7.46177C70.649 6.38558 71.8729 5.87914 73.0757 6.5122C78.1823 9.14993 78.3511 20.5871 79.0475 23.035C79.4062 24.3222 77.6337 27.2342 75.84 29.7243C76.4942 29.872 77.1483 30.0619 77.7603 30.3784Z" fill="#8CA030"/>
<path opacity="0.35" d="M130.41 11.7662C130.41 6.132 133.216 2.52358 135.769 0.39229C131.908 -0.451785 127.582 0.328987 127.582 0.328987C127.582 0.223478 127.455 0.286783 127.265 0.4767C126.548 1.15196 127.835 9.71932 127.709 11.2598C127.413 14.8049 126.632 18.35 125.05 21.5786C124.016 23.7099 122.391 25.0604 120.998 26.7696C119.247 28.9009 118.888 29.4496 117.474 31.8341C115.828 34.6195 116.229 41.3932 118.571 44.4741C118.761 44.7273 120.449 39.3886 120.597 38.861C121.272 36.3499 122.222 33.4589 124.396 31.813C126.801 29.9771 129.798 28.3312 132.583 27.044C134.757 26.0311 137.078 25.9678 139.272 26.3476C135.326 23.1612 130.41 17.9913 130.41 11.7662Z" fill="#8CA030"/>
<path d="M93.1435 53.6325C93.1435 56.3546 91.6875 58.5492 89.8939 58.5492C88.1002 58.5492 86.6442 56.3546 86.6442 53.6325C86.6442 50.9103 88.1002 48.7157 89.8939 48.7157C91.6875 48.6946 93.1435 50.9103 93.1435 53.6325Z" fill="#E8C72F"/>
<path d="M92.4261 53.105C92.4261 55.8271 90.9701 58.0217 89.1764 58.0217C87.3828 58.0217 85.9268 55.8271 85.9268 53.105C85.9268 50.3829 87.3828 48.1883 89.1764 48.1883C90.9701 48.1672 92.4261 50.3829 92.4261 53.105Z" fill="#8CA030"/>
<path opacity="0.35" d="M91.4978 49.6444C91.5189 49.9187 91.5611 50.172 91.5611 50.4463C91.5611 53.1684 90.0628 55.363 88.227 55.363C87.3829 55.363 86.6021 54.8777 86.0113 54.0969C86.3278 56.3337 87.6361 58.0007 89.1977 58.0007C90.9913 58.0007 92.4474 55.8062 92.4474 53.084C92.4263 51.7546 92.0675 50.5307 91.4978 49.6444Z" fill="#8CA030"/>
<path d="M93.4812 81.5925C93.4812 84.3147 92.0252 86.5093 90.2315 86.5093C88.4378 86.5093 86.9818 84.3147 86.9818 81.5925C86.9818 78.8704 88.4378 76.6758 90.2315 76.6758C92.0252 76.6547 93.4812 78.8704 93.4812 81.5925Z" fill="#E8C72F"/>
<path d="M92.785 81.0651C92.785 83.7872 91.3289 85.9818 89.5353 85.9818C87.7416 85.9818 86.2856 83.7872 86.2856 81.0651C86.2856 78.3429 87.7416 76.1483 89.5353 76.1483C91.3289 76.1272 92.785 78.3429 92.785 81.0651Z" fill="#8CA030"/>
<path opacity="0.35" d="M91.8565 77.6046C91.8776 77.8789 91.9198 78.1322 91.9198 78.4065C91.9198 81.1286 90.4216 83.3232 88.5857 83.3232C87.7416 83.3232 86.9608 82.8379 86.37 82.0571C86.6865 84.2939 87.9948 85.9609 89.5564 85.9609C91.35 85.9609 92.8061 83.7664 92.8061 81.0442C92.785 79.7148 92.4262 78.4909 91.8565 77.6046Z" fill="#8CA030"/>
<g opacity="0.45">
<path opacity="0.45" d="M84.1544 89.7798C84.3654 80.5371 84.492 66.0612 84.492 66.0612C84.492 66.0612 84.1966 34.8516 83.8379 34.8516C83.4791 34.8516 83.1837 66.0612 83.1837 66.0612C83.1837 66.0612 83.3103 80.4949 83.5213 89.7375C83.7324 89.7375 83.9434 89.7587 84.1544 89.7798Z" fill="#E8C72F"/>
</g>
<g opacity="0.45">
<path opacity="0.45" d="M129.27 88.5979C129.186 88.5979 129.08 86.7621 128.996 84.0188C128.89 81.2756 128.764 77.6039 128.637 73.9532C128.363 66.6309 128.088 59.3085 128.088 59.3085C128.088 59.3085 128.004 51.9862 127.919 44.6427C127.898 40.971 127.919 37.2993 127.983 34.556C128.025 33.1844 128.067 32.0449 128.088 31.243C128.13 30.4412 128.173 29.9769 128.215 29.9769C128.299 29.9769 128.384 31.8128 128.489 34.556C128.595 37.2993 128.721 40.971 128.848 44.6216C129.122 51.944 129.397 59.2663 129.397 59.2663C129.397 59.2663 129.481 66.5887 129.565 73.9321C129.587 77.6038 129.565 81.2756 129.502 84.0188C129.46 85.3904 129.418 86.53 129.397 87.3318C129.375 88.1548 129.333 88.5979 129.27 88.5979Z" fill="#E8C72F"/>
</g>
<g opacity="0.45">
<path opacity="0.45" d="M126.379 51.6908C126.379 52.0495 123.467 52.3449 123.467 52.3449C123.467 52.3449 120.555 52.0495 120.555 51.6908C120.555 51.3321 123.467 51.0366 123.467 51.0366C123.467 51.0366 126.379 51.311 126.379 51.6908Z" fill="#E8C72F"/>
</g>
<g opacity="0.45">
<path opacity="0.45" d="M127.856 81.086C127.856 81.4448 124.944 81.7402 124.944 81.7402C124.944 81.7402 122.032 81.4448 122.032 81.086C122.032 80.7273 124.944 80.4319 124.944 80.4319C124.944 80.4319 127.856 80.7273 127.856 81.086Z" fill="#E8C72F"/>
</g>
<g opacity="0.45">
<g opacity="0.45">
<path opacity="0.35" d="M70.1002 27.8877C70.1002 27.9721 69.7204 27.9088 69.0029 28.0565C68.6442 28.1198 68.2222 28.2464 67.7368 28.4996C67.5047 28.6262 67.2515 28.774 67.0194 28.985C66.8294 29.1538 66.4707 29.4703 66.0909 30.0612C65.901 30.1456 65.8166 30.2722 65.6266 30.3144C65.3523 30.2722 65.1624 30.0612 65.0569 29.8291C64.8037 29.4281 65.0147 28.2886 65.0147 27.9299C65.0991 26.8959 65.2257 25.7986 65.3734 24.8068C65.6477 22.8232 65.9854 21.2406 65.9854 21.2406C65.9854 21.2406 66.8083 17.801 68.0745 14.5091C69.2984 11.1961 70.9232 8.07303 71.092 8.15743C71.2608 8.24184 69.9525 11.4704 68.9818 14.8045C67.9689 18.1386 67.2937 21.536 67.2937 21.536C67.2937 21.536 66.8927 23.0765 66.5129 24.9967C66.323 25.9674 66.1331 27.0225 65.9643 28.0354C65.8799 28.6896 65.8377 28.6474 65.8166 28.9006C65.8166 29.0061 65.8376 29.1327 65.9432 29.1749C66.0065 29.1538 66.0487 29.0694 66.112 29.0272C66.2597 28.8373 67.0616 28.2253 67.568 28.0354C68.1167 27.8033 68.6231 27.7189 69.0029 27.6978C69.7415 27.6767 70.1002 27.8455 70.1002 27.8877Z" fill="#E8C72F"/>
</g>
<g opacity="0.45">
<path opacity="0.35" d="M144.168 21.6206C144.168 21.5995 144.273 21.494 144.717 21.4729C144.906 21.4729 145.265 21.5573 145.497 21.6628C145.729 21.7683 145.962 21.9372 146.173 22.1482C146.806 23.0767 142.986 14.8469 143.071 15.1001C143.071 15.1001 141.826 12.2303 140.391 9.44484C139.673 8.05211 138.956 6.68049 138.196 5.83642C137.457 4.97124 136.761 4.59141 136.803 4.507C136.824 4.4226 137.647 4.65472 138.576 5.47769C139.504 6.27956 140.412 7.65118 141.235 9.0017C142.902 11.7027 144.295 14.5515 144.295 14.5515C144.295 14.5515 145.096 16.3662 145.856 18.4764C146.046 19.004 146.236 19.5526 146.426 20.0802C146.658 20.7976 146.89 21.494 147.08 22.1482C147.27 22.8234 147.46 23.4565 147.629 24.0051L147.671 24.174C147.671 24.2162 147.629 24.1528 147.629 24.1528C147.586 24.1106 147.544 24.0895 147.502 24.0473C147.418 23.984 147.354 23.9629 147.27 23.9418C146.32 22.7812 145.814 22.2115 145.455 22.0005C145.075 21.7683 144.906 21.7472 144.717 21.6839C144.337 21.6417 144.189 21.6628 144.168 21.6206Z" fill="#E8C72F"/>
</g>
<g opacity="0.45">
<path opacity="0.35" d="M22.4522 35.1049C22.5155 35.1893 21.7559 35.6957 20.8274 36.6242C19.8778 37.5316 18.8227 38.9454 17.9786 40.4858C17.1135 42.0052 16.4382 43.63 15.9528 44.875C15.4675 46.12 15.151 46.943 15.151 46.943C15.151 46.943 9.47457 60.0473 9.13694 59.9207C8.79931 59.7729 13.9271 46.4577 13.9271 46.4577C13.9271 46.4577 14.2858 45.6347 14.8344 44.4108C15.4042 43.1869 16.185 41.562 17.1768 40.0216C18.1685 38.4812 19.3925 37.1095 20.4686 36.2655C21.5659 35.4003 22.41 35.0416 22.4522 35.1049Z" fill="#E8C72F"/>
</g>
<g opacity="0.45">
<path opacity="0.35" d="M27.8966 31.813C27.9599 32.1295 26.5039 33.1002 26.5461 33.1424C26.525 33.0791 24.9635 33.881 24.7313 33.67C24.4148 33.3745 25.8286 31.9607 25.8708 32.0029C25.8708 31.9185 27.7911 31.3909 27.8966 31.813Z" fill="#E8C72F"/>
</g>
<g opacity="0.45">
<path opacity="0.35" d="M44.7779 25.2288C44.7568 25.4187 44.1449 25.5031 43.5962 25.6719C43.0476 25.8407 42.5622 26.0939 42.5622 26.0939C42.5622 26.0939 42.0136 26.1994 41.486 26.3894C40.9374 26.5793 40.4098 26.8747 40.2621 26.7481C40.1355 26.6215 40.4731 26.0517 40.9796 25.5875C41.486 25.1233 42.1402 24.8489 42.1402 24.8489C42.1402 24.8489 42.8365 24.7012 43.5118 24.7434C44.1871 24.7856 44.799 25.06 44.7779 25.2288Z" fill="#E8C72F"/>
</g>
<g opacity="0.35">
<g opacity="0.35">
<path opacity="0.35" d="M201.945 56.1432C201.755 56.2277 199.961 52.3027 197.893 48.5466C195.867 44.7693 193.314 41.3719 193.314 41.3719C193.314 41.3719 190.93 37.8268 187.764 34.9781C186.203 33.5431 184.472 32.2981 183.101 31.4752C181.729 30.6522 180.758 30.1879 180.801 30.0824C180.843 29.8925 185.021 31.4118 188.376 34.2606C191.816 37.0038 194.39 40.5701 194.39 40.5701C194.39 40.5701 195.023 41.4563 195.889 42.8491C196.754 44.2418 197.788 46.1409 198.737 48.1034C199.666 50.0659 200.51 52.0495 201.101 53.5477C201.692 55.0881 202.029 56.101 201.945 56.1432Z" fill="#E8C72F"/>
</g>
</g>
<g opacity="0.45">
<path opacity="0.35" d="M204.751 63.4023C204.435 63.5922 203.063 61.7774 203.063 61.7774C203.063 61.7774 202.219 59.6883 202.536 59.4984C202.852 59.3085 204.203 61.1233 204.203 61.1233C204.203 61.1233 205.068 63.2124 204.751 63.4023Z" fill="#E8C72F"/>
</g>
</g>
<g opacity="0.45">
<path opacity="0.45" d="M113.929 38.2282C114.013 38.3759 112.093 39.5998 109.92 40.3384C107.746 41.0769 105.446 41.3091 105.446 41.3091C105.446 41.3091 103.125 41.4146 100.888 40.9503C98.6301 40.5283 96.5411 39.5787 96.6255 39.4099C96.6888 39.2411 98.8412 39.853 101.015 40.0218C103.209 40.2118 105.362 39.9796 105.362 39.9796C105.362 39.9796 107.535 39.9163 109.688 39.431C111.798 38.9667 113.845 38.0594 113.929 38.2282Z" fill="#5F2D40"/>
</g>
<defs>
<radialGradient id="paint0_radial" cx="0" cy="0" r="1" gradientUnits="userSpaceOnUse" gradientTransform="translate(106.48 -14.9315) scale(122.236 125.772)">
<stop offset="0.0806" stop-color="#C47651"/>
<stop offset="1" stop-color="#C47651" stop-opacity="0"/>
</radialGradient>
</defs>
</svg>
