<svg width="214" height="91" viewBox="0 0 214 91" fill="none" xmlns="http://www.w3.org/2000/svg">
<path opacity="0.25" d="M115.381 42.4413C115.171 42.8199 115.108 43.0303 115.108 43.0303C115.108 43.0303 115.192 42.8199 115.381 42.4413Z" fill="url(#paint0_radial)"/>
<path d="M198.472 37.4137C180.992 15.2209 145.441 19.7857 133.346 18.3973C129.98 24.2874 120.493 37.2875 102.507 35.9201C83.7433 34.4897 78.5895 22.9411 77.3063 18.6077C68.4292 20.9637 33.3626 13.7905 14.767 37.3926C9.36076 44.2503 4.33321 58.3653 0.020874 75.5936C15.1246 83.3348 33.5519 85.9853 50.3595 87.7733C69.1655 89.7717 88.1187 90.1714 107.03 90.0031C143.001 89.6665 180.276 86.8688 212.503 72.7959C208.359 56.8718 203.584 43.8927 198.472 37.4137Z" fill="white"/>
<path d="M77.2854 18.6292C68.4083 20.9852 33.3417 13.8119 14.7461 37.4141C9.33988 44.2717 4.31233 58.3868 0 75.6151C15.1037 83.3562 33.531 86.0067 50.3386 87.7948C65.4423 89.3935 80.6301 89.9615 95.8179 90.0456C95.7338 81.0633 95.271 37.7296 93.3778 34.8898C93.3778 34.8898 92.8729 34.4691 92.0946 33.7328C81.7029 29.7991 78.2951 21.9949 77.2854 18.6292Z" fill="#86B3FB"/>
<path d="M120.261 89.7508C152.025 88.8042 184.21 85.144 212.503 72.796C208.359 56.8509 203.584 43.8928 198.472 37.3928C180.992 15.2 145.441 19.7648 133.346 18.3765C131.095 22.3102 126.088 29.4202 117.632 33.2908L120.261 89.7508Z" fill="#86B3FB"/>
<path opacity="0.45" d="M173.755 29.8831C173.755 29.8831 153.771 88.5308 97.5008 83.5243C41.2301 78.5178 34.9194 25.6759 34.9194 25.6759L30.4177 85.0809C37.1071 86.2799 43.8596 87.1004 50.3386 87.7945C69.1446 89.7929 88.0978 90.1926 107.009 90.0243C131.936 89.7929 157.516 88.3625 181.581 82.8301L173.755 29.8831Z" fill="#86B3FB"/>
<path d="M14.7461 37.4141C9.33988 44.2717 4.31233 58.3867 0 75.615C12.7056 82.1361 27.7251 85.018 42.1767 86.8481C43.544 79.7591 44.5538 70.9872 44.2803 61.1845C43.7754 42.4837 36.3498 29.8202 32.3741 24.3298C25.895 27.0014 19.7316 31.1033 14.7461 37.4141Z" fill="#86B3FB"/>
<path opacity="0.45" d="M14.7461 37.4141C9.33988 44.2717 4.31233 58.3867 0 75.615C12.7056 82.1361 27.7251 85.018 42.1767 86.8481C43.544 79.7591 44.5538 70.9872 44.2803 61.1845C43.7754 42.4837 36.3498 29.8202 32.3741 24.3298C25.895 27.0014 19.7316 31.1033 14.7461 37.4141Z" fill="#86B3FB"/>
<path d="M198.472 37.4139C192.772 30.1776 185.157 25.8022 177.058 23.1306C173.124 29.9041 161.218 54.1374 170.873 84.9968C185.304 82.4094 199.335 78.5599 212.503 72.8171C208.359 56.872 203.584 43.8929 198.472 37.4139Z" fill="#86B3FB"/>
<path opacity="0.45" d="M198.472 37.4139C192.772 30.1776 185.157 25.8022 177.058 23.1306C173.124 29.9041 161.218 54.1374 170.873 84.9968C185.304 82.4094 199.335 78.5599 212.503 72.8171C208.359 56.872 203.584 43.8929 198.472 37.4139Z" fill="#86B3FB"/>
<path opacity="0.45" d="M0 75.615C12.7056 82.1361 27.7251 85.018 42.1767 86.8481C43.544 79.7591 44.5538 70.9872 44.2803 61.1845C43.7754 42.4837 36.3498 29.8202 32.3741 24.3298C31.9954 24.4771 31.6378 24.6454 31.2802 24.8136C34.5197 36.8461 43.1654 75.0891 22.1927 76.2671C8.39327 77.0455 5.7007 65.5599 6.03727 55.1472C3.91265 61.1214 1.89322 68.0632 0 75.615Z" fill="#86B3FB"/>
<path opacity="0.45" d="M177.058 23.1096C173.124 29.8831 161.218 54.1163 170.873 84.9758C185.304 82.3884 199.335 78.5389 212.503 72.7961C210.736 65.9805 208.843 59.7118 206.866 54.2425C203.037 66.7588 195.927 79.3803 183.495 71.6812C164.226 59.7539 175.901 31.0191 179.204 23.8879C178.488 23.6355 177.773 23.362 177.058 23.1096Z" fill="#86B3FB"/>
<path d="M82.5023 3.48358C82.313 3.29425 82.2078 3.23115 82.2078 3.33633C82.2078 3.33633 72.6365 1.44309 69.7756 6.57582C66.9358 11.6875 60.2044 21.9319 61.74 34.3431C61.74 34.3431 70.554 26.7912 77.5378 30.3042C81.2191 32.1553 84.6059 34.6796 87.5298 37.6667C90.3907 40.5907 91.9263 43.4305 94.6189 46.2072C96.8276 43.0939 94.8713 37.4353 93.3147 34.6165C91.9894 32.2184 90.012 32.2184 88.3713 30.0517C87.067 28.3268 85.5525 26.9595 84.5638 24.8138C83.0702 21.5533 82.355 17.9772 82.0816 14.3801C81.9764 12.8235 83.1754 4.15672 82.5023 3.48358Z" fill="#86B3FB"/>
<path opacity="0.45" d="M82.5023 3.48358C82.313 3.29425 82.2078 3.23115 82.2078 3.33633C82.2078 3.33633 72.6365 1.44309 69.7756 6.57582C66.9358 11.6875 60.2044 21.9319 61.74 34.3431C61.74 34.3431 70.554 26.7912 77.5378 30.3042C81.2191 32.1553 84.6059 34.6796 87.5298 37.6667C90.3907 40.5907 91.9263 43.4305 94.6189 46.2072C96.8276 43.0939 94.8713 37.4353 93.3147 34.6165C91.9894 32.2184 90.012 32.2184 88.3713 30.0517C87.067 28.3268 85.5525 26.9595 84.5638 24.8138C83.0702 21.5533 82.355 17.9772 82.0816 14.3801C81.9764 12.8235 83.1754 4.15672 82.5023 3.48358Z" fill="#86B3FB"/>
<path d="M126.888 0.496477C127.098 0.307155 127.203 0.244049 127.203 0.349227C127.203 0.349227 137.427 -1.52295 140.456 3.54667C143.485 8.59526 150.679 18.7135 149.017 30.9563C149.017 30.9563 139.635 23.5096 132.168 26.9595C129.412 28.2427 126.404 29.9045 124.006 31.7136C121.839 33.3544 120.914 36.2152 120.219 38.7395C120.072 39.2654 118.389 44.5875 118.2 44.335C115.844 41.2638 115.444 34.5324 117.085 31.7346C118.494 29.3576 118.852 28.8317 120.598 26.686C121.986 24.9821 123.606 23.6358 124.637 21.5112C126.215 18.2927 126.993 14.7587 127.287 11.2247C127.435 9.71016 126.151 1.16962 126.888 0.496477Z" fill="#86B3FB"/>
<g opacity="0.45">
<path opacity="0.45" d="M126.888 0.496477C127.098 0.307155 127.203 0.244049 127.203 0.349227C127.203 0.349227 137.427 -1.52295 140.456 3.54667C143.485 8.59526 150.679 18.7135 149.017 30.9563C149.017 30.9563 139.635 23.5096 132.168 26.9595C129.412 28.2427 126.404 29.9045 124.006 31.7136C121.839 33.3544 120.914 36.2152 120.219 38.7395C120.072 39.2654 118.389 44.5875 118.2 44.335C115.844 41.2638 115.444 34.5324 117.085 31.7346C118.494 29.3576 118.852 28.8317 120.598 26.686C121.986 24.9821 123.606 23.6358 124.637 21.5112C126.215 18.2927 126.993 14.7587 127.287 11.2247C127.435 9.71016 126.151 1.16962 126.888 0.496477Z" fill="#86B3FB"/>
</g>
<path opacity="0.45" d="M64.054 17.8512L69.3339 7.43848C69.2919 7.45951 69.2708 7.50159 69.2288 7.52262C67.7773 10.068 65.6947 13.602 64.054 17.8512Z" fill="#86B3FB"/>
<path opacity="0.45" d="M77.5379 30.2831C81.2191 32.1343 84.6059 34.6586 87.5298 37.6457C90.3907 40.5696 91.9263 43.3884 94.6189 46.1862C96.8277 43.0729 94.8713 37.4143 93.3147 34.5955C91.9894 32.1974 90.0121 32.1974 88.3713 30.0307C87.0671 28.3058 85.5525 26.9384 84.5638 24.7928C83.0703 21.5322 82.355 17.9562 82.0816 14.3591C81.9554 12.8024 83.1544 4.15672 82.4813 3.48358C82.2919 3.29425 82.1868 3.23115 82.1868 3.33633C82.1868 3.33633 72.6155 1.44309 69.7546 6.57582L69.3129 7.4383C70.4488 6.36547 71.6689 5.86062 72.8679 6.49169C77.9586 9.12116 78.1269 20.5225 78.821 22.9627C79.1786 24.2459 77.4116 27.1488 75.6236 29.631C76.2757 29.7783 76.9068 29.9676 77.5379 30.2831Z" fill="#86B3FB"/>
<path opacity="0.45" d="M130.022 11.7293C130.022 6.11279 132.82 2.51567 135.365 0.391061C131.516 -0.45037 127.203 0.327957 127.203 0.327957C127.203 0.222778 127.077 0.285884 126.888 0.475206C126.173 1.14835 127.456 9.68887 127.33 11.2034C127.035 14.7375 126.257 18.2715 124.679 21.4899C123.648 23.6145 122.029 24.9609 120.64 26.6648C118.894 28.7894 118.537 29.3363 117.127 31.7133C115.486 34.49 115.886 41.2425 118.221 44.3138C118.41 44.5662 120.093 39.2441 120.241 38.7182C120.914 36.215 121.86 33.3331 124.027 31.6923C126.425 29.8622 129.412 28.2214 132.189 26.9382C134.356 25.9285 136.669 25.8654 138.857 26.244C134.923 23.1097 130.022 17.9349 130.022 11.7293Z" fill="#86B3FB"/>
<path opacity="0.45" d="M92.8519 53.4646C92.8519 56.1782 91.4005 58.3659 89.6124 58.3659C87.8244 58.3659 86.3729 56.1782 86.3729 53.4646C86.3729 50.751 87.8244 48.5633 89.6124 48.5633C91.4005 48.5422 92.8519 50.751 92.8519 53.4646Z" fill="#86B3FB"/>
<path d="M92.1577 52.9386C92.1577 55.6522 90.7063 57.8399 88.9182 57.8399C87.1302 57.8399 85.6787 55.6522 85.6787 52.9386C85.6787 50.225 87.1302 48.0373 88.9182 48.0373C90.7063 48.0162 92.1577 50.225 92.1577 52.9386Z" fill="white"/>
<path opacity="0.45" d="M91.2321 49.489C91.2532 49.7625 91.2952 50.0149 91.2952 50.2884C91.2952 53.002 89.8017 55.1897 87.9716 55.1897C87.1301 55.1897 86.3518 54.7059 85.7628 53.9276C86.0784 56.1574 87.3826 57.8192 88.9392 57.8192C90.7273 57.8192 92.1787 55.6315 92.1787 52.9179C92.1577 51.5926 91.8001 50.3725 91.2321 49.489Z" fill="#86B3FB"/>
<path opacity="0.45" d="M93.2096 81.3368C93.2096 84.0504 91.7581 86.2381 89.9701 86.2381C88.1821 86.2381 86.7306 84.0504 86.7306 81.3368C86.7306 78.6232 88.1821 76.4355 89.9701 76.4355C91.7581 76.4144 93.2096 78.6232 93.2096 81.3368Z" fill="#86B3FB"/>
<path d="M92.5154 80.811C92.5154 83.5246 91.0639 85.7124 89.2759 85.7124C87.4878 85.7124 86.0364 83.5246 86.0364 80.811C86.0364 78.0974 87.4878 75.9097 89.2759 75.9097C91.0639 75.8887 92.5154 78.0974 92.5154 80.811Z" fill="white"/>
<path opacity="0.45" d="M91.5688 77.3613C91.5898 77.6348 91.6319 77.8872 91.6319 78.1607C91.6319 80.8743 90.1384 83.062 88.3082 83.062C87.4668 83.062 86.6885 82.5782 86.0995 81.7999C86.415 84.0297 87.7192 85.6915 89.2759 85.6915C91.0639 85.6915 92.5154 83.5038 92.5154 80.7902C92.5154 79.4649 92.1578 78.2448 91.5688 77.3613Z" fill="#86B3FB"/>
<g opacity="0.45">
<path opacity="0.45" d="M83.9117 89.5195C84.1221 80.3059 84.2483 65.8754 84.2483 65.8754C84.2483 65.8754 83.9538 34.7634 83.5962 34.7634C83.2386 34.7634 82.9441 65.8754 82.9441 65.8754C82.9441 65.8754 83.0703 80.2638 83.2807 89.4775C83.491 89.4564 83.7014 89.4775 83.9117 89.5195Z" fill="#86B3FB"/>
</g>
<g opacity="0.45">
<path opacity="0.45" d="M128.886 88.3414C128.802 88.3414 128.697 86.5113 128.613 83.7767C128.508 81.042 128.381 77.3818 128.255 73.7426C127.982 66.4432 127.708 59.1438 127.708 59.1438C127.708 59.1438 127.624 51.8444 127.54 44.5239C127.519 40.8637 127.561 37.2035 127.603 34.4688C127.645 33.1015 127.687 31.9656 127.708 31.1662C127.75 30.3669 127.792 29.9041 127.834 29.9041C127.919 29.9041 128.003 31.7342 128.108 34.4688C128.213 37.2035 128.339 40.8637 128.465 44.5029C128.739 51.8023 129.012 59.1017 129.012 59.1017C129.012 59.1017 129.097 66.4011 129.181 73.7216C129.202 77.3818 129.181 81.042 129.118 83.7767C129.076 85.144 129.033 86.2799 129.012 87.0793C128.97 87.8786 128.928 88.3414 128.886 88.3414Z" fill="#86B3FB"/>
</g>
<g opacity="0.45">
<path opacity="0.45" d="M125.983 51.5288C125.983 51.8864 123.08 52.1809 123.08 52.1809C123.08 52.1809 120.177 51.8864 120.177 51.5288C120.177 51.1712 123.08 50.8767 123.08 50.8767C123.08 50.8767 125.983 51.1712 125.983 51.5288Z" fill="#86B3FB"/>
</g>
<g opacity="0.45">
<path opacity="0.45" d="M127.477 80.853C127.477 81.2106 124.595 81.5051 124.595 81.5051C124.595 81.5051 121.692 81.2106 121.692 80.853C121.692 80.4954 124.595 80.2009 124.595 80.2009C124.595 80.2009 127.477 80.4744 127.477 80.853Z" fill="#86B3FB"/>
</g>
<g opacity="0.45">
<g opacity="0.45">
<path opacity="0.45" d="M69.8809 27.8004C69.8809 27.8845 69.5023 27.8214 68.7871 27.9687C68.4295 28.0318 68.0087 28.158 67.5249 28.4104C67.2935 28.5366 67.0411 28.6839 66.8097 28.8942C66.6204 29.0625 66.2628 29.378 65.8841 29.967C65.6948 30.0512 65.6107 30.1774 65.4213 30.2195C65.1479 30.1774 64.9585 29.967 64.8534 29.7356C64.6009 29.336 64.8113 28.2001 64.8113 27.8424C64.8954 26.8117 65.0217 25.7178 65.1689 24.7291C65.4424 22.7518 65.7789 21.1741 65.7789 21.1741C65.7789 21.1741 66.5993 17.7453 67.8615 14.4637C69.0816 11.1611 70.7013 8.04777 70.8486 8.13192C71.0169 8.21606 69.7126 11.4345 68.745 14.7582C67.7353 18.0818 67.0621 21.4686 67.0621 21.4686C67.0621 21.4686 66.6624 23.0042 66.2838 24.9185C66.0945 25.8861 65.9052 26.9379 65.7369 27.9476C65.6527 28.5997 65.6107 28.5576 65.5896 28.8101C65.5896 28.9152 65.6107 29.0415 65.7158 29.0835C65.7789 29.0625 65.821 28.9783 65.8841 28.9363C66.0314 28.747 66.8307 28.1369 67.3356 27.9476C67.8825 27.7162 68.3874 27.6321 68.766 27.611C69.5443 27.59 69.902 27.7583 69.8809 27.8004Z" fill="#86B3FB"/>
</g>
<g opacity="0.45">
<path opacity="0.45" d="M143.738 21.5531C143.738 21.532 143.843 21.4269 144.285 21.4058C144.474 21.4058 144.831 21.49 145.063 21.5951C145.294 21.7003 145.526 21.8686 145.736 22.0789C146.367 23.0045 142.56 14.8006 142.644 15.053C142.644 15.053 141.403 12.1921 139.972 9.41542C139.257 8.02706 138.542 6.65973 137.784 5.8183C137.048 4.95583 136.354 4.57718 136.396 4.49304C136.417 4.40889 137.238 4.64029 138.163 5.46068C139.089 6.26004 139.993 7.62738 140.814 8.97367C142.475 11.6662 143.864 14.5061 143.864 14.5061C143.864 14.5061 144.663 16.3151 145.42 18.4187C145.61 18.9446 145.799 19.4916 145.988 20.0174C146.22 20.7327 146.451 21.4268 146.641 22.0789C146.83 22.7521 147.019 23.3832 147.187 23.9301L147.23 24.0984C147.23 24.1405 147.187 24.0773 147.187 24.0773C147.145 24.0353 147.103 24.0142 147.061 23.9722C146.977 23.909 146.914 23.888 146.83 23.867C145.883 22.71 145.378 22.1421 145.021 21.9317C144.642 21.7003 144.474 21.6793 144.285 21.6162C143.885 21.5741 143.759 21.6162 143.738 21.5531Z" fill="#86B3FB"/>
</g>
<g opacity="0.45">
<path opacity="0.45" d="M22.3821 35.0157C22.4453 35.0999 21.688 35.6047 20.7624 36.5303C19.8158 37.4348 18.764 38.8442 17.9226 40.3799C17.0811 41.8944 16.3869 43.5142 15.9031 44.7553C15.4193 45.9964 15.1038 46.8168 15.1038 46.8168C15.1038 46.8168 9.44514 59.88 9.10857 59.7538C8.772 59.6066 13.8837 46.333 13.8837 46.333C13.8837 46.333 14.2413 45.5126 14.7882 44.2925C15.3562 43.0724 16.1345 41.4527 17.1232 39.9171C18.1119 38.3815 19.332 37.0141 20.4048 36.1727C21.4986 35.2892 22.3611 34.9316 22.3821 35.0157Z" fill="#86B3FB"/>
</g>
<g opacity="0.45">
<path opacity="0.45" d="M27.8093 31.7134C27.8724 32.0289 26.4209 32.9966 26.463 33.0387C26.442 32.9756 24.8853 33.7749 24.6539 33.5646C24.3384 33.2701 25.7478 31.8607 25.7898 31.9027C25.7898 31.8396 27.7251 31.2927 27.8093 31.7134Z" fill="#86B3FB"/>
</g>
<g opacity="0.45">
<path opacity="0.45" d="M44.6591 25.1499C44.6381 25.3392 44.0281 25.4233 43.4811 25.5916C42.9342 25.7599 42.4504 26.0123 42.4504 26.0123C42.4504 26.0123 41.9034 26.1175 41.3776 26.3068C40.8306 26.4961 40.3047 26.7906 40.1575 26.6644C40.0313 26.5382 40.3678 25.9702 40.8727 25.5075C41.3776 25.0447 42.0297 24.7712 42.0297 24.7712C42.0297 24.7712 42.7238 24.6239 43.397 24.666C44.0701 24.7291 44.6802 24.9816 44.6591 25.1499Z" fill="#86B3FB"/>
</g>
<g opacity="0.45">
<path opacity="0.45" d="M201.333 55.9674C201.144 56.0516 199.356 52.1389 197.295 48.3946C195.275 44.6292 192.73 41.2424 192.73 41.2424C192.73 41.2424 190.353 37.7084 187.197 34.8686C185.641 33.4381 183.916 32.197 182.548 31.3766C181.181 30.5562 180.214 30.0934 180.256 29.9883C180.298 29.7989 184.463 31.3135 187.807 34.1534C191.236 36.888 193.803 40.443 193.803 40.443C193.803 40.443 194.434 41.3265 195.296 42.7149C196.159 44.1033 197.189 45.9965 198.136 47.9528C199.062 49.9091 199.903 51.8865 200.492 53.3801C201.081 54.9157 201.418 55.9464 201.333 55.9674Z" fill="#86B3FB"/>
</g>
<g opacity="0.45">
<path opacity="0.45" d="M204.11 63.2037C203.795 63.3931 202.427 61.584 202.427 61.584C202.427 61.584 201.586 59.5014 201.901 59.3121C202.217 59.1228 203.563 60.9319 203.563 60.9319C203.563 60.9319 204.426 63.0354 204.11 63.2037Z" fill="#86B3FB"/>
</g>
</g>
<g opacity="0.45">
<path opacity="0.45" d="M113.593 38.1083C113.677 38.2555 111.763 39.4756 109.596 40.2118C107.43 40.9481 105.137 41.1795 105.137 41.1795C105.137 41.1795 102.823 41.2847 100.593 40.8219C98.3423 40.4012 96.2598 39.4546 96.3439 39.2863C96.407 39.118 98.5527 39.728 100.719 39.8963C102.907 40.0856 105.053 39.8542 105.053 39.8542C105.053 39.8542 107.219 39.7911 109.365 39.3073C111.469 38.8445 113.488 37.961 113.593 38.1083Z" fill="#86B3FB"/>
</g>
<path opacity="0.45" d="M174.576 30.6616C174.576 30.6616 154.592 89.3094 98.3212 84.3028C42.0505 79.2963 35.7398 26.4545 35.7398 26.4545L31.2382 85.8595C37.9275 87.0585 44.68 87.8789 51.159 88.5521C69.965 90.5505 88.9183 90.9501 107.829 90.7819C132.757 90.5505 158.336 89.12 182.401 83.5876L174.576 30.6616Z" fill="#6890CF"/>
<path opacity="0.45" d="M0.820435 76.3725C13.526 82.8936 28.5456 85.7755 42.9972 87.6056C44.3645 80.5165 45.3742 71.7446 45.1007 61.942C44.5959 43.2412 37.1913 30.5776 33.2155 25.0873C32.8369 25.2345 32.4793 25.4028 32.1217 25.5711C35.3612 37.6036 44.0069 75.8466 23.0342 77.0246C9.23475 77.8029 6.52113 66.2964 6.8577 55.9047C4.73309 61.8999 2.71365 68.8417 0.820435 76.3725Z" fill="#6890CF"/>
<path opacity="0.45" d="M177.857 23.8882C173.924 30.6617 162.018 54.8949 171.673 85.7544C186.103 83.167 200.134 79.3174 213.303 73.5747C211.536 66.7591 209.642 60.4904 207.665 55.0211C203.837 67.5374 196.727 80.1589 184.294 72.4598C165.026 60.5325 176.7 31.7976 180.003 24.6665C179.288 24.393 178.573 24.1196 177.857 23.8882Z" fill="#6890CF"/>
<defs>
<radialGradient id="paint0_radial" cx="0" cy="0" r="1" gradientUnits="userSpaceOnUse" gradientTransform="translate(106.161 -14.8589) scale(121.811 125.335)">
<stop offset="0.0806" stop-color="#C4744C"/>
<stop offset="1" stop-color="#C4744C" stop-opacity="0"/>
</radialGradient>
</defs>
</svg>
